<?xml version="1.0" encoding="UTF-8" standalone="no"?>
<!-- Generator: Adobe Illustrator 19.0.0, SVG Export Plug-In . SVG Version: 6.00 Build 0)  -->

<svg
   xmlns:dc="http://purl.org/dc/elements/1.1/"
   xmlns:cc="http://creativecommons.org/ns#"
   xmlns:rdf="http://www.w3.org/1999/02/22-rdf-syntax-ns#"
   xmlns:svg="http://www.w3.org/2000/svg"
   xmlns="http://www.w3.org/2000/svg"
   xmlns:sodipodi="http://sodipodi.sourceforge.net/DTD/sodipodi-0.dtd"
   xmlns:inkscape="http://www.inkscape.org/namespaces/inkscape"
   version="1.1"
   id="Layer_1"
   x="0px"
   y="0px"
   viewBox="0 0 512.001 512.001"
   style="enable-background:new 0 0 512.001 512.001;"
   xml:space="preserve"
   sodipodi:docname="logo.svg"
   inkscape:version="0.92.4 (5da689c313, 2019-01-14)"><metadata
   id="metadata43"><rdf:RDF><cc:Work
       rdf:about=""><dc:format>image/svg+xml</dc:format><dc:type
         rdf:resource="http://purl.org/dc/dcmitype/StillImage" /><dc:title /></cc:Work></rdf:RDF></metadata><defs
   id="defs41">




</defs><sodipodi:namedview
   pagecolor="#ffffff"
   bordercolor="#666666"
   borderopacity="1"
   objecttolerance="10"
   gridtolerance="10"
   guidetolerance="10"
   inkscape:pageopacity="0"
   inkscape:pageshadow="2"
   inkscape:window-width="1024"
   inkscape:window-height="744"
   id="namedview39"
   showgrid="false"
   inkscape:zoom="1.8941614"
   inkscape:cx="119.88714"
   inkscape:cy="258.80897"
   inkscape:window-x="0"
   inkscape:window-y="0"
   inkscape:window-maximized="1"
   inkscape:current-layer="g1043"
   showguides="false" />
<g
   id="g6">
	
<flowRoot
   xml:space="preserve"
   id="flowRoot858"
   style="fill:black;fill-opacity:1;stroke:none;font-family:sans-serif;font-style:normal;font-weight:normal;font-size:40px;line-height:1.25;letter-spacing:0px;word-spacing:0px"><flowRegion
     id="flowRegion860"><rect
       id="rect862"
       width="889.75775"
       height="724.07874"
       x="-208.63286"
       y="-184.46457" /></flowRegion><flowPara
     id="flowPara864" /></flowRoot><g
   id="g1083"
   transform="translate(0,80)"><g
     id="g1015"><g
       id="g1043"
       style="stroke:none;stroke-width:53.09999847;stroke-linecap:butt;stroke-linejoin:round;stroke-miterlimit:4;stroke-dasharray:none;stroke-opacity:0.99549549;paint-order:normal">


<g
   style="stroke:#fffafa;stroke-width:33.09999847;stroke-linecap:butt;stroke-linejoin:round;stroke-miterlimit:4;stroke-dasharray:none;stroke-opacity:0.99549549;paint-order:normal"
   id="g1025"><text
   transform="scale(1.0592995,0.94402005)"
   id="text868"
   y="203.36006"
   x="31.825918"
   style="font-style:normal;font-weight:normal;font-size:5.43355894px;line-height:1.25;font-family:sans-serif;letter-spacing:0px;word-spacing:0px;fill:#000000;fill-opacity:1;stroke:#fffafa;stroke-width:33.10000229;stroke-linecap:butt;stroke-linejoin:round;stroke-miterlimit:4;stroke-dasharray:none;stroke-opacity:0.99549549;paint-order:normal"
   xml:space="preserve"><tspan
     style="font-style:italic;font-variant:normal;font-weight:bold;font-stretch:normal;font-size:98.52853394px;font-family:'Lobster Two';-inkscape-font-specification:'Lobster Two Bold Italic';stroke:#fffafa;stroke-width:33.10000229;stroke-linecap:butt;stroke-linejoin:round;stroke-miterlimit:4;stroke-dasharray:none;stroke-opacity:0.99549549;paint-order:normal"
     y="203.36006"
     x="31.825918"
     id="tspan866"
     sodipodi:role="line"><tspan
   id="tspan870"
   style="font-size:98.52853394px;fill:#00ff72;fill-opacity:1;stroke:#fffafa;stroke-width:33.10000229;stroke-linecap:butt;stroke-linejoin:round;stroke-miterlimit:4;stroke-dasharray:none;stroke-opacity:0.99549549;paint-order:normal">Frut</tspan>me</tspan></text>




<g
   style="stroke:#fffafa;stroke-width:51.25884628;stroke-linecap:butt;stroke-linejoin:round;stroke-miterlimit:4;stroke-dasharray:none;stroke-opacity:0.99549549;paint-order:normal"
   transform="matrix(0.64275948,0,0,0.64873879,122.47314,57.575513)"
   id="g1003"><g
   id="g4"
   style="fill:#f55d2c;fill-opacity:1;stroke:#fffafa;stroke-width:309.79489136;stroke-linecap:butt;stroke-linejoin:round;stroke-miterlimit:4;stroke-dasharray:none;stroke-opacity:0.99549549;paint-order:normal"
   transform="matrix(-0.15605592,0,0,0.17543202,429.20912,97.152514)">
		<path
   d="m 469.333,32 c -20.629,0 -37.845,14.656 -41.792,34.112 l -25.685,8.555 H 53.739 c -16.917,0 -32.512,7.659 -42.731,20.992 -10.155,13.248 -13.504,30.144 -9.088,46.549 l 41.472,148.587 c 6.315,23.403 27.648,39.744 51.84,39.744 l 267.413,0.128 h 0.021 c 17.643,0 32,14.357 32,32 0,17.643 -14.357,32 -32,32 h -3.925 C 349.909,369.899 326.443,352 298.667,352 c -27.776,0 -51.243,17.899 -60.075,42.667 H 166.741 C 157.909,369.899 134.443,352 106.667,352 78.891,352 55.424,369.899 46.592,394.667 H 21.333 C 9.536,394.667 0,404.224 0,416 c 0,11.776 9.536,21.333 21.333,21.333 H 46.592 C 55.424,462.102 78.891,480 106.667,480 c 27.776,0 51.243,-17.899 60.075,-42.667 h 71.851 c 8.831,24.769 32.298,42.667 60.074,42.667 27.776,0 51.243,-17.899 60.075,-42.667 h 3.925 c 41.173,0 74.667,-33.493 74.667,-74.667 0,-32.32 -20.779,-59.648 -49.579,-70.016 l 36.075,-180.33 17.387,-5.781 c 7.531,6.635 17.301,10.795 28.117,10.795 23.552,0 42.667,-19.093 42.667,-42.667 C 512,51.094 492.885,32 469.333,32 Z"
   id="path2"
   style="fill:#f55d2c;fill-opacity:1;stroke:#fffafa;stroke-width:309.79489136;stroke-linecap:butt;stroke-linejoin:round;stroke-miterlimit:4;stroke-dasharray:none;stroke-opacity:0.99549549;paint-order:normal"
   inkscape:connector-curvature="0" />
	</g><text
   id="text890"
   y="220.15265"
   x="331.33582"
   style="font-style:normal;font-weight:normal;font-size:6.61842346px;line-height:1.25;font-family:sans-serif;letter-spacing:0px;word-spacing:0px;fill:#f55d2c;fill-opacity:1;stroke:#fffafa;stroke-width:51.25884628;stroke-linecap:butt;stroke-linejoin:round;stroke-miterlimit:4;stroke-dasharray:none;stroke-opacity:0.99549549;paint-order:normal"
   xml:space="preserve"
   transform="scale(0.94316069,1.0602647)"><tspan
     style="font-style:italic;font-variant:normal;font-weight:bold;font-stretch:normal;font-size:75.89125061px;font-family:'Lobster Two';-inkscape-font-specification:'Lobster Two Bold Italic';fill:#f55d2c;fill-opacity:1;stroke:#fffafa;stroke-width:51.25884628;stroke-linecap:butt;stroke-linejoin:round;stroke-miterlimit:4;stroke-dasharray:none;stroke-opacity:0.99549549;paint-order:normal"
     y="220.15265"
     x="331.33582"
     id="tspan888"
     sodipodi:role="line">Super</tspan></text>




</g></g><text
   xml:space="preserve"
   style="font-style:normal;font-weight:normal;font-size:5.43355894px;line-height:1.25;font-family:sans-serif;letter-spacing:0px;word-spacing:0px;fill:#000000;fill-opacity:1;stroke:none;stroke-width:53.10000229;stroke-linecap:butt;stroke-linejoin:round;stroke-miterlimit:4;stroke-dasharray:none;stroke-opacity:0.99549549;paint-order:normal"
   x="207.25716"
   y="131.77675"
   id="text1031"
   transform="scale(1.0592995,0.94402008)"><tspan
     sodipodi:role="line"
     id="tspan1029"
     x="207.25716"
     y="131.77675"
     style="font-style:italic;font-variant:normal;font-weight:bold;font-stretch:normal;font-size:98.52853394px;font-family:'Lobster Two';-inkscape-font-specification:'Lobster Two Bold Italic';stroke:none;stroke-width:53.10000229;stroke-linecap:butt;stroke-linejoin:round;stroke-miterlimit:4;stroke-dasharray:none;stroke-opacity:0.99549549;paint-order:normal"><tspan
   style="font-size:98.52853394px;fill:#2adc7a;fill-opacity:1;stroke:none;stroke-width:53.10000229;stroke-linecap:butt;stroke-linejoin:round;stroke-miterlimit:4;stroke-dasharray:none;stroke-opacity:0.99549549;paint-order:normal"
   id="tspan1027">Frut</tspan>me</tspan></text>
<g
   id="g1035"
   style="fill:#f55d2c;fill-opacity:1;stroke:none;stroke-width:496.98214722;stroke-linecap:butt;stroke-linejoin:round;stroke-miterlimit:4;stroke-dasharray:none;stroke-opacity:0.99549549;paint-order:normal"
   transform="matrix(-0.11577333,0,0,0.1313586,400.93024,118.53189)">
		<path
   d="m 469.333,32 c -20.629,0 -37.845,14.656 -41.792,34.112 l -25.685,8.555 H 53.739 c -16.917,0 -32.512,7.659 -42.731,20.992 -10.155,13.248 -13.504,30.144 -9.088,46.549 l 41.472,148.587 c 6.315,23.403 27.648,39.744 51.84,39.744 l 267.413,0.128 h 0.021 c 17.643,0 32,14.357 32,32 0,17.643 -14.357,32 -32,32 h -3.925 C 349.909,369.899 326.443,352 298.667,352 c -27.776,0 -51.243,17.899 -60.075,42.667 H 166.741 C 157.909,369.899 134.443,352 106.667,352 78.891,352 55.424,369.899 46.592,394.667 H 21.333 C 9.536,394.667 0,404.224 0,416 c 0,11.776 9.536,21.333 21.333,21.333 H 46.592 C 55.424,462.102 78.891,480 106.667,480 c 27.776,0 51.243,-17.899 60.075,-42.667 h 71.851 c 8.831,24.769 32.298,42.667 60.074,42.667 27.776,0 51.243,-17.899 60.075,-42.667 h 3.925 c 41.173,0 74.667,-33.493 74.667,-74.667 0,-32.32 -20.779,-59.648 -49.579,-70.016 l 36.075,-180.33 17.387,-5.781 c 7.531,6.635 17.301,10.795 28.117,10.795 23.552,0 42.667,-19.093 42.667,-42.667 C 512,51.094 492.885,32 469.333,32 Z"
   id="path1033"
   style="fill:#f55d2c;fill-opacity:1;stroke:none;stroke-width:496.98214722;stroke-linecap:butt;stroke-linejoin:round;stroke-miterlimit:4;stroke-dasharray:none;stroke-opacity:0.99549549;paint-order:normal"
   inkscape:connector-curvature="0" />
	</g><text
   id="text1039"
   y="206.9735"
   x="328.36542"
   style="font-style:normal;font-weight:normal;font-size:4.07464981px;line-height:1.25;font-family:sans-serif;letter-spacing:0px;word-spacing:0px;fill:#f55d2c;fill-opacity:1;stroke:none;stroke-width:50.62569809;stroke-linecap:butt;stroke-linejoin:round;stroke-miterlimit:4;stroke-dasharray:none;stroke-opacity:0.99549549;paint-order:normal"
   xml:space="preserve"
   transform="scale(0.98468762,1.0155505)"><tspan
     style="font-style:italic;font-variant:normal;font-weight:bold;font-stretch:normal;font-size:46.72264481px;font-family:'Lobster Two';-inkscape-font-specification:'Lobster Two Bold Italic';fill:#f55d2c;fill-opacity:1;stroke:none;stroke-width:50.62569809;stroke-linecap:butt;stroke-linejoin:round;stroke-miterlimit:4;stroke-dasharray:none;stroke-opacity:0.99549549;paint-order:normal"
     y="206.9735"
     x="328.36542"
     id="tspan1037"
     sodipodi:role="line">Super</tspan></text>
<ellipse
   style="fill:#ffffff;fill-opacity:1;stroke:none;stroke-width:26.01826859;stroke-linecap:square;stroke-linejoin:round;stroke-miterlimit:4;stroke-dasharray:none;stroke-dashoffset:0;stroke-opacity:1;paint-order:fill markers stroke"
   id="path65"
   cx="346.85535"
   cy="137.93945"
   rx="154.68587"
   ry="139.90359" /></g></g></g><text
   id="text896"
   y="3021.2461"
   x="-2303.5774"
   style="font-style:normal;font-weight:normal;font-size:40px;line-height:1.25;font-family:sans-serif;letter-spacing:0px;word-spacing:0px;fill:#000000;fill-opacity:1;stroke:none"
   xml:space="preserve"><tspan
     style="font-style:italic;font-variant:normal;font-weight:bold;font-stretch:normal;font-size:725.33331299px;font-family:'Lobster Two';-inkscape-font-specification:'Lobster Two Bold Italic'"
     y="3021.2461"
     x="-2303.5774"
     id="tspan894"
     sodipodi:role="line"><tspan
   id="tspan892"
   style="font-size:725.33331299px;fill:#00ff72;fill-opacity:1">Frut</tspan>me</tspan></text>




</g>
<g
   id="g8">
</g>
<g
   id="g10">
</g>
<g
   id="g12">
</g>
<g
   id="g14">
</g>
<g
   id="g16">
</g>
<g
   id="g18">
</g>
<g
   id="g20">
</g>
<g
   id="g22">
</g>
<g
   id="g24">
</g>
<g
   id="g26">
</g>
<g
   id="g28">
</g>
<g
   id="g30">
</g>
<g
   id="g32">
</g>
<g
   id="g34">
</g>
<g
   id="g36">
</g>
</svg>