<?xml version="1.0" encoding="UTF-8" standalone="no"?>
<!-- Created with Inkscape (http://www.inkscape.org/) -->

<svg
   xmlns:dc="http://purl.org/dc/elements/1.1/"
   xmlns:cc="http://creativecommons.org/ns#"
   xmlns:rdf="http://www.w3.org/1999/02/22-rdf-syntax-ns#"
   xmlns:svg="http://www.w3.org/2000/svg"
   xmlns="http://www.w3.org/2000/svg"
   xmlns:sodipodi="http://sodipodi.sourceforge.net/DTD/sodipodi-0.dtd"
   xmlns:inkscape="http://www.inkscape.org/namespaces/inkscape"
   width="210mm"
   height="297mm"
   viewBox="0 0 210 297"
   version="1.1"
   id="svg999"
   inkscape:version="0.92.4 (5da689c313, 2019-01-14)"
   sodipodi:docname="outcart.svg">
  <defs
     id="defs993" />
  <sodipodi:namedview
     id="base"
     pagecolor="#ffffff"
     bordercolor="#666666"
     borderopacity="1.0"
     inkscape:pageopacity="0.0"
     inkscape:pageshadow="2"
     inkscape:zoom="0.26834926"
     inkscape:cx="-699.91097"
     inkscape:cy="941.95047"
     inkscape:document-units="mm"
     inkscape:current-layer="layer1"
     showgrid="false"
     inkscape:window-width="1024"
     inkscape:window-height="744"
     inkscape:window-x="0"
     inkscape:window-y="0"
     inkscape:window-maximized="1" />
  <metadata
     id="metadata996">
    <rdf:RDF>
      <cc:Work
         rdf:about="">
        <dc:format>image/svg+xml</dc:format>
        <dc:type
           rdf:resource="http://purl.org/dc/dcmitype/StillImage" />
        <dc:title></dc:title>
      </cc:Work>
    </rdf:RDF>
  </metadata>
  <g
     inkscape:label="Capa 1"
     inkscape:groupmode="layer"
     id="layer1">
    <g
       id="g853">
      <rect
         y="53.394474"
         x="-48.610226"
         height="220.79745"
         width="229.9138"
         id="rect817"
         style="fill:#ffffff;fill-opacity:1;stroke:#ffffff;stroke-width:6.90447521;stroke-linecap:square;stroke-linejoin:round;stroke-miterlimit:4;stroke-dasharray:none;stroke-dashoffset:0;stroke-opacity:1;paint-order:fill markers stroke" />
      <g
         id="g978"
         transform="translate(-50.422857,13.126636)">
        <g
           id="g1035"
           style="fill:#f55d2c;fill-opacity:1;stroke:none;stroke-width:496.98214722;stroke-linecap:butt;stroke-linejoin:round;stroke-miterlimit:4;stroke-dasharray:none;stroke-opacity:0.99549549;paint-order:normal"
           transform="matrix(-0.32015301,0,0,0.36325172,191.06389,67.878645)">
          <path
             d="m 469.333,32 c -20.629,0 -37.845,14.656 -41.792,34.112 l -25.685,8.555 H 53.739 c -16.917,0 -32.512,7.659 -42.731,20.992 -10.155,13.248 -13.504,30.144 -9.088,46.549 l 41.472,148.587 c 6.315,23.403 27.648,39.744 51.84,39.744 l 267.413,0.128 h 0.021 c 17.643,0 32,14.357 32,32 0,17.643 -14.357,32 -32,32 h -3.925 C 349.909,369.899 326.443,352 298.667,352 c -27.776,0 -51.243,17.899 -60.075,42.667 H 166.741 C 157.909,369.899 134.443,352 106.667,352 78.891,352 55.424,369.899 46.592,394.667 H 21.333 C 9.536,394.667 0,404.224 0,416 c 0,11.776 9.536,21.333 21.333,21.333 H 46.592 C 55.424,462.102 78.891,480 106.667,480 c 27.776,0 51.243,-17.899 60.075,-42.667 h 71.851 c 8.831,24.769 32.298,42.667 60.074,42.667 27.776,0 51.243,-17.899 60.075,-42.667 h 3.925 c 41.173,0 74.667,-33.493 74.667,-74.667 0,-32.32 -20.779,-59.648 -49.579,-70.016 l 36.075,-180.33 17.387,-5.781 c 7.531,6.635 17.301,10.795 28.117,10.795 23.552,0 42.667,-19.093 42.667,-42.667 C 512,51.094 492.885,32 469.333,32 Z"
             id="path1033"
             style="fill:#f55d2c;fill-opacity:1;stroke:none;stroke-width:496.98214722;stroke-linecap:butt;stroke-linejoin:round;stroke-miterlimit:4;stroke-dasharray:none;stroke-opacity:0.99549549;paint-order:normal"
             inkscape:connector-curvature="0" />
        </g>
        <path
           d="m 77.313758,108.97406 h 82.772182 c 4.02238,0 7.73043,1.93751 10.16021,5.3104 2.41457,3.35138 3.21086,7.62562 2.16086,11.77564 l -9.86084,37.58847 c -1.50153,5.92033 -6.5739,10.05417 -12.32606,10.05417 l -63.583099,0.0324 h -0.0052 c -2.953755,-0.33045 -4.4645,-3.45255 -5.965463,-9.61728 l -8.577565,-45.61863 c 0,0 -3.416357,-8.81124 5.225003,-9.52519 z"
           id="path1033-3"
           style="fill:#ffffff;fill-opacity:1;stroke:none;stroke-width:121.88698578;stroke-linecap:butt;stroke-linejoin:round;stroke-miterlimit:4;stroke-dasharray:none;stroke-opacity:0.99549549;paint-order:normal"
           inkscape:connector-curvature="0"
           sodipodi:nodetypes="csccccccccc" />
      </g>
    </g>
    <ellipse
       style="fill:#f55d2c;fill-opacity:1;stroke:none;stroke-width:6.8840003;stroke-linecap:square;stroke-linejoin:round;stroke-miterlimit:4;stroke-dasharray:none;stroke-dashoffset:0;stroke-opacity:1;paint-order:fill markers stroke"
       id="path818"
       cx="71.72905"
       cy="156.25331"
       rx="35.74128"
       ry="11.585104" />
    <ellipse
       style="fill:#f55d2c;fill-opacity:1;stroke:none;stroke-width:6.07709503;stroke-linecap:square;stroke-linejoin:round;stroke-miterlimit:4;stroke-dasharray:none;stroke-dashoffset:0;stroke-opacity:1;paint-order:fill markers stroke"
       id="path818-3"
       cx="151.29283"
       cy="-82.098068"
       rx="27.87125"
       ry="11.577744"
       transform="matrix(-0.07289085,0.99733992,-0.99901798,-0.04430652,0,0)" />
  </g>
</svg>
