<?xml version="1.0" encoding="UTF-8" standalone="no"?>
<svg
   xmlns:dc="http://purl.org/dc/elements/1.1/"
   xmlns:cc="http://creativecommons.org/ns#"
   xmlns:rdf="http://www.w3.org/1999/02/22-rdf-syntax-ns#"
   xmlns:svg="http://www.w3.org/2000/svg"
   xmlns="http://www.w3.org/2000/svg"
   xmlns:sodipodi="http://sodipodi.sourceforge.net/DTD/sodipodi-0.dtd"
   xmlns:inkscape="http://www.inkscape.org/namespaces/inkscape"
   height="494pt"
   viewBox="0 -46 494.00002 494"
   width="494pt"
   version="1.1"
   id="svg10"
   sodipodi:docname="1334732.svg"
   inkscape:version="0.92.5 (2060ec1f9f, 2020-04-08)">
  <metadata
     id="metadata16">
    <rdf:RDF>
      <cc:Work
         rdf:about="">
        <dc:format>image/svg+xml</dc:format>
        <dc:type
           rdf:resource="http://purl.org/dc/dcmitype/StillImage" />
      </cc:Work>
    </rdf:RDF>
  </metadata>
  <defs
     id="defs14" />
  <sodipodi:namedview
     pagecolor="#ffffff"
     bordercolor="#666666"
     borderopacity="1"
     objecttolerance="10"
     gridtolerance="10"
     guidetolerance="10"
     inkscape:pageopacity="0"
     inkscape:pageshadow="2"
     inkscape:window-width="1024"
     inkscape:window-height="714"
     id="namedview12"
     showgrid="false"
     inkscape:zoom="0.3582996"
     inkscape:cx="-116.95051"
     inkscape:cy="484.56662"
     inkscape:window-x="0"
     inkscape:window-y="0"
     inkscape:window-maximized="1"
     inkscape:current-layer="svg10" />
  <path
     d="m346 368h-280c-18.21875-.019531-32.980469-14.78125-33-33v-187.425781c-.003906-3.777344.648438-7.523438 1.917969-11.082031-13.132813 4.699218-21.902344 17.132812-21.917969 31.082031v187.425781c.019531 18.21875 14.78125 32.980469 33 33h280c13.945312-.015625 26.382812-8.785156 31.082031-21.917969-3.558593 1.269531-7.304687 1.921875-11.082031 1.917969zm0 0"
     fill="#d4e1f4"
     id="path2"
     style="fill:#d4f4db;fill-opacity:1" />
  <path
     d="m414 92.019531c0-25.957031-21.042969-47-47-47s-47 21.042969-47 47 21.042969 47 47 47c25.945312-.027343 46.972656-21.054687 47-47zm-80 0c0-18.226562 14.773438-33 33-33s33 14.773438 33 33c0 18.226563-14.773438 33-33 33-18.21875-.019531-32.980469-14.78125-33-33zm0 0"
     fill="#1ae5be"
     id="path4"
     style="fill:#f55d2c;fill-opacity:1" />
  <path
     d="m290.5 218.441406-84.695312 71.828125c-10.800782 9.214844-26.691407 9.21875-37.5.015625l-156.78125-132.757812c-2.953126-2.488282-7.363282-2.117188-9.855469.828125-2.496094 2.949219-2.132813 7.359375.808593 9.859375l156.785157 132.757812c16.023437 13.644532 39.585937 13.632813 55.597656-.023437l85.164063-72.230469c1.226562-1.035156 2.058593-2.464844 2.351562-4.046875l1.667969.058594c1.175781-33.105469 28.242187-58.074219 62.957031-58.074219 34.71875 0 61.785156 24.96875 62.960938 58.078125l13.988281-.5c-.589844-19.597656-9.089844-38.121094-23.558594-51.347656-14.25-13.046875-33.210937-20.234375-53.390625-20.234375s-39.136719 7.1875-53.386719 20.234375c-12.988281 11.867187-21.207031 28.0625-23.113281 45.554687zm0 0"
     fill="#1ae5be"
     id="path6"
     style="fill:#f55d2c;fill-opacity:1" />
  <path
     d="m367 0c-67.257812-.0195312-122.859375 52.425781-126.765625 119.574219h-193.234375c-25.945312.027343-46.9726562 21.054687-47 47v187.425781c-.0117188 10.960938 3.828125 21.578125 10.847656 30 .542969 1.046875 1.34375 1.9375 2.324219 2.585938 8.84375 9.214843 21.058594 14.417968 33.828125 14.414062h280c12.753906.003906 24.957031-5.191406 33.792969-14.382812.375-.246094.722656-.53125 1.042969-.84375.523437-.515626.960937-1.105469 1.300781-1.757813 7.027343-8.421875 10.875-19.046875 10.863281-30.015625v-100.191406c66.785156-3.648438 120-59.125 120-126.808594-.078125-70.105469-56.890625-126.921875-127-127zm-7 354c.007812 5.523438-1.382812 10.960938-4.039062 15.808594l-84.132813-85.601563c-2.71875-2.703125-7.109375-2.71875-9.84375-.03125-2.734375 2.691407-2.796875 7.078125-.140625 9.84375l84.914062 86.394531c-5.695312 4.28125-12.632812 6.59375-19.757812 6.585938h-280c-7.144531.007812-14.09375-2.316406-19.800781-6.617188l84.449219-86.375c1.789062-1.78125 2.480468-4.386718 1.808593-6.816406-.667969-2.433594-2.59375-4.316406-5.042969-4.933594-2.445312-.613281-5.035156.136719-6.773437 1.964844l-83.628906 85.535156c-2.640625-4.832031-4.019531-10.253906-4.011719-15.757812v-187.425781c.019531-18.21875 14.78125-32.980469 33-33h193.171875c3.355469 64.808593 55.03125 116.660156 119.828125 120.238281zm7-114c-62.40625 0-113-50.59375-113-113s50.59375-113 113-113 113 50.59375 113 113-50.59375 113-113 113zm0 0"
     fill="#0635c9"
     id="path8"
     style="fill:#005e53;fill-opacity:1" />
</svg>
