<?xml version="1.0" encoding="UTF-8" standalone="no"?>
<svg
   xmlns:dc="http://purl.org/dc/elements/1.1/"
   xmlns:cc="http://creativecommons.org/ns#"
   xmlns:rdf="http://www.w3.org/1999/02/22-rdf-syntax-ns#"
   xmlns:svg="http://www.w3.org/2000/svg"
   xmlns="http://www.w3.org/2000/svg"
   xmlns:sodipodi="http://sodipodi.sourceforge.net/DTD/sodipodi-0.dtd"
   xmlns:inkscape="http://www.inkscape.org/namespaces/inkscape"
   id="Layer_1"
   height="512"
   viewBox="0 0 512 512"
   width="512"
   data-name="Layer 1"
   version="1.1"
   sodipodi:docname="3566274.svg"
   inkscape:version="0.92.5 (2060ec1f9f, 2020-04-08)">
  <metadata
     id="metadata21">
    <rdf:RDF>
      <cc:Work
         rdf:about="">
        <dc:format>image/svg+xml</dc:format>
        <dc:type
           rdf:resource="http://purl.org/dc/dcmitype/StillImage" />
      </cc:Work>
    </rdf:RDF>
  </metadata>
  <defs
     id="defs19" />
  <sodipodi:namedview
     pagecolor="#ffffff"
     bordercolor="#666666"
     borderopacity="1"
     objecttolerance="10"
     gridtolerance="10"
     guidetolerance="10"
     inkscape:pageopacity="0"
     inkscape:pageshadow="2"
     inkscape:window-width="1024"
     inkscape:window-height="714"
     id="namedview17"
     showgrid="false"
     inkscape:zoom="0.4609375"
     inkscape:cx="-146.44068"
     inkscape:cy="256"
     inkscape:window-x="0"
     inkscape:window-y="0"
     inkscape:window-maximized="1"
     inkscape:current-layer="Layer_1" />
  <path
     d="m271 15.208q-7.487-.615-15-.628a180.713 180.713 0 0 0 -128.18 52.95c-57.99 57.99-68.08 145.4-31.09 214.32a187.776 187.776 0 0 0 31.09 42.03l64.27 64.27 29.77 29.77 33.72 33.71 15-15-18.72-18.71-29.77-29.77-64.27-64.27a187.776 187.776 0 0 1 -31.09-42.03c-36.99-68.92-26.9-156.33 31.09-214.32a180.414 180.414 0 0 1 113.18-52.322z"
     fill="#d4e1f4"
     id="path2"
     style="fill:#d4f4db;fill-opacity:1" />
  <path
     d="m189.635 254h111.479a6.164 6.164 0 0 0 4.243-1.916l21.068-21.331a6.026 6.026 0 0 0 1.575-4.322v-100.186c0-3.313-2.321-6.245-5.635-6.245h-111.479a6.126 6.126 0 0 0 -4.243 1.88l-21.068 21.312a5.984 5.984 0 0 0 -1.575 4.308v100.182c0 3.318 2.321 6.318 5.635 6.318zm6.365-101h27v14.11c0 3.313 3.161 5.89 6.475 5.89h31.925a5.576 5.576 0 0 0 5.6-5.89v-14.11h28v89h-29v-18.122a5.845 5.845 0 0 0 -3.283-5.436l-29.741-13.942a5.458 5.458 0 0 0 -5.479.374 5.751 5.751 0 0 0 -2.5 5.061v32.065h-28.997zm102.629-12h-38.769l9.251-9h38.769zm-43.629 12v8h-20v-8zm-1 89h-17v-22.635l17 8.332zm53-8.8v-83.219l9-9.251v83.216zm-93.629-101.2h38.769l-9.251 9h-38.769z"
     fill="#1ae5be"
     id="path4"
     style="fill:#f55d2c;fill-opacity:1" />
  <g
     id="g14"
     style="fill:#005e53;fill-opacity:1">
    <path
       d="m 151.271,89.394 a 6,6 0 0 0 -8.472,0.491 150.736,150.736 0 0 0 -38.185,100.357 6,6 0 0 0 12,0 138.749,138.749 0 0 1 35.147,-92.377 6,6 0 0 0 -0.49,-8.471 z"
       id="path6"
       style="fill:#005e53;fill-opacity:1"
       inkscape:connector-curvature="0" />
    <path
       d="m 163.808,84.021 a 5.976,5.976 0 0 0 3.8,-1.357 c 1.319,-1.08 2.677,-2.151 4.036,-3.183 a 6,6 0 1 0 -7.255,-9.558 c -1.476,1.12 -2.951,2.283 -4.384,3.456 a 6,6 0 0 0 3.805,10.642 z"
       id="path8"
       style="fill:#005e53;fill-opacity:1"
       inkscape:connector-curvature="0" />
    <path
       d="m 411.579,402.784 c -20.511,-8.525 -47.8,-15.109 -79.447,-19.222 l 55.441,-55.441 A 187.26,187.26 0 0 0 443.016,195.4 185.008,185.008 0 0 0 388.416,63.286 C 315.4,-9.726 196.6,-9.725 123.581,63.289 A 184.78,184.78 0 0 0 70.714,169.784 190.465,190.465 0 0 0 91.48,284.769 c 9.465,17.036 19.965,31.217 32.1,43.352 l 55.538,55.538 c -31.434,4.134 -58.524,10.71 -78.886,19.2 -17.707,7.385 -38.815,20.018 -38.815,38.263 0,18.18 20.582,33.932 59.519,45.555 36.164,10.797 84.127,16.742 135.064,16.742 50.937,0 98.9,-5.945 135.063,-16.739 38.937,-11.623 59.519,-27.375 59.519,-45.555 0,-18.291 -21.21,-30.946 -39.003,-38.341 z M 102.013,279.018 A 178.3,178.3 0 0 1 82.6,171.407 172.877,172.877 0 0 1 132.062,71.774 174.96923,174.96923 0 1 1 379.087,319.636 L 255.577,443.146 132.066,319.636 C 120.73,308.3 110.886,294.989 102.013,279.018 Z m 149.321,176.857 a 6,6 0 0 0 8.485,0 l 31.711,-31.712 c 32.366,4.565 43.364,13.484 43.364,16.962 0,2.423 -5.481,7.663 -20.581,12.17 -15.493,4.625 -36.2,7.172 -58.313,7.172 -22.113,0 -42.82,-2.547 -58.313,-7.172 -15.1,-4.507 -20.581,-9.747 -20.581,-12.17 0,-3.437 10.814,-12.257 42.621,-16.858 z M 256,491.419 c -107.6,0 -182.582,-26.5 -182.582,-50.294 0,-16.787 39.994,-38.064 116.47,-46.7 l 19.43,19.431 c -18.741,3.584 -44.212,11.379 -44.212,27.266 0,12.372 15.851,19.7 29.148,23.669 16.577,4.948 38.5,7.673 61.746,7.673 23.246,0 45.169,-2.725 61.746,-7.673 13.3,-3.969 29.148,-11.3 29.148,-23.669 0,-16.07 -26,-23.862 -44.923,-27.4 l 19.38,-19.38 c 76.974,8.574 117.231,29.915 117.231,46.782 0,23.79 -74.982,50.295 -182.582,50.295 z"
       id="path10"
       style="fill:#005e53;fill-opacity:1"
       inkscape:connector-curvature="0" />
    <path
       d="M 381.488,194.5 A 126.112,126.112 0 0 0 248.582,64.451 c -64.323,3.5 -115.992,55.726 -118.86,120.079 a 125.846,125.846 0 0 0 4.807,40.645 5.986,5.986 0 0 0 8.585,3.576 l 0.016,-0.009 a 6,6 0 0 0 2.9,-6.967 113.8,113.8 0 0 1 -4.388,-34.973 c 1.838,-61.989 53.743,-111.5 115.75,-110.527 a 114.108,114.108 0 0 1 112.1,117.79 C 367.544,253.4 319.658,301.7 260.342,304.126 A 113.906,113.906 0 0 1 162.522,256 a 5.995,5.995 0 0 0 -9.729,7 125.9,125.9 0 0 0 104.652,53.207 C 324.341,315.236 379.273,261.365 381.488,194.5 Z"
       id="path12"
       style="fill:#005e53;fill-opacity:1"
       inkscape:connector-curvature="0" />
  </g>
</svg>
