<?xml version="1.0" encoding="UTF-8" standalone="no"?>
<svg
   xmlns:dc="http://purl.org/dc/elements/1.1/"
   xmlns:cc="http://creativecommons.org/ns#"
   xmlns:rdf="http://www.w3.org/1999/02/22-rdf-syntax-ns#"
   xmlns:svg="http://www.w3.org/2000/svg"
   xmlns="http://www.w3.org/2000/svg"
   xmlns:sodipodi="http://sodipodi.sourceforge.net/DTD/sodipodi-0.dtd"
   xmlns:inkscape="http://www.inkscape.org/namespaces/inkscape"
   id="Layer_1"
   data-name="Layer 1"
   viewBox="0 0 512 512"
   width="512"
   height="512"
   version="1.1"
   sodipodi:docname="1521196.svg"
   inkscape:version="0.92.5 (2060ec1f9f, 2020-04-08)">
  <metadata
     id="metadata41">
    <rdf:RDF>
      <cc:Work
         rdf:about="">
        <dc:format>image/svg+xml</dc:format>
        <dc:type
           rdf:resource="http://purl.org/dc/dcmitype/StillImage" />
      </cc:Work>
    </rdf:RDF>
  </metadata>
  <defs
     id="defs39" />
  <sodipodi:namedview
     pagecolor="#ffffff"
     bordercolor="#666666"
     borderopacity="1"
     objecttolerance="10"
     gridtolerance="10"
     guidetolerance="10"
     inkscape:pageopacity="0"
     inkscape:pageshadow="2"
     inkscape:window-width="1024"
     inkscape:window-height="714"
     id="namedview37"
     showgrid="false"
     inkscape:zoom="0.32593203"
     inkscape:cx="356.82396"
     inkscape:cy="-57.89536"
     inkscape:window-x="0"
     inkscape:window-y="0"
     inkscape:window-maximized="1"
     inkscape:current-layer="Layer_1" />
  <title
     id="title2">Give Money</title>
  <polygon
     points="55.582 321 99.657 321 96.605 311 45.582 311 64.866 469 73.646 469 55.582 321"
     style="fill:#d4f4db;fill-opacity:1"
     id="polygon4" />
  <path
     d="M275.869,355.279a5.965,5.965,0,0,1-3.213-.448,6,6,0,0,0,3.213,11.448,212.453,212.453,0,0,1,38.624-1.783l44.092,2c.091,0,.181.007.271.007a6,6,0,0,0,6-6c0-.9-.034-1.787-.087-2.672L370.7,354.7l63.872-34.457a25.08,25.08,0,0,1,22.1-.874l7.947-5.456a25.111,25.111,0,0,0-30.051-4.67L370.7,343.7l-5.929,3.127c.053.885.087,1.774.087,2.672a6,6,0,0,1-6,6c-.09,0-.18,0-.271-.007l-44.092-2A212.453,212.453,0,0,0,275.869,355.279Z"
     style="fill:#d4f4db;fill-opacity:1"
     id="path6" />
  <path
     d="M138.594,338l12.682-11.291a79.71,79.71,0,0,1,82.758-7.956l5.33,2.546a67.8,67.8,0,0,0,29.367,6.7h51.693a32.432,32.432,0,0,1,27.287,14.957l4.53.2A32.517,32.517,0,0,0,320.424,317H268.731a67.8,67.8,0,0,1-29.367-6.7l-5.33-2.546a79.71,79.71,0,0,0-82.758,7.956L138.594,327a56.467,56.467,0,0,1-21.048,11.82l3.04,9.971A56.411,56.411,0,0,0,138.594,338Z"
     style="fill:#d4f4db;fill-opacity:1"
     id="path8" />
  <path
     d="M276.07,239.425q-4.606,0-9.294-.458A93.96,93.96,0,0,1,224.4,66.9a93.992,93.992,0,0,0,22.373,182.064q4.68.46,9.294.458a93.531,93.531,0,0,0,51.527-15.5A93.181,93.181,0,0,1,276.07,239.425Z"
     style="fill:#f4e0d4;fill-opacity:1"
     id="path10" />
  <path
     d="M428.871,298.681l-2.144,1.157c-9.331-11.2-25.4-15.524-37.645-9.315l-.134.07-5.279,2.844a41.286,41.286,0,0,0-47.16-4.214L307.435,305h-38.7a55.736,55.736,0,0,1-24.142-5.5l-5.331-2.562a91.657,91.657,0,0,0-95.392,9.324c-.131.1-.259.208-.382.317l-12.87,11.46a44.43,44.43,0,0,1-16.572,9.29l-7.254-23.935A6.133,6.133,0,0,0,101.049,299H38.806a6.232,6.232,0,0,0-5.956,6.943L53.6,475.9a5.851,5.851,0,0,0,5.956,5.1h93.365a5.712,5.712,0,0,0,5.74-7.435L146.433,433.52,184.5,409.484a22.8,22.8,0,0,1,16.616-2.135c.124.031.249.065.375.088l77.705,14.312a100.773,100.773,0,0,0,62.264-8.789,5.906,5.906,0,0,0,.733-.43l134.4-92.28a6,6,0,0,0,1.744-8.041A37.093,37.093,0,0,0,428.871,298.681Zm-34.3,2.515c6.9-3.454,15.572-.691,21.2,4.553l-50.718,27.362-2.78,1.466a44.389,44.389,0,0,0-6.785-12.323Zm-52.257-1.437.142-.079a29.268,29.268,0,0,1,29.458.093L346.429,313.5a44.255,44.255,0,0,0-15.993-7.287ZM64.866,469,45.582,311H96.605l48.211,158Zm270.889-66.607a88.69,88.69,0,0,1-54.407,7.554L203.84,395.675a34.754,34.754,0,0,0-25.335,3.435c-.093.053-.186.108-.277.165L142.8,421.67l-25.258-82.846A56.467,56.467,0,0,0,138.594,327l12.682-11.291a79.71,79.71,0,0,1,82.758-7.956l5.33,2.546a67.8,67.8,0,0,0,29.367,6.7h51.693a32.517,32.517,0,0,1,31.817,26.16l-37.206-1.667a224.507,224.507,0,0,0-40.812,1.893,6,6,0,0,0,1.646,11.893,212.453,212.453,0,0,1,38.624-1.783l44.092,2c.091,0,.181.007.271.007a6,6,0,0,0,6-6c0-.9-.034-1.787-.087-2.672L370.7,343.7l63.872-34.457a25.111,25.111,0,0,1,30.051,4.67Z"
     style="fill:#005e53;fill-opacity:1"
     id="path12" />
  <path
     d="M82.9,445.653A18.449,18.449,0,1,0,101.344,427.2,18.469,18.469,0,0,0,82.9,445.653Zm18.448-6.449a6.449,6.449,0,1,1-6.448,6.449A6.456,6.456,0,0,1,101.344,439.2Z"
     style="fill:#005e53;fill-opacity:1"
     id="path14" />
  <path
     d="M245.6,260.909q5.283.52,10.482.517a106.053,106.053,0,1,0-10.482-.517ZM162.454,146.2A94,94,0,1,1,256.07,249.425q-4.606,0-9.294-.458A94.107,94.107,0,0,1,162.454,146.2Z"
     style="fill:#f55d2c;fill-opacity:1"
     id="path16" />
  <path
     d="M244.936,206.477l-.845,8.567a6,6,0,0,0,5.383,6.56c.2.02.4.029.6.029a6,6,0,0,0,5.964-5.411l.845-8.579a29.517,29.517,0,0,0-.238-58.726A17.522,17.522,0,1,1,275.8,133.2a6,6,0,0,0,11.943,1.178A29.574,29.574,0,0,0,267.169,103.3l.74-7.5a6,6,0,1,0-11.943-1.177l-.739,7.5a29.525,29.525,0,0,0,.237,58.741,17.518,17.518,0,0,1-3.265,34.884c-.058-.007-.114-.02-.173-.026s-.11,0-.166-.007a17.538,17.538,0,0,1-15.553-19.133,6,6,0,0,0-11.943-1.178A29.574,29.574,0,0,0,244.936,206.477Z"
     style="fill:#f55d2c;fill-opacity:1"
     id="path18" />
  <path
     d="M403,120.249a6,6,0,0,0,6-6v-10a6,6,0,0,0-12,0v10A6,6,0,0,0,403,120.249Z"
     style="fill:#f55d2c;fill-opacity:1"
     id="path20" />
  <path
     d="M403,128.249a6,6,0,0,0-6,6v10a6,6,0,1,0,12,0v-10A6,6,0,0,0,403,128.249Z"
     style="fill:#f55d2c;fill-opacity:1"
     id="path22" />
  <path
     d="M399.35,124a6,6,0,0,0-6-6h-10a6,6,0,0,0,0,12h10A6,6,0,0,0,399.35,124Z"
     style="fill:#f55d2c;fill-opacity:1"
     id="path24" />
  <path
     d="M423.35,118h-10a6,6,0,0,0,0,12h10a6,6,0,0,0,0-12Z"
     style="fill:#f55d2c;fill-opacity:1"
     id="path26" />
  <path
     d="M140,52.58a6,6,0,0,0,6-6v-10a6,6,0,1,0-12,0v10A6,6,0,0,0,140,52.58Z"
     style="fill:#f55d2c;fill-opacity:1"
     id="path28" />
  <path
     d="M140,60.58a6,6,0,0,0-6,6v10a6,6,0,0,0,12,0v-10A6,6,0,0,0,140,60.58Z"
     style="fill:#f55d2c;fill-opacity:1"
     id="path30" />
  <path
     d="M136.212,57a6,6,0,0,0-6-6h-10a6,6,0,1,0,0,12h10A6,6,0,0,0,136.212,57Z"
     style="fill:#f55d2c;fill-opacity:1"
     id="path32" />
  <path
     d="M160.212,63a6,6,0,0,0,0-12h-10a6,6,0,0,0,0,12Z"
     style="fill:#f55d2c;fill-opacity:1"
     id="path34" />
</svg>
