<?xml version="1.0" encoding="UTF-8" standalone="no"?>
<svg
   xmlns:dc="http://purl.org/dc/elements/1.1/"
   xmlns:cc="http://creativecommons.org/ns#"
   xmlns:rdf="http://www.w3.org/1999/02/22-rdf-syntax-ns#"
   xmlns:svg="http://www.w3.org/2000/svg"
   xmlns="http://www.w3.org/2000/svg"
   xmlns:sodipodi="http://sodipodi.sourceforge.net/DTD/sodipodi-0.dtd"
   xmlns:inkscape="http://www.inkscape.org/namespaces/inkscape"
   height="451pt"
   viewBox="0 0 451 451.448"
   width="451pt"
   version="1.1"
   id="svg34"
   sodipodi:docname="colp.svg"
   inkscape:version="0.92.4 (5da689c313, 2019-01-14)">
  <metadata
     id="metadata40">
    <rdf:RDF>
      <cc:Work
         rdf:about="">
        <dc:format>image/svg+xml</dc:format>
        <dc:type
           rdf:resource="http://purl.org/dc/dcmitype/StillImage" />
        <dc:title />
      </cc:Work>
    </rdf:RDF>
  </metadata>
  <defs
     id="defs38" />
  <sodipodi:namedview
     pagecolor="#ffffff"
     bordercolor="#666666"
     borderopacity="1"
     objecttolerance="10"
     gridtolerance="10"
     guidetolerance="10"
     inkscape:pageopacity="0"
     inkscape:pageshadow="2"
     inkscape:window-width="1024"
     inkscape:window-height="744"
     id="namedview36"
     showgrid="false"
     inkscape:zoom="0.3924612"
     inkscape:cx="300.66667"
     inkscape:cy="402.58757"
     inkscape:window-x="0"
     inkscape:window-y="0"
     inkscape:window-maximized="1"
     inkscape:current-layer="svg34" />
  <flowRoot
     xml:space="preserve"
     id="flowRoot847"
     style="fill:black;fill-opacity:1;stroke:none;font-family:'Lobster Two';font-style:normal;font-weight:bold;font-size:40px;line-height:1.25;letter-spacing:0px;word-spacing:0px;-inkscape-font-specification:'Lobster Two Bold';font-stretch:normal;font-variant:normal;"><flowRegion
       id="flowRegion849"
       style="-inkscape-font-specification:'Lobster Two Bold';font-family:'Lobster Two';font-weight:bold;font-style:normal;font-stretch:normal;font-variant:normal;"><rect
         id="rect851"
         width="596.2373"
         height="598.78534"
         x="7.6440678"
         y="2.5480225"
         style="-inkscape-font-specification:'Lobster Two Bold';font-family:'Lobster Two';font-weight:bold;font-style:normal;font-stretch:normal;font-variant:normal;" /></flowRegion><flowPara
       id="flowPara853" /></flowRoot>  <g
     aria-label="COLP"
     transform="matrix(0.75074504,0,0,0.75074504,5.514746,47.945886)"
     style="font-style:normal;font-weight:normal;font-size:40px;line-height:1.25;font-family:sans-serif;letter-spacing:0px;word-spacing:0px;fill:#000000;fill-opacity:1;stroke:none"
     id="flowRoot855">
    <path
       d="m 151.94024,237.25665 q -2.64,10.8 -8.64,19.2 -5.76,8.16 -14.16,13.92 -8.16,5.76 -18.48,8.64 -10.08,2.88 -21.360001,2.88 -30.960002,0 -48.240003,-21.84 -17.040001,-21.84 -17.040001,-66 0,-16.32 2.88,-33.36 2.88,-17.04 10.080001,-30.96 7.2,-13.92001 19.200001,-22.80001 12.240001,-8.879997 30.720002,-8.879997 8.880001,0 17.280001,2.399997 8.4,2.16 14.64,6.96 6.48,4.56 10.32,11.76 3.84,7.20001 3.84,16.80001 0,7.2 -2.88,11.76 -2.64,4.56 -10.08,4.56 -2.88,0 -6.96,-0.96 -3.84,-1.2 -8.16,-5.28 3.12,-1.92 5.04,-6.96 1.92,-5.28 1.92,-10.32 0,-7.68001 -4.56,-13.44001 -4.56,-6 -12.24,-6 -8.160001,0 -14.160001,6.96 -6.000001,6.96 -10.080001,18.48001 -3.84,11.28 -5.76,25.92 -1.92,14.4 -1.92,29.52 0,19.92 3.12,33.36 3.36,13.44 8.88,21.6 5.520001,8.16 12.960001,11.52 7.680001,3.36 16.320001,3.36 13.68,0 24.48,-6.72 11.04,-6.96 17.04,-18.48 z"
       style="font-style:normal;font-variant:normal;font-weight:bold;font-stretch:normal;font-size:240.00001526px;font-family:'Lobster Two';-inkscape-font-specification:'Lobster Two Bold'"
       id="path18" />
    <path
       d="m 227.9865,120.61664 q -5.04,3.36 -8.88,12.48001 -3.6,9.12 -6.24,20.88 -2.4,11.76 -3.6,24.72 -1.2,12.96 -1.2,24.48 0,17.28 2.4,28.08 2.64,10.8 6.24,16.8 3.84,6 7.92,8.16 4.32,1.92 7.68,1.92 7.2,0 12.48,-6.48 5.52,-6.72 9.12,-17.76 3.84,-11.04 5.52,-25.2 1.92,-14.4 1.92,-29.76 0,-21.84 -3.6,-35.52 -3.36,-13.68 -9.36,-21.36001 -6,-7.68 -14.16,-10.32 -7.92,-2.64 -16.8,-2.64 -11.52,0 -21.84,3.6 -10.32,3.36 -18.00001,10.08 -7.68,6.72001 -12.24,16.56001 -4.32,9.84 -4.32,22.32 0,8.88 1.92,13.68 1.92,4.56 4.56,8.4 -13.68,0 -21.6,-6 -7.68,-6.24 -7.68,-19.68 0,-12.24 6.48,-23.04 6.72,-11.04001 18,-19.20001 11.28,-8.16 26.40001,-12.96 15.36,-4.799997 32.64,-4.799997 20.88,0 35.04,6.959997 14.16,6.96 22.56,18.96 8.4,12.00001 12,27.84001 3.6,15.84 3.6,33.36 0,10.56 -1.2,21.6 -1.2,11.04 -4.32,21.6 -2.88,10.32 -7.68,19.68 -4.8,9.36 -12,16.32 -7.2,6.96 -17.04,11.04 -9.84,4.08 -22.56,4.08 -11.52,0 -22.08,-3.84 -10.32,-3.84 -18.48,-12.72 -7.92,-8.88 -12.72001,-23.28 -4.56,-14.64 -4.56,-36.24 0,-12.96 1.92,-27.84 2.16,-14.88 7.20001,-27.36 5.04,-12.72 13.44,-21.12 8.4,-8.40001 20.88,-8.40001 2.64,0 5.76,0.48 3.12,0.24 6.48,1.44 z"
       style="font-style:normal;font-variant:normal;font-weight:bold;font-stretch:normal;font-size:240.00001526px;font-family:'Lobster Two';-inkscape-font-specification:'Lobster Two Bold'"
       id="path20" />
    <path
       d="m 386.93027,273.49665 q 9.84,2.16 20.16,7.2 10.56,5.04001 21.6,10.32001 11.04,5.28 22.32,9.12 11.52001,4.08 23.04001,4.08 4.56,0 9.36,-0.96 4.8,-0.72 9.6,-2.88 0.24,1.2 0.24,2.16 0,0.96 0,2.16 0,5.52 -1.68,11.28 -1.68,6 -5.04,10.8 -3.12,4.8 -8.16,7.92 -5.04,3.36 -11.76,3.36 -7.68001,0 -15.84001,-4.08 -7.92,-4.08 -16.56,-10.08 -8.64,-6 -17.76,-13.2 -9.12,-6.96 -18.72,-12.96 -9.6,-6 -19.68,-10.08 -10.08,-4.08 -20.4,-4.08 -1.44,0 -2.88,0 -1.2,0 -2.64,0.24 V 117.73664 q -11.52,5.52 -17.76,16.08001 -6,10.32 -6,25.2 0,6.48 0.96,11.28 1.2,4.56 2.4,7.68 1.44,3.12 2.88,5.28 1.44,1.92 2.16,2.88 -14.4,0 -22.8,-6.72 -8.4,-6.72 -8.4,-21.12 0,-12.24 6,-22.8 6,-10.56 15.84,-18.24001 10.08,-7.92 22.8,-12.24 12.96,-4.56 26.64,-4.56 2.64,0 5.04,0.24 2.64,0 5.04,0.24 z"
       style="font-style:normal;font-variant:normal;font-weight:bold;font-stretch:normal;font-size:240.00001526px;font-family:'Lobster Two';-inkscape-font-specification:'Lobster Two Bold'"
       id="path22" />
    <path
       d="m 495.92027,120.61664 v 80.16001 q 7.44,-0.72 12.96,-5.52 5.76,-5.04 9.6,-12.48 4.08,-7.44 6,-16.32 2.16,-9.12 2.16,-18.24 0,-5.76 -1.44,-12.48 -1.2,-6.96 -5.52,-12.72001 -4.08,-6 -12.24,-9.84 -7.92,-4.08 -21.36,-4.08 -10.8,0 -19.68,2.88 -8.88,2.88 -15.36,8.88 -6.48,5.76001 -10.08,15.12001 -3.6,9.12 -3.6,21.6 0,6.48 0.72,10.8 0.96,4.08 2.16,6.96 1.44,2.88 2.88,4.8 1.44,1.92 2.64,3.6 -14.4,0 -22.8,-6.72 -8.4,-6.72 -8.4,-21.12 0,-12.24 5.76,-22.8 6,-10.56001 16.08,-18.24001 10.32,-7.92 23.76,-12.24 13.68,-4.559997 28.8,-4.559997 14.64,0 26.64,3.839997 12,3.84 20.64,11.04 8.64,6.96 13.2,17.04001 4.8,9.84 4.8,22.08 0,9.84 -3.6,20.16 -3.6,10.32 -10.8,18.72 -7.2,8.16 -18,13.44 -10.56,5.28 -24.72,5.28 h -1.2 v 68.4 h -34.56 v -152.64 z"
       style="font-style:normal;font-variant:normal;font-weight:bold;font-stretch:normal;font-size:240.00001526px;font-family:'Lobster Two';-inkscape-font-specification:'Lobster Two Bold'"
       id="path24" />
  </g>
  <flowRoot
     xml:space="preserve"
     id="flowRoot863"
     style="fill:black;fill-opacity:1;stroke:none;font-family:sans-serif;font-style:normal;font-weight:normal;font-size:40px;line-height:1.25;letter-spacing:0px;word-spacing:0px"><flowRegion
       id="flowRegion865"><rect
         id="rect867"
         width="387.29944"
         height="203.84181"
         x="-152.88136"
         y="50.960453" /></flowRegion><flowPara
       id="flowPara869" /></flowRoot></svg>
