<?xml version="1.0" encoding="UTF-8" standalone="no"?>
<svg
   xmlns:dc="http://purl.org/dc/elements/1.1/"
   xmlns:cc="http://creativecommons.org/ns#"
   xmlns:rdf="http://www.w3.org/1999/02/22-rdf-syntax-ns#"
   xmlns:svg="http://www.w3.org/2000/svg"
   xmlns="http://www.w3.org/2000/svg"
   xmlns:sodipodi="http://sodipodi.sourceforge.net/DTD/sodipodi-0.dtd"
   xmlns:inkscape="http://www.inkscape.org/namespaces/inkscape"
   height="454pt"
   viewBox="0 -1 454.26912 454"
   width="454pt"
   version="1.1"
   id="svg66"
   sodipodi:docname="icon-5.svg"
   inkscape:version="0.92.4 (5da689c313, 2019-01-14)">
  <metadata
     id="metadata72">
    <rdf:RDF>
      <cc:Work
         rdf:about="">
        <dc:format>image/svg+xml</dc:format>
        <dc:type
           rdf:resource="http://purl.org/dc/dcmitype/StillImage" />
      </cc:Work>
    </rdf:RDF>
  </metadata>
  <defs
     id="defs70" />
  <sodipodi:namedview
     pagecolor="#ffffff"
     bordercolor="#666666"
     borderopacity="1"
     objecttolerance="10"
     gridtolerance="10"
     guidetolerance="10"
     inkscape:pageopacity="0"
     inkscape:pageshadow="2"
     inkscape:window-width="1024"
     inkscape:window-height="744"
     id="namedview68"
     showgrid="false"
     inkscape:zoom="0.38986784"
     inkscape:cx="302.66667"
     inkscape:cy="302.66667"
     inkscape:window-x="0"
     inkscape:window-y="0"
     inkscape:window-maximized="1"
     inkscape:current-layer="svg66" />
  <path
     inkscape:connector-curvature="0"
     id="path101"
     d="m 66.76623,373.32438 c -4.24682,-1.49962 -6.97091,-3.50162 -10.28135,-7.556 -2.14771,-2.63035 -3.41764,-6.3631 -7.35525,-21.6195 L 44.3703,325.70865 39.64321,322.968 c -9.19837,-5.33297 -12.03258,-10.57191 -12.03258,-22.24175 0,-11.41855 3.40928,-21.97152 10.11672,-31.31492 2.29395,-3.19546 3.307,-5.77945 4.14809,-10.58058 4.80854,-27.44816 35.77809,-46.26099 89.4688,-54.34891 13.48913,-2.03199 41.22149,-2.02457 55.54751,0.0148 6.06237,0.86303 11.14363,1.43806 11.2917,1.27784 0.14806,-0.16021 -2.58334,-9.68406 -6.06979,-21.1641 -3.48646,-11.48005 -6.34384,-21.68371 -6.34975,-22.67481 -0.006,-0.9911 0.75123,-2.7622 1.68251,-3.93578 1.68663,-2.12544 1.68628,-2.15334 -0.0921,-7.14349 -3.80058,-10.66471 -0.46111,-22.2773 8.70673,-30.27657 3.60092,-3.14193 5.17017,-5.17656 5.55311,-7.19991 0.29357,-1.5512 2.12884,-5.99873 4.07838,-9.88339 5.02009,-10.003063 14.64676,-19.497567 24.75305,-24.413158 16.55012,-8.049808 33.29917,-8.049808 49.84928,0 10.10629,4.915591 19.73297,14.410095 24.75306,24.413208 1.94954,3.88466 3.78481,8.33218 4.07838,9.88338 0.38293,2.02335 1.95219,4.05798 5.55311,7.19991 9.16783,7.99927 12.50731,19.61186 8.70673,30.27657 -1.77834,4.99015 -1.77869,5.01805 -0.0921,7.1435 0.93128,1.17358 1.69324,2.91602 1.69324,3.87211 0,0.95607 -3.86761,14.50369 -8.5947,30.1058 -4.72709,15.60212 -8.5947,28.95316 -8.5947,29.66898 0,1.13462 2.92031,1.3015 22.77596,1.3015 12.52678,0 22.77597,-0.2155 22.77597,-0.47888 0,-0.26339 -0.63144,-2.39249 -1.40318,-4.73134 -3.84307,-11.64669 2.56708,-26.59105 13.78865,-32.14635 2.14804,-1.0634 4.14309,-2.31447 4.43343,-2.78015 0.29036,-0.46569 -0.45703,-2.84226 -1.66086,-5.28127 -2.42607,-4.91534 -5.78139,-7.403 -9.98508,-7.403 -1.86785,0 -3.51815,-0.78444 -5.23907,-2.49032 -3.4212,-3.39125 -3.38154,-7.00253 0.11493,-10.46842 2.46728,-2.44569 2.92846,-2.57718 7.57415,-2.15961 6.10929,0.54913 12.6524,3.72836 16.41446,7.97561 3.32986,3.75933 7.41998,11.98049 8.18057,16.44299 0.48367,2.83777 1.0425,3.39421 5.53087,5.50717 12.46034,5.86586 19.26943,20.53891 15.22253,32.80335 -0.77175,2.33885 -1.40318,4.46795 -1.40318,4.73134 0,0.26338 7.18484,0.47888 15.96631,0.47888 h 15.96632 l 2.51229,2.49032 2.5123,2.49031 v 70.84304 70.84304 l -2.5123,2.49031 -2.51229,2.49032 -183.34817,-0.0374 C 98.32834,374.52657 69.63377,374.33696 66.76623,373.32438 Z M 425.54541,298.77192 V 239.13533 H 347.41 269.2746 l 3.06078,5.1117 3.06079,5.11171 h 67.4055 67.4055 l 2.51229,2.49032 2.5123,2.49032 v 52.03457 52.03457 h 5.15682 5.15683 z"
     style="fill:#ea8b8b;stroke-width:0.85570264" />
  <path
     inkscape:connector-curvature="0"
     id="path99"
     d="m 65.42732,372.38739 c -3.82961,-1.64172 -8.31344,-5.88828 -10.26218,-9.71912 -0.83427,-1.64 -3.37011,-10.4577 -5.63521,-19.59488 -2.2651,-9.13718 -4.47568,-17.06717 -4.9124,-17.62222 -0.43673,-0.55504 -2.41145,-1.83537 -4.38826,-2.84518 -4.90569,-2.50595 -8.23419,-5.7185 -10.12974,-9.77687 -2.02759,-4.34109 -2.22033,-18.26605 -0.35128,-25.37907 1.54642,-5.88516 6.16892,-15.16105 9.80649,-19.67851 1.95427,-2.42698 2.66688,-4.19844 2.66688,-6.6295 0,-1.82464 0.79543,-5.65807 1.76762,-8.51871 6.4598,-19.00787 28.58546,-34.253 61.62366,-42.46021 21.02156,-5.22209 30.43207,-6.33225 53.49669,-6.31102 15.86225,0.0146 23.12205,0.37583 29.42761,1.46423 10.18719,1.75841 10.10803,1.75736 10.10803,0.13347 0,-0.72126 -2.70733,-10.23716 -6.01629,-21.14645 -3.30896,-10.90929 -6.0163,-20.70707 -6.0163,-21.77285 0,-1.06577 0.64367,-3.01788 1.43037,-4.33801 1.33987,-2.24837 1.33307,-2.70686 -0.10743,-7.24651 -3.5024,-11.03763 -0.2167,-22.40751 8.67414,-30.01616 3.68802,-3.15615 4.73947,-4.734 6.30166,-9.45655 2.88816,-8.73103 6.56582,-14.419374 14.14229,-21.874283 10.98247,-10.806253 22.95449,-15.717042 38.3166,-15.717042 15.36212,0 27.33413,4.910789 38.3166,15.717042 7.57647,7.454909 11.25414,13.143253 14.14229,21.874283 1.5622,4.72255 2.61365,6.3004 6.30167,9.45655 8.89084,7.60865 12.17654,18.97853 8.67413,30.01616 -1.44049,4.53965 -1.44729,4.99814 -0.10742,7.24651 0.7867,1.32013 1.43036,3.27087 1.43036,4.33499 0,1.06412 -3.88758,14.76604 -8.63908,30.44872 -4.75149,15.68267 -8.43786,29.03371 -8.19194,29.66898 0.36073,0.93181 4.84397,1.15502 23.19935,1.15502 12.51372,0 22.94755,-0.31329 23.18629,-0.69619 0.23873,-0.38291 -0.1633,-2.39564 -0.89341,-4.47274 -1.84689,-5.25426 -1.20338,-15.36119 1.28314,-20.15294 2.75046,-5.30035 6.75733,-9.45061 11.90366,-12.32961 4.94387,-2.76574 5.38799,-3.8965 3.39105,-8.63402 -1.6293,-3.86535 -6.03334,-7.28336 -10.24454,-7.95086 -6.94432,-1.10073 -9.82256,-7.42674 -5.38185,-11.82859 1.66898,-1.65439 2.97045,-2.08335 6.23116,-2.05377 12.30439,0.11164 21.13712,8.63255 25.1304,24.24323 0.75198,2.9397 1.39915,3.62161 4.71148,4.96432 5.29165,2.14507 10.81912,7.19494 13.78207,12.59122 3.11863,5.67984 3.96805,15.21987 1.88323,21.15102 -0.73012,2.0771 -1.13215,4.08983 -0.89342,4.47274 0.23875,0.3829 7.58392,0.69619 16.32262,0.69619 15.72336,0 15.91048,0.0217 17.99815,2.09116 l 2.10961,2.09115 v 70.78941 70.78942 l -2.10961,2.09114 -2.1096,2.09116 -184.1806,-0.0333 C 90.10899,373.68087 68.08148,373.5252 65.42732,372.38739 Z m 360.97756,-73.61547 v -60.48855 h -79.50101 c -43.72556,0 -79.50101,0.14524 -79.50101,0.32277 0,0.17751 1.35366,2.55107 3.00814,5.27457 1.65449,2.7235 3.00815,5.2551 3.00815,5.62579 0,0.37068 30.54549,0.77661 67.87887,0.90207 l 67.87889,0.2281 2.38282,2.36184 2.38283,2.36184 0.23423,51.95006 0.23423,51.95006 h 5.99693 5.99693 z M 302.58815,152.38344 c 3.46517,-1.84213 6.06929,-6.23083 6.06929,-10.22852 0,-4.85895 -2.39061,-8.54193 -7.34276,-11.3123 -4.73173,-2.64706 -5.6019,-3.99396 -7.36925,-11.40646 -2.77249,-11.62818 -10.79764,-21.348838 -22.00428,-26.653207 -6.51652,-3.084415 -6.9389,-3.165093 -16.57088,-3.165093 -9.63197,0 -10.05436,0.08068 -16.57087,3.165093 -11.19101,5.296965 -19.65179,15.556637 -22.10896,26.809647 -1.54797,7.08917 -2.52131,8.59651 -7.26457,11.25002 -4.95215,2.77037 -7.34276,6.45335 -7.34276,11.3123 0,3.99769 2.60412,8.38639 6.06929,10.22852 2.72754,1.45 5.96528,1.55675 47.21787,1.55675 41.2526,0 44.49034,-0.10675 47.21788,-1.55675 z m -29.74593,-16.73122 c -3.20346,-1.37307 -4.23712,-3.04652 -5.50689,-8.91549 -1.23716,-5.71823 -4.53693,-8.98912 -10.30562,-10.21546 -5.93381,-1.26145 -7.62375,-2.29138 -8.95955,-5.46043 -1.46553,-3.47683 -0.80711,-6.74235 1.86028,-9.22633 4.55468,-4.241456 17.13909,-1.45 24.93428,5.53087 6.59873,5.9094 10.87997,17.1034 8.8608,23.16801 -1.60456,4.81932 -6.3618,7.05683 -10.8833,5.11883 z"
     style="fill:#fbb330;stroke-width:0.85570264" />
  <path
     inkscape:connector-curvature="0"
     id="path97"
     d="m 65.42732,372.38739 c -3.82961,-1.64172 -8.31344,-5.88828 -10.26218,-9.71912 -0.83427,-1.64 -3.37011,-10.4577 -5.63521,-19.59488 -2.2651,-9.13718 -4.47568,-17.06717 -4.9124,-17.62222 -0.43673,-0.55504 -2.41145,-1.83537 -4.38826,-2.84518 -4.90569,-2.50595 -8.23419,-5.7185 -10.12974,-9.77687 -2.02759,-4.34109 -2.22033,-18.26605 -0.35128,-25.37907 1.54642,-5.88516 6.16892,-15.16105 9.80649,-19.67851 1.95427,-2.42698 2.66688,-4.19844 2.66688,-6.6295 0,-1.82464 0.79543,-5.65807 1.76762,-8.51871 6.4598,-19.00787 28.58546,-34.253 61.62366,-42.46021 21.02156,-5.22209 30.43207,-6.33225 53.49669,-6.31102 15.86225,0.0146 23.12205,0.37583 29.42761,1.46423 10.18719,1.75841 10.10803,1.75736 10.10803,0.13347 0,-0.72126 -2.70733,-10.23716 -6.01629,-21.14645 -3.30896,-10.90929 -6.0163,-20.70707 -6.0163,-21.77285 0,-1.06577 0.64367,-3.01788 1.43037,-4.33801 1.33987,-2.24837 1.33307,-2.70686 -0.10743,-7.24651 -3.5024,-11.03763 -0.2167,-22.40751 8.67414,-30.01616 3.68802,-3.15615 4.73947,-4.734 6.30166,-9.45655 2.88816,-8.73103 6.56582,-14.419374 14.14229,-21.874283 10.98247,-10.806253 22.95449,-15.717042 38.3166,-15.717042 15.36212,0 27.33413,4.910789 38.3166,15.717042 7.57647,7.454909 11.25414,13.143253 14.14229,21.874283 1.5622,4.72255 2.61365,6.3004 6.30167,9.45655 8.89084,7.60865 12.17654,18.97853 8.67413,30.01616 -1.44049,4.53965 -1.44729,4.99814 -0.10742,7.24651 0.7867,1.32013 1.43036,3.27087 1.43036,4.33499 0,1.06412 -3.88758,14.76604 -8.63908,30.44872 -4.75149,15.68267 -8.43786,29.03371 -8.19194,29.66898 0.36073,0.93181 4.84397,1.15502 23.19935,1.15502 12.51372,0 22.94755,-0.31329 23.18629,-0.69619 0.23873,-0.38291 -0.1633,-2.39564 -0.89341,-4.47274 -1.84689,-5.25426 -1.20338,-15.36119 1.28314,-20.15294 2.75046,-5.30035 6.75733,-9.45061 11.90366,-12.32961 4.94387,-2.76574 5.38799,-3.8965 3.39105,-8.63402 -1.6293,-3.86535 -6.03334,-7.28336 -10.24454,-7.95086 -6.94432,-1.10073 -9.82256,-7.42674 -5.38185,-11.82859 1.66898,-1.65439 2.97045,-2.08335 6.23116,-2.05377 12.30439,0.11164 21.13712,8.63255 25.1304,24.24323 0.75198,2.9397 1.39915,3.62161 4.71148,4.96432 5.29165,2.14507 10.81912,7.19494 13.78207,12.59122 3.11863,5.67984 3.96805,15.21987 1.88323,21.15102 -0.73012,2.0771 -1.13215,4.08983 -0.89342,4.47274 0.23875,0.3829 7.58392,0.69619 16.32262,0.69619 15.72336,0 15.91048,0.0217 17.99815,2.09116 l 2.10961,2.09115 v 70.78941 70.78942 l -2.10961,2.09114 -2.1096,2.09116 -184.1806,-0.0333 C 90.10899,373.68087 68.08148,373.5252 65.42732,372.38739 Z m 360.97756,-73.61547 v -60.48855 h -79.50101 c -43.72556,0 -79.50101,0.14524 -79.50101,0.32277 0,0.17751 1.35366,2.55107 3.00814,5.27457 1.65449,2.7235 3.00815,5.2551 3.00815,5.62579 0,0.37068 30.54549,0.77661 67.87887,0.90207 l 67.87889,0.2281 2.38282,2.36184 2.38283,2.36184 0.23423,51.95006 0.23423,51.95006 h 5.99693 5.99693 z M 65.35416,309.32863 c 1.77029,-1.03659 3.03584,-2.68489 3.66848,-4.77797 1.3062,-4.32157 3.57293,-6.16599 7.5778,-6.16599 4.00486,0 6.27159,1.84442 7.57779,6.16599 1.4409,4.7672 5.02822,6.57456 13.04949,6.57456 8.02128,0 11.6086,-1.80736 13.0495,-6.57456 1.3062,-4.32157 3.57293,-6.16599 7.57779,-6.16599 4.00487,0 6.2716,1.84442 7.5778,6.16599 1.44089,4.7672 5.02822,6.57456 13.04949,6.57456 8.02128,0 11.6086,-1.80736 13.0495,-6.57456 1.30619,-4.32157 3.57293,-6.16599 7.57779,-6.16599 4.00487,0 6.2716,1.84442 7.5778,6.16599 1.44089,4.7672 5.02822,6.57456 13.04949,6.57456 8.02127,0 11.6086,-1.80736 13.04949,-6.57456 1.3062,-4.32157 3.57293,-6.16599 7.5778,-6.16599 4.00487,0 6.2716,1.84442 7.5778,6.16599 1.44089,4.7672 5.02821,6.57456 13.04949,6.57456 8.02127,0 11.6086,-1.80736 13.04949,-6.57456 1.3062,-4.32157 3.57293,-6.16599 7.5778,-6.16599 4.00486,0 6.2716,1.84442 7.57779,6.16599 1.19883,3.96631 4.61563,6.11351 10.71366,6.73275 5.3917,0.54751 10.71212,-0.74003 13.43013,-3.25009 1.86153,-1.7191 1.96881,-2.33706 1.5924,-9.17313 -0.50435,-9.15968 -2.62799,-14.72853 -8.70833,-22.83585 -4.30853,-5.74484 -4.6279,-6.51022 -5.02768,-12.04879 -0.26579,-3.68212 -1.18036,-7.47613 -2.42327,-10.05255 -9.70023,-20.10763 -53.07503,-35.60201 -99.66386,-35.60201 -38.40138,0 -76.66125,10.88971 -92.39237,26.29715 -6.56837,6.43322 -9.13124,11.55048 -9.69475,19.35741 -0.39978,5.53857 -0.71916,6.30395 -5.02768,12.04879 -6.08034,8.10732 -8.20399,13.67617 -8.70834,22.83585 -0.37692,6.84553 -0.27104,7.45226 1.60243,9.1824 1.10332,1.0189 3.17842,2.21352 4.61134,2.65471 3.93636,1.21199 12.74543,0.45151 15.85394,-1.36867 z m 90.33449,-38.0269 c -3.64795,-1.88881 -4.38925,-4.48815 -4.12579,-14.46688 0.21572,-8.17053 0.44623,-9.33992 2.17938,-11.05601 2.66417,-2.63793 8.07242,-2.63686 10.7347,0.003 1.79487,1.77916 1.93815,2.67348 1.93815,12.09727 0,9.04603 -0.19122,10.36564 -1.72192,11.88295 -2.24819,2.22851 -6.32779,2.92646 -9.00452,1.54053 z m -41.25458,-20.48142 c -4.26431,-2.13877 -5.32487,-8.22459 -2.05703,-11.80393 0.75756,-0.82976 6.74535,-3.28202 13.30619,-5.44946 12.73554,-4.2073 15.52726,-4.37803 18.49184,-1.13087 2.0809,2.27925 2.07587,7.71701 -0.009,10.00089 -1.47788,1.61875 -23.36952,9.49378 -26.31182,9.4651 -0.7085,-0.007 -2.24747,-0.49369 -3.41992,-1.08173 z m 72.63151,-2.76631 c -6.13245,-2.09456 -11.92508,-4.57668 -12.87252,-5.51584 -2.2399,-2.22031 -2.32104,-7.72297 -0.14895,-10.10211 2.96458,-3.24716 5.7563,-3.07643 18.49184,1.13087 6.88212,2.27358 12.59849,4.67431 13.51173,5.6746 2.19566,2.40495 2.1049,7.8873 -0.16787,10.14018 -3.07985,3.05291 -6.74613,2.79418 -18.81423,-1.3277 z m 115.52257,-95.67056 c 3.46517,-1.84213 6.06929,-6.23083 6.06929,-10.22852 0,-4.85895 -2.39061,-8.54193 -7.34276,-11.3123 -4.73173,-2.64706 -5.6019,-3.99396 -7.36925,-11.40646 -2.77249,-11.62818 -10.79764,-21.348838 -22.00428,-26.653207 -6.51652,-3.084415 -6.9389,-3.165093 -16.57088,-3.165093 -9.63197,0 -10.05436,0.08068 -16.57087,3.165093 -11.19101,5.296965 -19.65179,15.556637 -22.10896,26.809647 -1.54797,7.08917 -2.52131,8.59651 -7.26457,11.25002 -4.95215,2.77037 -7.34276,6.45335 -7.34276,11.3123 0,3.99769 2.60412,8.38639 6.06929,10.22852 2.72754,1.45 5.96528,1.55675 47.21787,1.55675 41.2526,0 44.49034,-0.10675 47.21788,-1.55675 z m -29.74593,-16.73122 c -3.20346,-1.37307 -4.23712,-3.04652 -5.50689,-8.91549 -1.23716,-5.71823 -4.53693,-8.98912 -10.30562,-10.21546 -5.93381,-1.26145 -7.62375,-2.29138 -8.95955,-5.46043 -1.46553,-3.47683 -0.80711,-6.74235 1.86028,-9.22633 4.55468,-4.241456 17.13909,-1.45 24.93428,5.53087 6.59873,5.9094 10.87997,17.1034 8.8608,23.16801 -1.60456,4.81932 -6.3618,7.05683 -10.8833,5.11883 z"
     style="fill:#e76d6b;stroke-width:0.85570264" />
  <path
     inkscape:connector-curvature="0"
     id="path95"
     d="m 65.42732,372.38739 c -3.82961,-1.64172 -8.31344,-5.88828 -10.26218,-9.71912 -0.83427,-1.64 -3.37011,-10.4577 -5.63521,-19.59488 -2.2651,-9.13718 -4.47568,-17.06717 -4.9124,-17.62222 -0.43673,-0.55504 -2.41145,-1.83537 -4.38826,-2.84518 -4.90569,-2.50595 -8.23419,-5.7185 -10.12974,-9.77687 -2.02759,-4.34109 -2.22033,-18.26605 -0.35128,-25.37907 1.54642,-5.88516 6.16892,-15.16105 9.80649,-19.67851 1.95427,-2.42698 2.66688,-4.19844 2.66688,-6.6295 0,-1.82464 0.79543,-5.65807 1.76762,-8.51871 6.4598,-19.00787 28.58546,-34.253 61.62366,-42.46021 21.02156,-5.22209 30.43207,-6.33225 53.49669,-6.31102 15.86225,0.0146 23.12205,0.37583 29.42761,1.46423 10.18719,1.75841 10.10803,1.75736 10.10803,0.13347 0,-0.72126 -2.70733,-10.23716 -6.01629,-21.14645 -3.30896,-10.90929 -6.0163,-20.70707 -6.0163,-21.77285 0,-1.06577 0.64367,-3.01788 1.43037,-4.33801 1.33987,-2.24837 1.33307,-2.70686 -0.10743,-7.24651 -3.5024,-11.03763 -0.2167,-22.40751 8.67414,-30.01616 3.68802,-3.15615 4.73947,-4.734 6.30166,-9.45655 2.88816,-8.73103 6.56582,-14.419374 14.14229,-21.874283 10.98247,-10.806253 22.95449,-15.717042 38.3166,-15.717042 15.36212,0 27.33413,4.910789 38.3166,15.717042 7.57647,7.454909 11.25414,13.143253 14.14229,21.874283 1.5622,4.72255 2.61365,6.3004 6.30167,9.45655 8.89084,7.60865 12.17654,18.97853 8.67413,30.01616 -1.44049,4.53965 -1.44729,4.99814 -0.10742,7.24651 0.7867,1.32013 1.43036,3.27087 1.43036,4.33499 0,1.06412 -3.88758,14.76604 -8.63908,30.44872 -4.75149,15.68267 -8.43786,29.03371 -8.19194,29.66898 0.36073,0.93181 4.84397,1.15502 23.19935,1.15502 12.51372,0 22.94755,-0.31329 23.18629,-0.69619 0.23873,-0.38291 -0.1633,-2.39564 -0.89341,-4.47274 -1.84689,-5.25426 -1.20338,-15.36119 1.28314,-20.15294 2.75046,-5.30035 6.75733,-9.45061 11.90366,-12.32961 4.94387,-2.76574 5.38799,-3.8965 3.39105,-8.63402 -1.6293,-3.86535 -6.03334,-7.28336 -10.24454,-7.95086 -6.94432,-1.10073 -9.82256,-7.42674 -5.38185,-11.82859 1.66898,-1.65439 2.97045,-2.08335 6.23116,-2.05377 12.30439,0.11164 21.13712,8.63255 25.1304,24.24323 0.75198,2.9397 1.39915,3.62161 4.71148,4.96432 5.29165,2.14507 10.81912,7.19494 13.78207,12.59122 3.11863,5.67984 3.96805,15.21987 1.88323,21.15102 -0.73012,2.0771 -1.13215,4.08983 -0.89342,4.47274 0.23875,0.3829 7.58392,0.69619 16.32262,0.69619 15.72336,0 15.91048,0.0217 17.99815,2.09116 l 2.10961,2.09115 v 70.78941 70.78942 l -2.10961,2.09114 -2.1096,2.09116 -184.1806,-0.0333 C 90.10899,373.68087 68.08148,373.5252 65.42732,372.38739 Z M 398.47209,349.889 v -8.94549 l -63.55225,-0.21852 c -35.73117,-0.12286 -63.88299,0.10933 -64.30778,0.5304 -1.02506,1.01609 -4.9405,16.44406 -4.39526,17.31856 0.23903,0.38339 30.09427,0.59885 66.34495,0.4788 l 65.91034,-0.21826 z m 27.93279,-51.11708 v -60.48855 h -79.50101 c -43.72556,0 -79.50101,0.14524 -79.50101,0.32277 0,0.17751 1.35366,2.55107 3.00814,5.27457 1.65449,2.7235 3.00815,5.2551 3.00815,5.62579 0,0.37068 30.54549,0.77661 67.87887,0.90207 l 67.87889,0.2281 2.38282,2.36184 2.38283,2.36184 0.23423,51.95006 0.23423,51.95006 h 5.99693 5.99693 z M 65.35416,309.32863 c 1.77029,-1.03659 3.03584,-2.68489 3.66848,-4.77797 1.3062,-4.32157 3.57293,-6.16599 7.5778,-6.16599 4.00486,0 6.27159,1.84442 7.57779,6.16599 1.4409,4.7672 5.02822,6.57456 13.04949,6.57456 8.02128,0 11.6086,-1.80736 13.0495,-6.57456 1.3062,-4.32157 3.57293,-6.16599 7.57779,-6.16599 4.00487,0 6.2716,1.84442 7.5778,6.16599 1.44089,4.7672 5.02822,6.57456 13.04949,6.57456 8.02128,0 11.6086,-1.80736 13.0495,-6.57456 1.30619,-4.32157 3.57293,-6.16599 7.57779,-6.16599 4.00487,0 6.2716,1.84442 7.5778,6.16599 1.44089,4.7672 5.02822,6.57456 13.04949,6.57456 8.02127,0 11.6086,-1.80736 13.04949,-6.57456 1.3062,-4.32157 3.57293,-6.16599 7.5778,-6.16599 4.00487,0 6.2716,1.84442 7.5778,6.16599 1.44089,4.7672 5.02821,6.57456 13.04949,6.57456 8.02127,0 11.6086,-1.80736 13.04949,-6.57456 1.3062,-4.32157 3.57293,-6.16599 7.5778,-6.16599 4.00486,0 6.2716,1.84442 7.57779,6.16599 1.19883,3.96631 4.61563,6.11351 10.71366,6.73275 5.3917,0.54751 10.71212,-0.74003 13.43013,-3.25009 1.86153,-1.7191 1.96881,-2.33706 1.5924,-9.17313 -0.50435,-9.15968 -2.62799,-14.72853 -8.70833,-22.83585 -4.30853,-5.74484 -4.6279,-6.51022 -5.02768,-12.04879 -0.26579,-3.68212 -1.18036,-7.47613 -2.42327,-10.05255 -9.70023,-20.10763 -53.07503,-35.60201 -99.66386,-35.60201 -38.40138,0 -76.66125,10.88971 -92.39237,26.29715 -6.56837,6.43322 -9.13124,11.55048 -9.69475,19.35741 -0.39978,5.53857 -0.71916,6.30395 -5.02768,12.04879 -6.08034,8.10732 -8.20399,13.67617 -8.70834,22.83585 -0.37692,6.84553 -0.27104,7.45226 1.60243,9.1824 1.10332,1.0189 3.17842,2.21352 4.61134,2.65471 3.93636,1.21199 12.74543,0.45151 15.85394,-1.36867 z m 90.33449,-38.0269 c -3.64795,-1.88881 -4.38925,-4.48815 -4.12579,-14.46688 0.21572,-8.17053 0.44623,-9.33992 2.17938,-11.05601 2.66417,-2.63793 8.07242,-2.63686 10.7347,0.003 1.79487,1.77916 1.93815,2.67348 1.93815,12.09727 0,9.04603 -0.19122,10.36564 -1.72192,11.88295 -2.24819,2.22851 -6.32779,2.92646 -9.00452,1.54053 z m -41.25458,-20.48142 c -4.26431,-2.13877 -5.32487,-8.22459 -2.05703,-11.80393 0.75756,-0.82976 6.74535,-3.28202 13.30619,-5.44946 12.73554,-4.2073 15.52726,-4.37803 18.49184,-1.13087 2.0809,2.27925 2.07587,7.71701 -0.009,10.00089 -1.47788,1.61875 -23.36952,9.49378 -26.31182,9.4651 -0.7085,-0.007 -2.24747,-0.49369 -3.41992,-1.08173 z m 72.63151,-2.76631 c -6.13245,-2.09456 -11.92508,-4.57668 -12.87252,-5.51584 -2.2399,-2.22031 -2.32104,-7.72297 -0.14895,-10.10211 2.96458,-3.24716 5.7563,-3.07643 18.49184,1.13087 6.88212,2.27358 12.59849,4.67431 13.51173,5.6746 2.19566,2.40495 2.1049,7.8873 -0.16787,10.14018 -3.07985,3.05291 -6.74613,2.79418 -18.81423,-1.3277 z m 211.40651,26.86328 v -8.94549 l -58.87372,-0.22057 c -32.38055,-0.12131 -59.37956,-0.029 -59.99781,0.20518 -0.82951,0.31417 -0.57254,1.1534 0.98058,3.2024 1.15758,1.52716 3.50684,5.55898 5.22059,8.9596 l 3.1159,6.18295 54.77723,-0.21929 54.77723,-0.21929 z M 303.17034,152.60962 c 4.25312,-3.14859 5.91683,-6.12821 5.91683,-10.59675 0,-4.73601 -1.90439,-7.88352 -6.52505,-10.78441 -5.3664,-3.36907 -6.59094,-4.99838 -7.65497,-10.18536 -3.43014,-16.72131 -16.4298,-29.17021 -33.35383,-31.940699 -20.9032,-3.421891 -41.24412,10.6031 -45.63345,31.464119 -1.3289,6.3158 -2.07443,7.3909 -6.94884,10.02068 -8.22856,4.43936 -10.04341,13.35805 -4.03739,19.84082 4.03273,4.35283 3.81012,4.33496 51.44867,4.1296 43.364,-0.18692 44.47145,-0.23303 46.78803,-1.948 z M 271.2439,134.11278 c -1.54812,-1.31999 -2.52277,-3.28627 -3.06165,-6.17665 -1.31396,-7.04772 -5.25261,-10.95191 -12.36253,-12.25438 -7.93989,-1.45451 -10.70319,-7.93739 -5.55744,-13.03812 2.47216,-2.45053 2.92183,-2.57777 7.61784,-2.15568 13.50347,1.21374 24.39917,11.9505 25.61498,25.2413 0.44315,4.84436 0.3303,5.24753 -2.15966,7.71571 -3.21476,3.18664 -6.85488,3.42752 -10.09154,0.66782 z"
     style="fill:#e9403d;stroke-width:0.85570264" />
  <path
     inkscape:connector-curvature="0"
     id="path93"
     d="m 65.42732,372.38739 c -3.82961,-1.64172 -8.31344,-5.88828 -10.26218,-9.71912 -0.83427,-1.64 -3.37011,-10.4577 -5.63521,-19.59488 -2.2651,-9.13718 -4.47568,-17.06717 -4.9124,-17.62222 -0.43673,-0.55504 -2.41145,-1.83537 -4.38826,-2.84518 -4.90569,-2.50595 -8.23419,-5.7185 -10.12974,-9.77687 -2.02759,-4.34109 -2.22033,-18.26605 -0.35128,-25.37907 1.54642,-5.88516 6.16892,-15.16105 9.80649,-19.67851 1.95427,-2.42698 2.66688,-4.19844 2.66688,-6.6295 0,-1.82464 0.79543,-5.65807 1.76762,-8.51871 6.4598,-19.00787 28.58546,-34.253 61.62366,-42.46021 21.02156,-5.22209 30.43207,-6.33225 53.49669,-6.31102 15.86225,0.0146 23.12205,0.37583 29.42761,1.46423 10.18719,1.75841 10.10803,1.75736 10.10803,0.13347 0,-0.72126 -2.70733,-10.23716 -6.01629,-21.14645 -3.30896,-10.90929 -6.0163,-20.70707 -6.0163,-21.77285 0,-1.06577 0.64367,-3.01788 1.43037,-4.33801 1.33987,-2.24837 1.33307,-2.70686 -0.10743,-7.24651 -3.5024,-11.03763 -0.2167,-22.40751 8.67414,-30.01616 3.68802,-3.15615 4.73947,-4.734 6.30166,-9.45655 2.88816,-8.73103 6.56582,-14.419374 14.14229,-21.874283 10.98247,-10.806253 22.95449,-15.717042 38.3166,-15.717042 15.36212,0 27.33413,4.910789 38.3166,15.717042 7.57647,7.454909 11.25414,13.143253 14.14229,21.874283 1.5622,4.72255 2.61365,6.3004 6.30167,9.45655 8.89084,7.60865 12.17654,18.97853 8.67413,30.01616 -1.44049,4.53965 -1.44729,4.99814 -0.10742,7.24651 0.7867,1.32013 1.43036,3.27087 1.43036,4.33499 0,1.06412 -3.88758,14.76604 -8.63908,30.44872 -4.75149,15.68267 -8.43786,29.03371 -8.19194,29.66898 0.36073,0.93181 4.84397,1.15502 23.19935,1.15502 12.51372,0 22.94755,-0.31329 23.18629,-0.69619 0.23873,-0.38291 -0.1633,-2.39564 -0.89341,-4.47274 -1.84689,-5.25426 -1.20338,-15.36119 1.28314,-20.15294 2.75046,-5.30035 6.75733,-9.45061 11.90366,-12.32961 4.94387,-2.76574 5.38799,-3.8965 3.39105,-8.63402 -1.6293,-3.86535 -6.03334,-7.28336 -10.24454,-7.95086 -6.94432,-1.10073 -9.82256,-7.42674 -5.38185,-11.82859 1.66898,-1.65439 2.97045,-2.08335 6.23116,-2.05377 12.30439,0.11164 21.13712,8.63255 25.1304,24.24323 0.75198,2.9397 1.39915,3.62161 4.71148,4.96432 5.29165,2.14507 10.81912,7.19494 13.78207,12.59122 3.11863,5.67984 3.96805,15.21987 1.88323,21.15102 -0.73012,2.0771 -1.13215,4.08983 -0.89342,4.47274 0.23875,0.3829 7.58392,0.69619 16.32262,0.69619 15.72336,0 15.91048,0.0217 17.99815,2.09116 l 2.10961,2.09115 v 70.78941 70.78942 l -2.10961,2.09114 -2.1096,2.09116 -184.1806,-0.0333 C 90.10899,373.68087 68.08148,373.5252 65.42732,372.38739 Z M 398.47209,349.889 v -8.94549 l -63.55225,-0.21852 c -35.73117,-0.12286 -63.88299,0.10933 -64.30778,0.5304 -1.02506,1.01609 -4.9405,16.44406 -4.39526,17.31856 0.23903,0.38339 30.09427,0.59885 66.34495,0.4788 l 65.91034,-0.21826 z m 27.93279,-51.11708 v -60.48855 h -79.50101 c -43.72556,0 -79.50101,0.14524 -79.50101,0.32277 0,0.17751 1.35366,2.55107 3.00814,5.27457 1.65449,2.7235 3.00815,5.2551 3.00815,5.62579 0,0.37068 30.54549,0.77661 67.87887,0.90207 l 67.87889,0.2281 2.38282,2.36184 2.38283,2.36184 0.23423,51.95006 0.23423,51.95006 h 5.99693 5.99693 z m -27.50305,13.63122 v -12.77927 h -54.02236 -54.02234 l -0.51942,5.51367 c -0.28568,3.03252 -1.08326,6.57877 -1.77239,7.88055 -1.62945,3.07807 -7.09099,8.19472 -10.63395,9.96246 -1.5363,0.76651 -2.79328,1.57551 -2.79328,1.79777 0,0.22225 27.84684,0.40409 61.88187,0.40409 h 61.88187 z M 65.35416,309.32863 c 1.77029,-1.03659 3.03584,-2.68489 3.66848,-4.77797 1.3062,-4.32157 3.57293,-6.16599 7.5778,-6.16599 4.00486,0 6.27159,1.84442 7.57779,6.16599 1.4409,4.7672 5.02822,6.57456 13.04949,6.57456 8.02128,0 11.6086,-1.80736 13.0495,-6.57456 1.3062,-4.32157 3.57293,-6.16599 7.57779,-6.16599 4.00487,0 6.2716,1.84442 7.5778,6.16599 1.44089,4.7672 5.02822,6.57456 13.04949,6.57456 8.02128,0 11.6086,-1.80736 13.0495,-6.57456 1.30619,-4.32157 3.57293,-6.16599 7.57779,-6.16599 4.00487,0 6.2716,1.84442 7.5778,6.16599 1.44089,4.7672 5.02822,6.57456 13.04949,6.57456 8.02127,0 11.6086,-1.80736 13.04949,-6.57456 1.3062,-4.32157 3.57293,-6.16599 7.5778,-6.16599 4.00487,0 6.2716,1.84442 7.5778,6.16599 1.44089,4.7672 5.02821,6.57456 13.04949,6.57456 8.02127,0 11.6086,-1.80736 13.04949,-6.57456 1.3062,-4.32157 3.57293,-6.16599 7.5778,-6.16599 4.00486,0 6.2716,1.84442 7.57779,6.16599 1.19883,3.96631 4.61563,6.11351 10.71366,6.73275 5.3917,0.54751 10.71212,-0.74003 13.43013,-3.25009 1.86153,-1.7191 1.96881,-2.33706 1.5924,-9.17313 -0.50435,-9.15968 -2.62799,-14.72853 -8.70833,-22.83585 -4.30853,-5.74484 -4.6279,-6.51022 -5.02768,-12.04879 -0.26579,-3.68212 -1.18036,-7.47613 -2.42327,-10.05255 -9.70023,-20.10763 -53.07503,-35.60201 -99.66386,-35.60201 -38.40138,0 -76.66125,10.88971 -92.39237,26.29715 -6.56837,6.43322 -9.13124,11.55048 -9.69475,19.35741 -0.39978,5.53857 -0.71916,6.30395 -5.02768,12.04879 -6.08034,8.10732 -8.20399,13.67617 -8.70834,22.83585 -0.37692,6.84553 -0.27104,7.45226 1.60243,9.1824 1.10332,1.0189 3.17842,2.21352 4.61134,2.65471 3.93636,1.21199 12.74543,0.45151 15.85394,-1.36867 z m 90.33449,-38.0269 c -3.64795,-1.88881 -4.38925,-4.48815 -4.12579,-14.46688 0.21572,-8.17053 0.44623,-9.33992 2.17938,-11.05601 2.66417,-2.63793 8.07242,-2.63686 10.7347,0.003 1.79487,1.77916 1.93815,2.67348 1.93815,12.09727 0,9.04603 -0.19122,10.36564 -1.72192,11.88295 -2.24819,2.22851 -6.32779,2.92646 -9.00452,1.54053 z m -41.25458,-20.48142 c -4.26431,-2.13877 -5.32487,-8.22459 -2.05703,-11.80393 0.75756,-0.82976 6.74535,-3.28202 13.30619,-5.44946 12.73554,-4.2073 15.52726,-4.37803 18.49184,-1.13087 2.0809,2.27925 2.07587,7.71701 -0.009,10.00089 -1.47788,1.61875 -23.36952,9.49378 -26.31182,9.4651 -0.7085,-0.007 -2.24747,-0.49369 -3.41992,-1.08173 z m 72.63151,-2.76631 c -6.13245,-2.09456 -11.92508,-4.57668 -12.87252,-5.51584 -2.2399,-2.22031 -2.32104,-7.72297 -0.14895,-10.10211 2.96458,-3.24716 5.7563,-3.07643 18.49184,1.13087 6.88212,2.27358 12.59849,4.67431 13.51173,5.6746 2.19566,2.40495 2.1049,7.8873 -0.16787,10.14018 -3.07985,3.05291 -6.74613,2.79418 -18.81423,-1.3277 z m 211.40651,26.86328 v -8.94549 l -58.87372,-0.22057 c -32.38055,-0.12131 -59.37956,-0.029 -59.99781,0.20518 -0.82951,0.31417 -0.57254,1.1534 0.98058,3.2024 1.15758,1.52716 3.50684,5.55898 5.22059,8.9596 l 3.1159,6.18295 54.77723,-0.21929 54.77723,-0.21929 z m -13.64481,-53.72414 c 2.65552,-1.27427 4.14267,-2.74841 5.42818,-5.38069 2.18808,-4.48043 2.20037,-6.75228 0.0618,-11.42291 -1.27569,-2.78613 -2.54209,-4.04146 -5.35281,-5.30599 -4.71186,-2.11985 -7.00376,-2.10767 -11.52373,0.0613 -2.65551,1.27427 -4.14266,2.74841 -5.42817,5.38069 -2.18809,4.48043 -2.20038,6.75228 -0.0618,11.42291 1.2757,2.78613 2.5421,4.04146 5.35282,5.30599 4.71185,2.11985 7.00375,2.10767 11.52372,-0.0613 z m -81.65694,-68.58352 c 4.25312,-3.14859 5.91683,-6.12821 5.91683,-10.59675 0,-4.73601 -1.90439,-7.88352 -6.52505,-10.78441 -5.3664,-3.36907 -6.59094,-4.99838 -7.65497,-10.18536 -3.43014,-16.72131 -16.4298,-29.17021 -33.35383,-31.940699 -20.9032,-3.421891 -41.24412,10.6031 -45.63345,31.464119 -1.3289,6.3158 -2.07443,7.3909 -6.94884,10.02068 -8.22856,4.43936 -10.04341,13.35805 -4.03739,19.84082 4.03273,4.35283 3.81012,4.33496 51.44867,4.1296 43.364,-0.18692 44.47145,-0.23303 46.78803,-1.948 z M 271.2439,134.11278 c -1.54812,-1.31999 -2.52277,-3.28627 -3.06165,-6.17665 -1.31396,-7.04772 -5.25261,-10.95191 -12.36253,-12.25438 -7.93989,-1.45451 -10.70319,-7.93739 -5.55744,-13.03812 2.47216,-2.45053 2.92183,-2.57777 7.61784,-2.15568 13.50347,1.21374 24.39917,11.9505 25.61498,25.2413 0.44315,4.84436 0.3303,5.24753 -2.15966,7.71571 -3.21476,3.18664 -6.85488,3.42752 -10.09154,0.66782 z"
     style="fill:#9f6a55;stroke-width:0.85570264" />
  <path
     inkscape:connector-curvature="0"
     id="path91"
     d="m 66.8944,372.43758 c -9.1805,-3.33987 -11.0642,-6.60559 -16.93755,-29.36419 l -4.72708,-18.31695 -4.07948,-2.18062 c -9.3919,-5.02029 -12.64033,-10.36878 -12.6464,-20.82207 -0.007,-12.18716 3.40339,-22.69967 10.59986,-32.67342 1.87921,-2.60443 2.97182,-5.45434 3.67333,-9.58133 3.47297,-20.43146 20.35092,-35.40492 51.26737,-45.48244 31.23674,-10.18192 67.42577,-13.04338 97.72502,-7.72711 3.54531,0.62205 6.7672,0.83682 7.15975,0.47725 0.39256,-0.35956 -2.27781,-10.55421 -5.93414,-22.65478 l -6.64788,-22.00104 1.86689,-3.21544 1.86691,-3.21543 -1.82533,-5.34266 c -3.85411,-11.28073 0.80361,-24.46004 10.98599,-31.08555 1.20356,-0.78314 2.71385,-3.69212 4.1753,-8.04206 5.47006,-16.281403 18.52407,-29.096797 35.19364,-34.550339 5.8253,-1.905778 8.3858,-2.249442 16.75967,-2.249442 8.39559,0 10.92942,0.341837 16.82707,2.27014 7.33268,2.397501 15.05724,6.874488 20.91995,12.124761 5.30041,4.746707 11.62466,14.72074 14.2063,22.40488 1.46144,4.34994 2.97174,7.25892 4.1753,8.04206 10.18238,6.62551 14.8401,19.80482 10.98599,31.08555 l -1.82534,5.34266 1.8686,3.21833 1.86858,3.21833 -9.11651,30.13907 c -5.01409,16.57648 -8.91936,30.45527 -8.67839,30.84175 0.69582,1.11603 47.60755,0.8883 47.60755,-0.2311 0,-0.5136 -0.62727,-3.07266 -1.39393,-5.68681 -3.52996,-12.03642 2.68288,-25.4293 14.58029,-31.43033 3.77558,-1.9044 4.10994,-2.31171 3.60207,-4.38788 -1.65508,-6.76579 -6.86036,-12.08606 -11.82483,-12.08606 -3.01866,0 -7.54202,-4.08769 -7.54202,-6.81561 0,-2.92521 4.52433,-6.82047 7.884,-6.78779 3.95333,0.0384 11.09057,2.60858 14.21888,5.12025 4.16018,3.34012 7.96974,9.5098 10.0475,16.27217 1.88599,6.1382 2.01832,6.31235 6.38162,8.39806 12.41688,5.93543 18.58779,18.61673 15.28248,31.40573 -0.76273,2.95119 -1.38678,5.71821 -1.38678,6.14894 0,0.44812 6.83032,0.78314 15.96631,0.78314 h 15.96632 l 2.51229,2.49032 2.5123,2.49032 v 69.99108 69.99109 l -2.5123,2.49031 -2.51229,2.49032 -182.91844,-0.06 C 99.02471,373.63304 69.63988,373.43639 66.8944,372.43758 Z M 399.33156,349.889 v -9.79744 h -64.89001 -64.89002 l -2.35525,8.94549 c -1.2954,4.92002 -2.17684,9.42707 -1.95876,10.01566 0.31454,0.84895 14.21492,1.02506 67.24527,0.85195 l 66.84877,-0.21822 z m 27.50305,-51.11708 V 237.8574 L 346.689,237.64002 c -55.32963,-0.15007 -80.14561,0.0585 -80.14561,0.67346 0,0.48996 0.73951,1.9296 1.64337,3.19921 0.90384,1.2696 2.64912,3.93772 3.87839,5.92916 l 2.23504,3.62079 h 66.55772 c 46.94829,0 67.17478,0.27869 68.65208,0.9459 1.15188,0.52024 2.52375,1.88011 3.04859,3.02191 0.66535,1.44752 0.95424,17.49632 0.95424,53.01103 0,28.01425 0.27318,51.20579 0.60705,51.53675 0.33388,0.33096 3.33129,0.4907 6.6609,0.35498 l 6.05384,-0.24677 z m -179.26094,59.66916 c 0.8495,-0.45067 1.97227,-1.88833 2.49504,-3.19482 1.77672,-4.44039 7.10881,-26.90299 6.66082,-28.06021 -0.24521,-0.63343 -1.36311,-1.15169 -2.48421,-1.15169 -1.12111,0 -4.41472,-1.17708 -7.31915,-2.61574 l -5.28076,-2.61575 -5.79668,2.82874 c -5.45383,2.66142 -6.33259,2.82873 -14.85727,2.82873 -8.52049,0 -9.40533,-0.16823 -14.84394,-2.82222 l -5.78335,-2.82223 -5.78335,2.82223 c -5.43861,2.65399 -6.32345,2.82222 -14.84394,2.82222 -8.52049,0 -9.40533,-0.16823 -14.84394,-2.82222 l -5.78335,-2.82223 -5.78335,2.82223 c -5.43861,2.65399 -6.32345,2.82222 -14.84394,2.82222 -8.52049,0 -9.40533,-0.16823 -14.84394,-2.82222 l -5.78335,-2.82223 -5.78335,2.82223 c -5.43861,2.65399 -6.32345,2.82222 -14.84394,2.82222 -8.52467,0 -9.40344,-0.16731 -14.85726,-2.82873 l -5.79669,-2.82874 -5.28077,2.61575 c -2.90442,1.43866 -6.19803,2.61574 -7.31914,2.61574 -1.1211,0 -2.239,0.51826 -2.48421,1.15169 -0.44722,1.15524 4.88247,23.61527 6.65566,28.04784 0.51992,1.29968 1.57142,2.72569 2.33667,3.16891 1.89972,1.10029 175.01926,1.1377 177.09169,0.0383 z m 151.15626,-33.42906 c 0.70106,-0.69493 1.03137,-4.73306 1.03137,-12.60888 0,-7.87581 -0.33031,-11.91395 -1.03137,-12.60888 -1.4901,-1.47706 -106.45938,-1.47706 -107.94948,0 -0.56725,0.56229 -1.03136,3.06952 -1.03136,5.57163 0,7.47679 -5.13134,14.70527 -12.64933,17.819 -1.58974,0.65843 -2.65864,1.56892 -2.37533,2.0233 0.81138,1.30136 122.68927,1.10855 124.0055,-0.19617 z M 65.60277,310.11795 c 1.90256,-1.09861 3.19722,-2.74039 3.94284,-4.99995 2.83032,-8.57723 11.36777,-8.27517 14.27278,0.50496 1.45978,4.41204 5.55835,6.35421 13.40933,6.35421 8.17283,0 11.93675,-1.90219 13.57246,-6.85917 2.83033,-8.57723 11.36778,-8.27517 14.27279,0.50496 1.45977,4.41204 5.55835,6.35421 13.40933,6.35421 8.17283,0 11.93675,-1.90219 13.57246,-6.85917 2.83033,-8.57723 11.36777,-8.27517 14.27278,0.50496 1.45978,4.41204 5.55835,6.35421 13.40934,6.35421 8.17282,0 11.93675,-1.90219 13.57246,-6.85917 2.83033,-8.57723 11.36777,-8.27517 14.27278,0.50496 1.45978,4.41204 5.55835,6.35421 13.40934,6.35421 8.17282,0 11.93674,-1.90219 13.57245,-6.85917 2.83033,-8.57723 11.36778,-8.27517 14.27279,0.50496 1.19869,3.62294 5.05406,5.90104 11.0104,6.50595 5.68912,0.57777 11.39916,-0.90224 14.2027,-3.68125 2.04199,-2.02413 2.13121,-2.51101 1.7454,-9.52525 -0.51155,-9.30026 -2.83134,-15.45499 -8.66776,-22.99673 -4.07629,-5.26734 -4.45077,-6.15079 -4.99608,-11.7869 -0.72817,-7.52606 -2.9369,-12.62648 -7.67382,-17.72047 -12.06249,-12.97177 -35.62492,-22.37155 -68.70437,-27.40829 -13.54531,-2.06243 -39.74185,-2.06243 -53.28716,0 -33.07945,5.03674 -56.64187,14.43652 -68.70436,27.40829 -4.73692,5.09399 -6.94565,10.19441 -7.67383,17.72047 -0.54531,5.63611 -0.91978,6.51956 -4.99608,11.7869 -5.80307,7.49866 -8.15656,13.70768 -8.66061,22.84859 -0.46411,8.41665 0.47581,10.28516 6.23652,12.39782 4.52021,1.65772 13.17137,1.11923 16.93512,-1.05414 z m 88.89693,-40.85452 c -2.1713,-2.15231 -2.26587,-2.63404 -2.26587,-11.54203 0,-8.95816 0.0826,-9.37189 2.27417,-11.38517 2.97754,-2.73533 6.35172,-2.67788 9.21148,0.15685 2.16655,2.1476 2.26587,2.64667 2.26587,11.38518 0,8.7385 -0.0993,9.23757 -2.26587,11.38517 -1.34043,1.32869 -3.22324,2.24605 -4.60989,2.24605 -1.38665,0 -3.26946,-0.91736 -4.60989,-2.24605 z m -41.25458,-20.44684 c -2.8532,-2.82825 -2.93372,-6.23225 -0.21112,-8.92613 2.05667,-2.03498 22.35997,-9.27465 26.0103,-9.27465 2.56854,0 6.31377,4.04292 6.31377,6.81561 0,3.9527 -3.29615,6.12401 -15.19627,10.01043 -6.09772,1.99144 -11.88868,3.62079 -12.86879,3.62079 -0.9801,0 -2.80165,-1.01072 -4.04789,-2.24605 z m 74.37123,-1.46555 c -11.40486,-3.84946 -14.75523,-6.09576 -14.75523,-9.89287 0,-2.79947 3.73055,-6.84236 6.31376,-6.84236 3.65034,0 23.95363,7.23967 26.01031,9.27465 2.72259,2.69388 2.64208,6.09788 -0.21113,8.92613 -2.98511,2.959 -4.67064,2.81668 -17.35771,-1.46555 z m 211.71521,27.56624 v -9.79744 l -60.11406,-0.21883 c -34.71809,-0.12638 -60.44019,0.10445 -60.88603,0.54639 -0.4563,0.45231 0.40231,2.46768 2.09982,4.92873 1.57947,2.28993 3.83461,6.26122 5.01142,8.82508 1.17681,2.56386 2.53047,4.94484 3.00815,5.29107 0.47767,0.34622 25.62124,0.53791 55.8746,0.42597 l 55.0061,-0.20353 z m -105.17904,-63.0444 c 4.98089,-16.34242 5.06834,-14.61223 -0.72333,-14.31351 l -4.96931,0.25631 -2.80095,8.09354 c -3.09126,8.93238 -5.54586,11.92732 -9.77541,11.92732 -3.20921,0 -7.62119,-4.07707 -7.62119,-7.04268 0,-1.13412 0.77352,-4.29065 1.71894,-7.01452 0.94542,-2.72386 1.71894,-5.27583 1.71894,-5.67105 0,-0.39522 -2.47395,-0.71858 -5.49768,-0.71858 h -5.49767 l -4.81597,11.93072 c -2.64878,6.56189 -4.81597,12.31962 -4.81597,12.79497 0,0.56609 6.8713,0.78535 19.91692,0.63556 l 19.91692,-0.22869 z m 92.50095,8.67181 c 3.61647,-2.55263 5.66626,-7.2032 5.15534,-11.69643 -0.81441,-7.16226 -6.88936,-12.03847 -14.00718,-11.2432 -16.56092,1.85032 -14.3112,26.41663 2.29691,25.08161 2.23184,-0.1794 5.10423,-1.11802 6.55493,-2.14198 z M 242.48071,200.79135 c 4.32166,-10.69096 6.86615,-15.86989 8.37528,-17.04658 2.04831,-1.59711 3.53633,-1.69019 27.02028,-1.69019 h 24.85258 l 1.16657,-2.76884 c 0.64162,-1.52286 1.43844,-4.20651 1.77074,-5.96366 l 0.60417,-3.19482 h -50.90006 -50.90005 l 0.60417,3.19482 c 0.33229,1.75715 1.12912,4.4408 1.77074,5.96366 l 1.16656,2.76884 h 7.84521 c 7.52505,0 7.94772,0.10163 10.35749,2.49033 3.37773,3.34817 3.37773,7.0063 0,10.35448 -2.26891,2.24905 -3.06151,2.49032 -8.18134,2.49032 h -5.66904 l 0.58261,2.34286 c 0.32043,1.28858 1.20598,4.17537 1.96788,6.41509 l 1.38528,4.07221 9.43647,3.23001 c 5.19006,1.7765 9.68406,3.11027 9.98667,2.96393 0.30261,-0.14633 3.34361,-7.17644 6.75779,-15.62246 z m 59.97306,-46.96746 c 10.37107,-4.97662 10.12768,-18.38256 -0.4356,-23.99393 -3.85411,-2.04736 -4.6294,-2.89263 -5.46987,-5.96366 -3.78291,-13.82245 -6.81669,-19.45489 -13.85999,-25.732027 -5.56457,-4.959252 -13.38053,-8.614406 -21.13499,-9.883824 -11.66161,-1.909027 -24.52818,1.886998 -33.50108,9.883824 -7.0433,6.277137 -10.07708,11.909577 -13.85999,25.732027 -0.84047,3.07103 -1.61576,3.9163 -5.46987,5.96366 -4.79116,2.54513 -8.35821,7.74446 -8.35821,12.18291 0,4.21473 3.57441,9.65088 7.70248,11.71433 3.82579,1.91236 3.93745,1.91689 47.21438,1.91689 42.54681,0 43.45233,-0.0349 47.17274,-1.8202 z M 271.23141,133.1061 c -1.26593,-1.25485 -2.10961,-3.07519 -2.10961,-4.55173 0,-4.20936 -3.5479,-9.66519 -7.70087,-11.84212 -2.05843,-1.07901 -4.85964,-1.96182 -6.22491,-1.96182 -3.35409,0 -6.70151,-3.40441 -6.70151,-6.81562 0,-6.39185 7.18889,-8.5881 16.63899,-5.08329 9.63939,3.575 16.56354,12.61727 17.49988,22.85315 0.42514,4.64752 0.2734,5.27712 -1.75697,7.28972 -2.90509,2.87968 -6.80702,2.92487 -9.645,0.11171 z"
     style="fill:#5d5453;stroke-width:0.85570264" />
  <path
     inkscape:connector-curvature="0"
     id="path89"
     d="m 67.8668,371.88485 c -3.6717,-0.96921 -9.67964,-5.79636 -11.45874,-9.20664 -0.68142,-1.30621 -3.24305,-10.31554 -5.69252,-20.02075 -2.44946,-9.70522 -4.87919,-18.00557 -5.3994,-18.44525 -0.52022,-0.43967 -3.05797,-2.0306 -5.63946,-3.53539 -6.94574,-4.04879 -9.64065,-8.35338 -10.14942,-16.21168 -0.76588,-11.82965 2.31076,-23.00202 9.03197,-32.79835 3.10685,-4.52832 4.1417,-6.98569 5.05145,-11.99536 0.62927,-3.4652 2.31764,-8.78613 3.75191,-11.8243 3.44824,-7.30424 13.45148,-17.24645 22.79182,-22.65274 14.17916,-8.20706 35.78987,-14.89089 59.95059,-18.54171 19.85394,-3.00006 51.8108,-2.27756 67.45788,1.52511 1.28158,0.31146 2.09985,0.0184 2.4461,-0.87599 0.28617,-0.73921 -2.48892,-11.32463 -6.16684,-23.52315 l -6.68714,-22.17914 2.00015,-2.68168 2.00014,-2.68167 -1.61984,-4.3428 c -1.03587,-2.77719 -1.61024,-6.51073 -1.59321,-10.35635 0.036,-8.1333 2.96879,-14.11308 9.81788,-20.01813 3.58438,-3.09032 5.16169,-5.11365 5.5385,-7.10463 0.28976,-1.53108 2.08558,-5.97885 3.99071,-9.88394 6.34248,-13.000696 18.94675,-23.319466 33.95101,-27.794744 6.9661,-2.077759 21.29376,-2.077759 28.25987,0 15.00425,4.475278 27.60853,14.794048 33.95101,27.794744 1.90513,3.90509 3.70095,8.35286 3.99071,9.88394 0.37681,1.99098 1.95412,4.01431 5.5385,7.10463 6.84909,5.90505 9.78188,11.88483 9.81788,20.01813 0.017,3.84562 -0.55734,7.57916 -1.59322,10.35635 l -1.61983,4.3428 2.00299,2.68549 2.00298,2.68548 -9.25503,30.64094 c -5.09027,16.85251 -9.00769,31.03765 -8.70538,31.52251 0.6896,1.10603 49.12379,1.22284 49.81132,0.12012 0.26111,-0.41879 -0.17326,-2.23984 -0.96528,-4.04677 -2.12693,-4.85239 -1.96345,-14.98584 0.32269,-20.00265 2.54387,-5.58241 7.38723,-10.5464 12.89751,-13.21874 4.59512,-2.22851 4.72478,-2.38669 4.26392,-5.20172 -1.15203,-7.03699 -7.10385,-12.99746 -12.97861,-12.99746 -2.72146,0 -6.49194,-3.46367 -6.49194,-5.96366 0,-0.97974 0.99537,-2.76801 2.21194,-3.97394 2.00328,-1.98576 2.63163,-2.13871 6.66089,-1.62136 11.63396,1.49377 19.97802,10.2984 22.52786,23.77131 0.53243,2.81325 1.13134,3.38186 5.97619,5.67386 6.09587,2.88385 10.94942,7.7126 13.60116,13.53171 2.28614,5.01681 2.44962,15.15026 0.32268,20.00265 -0.79201,1.80693 -1.22639,3.62798 -0.96528,4.04677 0.26111,0.41881 7.81798,0.76145 16.79303,0.76145 16.17963,0 16.33621,0.0178 18.42789,2.09116 l 2.10961,2.09115 v 69.93746 69.93746 l -2.10961,2.09115 -2.1096,2.09116 -182.46166,-0.0881 C 137.96065,372.74789 69.85919,372.41079 67.8668,371.88485 Z m 331.7226,-11.94282 c 1.41438,-1.40201 1.41438,-18.70405 0,-20.10605 -1.55063,-1.53707 -129.01937,-1.47416 -130.30746,0.0643 -0.50039,0.59765 -1.95877,5.23627 -3.24084,10.30803 -1.954,7.72977 -2.13666,9.34339 -1.12925,9.97567 1.96278,1.2319 133.42896,0.99571 134.67755,-0.24196 z m 28.10468,-61.17011 V 237.00545 L 346.689,236.78811 c -69.99797,-0.1878 -81.00508,-0.0508 -81.00508,1.00833 0,0.67412 1.22944,3.26388 2.73207,5.75502 1.50265,2.49115 3.25199,5.39196 3.88743,6.44625 l 1.15536,1.91689 h 67.48768 67.48767 l 2.10961,2.09115 2.10961,2.09115 v 51.86577 c 0,28.52617 0.27221,52.13559 0.60491,52.46538 0.3327,0.32979 3.71686,0.48953 7.52037,0.35498 l 6.91545,-0.24463 z M 248.02627,359.5832 c 2.249,-0.85547 3.62282,-4.39845 7.25299,-18.70489 2.3021,-9.07258 3.15252,-13.84098 2.58857,-14.51455 -0.46193,-0.5517 -2.17049,-1.25055 -3.79681,-1.55298 -1.62632,-0.30243 -5.08633,-1.66019 -7.68891,-3.01726 l -4.73197,-2.46738 -4.95765,2.52383 c -9.80827,4.99319 -21.58781,4.9962 -31.38637,0.008 l -4.94195,-2.5158 -4.94196,2.5158 c -9.7925,4.98509 -21.57816,4.98509 -31.37066,0 l -4.94196,-2.5158 -4.94195,2.5158 c -6.40649,3.26136 -14.0163,4.47733 -21.05703,3.3647 -2.95443,-0.46689 -7.59557,-1.981 -10.31364,-3.3647 l -4.94196,-2.5158 -4.94195,2.5158 c -9.79856,4.98817 -21.5781,4.98516 -31.38637,-0.008 l -4.95765,-2.52383 -4.73197,2.46738 c -2.60258,1.35707 -6.06259,2.71483 -7.68891,3.01726 -1.62632,0.30243 -3.33488,1.00128 -3.7968,1.55298 -0.56395,0.67357 0.28647,5.44197 2.58857,14.51455 3.49237,13.76341 5.03509,17.88761 6.98153,18.66391 1.58221,0.63102 176.44782,0.67127 178.10481,0.041 z M 399.7613,312.40314 v -13.63122 h -54.88183 -54.88181 l -0.51835,5.50232 c -0.84005,8.91717 -4.53997,14.26511 -12.73704,18.41035 -1.82772,0.92428 -3.32312,2.05609 -3.32312,2.51514 0,0.53731 22.50369,0.83463 63.17107,0.83463 H 399.7613 Z M 61.5597,312.30171 c 5.12591,-1.40734 7.86425,-3.72907 9.15794,-7.76465 2.11744,-6.60523 9.59563,-6.73803 11.70361,-0.20784 1.40935,4.36594 4.64509,6.94289 10.29024,8.19517 3.4613,0.76782 5.57117,0.76782 9.03247,0 5.64515,-1.25228 8.88089,-3.82923 10.29024,-8.19517 1.28266,-3.97347 4.34384,-5.54859 8.18436,-4.21123 1.69608,0.59062 2.6724,1.77985 3.45727,4.21123 1.40935,4.36594 4.64509,6.94289 10.29024,8.19517 3.46129,0.76782 5.57117,0.76782 9.03247,0 5.64514,-1.25228 8.88089,-3.82923 10.29024,-8.19517 2.06662,-6.40207 9.575,-6.40207 11.64163,0 1.40935,4.36594 4.64509,6.94289 10.29024,8.19517 3.46129,0.76782 5.57117,0.76782 9.03246,0 5.64515,-1.25228 8.88089,-3.82923 10.29024,-8.19517 1.28266,-3.97347 4.34385,-5.54859 8.18436,-4.21123 1.69609,0.59062 2.67241,1.77985 3.45727,4.21123 1.40936,4.36594 4.6451,6.94289 10.29025,8.19517 3.46129,0.76782 5.57117,0.76782 9.03246,0 5.64515,-1.25228 8.88089,-3.82923 10.29024,-8.19517 2.06663,-6.40207 9.57501,-6.40207 11.64163,0 1.40935,4.36594 4.6451,6.94289 10.29024,8.19517 6.09654,1.35241 12.86472,-0.11769 16.64121,-3.61461 l 2.73632,-2.53373 -0.48563,-7.43014 c -0.59918,-9.16755 -2.73218,-14.81528 -8.59233,-22.7507 -3.94782,-5.34588 -4.47195,-6.57686 -5.05952,-11.88311 -1.80747,-16.3226 -15.22486,-28.637 -40.68919,-37.34428 -34.25618,-11.71358 -72.39888,-13.52611 -108.29326,-5.14609 -37.96407,8.86323 -58.87372,24.52516 -58.87372,44.09809 0,2.85035 -0.83504,4.61632 -4.66029,9.8558 -6.14015,8.41022 -8.2524,13.93666 -8.85591,23.17029 l -0.48562,7.43014 2.70288,2.50278 c 4.21063,3.89891 11.14163,5.23585 17.74496,3.42288 z m 93.25254,-43.34809 c -1.51059,-1.49737 -1.71894,-2.83983 -1.71894,-11.07536 0,-10.54932 1.04983,-12.77928 6.01629,-12.77928 4.96646,0 6.01629,2.22996 6.01629,12.77928 0,10.54931 -1.04983,12.77927 -6.01629,12.77927 -1.43245,0 -3.34238,-0.7573 -4.29735,-1.70391 z m -41.25458,-20.44683 c -1.94061,-1.92364 -2.2538,-5.77476 -0.6446,-7.9265 1.15261,-1.54121 22.90315,-9.11253 26.17806,-9.11253 4.29079,0 6.99362,6.04365 4.32231,9.66491 -1.14465,1.55172 -22.85676,9.07802 -26.18854,9.07802 -1.07156,0 -2.72181,-0.76675 -3.66723,-1.7039 z M 187.04238,246.31 c -6.14521,-2.07361 -11.65657,-4.41778 -12.24745,-5.20929 -2.69314,-3.60751 0.0633,-9.63295 4.40677,-9.63295 3.32488,0 24.93619,7.5399 26.10442,9.10749 2.80523,3.76418 -0.12534,9.69724 -4.72708,9.57018 -1.29995,-0.0359 -7.39145,-1.76183 -13.53666,-3.83543 z m 212.54702,38.66031 c 0.67244,-0.66656 1.03137,-4.1651 1.03137,-10.05303 0,-5.88793 -0.35893,-9.38647 -1.03137,-10.05302 -0.78261,-0.77577 -15.61015,-1.02235 -61.4791,-1.02235 -51.91588,0 -60.51501,0.17376 -60.92432,1.23107 -0.26212,0.67709 0.72861,2.96742 2.20161,5.08962 1.47299,2.1222 3.81057,6.23204 5.1946,9.13299 1.38404,2.90094 3.0161,5.58865 3.6268,5.9727 1.89299,1.19043 110.1711,0.90075 111.38041,-0.29798 z M 291.88403,222.97027 c 0.91809,-1.47251 7.31923,-23.25951 7.31923,-24.91184 0,-1.4304 -0.61016,-1.57203 -5.80142,-1.34661 l -5.80143,0.25191 -2.81354,8.04866 c -3.33535,9.54134 -4.5621,11.12025 -8.63997,11.12025 -6.20241,0 -7.70263,-4.67644 -4.47938,-13.963 2.00107,-5.76534 1.93117,-5.82518 -6.37827,-5.46075 l -5.81068,0.25484 -5.02004,12.3533 c -2.76102,6.79431 -5.03906,12.83251 -5.0623,13.41823 -0.053,1.33589 41.65757,1.5666 42.4878,0.23501 z m 92.6894,-0.33216 c 8.83073,-3.65742 10.98348,-15.13329 4.11587,-21.94083 -5.575,-5.52622 -13.53559,-5.52622 -19.11058,0 -10.62869,10.5357 1.09897,27.69605 14.99471,21.94083 z M 237.08298,216.7716 c 0.45735,-0.58571 3.43352,-7.58237 6.61373,-15.54811 3.18021,-7.96575 6.53781,-15.24993 7.46133,-16.18708 1.59365,-1.61714 2.98967,-1.71657 27.41494,-1.95262 l 25.73579,-0.24872 1.7446,-5.80679 c 0.95953,-3.19373 1.7446,-6.24468 1.7446,-6.77988 0,-0.71885 -13.69785,-0.97309 -52.4277,-0.97309 -38.72985,0 -52.42769,0.25424 -52.42769,0.97309 0,0.5352 0.77916,3.56648 1.73146,6.73617 l 1.73148,5.76308 8.494,0.29243 c 10.01393,0.34476 12.10823,1.50052 12.10823,6.68207 0,4.68186 -2.26182,6.26806 -9.5173,6.67445 -6.9836,0.39115 -7.06951,0.59448 -3.98893,9.4407 l 1.90338,5.46576 9.02444,3.15401 c 10.22562,3.57383 11.4898,3.80506 12.65364,2.31453 z m 65.19598,-61.89114 c 4.13725,-1.86261 6.85956,-5.02839 8.23382,-9.57514 1.89601,-6.27295 -1.66492,-12.66599 -9.67133,-17.36319 -2.53994,-1.49014 -3.11598,-2.48711 -4.35223,-7.53259 -2.23053,-9.10343 -5.97067,-15.73199 -12.24825,-21.707305 -16.52865,-15.732763 -41.14611,-15.796189 -57.58552,-0.148367 -6.50429,6.191102 -9.75087,11.790702 -12.1046,20.877622 -1.56048,6.0244 -2.09997,7.00826 -4.67168,8.51951 -7.99013,4.69539 -11.54538,11.08812 -9.65141,17.35432 1.37426,4.54675 4.09657,7.71253 8.23382,9.57514 3.26417,1.46954 6.49274,1.57816 46.90869,1.57816 40.41596,0 43.64453,-0.10862 46.90869,-1.57816 z m -30.42894,-22.50695 c -1.02781,-1.08449 -1.86875,-2.82201 -1.86875,-3.86115 0,-2.41211 -2.21014,-7.6776 -4.11526,-9.8043 -1.90325,-2.12462 -7.72786,-4.76693 -10.56079,-4.79088 -2.83306,-0.0239 -5.95124,-3.29879 -5.95124,-6.25026 0,-1.25838 0.82277,-3.10353 1.82839,-4.10035 1.5786,-1.5648 2.51624,-1.75056 6.86348,-1.35982 12.45276,1.1193 22.4385,10.87924 23.71959,23.18326 0.43468,4.17478 0.25288,5.00699 -1.49717,6.85353 -2.5192,2.65812 -5.97169,2.71142 -8.41825,0.12997 z"
     style="fill:#050303;stroke-width:0.85570264" />
</svg>
