<?xml version="1.0" encoding="UTF-8" standalone="no"?>
<!-- Generator: Adobe Illustrator 22.0.1, SVG Export Plug-In . SVG Version: 6.00 Build 0)  -->

<svg
   xmlns:dc="http://purl.org/dc/elements/1.1/"
   xmlns:cc="http://creativecommons.org/ns#"
   xmlns:rdf="http://www.w3.org/1999/02/22-rdf-syntax-ns#"
   xmlns:svg="http://www.w3.org/2000/svg"
   xmlns="http://www.w3.org/2000/svg"
   xmlns:sodipodi="http://sodipodi.sourceforge.net/DTD/sodipodi-0.dtd"
   xmlns:inkscape="http://www.inkscape.org/namespaces/inkscape"
   version="1.1"
   id="Layer_2"
   x="0px"
   y="0px"
   viewBox="0 0 256 256"
   style="enable-background:new 0 0 256 256;"
   xml:space="preserve"
   width="512"
   height="512"
   sodipodi:docname="icon-2.svg"
   inkscape:version="0.92.4 (5da689c313, 2019-01-14)"><metadata
   id="metadata449"><rdf:RDF><cc:Work
       rdf:about=""><dc:format>image/svg+xml</dc:format><dc:type
         rdf:resource="http://purl.org/dc/dcmitype/StillImage" /><dc:title></dc:title></cc:Work></rdf:RDF></metadata><defs
   id="defs447" /><sodipodi:namedview
   pagecolor="#ffffff"
   bordercolor="#666666"
   borderopacity="1"
   objecttolerance="10"
   gridtolerance="10"
   guidetolerance="10"
   inkscape:pageopacity="0"
   inkscape:pageshadow="2"
   inkscape:window-width="1024"
   inkscape:window-height="744"
   id="namedview445"
   showgrid="false"
   inkscape:zoom="0.4609375"
   inkscape:cx="256"
   inkscape:cy="256"
   inkscape:window-x="0"
   inkscape:window-y="0"
   inkscape:window-maximized="1"
   inkscape:current-layer="Layer_2" />
<style
   type="text/css"
   id="style2">
	.st0{fill:#3A312A;}
	.st1{fill:#D7E057;}
	.st2{fill:#F16C7A;}
	.st3{fill:#8AC6DD;}
	.st4{fill:#CE4E61;}
	.st5{fill:#68A8BC;}
	.st6{fill:#87796F;}
	.st7{fill:#FCE8CB;}
	.st8{fill:#6B5B51;}
	.st9{fill:#B9BC39;}
	.st10{fill:#CCAE8B;}
	.st11{fill:#8AC6DD;stroke:#3A312A;stroke-width:3;stroke-linecap:round;stroke-linejoin:round;stroke-miterlimit:10;}
	.st12{fill:#F5978A;}
	.st13{fill-rule:evenodd;clip-rule:evenodd;fill:#D7E057;}
	.st14{fill-rule:evenodd;clip-rule:evenodd;fill:#FCE8CB;}
</style>

<path
   inkscape:connector-curvature="0"
   id="path498"
   d="m 36.627324,200.10674 c -10.685021,-2.55678 -14.081665,-19.10424 -5.779443,-28.15562 1.679107,-1.83062 3.317329,-3.3284 3.640506,-3.3284 2.156421,0 2.88513,-5.90603 5.122153,-41.51364 2.763102,-43.981498 2.700348,-40.927228 0.840922,-40.927228 -2.957897,0 -3.824138,-3.0181 -3.824138,-13.323777 0,-12.451763 0.466486,-13.323777 7.127688,-13.323777 H 48.5282 l 0.412989,-3.390489 c 0.816843,-6.705949 5.697405,-12.297777 12.392455,-14.198474 2.277861,-0.646674 3.389536,-1.508107 4.004702,-3.103222 0.889351,-2.306102 2.92264,-5.011454 6.265651,-8.336642 3.037107,-3.020923 10.275616,-4.419295 16.820732,-3.249514 4.672017,0.835007 5.706143,1.375834 8.878381,4.643183 l 3.59044,3.698092 3.73996,-1.771611 c 5.05766,-2.39579 10.91187,-2.404542 12.42956,-0.01859 0.97218,1.528345 1.58703,1.681557 4.79718,1.195398 4.11465,-0.623144 5.91047,0.652265 6.39364,4.540841 0.19362,1.558231 0.81716,2.182426 2.49833,2.500962 3.66571,0.69455 7.19795,7.938572 7.20861,14.783666 l 0.004,2.706392 h 4.87275 c 6.77464,0 7.22727,0.834429 7.22727,13.323776 0,11.314086 -0.7515,13.323776 -4.98226,13.323776 -3.35891,0 -4.11326,1.89679 -1.82231,4.58205 1.6348,1.91615 1.79475,3.46046 3.85543,37.222568 2.08694,34.1927 2.88872,40.63626 5.05643,40.63626 0.34056,0 1.99304,1.49778 3.67214,3.3284 8.57824,9.35231 4.89399,25.64422 -6.38384,28.2296 -5.14576,1.17964 -107.875852,1.11229 -112.833339,-0.074 z"
   style="fill:#f8cc90;stroke-width:0.79357296" /><path
   inkscape:connector-curvature="0"
   id="path496"
   d="m 40.030456,200.20207 c -5.383861,-0.57069 -6.960738,-1.40116 -10.073863,-5.30541 -4.019175,-5.04053 -4.782399,-12.07757 -1.961414,-18.08448 0.588212,-1.2525 2.629426,-3.70119 4.536028,-5.44155 1.906616,-1.74035 3.941644,-4.16151 4.522294,-5.38037 0.734457,-1.54171 1.750769,-13.37786 3.339774,-38.89521 1.256226,-20.17351 2.284063,-37.651278 2.284063,-38.839478 0,-1.65267 -0.534232,-2.36542 -2.273324,-3.03299 -1.377875,-0.52891 -2.447381,-1.6363 -2.71523,-2.81145 -0.630941,-2.76813 -0.05006,-20.108721 0.701287,-20.935931 0.345607,-0.380489 2.890001,-0.879164 5.654192,-1.108166 l 5.025792,-0.416369 0.566689,-3.676048 c 1.090243,-7.072272 5.717248,-12.1604 12.531288,-13.780111 1.840626,-0.437523 2.844263,-1.385288 3.915554,-3.697558 1.738683,-3.752792 6.824386,-8.969252 10.306183,-10.57117 3.284507,-1.511152 11.743334,-1.501361 15.044416,0.01742 1.417309,0.65208 4.114317,2.746032 5.993344,4.653225 l 3.416391,3.467625 4.22016,-1.73865 c 5.98661,-2.466412 9.6907,-2.316714 11.68294,0.472153 1.50588,2.10804 1.71427,2.16175 4.48324,1.155483 3.83702,-1.394402 5.96323,-0.209354 6.28849,3.504893 0.20936,2.390849 0.54455,2.753682 2.88379,3.121654 2.26131,0.355718 2.90688,0.993604 4.43185,4.379109 0.98173,2.179507 2.00267,5.926819 2.26875,8.327361 l 0.48379,4.36462 5.0435,0.416367 c 2.77393,0.229003 5.32628,0.728645 5.67188,1.110315 0.79095,0.873474 0.83448,21.840568 0.0472,22.707528 -0.31969,0.35201 -2.02126,0.85165 -3.78126,1.11032 -3.76897,0.55391 -4.56316,2.71219 -2.1332,5.79729 1.93095,2.45158 1.97012,2.82902 4.22903,40.736628 1.32852,22.29476 2.22204,32.58044 2.96595,34.14216 0.58554,1.22929 2.62459,3.65899 4.53119,5.39934 3.79884,3.46757 5.34024,6.16194 6.11004,10.68022 1.12431,6.59923 -3.51521,15.36382 -9.23268,17.44158 -2.86619,1.04161 -101.903712,1.67473 -111.008045,0.70964 z m 49.53449,-93.58889 c 0,-1.45725 -2.294302,-2.94387 -4.543259,-2.94387 -1.130838,0 -1.541301,0.43663 -1.363914,1.45087 0.214185,1.22466 1.794736,1.99845 5.339983,2.61428 0.311954,0.0542 0.56719,-0.45038 0.56719,-1.12128 z m 11.910964,-0.0193 c 0.93586,-0.29621 1.70157,-1.07541 1.70157,-1.73155 0,-1.39184 -2.48303,-1.57098 -4.587228,-0.33095 -1.863423,1.09812 -1.978053,3.5721 -0.139306,3.00746 0.727892,-0.22352 2.089144,-0.64876 3.025004,-0.94496 z M 82.18895,56.312997 c 0.362638,-1.542715 2.077786,-5.278007 3.811418,-8.30065 5.001695,-8.720596 4.114312,-14.292867 -2.276152,-14.292867 -2.836548,0 -7.418603,1.888108 -9.418525,3.881052 -0.728165,0.725629 -1.904302,3.053408 -2.613651,5.172841 -1.899176,5.674499 -3.005859,6.768093 -6.8491,6.768093 -1.847402,0 -4.182617,0.627761 -5.279726,1.419318 -2.095498,1.511886 -4.382509,6.438316 -3.619754,7.797291 0.277801,0.494971 5.400288,0.726232 13.02205,0.587897 L 81.529604,59.11793 Z"
   style="fill:#f2ac4e;stroke-width:0.79357296" /><path
   inkscape:connector-curvature="0"
   id="path494"
   d="m 33.911865,198.11173 c -9.646656,-6.88762 -9.921583,-19.3724 -0.596001,-27.06645 2.180833,-1.79929 3.651153,-3.8537 4.370136,-6.1062 0.712964,-2.23361 1.761765,-15.35645 3.066586,-38.36953 1.090667,-19.2362 2.153593,-36.181548 2.362032,-37.656318 0.344729,-2.43906 0.135066,-2.79365 -2.32006,-3.9232 l -2.699048,-1.24179 0.211222,-11.066052 0.211221,-11.066052 5.043503,-0.416367 c 2.773932,-0.229003 5.190987,-0.603734 5.371248,-0.832736 0.18026,-0.229004 0.743864,-2.290025 1.252443,-4.580049 0.50858,-2.290025 1.795448,-5.422344 2.859721,-6.960713 2.022792,-2.923877 6.961191,-5.89711 9.846821,-5.928407 1.195907,-0.01299 2.131949,-0.980397 3.219198,-3.327116 6.453005,-13.928179 21.768932,-16.681658 31.651933,-5.690342 l 3.03642,3.376942 3.30516,-1.761817 c 4.83265,-2.57604 9.80398,-3.164678 11.44707,-1.355403 0.71834,0.790977 1.17891,1.863056 1.02351,2.3824 -0.39986,1.336344 -3.60013,2.996822 -5.83499,3.027527 -1.03984,0.01433 -3.25188,0.943928 -4.91564,2.065871 -1.66375,1.121944 -3.83069,2.507552 -4.81544,3.079127 -1.929124,1.11974 -1.679027,1.339984 -6.794953,-5.983743 -3.404376,-4.87354 -10.427576,-7.163411 -15.481426,-5.047613 -3.4978,1.464356 -7.180489,5.833246 -8.441795,10.014767 -1.338824,4.438458 -2.100475,5.030264 -6.473893,5.030264 -2.193766,0 -3.599774,0.640925 -5.556908,2.53311 -2.658921,2.570675 -4.208284,6.993718 -2.939309,8.391031 0.419432,0.461847 15.635067,0.54084 38.267216,0.198666 l 37.570948,-0.568032 v -2.331573 c 0,-1.282365 -0.71696,-4.4416 -1.59323,-7.02052 -1.73061,-5.093256 -1.33575,-6.537842 1.65677,-6.061417 2.36353,0.376284 4.34264,4.37451 5.35099,10.810159 0.45592,2.909782 0.9831,5.477877 1.17153,5.706881 0.18843,0.229002 2.61217,0.603733 5.38608,0.832736 l 5.04352,0.416367 0.21261,10.758002 c 0.1278,6.467362 -0.0924,11.093872 -0.55217,11.600122 -0.42063,0.46317 -2.21786,1.06421 -3.99387,1.33564 -2.92492,0.44703 -3.21638,0.70183 -3.09413,2.70501 0.0743,1.21632 0.83994,2.98776 1.70157,3.93652 0.86163,0.94877 1.58094,2.56819 1.59848,3.5987 0.0176,1.03051 0.97746,16.862898 2.13315,35.183088 1.48183,23.4899 2.41993,33.9649 3.18219,35.53284 0.5945,1.22286 2.43412,3.40401 4.088,4.84699 9.30794,8.12095 9.0111,20.08664 -0.66976,26.99868 l -3.0182,2.15496 H 93.346202 36.930066 Z m 69.454675,-80.6493 c 1.4486,-0.34902 2.07969,-1.02173 2.07969,-2.21685 0,-1.49633 -0.31435,-1.64361 -2.45782,-1.15149 -3.176023,0.72915 -5.860946,2.61837 -5.860946,4.12398 0,0.91398 0.47777,1.02105 2.079687,0.46602 1.143839,-0.39632 3.015549,-0.94607 4.159389,-1.22166 z m -13.801594,0.0481 c 0,-1.15821 -2.410901,-2.50818 -6.239077,-3.49357 -1.760298,-0.45311 -2.079693,-0.26811 -2.079693,1.20455 0,1.22046 0.620868,1.89068 2.079693,2.24497 1.143831,0.27778 2.420005,0.63007 2.835944,0.78285 1.813461,0.66613 3.403133,0.32102 3.403133,-0.7388 z m 0.756249,-10.40826 c 0,-1.94259 -1.415232,-3.27964 -4.503855,-4.25502 -1.901913,-0.60062 -2.474108,-0.4869 -2.840527,0.56453 -0.625677,1.79541 0.680808,3.85036 2.878445,4.52749 3.295398,1.01537 4.465937,0.79599 4.465937,-0.837 z m 12.703715,-0.3118 c 0.53999,-0.49145 0.88031,-1.67579 0.75625,-2.63188 -0.45889,-3.53662 -7.409952,-0.66289 -7.409952,3.06345 0,1.43109 0.344675,1.55816 2.835943,1.04552 1.559769,-0.32096 3.277759,-0.98565 3.817759,-1.47709 z m 18.68073,-66.409053 c -1.32089,-1.607188 -1.32089,-1.723758 0,-3.330945 1.70108,-2.069785 2.27189,-2.078383 4.10326,-0.06179 1.89113,2.082388 1.27384,5.058213 -1.04924,5.058213 -0.92687,0 -2.30119,-0.749463 -3.05402,-1.665472 z"
   style="fill:#f58b06;stroke-width:0.79357296" /><path
   inkscape:connector-curvature="0"
   id="path492"
   d="m 33.911865,198.11173 c -9.646656,-6.88762 -9.921583,-19.3724 -0.596001,-27.06645 2.180833,-1.79929 3.651153,-3.8537 4.370136,-6.1062 0.712964,-2.23361 1.761765,-15.35645 3.066586,-38.36953 1.090667,-19.2362 2.153593,-36.181548 2.362032,-37.656318 0.344729,-2.43906 0.135066,-2.79365 -2.32006,-3.9232 l -2.699048,-1.24179 0.211222,-11.066052 0.211221,-11.066052 5.043503,-0.416367 c 2.773932,-0.229003 5.190987,-0.603734 5.371248,-0.832736 0.18026,-0.229004 0.743864,-2.290025 1.252443,-4.580049 0.50858,-2.290025 1.795448,-5.422344 2.859721,-6.960713 2.022792,-2.923877 6.961191,-5.89711 9.846821,-5.928407 1.195907,-0.01299 2.131949,-0.980397 3.219198,-3.327116 6.453005,-13.928179 21.768932,-16.681658 31.651933,-5.690342 l 3.03642,3.376942 3.30516,-1.761817 c 4.83265,-2.57604 9.80398,-3.164678 11.44707,-1.355403 0.71834,0.790977 1.17891,1.863056 1.02351,2.3824 -0.39986,1.336344 -3.60013,2.996822 -5.83499,3.027527 -1.03984,0.01433 -3.25188,0.943928 -4.91564,2.065871 -1.66375,1.121944 -3.83069,2.507552 -4.81544,3.079127 -1.929124,1.11974 -1.679027,1.339984 -6.794953,-5.983743 -3.404376,-4.87354 -10.427576,-7.163411 -15.481426,-5.047613 -3.4978,1.464356 -7.180489,5.833246 -8.441795,10.014767 -1.338824,4.438458 -2.100475,5.030264 -6.473893,5.030264 -2.193766,0 -3.599774,0.640925 -5.556908,2.53311 -2.658921,2.570675 -4.208284,6.993718 -2.939309,8.391031 0.419432,0.461847 15.635067,0.54084 38.267216,0.198666 l 37.570948,-0.568032 v -2.331573 c 0,-1.282365 -0.71696,-4.4416 -1.59323,-7.02052 -1.73061,-5.093256 -1.33575,-6.537842 1.65677,-6.061417 2.36353,0.376284 4.34264,4.37451 5.35099,10.810159 0.45592,2.909782 0.9831,5.477877 1.17153,5.706881 0.18843,0.229002 2.61217,0.603733 5.38608,0.832736 l 5.04352,0.416367 0.21261,10.758002 c 0.1278,6.467362 -0.0924,11.093872 -0.55217,11.600122 -0.42063,0.46317 -2.21786,1.06421 -3.99387,1.33564 -2.92492,0.44703 -3.21638,0.70183 -3.09413,2.70501 0.0743,1.21632 0.83994,2.98776 1.70157,3.93652 0.86163,0.94877 1.58094,2.56819 1.59848,3.5987 0.0176,1.03051 0.97746,16.862898 2.13315,35.183088 1.48183,23.4899 2.41993,33.9649 3.18219,35.53284 0.5945,1.22286 2.43412,3.40401 4.088,4.84699 9.30794,8.12095 9.0111,20.08664 -0.66976,26.99868 l -3.0182,2.15496 H 93.346202 36.930066 Z m 69.454675,-80.6493 c 1.4486,-0.34902 2.07969,-1.02173 2.07969,-2.21685 0,-1.49633 -0.31435,-1.64361 -2.45782,-1.15149 -3.176023,0.72915 -5.860946,2.61837 -5.860946,4.12398 0,0.91398 0.47777,1.02105 2.079687,0.46602 1.143839,-0.39632 3.015549,-0.94607 4.159389,-1.22166 z m -13.801594,0.0481 c 0,-1.15821 -2.410901,-2.50818 -6.239077,-3.49357 -1.760298,-0.45311 -2.079693,-0.26811 -2.079693,1.20455 0,1.22046 0.620868,1.89068 2.079693,2.24497 1.143831,0.27778 2.420005,0.63007 2.835944,0.78285 1.813461,0.66613 3.403133,0.32102 3.403133,-0.7388 z m 0.756249,-10.40826 c 0,-1.94259 -1.415232,-3.27964 -4.503855,-4.25502 -1.901913,-0.60062 -2.474108,-0.4869 -2.840527,0.56453 -0.625677,1.79541 0.680808,3.85036 2.878445,4.52749 3.295398,1.01537 4.465937,0.79599 4.465937,-0.837 z m 12.703715,-0.3118 c 0.53999,-0.49145 0.88031,-1.67579 0.75625,-2.63188 -0.45889,-3.53662 -7.409952,-0.66289 -7.409952,3.06345 0,1.43109 0.344675,1.55816 2.835943,1.04552 1.559769,-0.32096 3.277759,-0.98565 3.817759,-1.47709 z M 72.171156,80.769072 c 1.643818,-1.92674 2.292183,-2.08184 8.702672,-2.08184 3.809588,0 7.151237,-0.24744 7.425878,-0.54986 0.274655,-0.30243 -0.185372,-1.07798 -1.022271,-1.72345 -0.836898,-0.64546 -2.371878,-3.021145 -3.411058,-5.279288 L 81.976942,67.028923 H 63.164303 c -15.529176,0 -18.884378,0.205815 -19.223586,1.179216 -0.226029,0.648568 -0.214822,3.271686 0.02495,5.829153 l 0.435828,4.64994 h 5.328297 c 4.429835,0 5.623412,0.3053 7.078591,1.81062 l 1.7503,1.81063 1.750314,-1.81063 c 2.353592,-2.43471 5.417289,-2.32342 7.466096,0.27122 0.904129,1.14501 1.863495,2.08184 2.131919,2.08184 0.268424,0 1.287322,-0.93683 2.264202,-2.08184 z M 121.70564,40.381369 c -1.32089,-1.607187 -1.32089,-1.723757 0,-3.330945 1.70108,-2.069784 2.27189,-2.078382 4.10326,-0.06178 1.89113,2.082387 1.27384,5.058213 -1.04924,5.058213 -0.92687,0 -2.30119,-0.749463 -3.05402,-1.665472 z"
   style="fill:#f45e17;stroke-width:0.79357296" /><path
   inkscape:connector-curvature="0"
   id="path490"
   d="m 33.911865,198.11173 c -9.646656,-6.88762 -9.921583,-19.3724 -0.596001,-27.06645 2.180833,-1.79929 3.651153,-3.8537 4.370136,-6.1062 0.712964,-2.23361 1.761765,-15.35645 3.066586,-38.36953 1.090667,-19.2362 2.153593,-36.181548 2.362032,-37.656318 0.344729,-2.43906 0.135066,-2.79365 -2.32006,-3.9232 l -2.699048,-1.24179 0.211222,-11.066052 0.211221,-11.066052 5.043503,-0.416367 c 2.773932,-0.229003 5.190987,-0.603734 5.371248,-0.832736 0.18026,-0.229004 0.743864,-2.290025 1.252443,-4.580049 0.50858,-2.290025 1.795448,-5.422344 2.859721,-6.960713 2.022792,-2.923877 6.961191,-5.89711 9.846821,-5.928407 1.195907,-0.01299 2.131949,-0.980397 3.219198,-3.327116 6.453005,-13.928179 21.768932,-16.681658 31.651933,-5.690342 l 3.03642,3.376942 3.30516,-1.761817 c 4.739,-2.526128 9.80648,-3.161928 11.38118,-1.427961 0.68209,0.751069 1.04692,1.920065 0.81075,2.597773 -0.42777,1.227511 -1.19653,1.519818 -6.41237,2.438233 -1.51067,0.266 -4.17298,1.621348 -5.91625,3.011887 -1.74328,1.390538 -3.72891,2.409644 -4.412517,2.264677 -0.683602,-0.144962 -2.203414,-1.838351 -3.377344,-3.763082 -1.173939,-1.924731 -3.195977,-4.331849 -4.493432,-5.349153 -2.833872,-2.221978 -9.103684,-2.995315 -12.950494,-1.597355 -3.151301,1.145211 -7.824422,6.517338 -8.535783,9.812584 -0.757688,3.509893 -2.57602,5.402961 -4.641359,4.832165 -2.965067,-0.819446 -8.052327,2.227963 -9.560126,5.726788 -2.726273,6.326236 -5.367118,5.908577 37.359893,5.908577 h 38.180362 l -0.0635,-3.51303 c -0.0349,-1.932166 -0.67394,-5.003548 -1.41997,-6.825291 -1.60162,-3.910986 -1.1183,-6.129512 1.25274,-5.750252 2.27537,0.363957 4.27443,4.462161 5.26714,10.798061 0.45593,2.909782 0.98311,5.477877 1.17153,5.706881 0.18843,0.229002 2.61217,0.603733 5.3861,0.832736 l 5.0435,0.416367 0.21302,10.817457 c 0.24062,12.219417 -0.0409,12.915517 -5.22223,12.915517 -2.09384,0 -2.94551,0.40252 -3.27574,1.54816 -0.58102,2.01584 0.2301,4.281 1.53299,4.281 0.56477,0 1.36452,0.69473 1.77723,1.54385 0.41268,0.84911 1.64544,16.681508 2.73941,35.183098 1.28324,21.70198 2.37264,34.84387 3.06995,37.03386 0.71804,2.25512 2.1841,4.30483 4.36747,6.1062 3.45637,2.85167 6.03744,7.13122 6.82585,11.31758 0.97454,5.17475 -2.27779,12.07606 -7.42186,15.74887 l -3.01821,2.15496 H 93.346202 36.930066 Z m 58.678089,-8.81567 c 7.097921,-3.84554 16.637536,-10.97135 16.637536,-12.42773 0,-0.41304 -1.29319,-0.75098 -2.87376,-0.75098 -3.25321,0 -4.68876,-1.16709 -4.68876,-3.81191 0,-2.90941 1.5542,-3.5981 8.70236,-3.85608 l 6.73297,-0.24301 2.07006,-3.33094 c 3.28588,-5.28736 6.54663,-13.14868 8.36443,-20.16574 2.17252,-8.38643 2.3554,-24.46198 0.37212,-32.713 -1.82693,-7.60053 -6.01878,-16.644248 -9.90809,-21.376188 l -3.30602,-4.02226 -20.440504,-0.24604 c -16.679144,-0.20077 -20.607009,-0.46695 -21.345278,-1.44648 -1.306061,-1.73287 -0.292396,-5.09932 1.713682,-5.69123 0.940414,-0.27748 16.598547,-0.50962 34.79585,-0.51587 l 33.08601,-0.0113 v -5.82918 -5.829153 H 92.968082 43.433589 v 5.829153 5.82915 h 5.125481 c 5.49184,0 8.487051,1.42731 8.487051,4.04435 0,2.29428 -1.578903,3.45028 -4.712507,3.45028 -1.653499,0 -3.02655,0.4469 -3.198084,1.04092 -0.165331,0.5725 -1.35136,18.422298 -2.635612,39.666218 -1.807411,29.89787 -2.613576,39.27168 -3.56786,41.48608 -0.67807,1.57343 -3.039391,4.5782 -5.247389,6.67724 -2.208012,2.09903 -4.369804,4.93857 -4.804013,6.31009 -1.208597,3.81762 0.241834,8.60929 3.217912,10.63076 2.292365,1.55707 3.650124,1.63158 25.863189,1.41932 l 23.443804,-0.22405 z M 49.914606,174.28231 c -0.995288,-1.5647 -1.015918,-2.0861 -0.140057,-3.53913 0.990674,-1.64355 1.81331,-1.71195 23.153296,-1.92503 15.693495,-0.15672 22.427542,0.0546 23.162886,0.72651 1.515271,1.38476 1.266981,4.71294 -0.426038,5.71065 -0.910212,0.5364 -9.607152,0.86204 -23.022802,0.86204 -21.366773,0 -21.570462,-0.0167 -22.727255,-1.83504 z m 40.827596,-16.67046 c -0.812637,-1.27753 -1.177256,-3.79409 -1.177256,-8.12516 v -6.27442 l -3.43473,0.3008 c -8.346357,0.73095 -12.17467,-4.35192 -14.009412,-18.60044 -0.529633,-4.11302 -0.41851,-5.3545 0.633527,-7.07826 0.848696,-1.39055 1.19872,-3.3524 1.045518,-5.85997 -0.176872,-2.89508 0.111472,-4.11017 1.242976,-5.23771 1.17706,-1.17297 1.396963,-2.21352 1.093767,-5.17561 -0.593371,-5.796688 0.398242,-6.543548 7.850316,-5.912808 5.089861,0.4308 6.250118,0.30358 6.608427,-0.72462 0.611658,-1.75514 3.778671,-1.55169 5.335658,0.34276 1.068963,1.30065 1.743603,1.45196 3.707841,0.83165 3.748076,-1.18365 8.640756,-1.13517 9.991246,0.099 0.88107,0.80517 1.1624,2.19576 0.99572,4.921798 -0.15901,2.60067 0.19142,4.49473 1.1106,6.00273 0.82404,1.35188 1.27633,3.44606 1.17056,5.4199 -0.10044,1.87304 0.34545,4.08696 1.06727,5.3 1.0106,1.69839 1.12097,3.00483 0.59737,7.07115 -1.83998,14.28909 -5.82578,19.54185 -14.05354,18.52067 l -3.390596,-0.42082 v 6.37431 c 0,6.88553 -1.197273,10.07583 -3.781262,10.07583 -0.784713,0 -1.956508,-0.83284 -2.604,-1.85076 z m -0.421007,-39.24059 c 0,-2.93443 -8.688952,-6.78593 -9.574735,-4.24414 -0.735984,2.1119 0.209739,3.22571 3.580186,4.21654 4.562422,1.34123 5.994549,1.34782 5.994549,0.0276 z m 11.366805,0.12376 c 3.9181,-0.99587 5.03661,-2.1335 4.26751,-4.34042 -0.89417,-2.56583 -9.584302,1.25744 -9.584302,4.21666 0,1.36963 0.380289,1.37848 5.316792,0.12376 z M 90.321195,106.61318 c 0,-2.27085 -1.585192,-3.52656 -4.958756,-3.92808 -1.92767,-0.22943 -2.225633,0.0105 -2.225633,1.79235 0,2.23926 2.514688,4.15459 5.482825,4.176 1.307362,0.009 1.701564,-0.46323 1.701564,-2.04027 z m 12.703715,0.17724 c 0.53999,-0.49145 0.88031,-1.67579 0.75625,-2.63188 -0.17998,-1.38697 -0.67543,-1.68479 -2.45121,-1.47344 -3.424195,0.40755 -4.958742,1.65183 -4.958742,4.02076 0,2.02751 0.155611,2.1132 2.835943,1.56166 1.559769,-0.32097 3.277759,-0.98566 3.817759,-1.4771 z M 61.394568,85.282412 c -3.343329,-2.14425 0.392873,-7.41845 4.142989,-5.84846 1.039135,0.43503 2.075714,1.57577 2.303513,2.53498 0.793958,3.34317 -3.199641,5.39587 -6.446502,3.31348 z M 122.6879,40.39179 c -1.38584,-1.252747 -1.57415,-1.867705 -0.92823,-3.031446 1.20442,-2.170036 2.32055,-2.275229 4.04094,-0.380852 2.8053,3.089016 -0.0309,6.198151 -3.11271,3.412298 z"
   style="fill:#e53602;stroke-width:0.79357296" /><path
   inkscape:connector-curvature="0"
   id="path488"
   d="m 33.911865,198.11173 c -9.646656,-6.88762 -9.921583,-19.3724 -0.596001,-27.06645 2.180833,-1.79929 3.651153,-3.8537 4.370136,-6.1062 0.712964,-2.23361 1.761765,-15.35645 3.066586,-38.36953 1.090667,-19.2362 2.153593,-36.181548 2.362032,-37.656318 0.344729,-2.43906 0.135066,-2.79365 -2.32006,-3.9232 l -2.699048,-1.24179 0.211222,-11.066052 0.211221,-11.066052 5.043503,-0.416367 c 2.773932,-0.229003 5.190987,-0.603734 5.371248,-0.832736 0.18026,-0.229004 0.743864,-2.290025 1.252443,-4.580049 0.50858,-2.290025 1.795448,-5.422344 2.859721,-6.960713 2.022792,-2.923877 6.961191,-5.89711 9.846821,-5.928407 1.195907,-0.01299 2.131949,-0.980397 3.219198,-3.327116 6.453005,-13.928179 21.768932,-16.681658 31.651933,-5.690342 l 3.03642,3.376942 3.30516,-1.761817 c 4.739,-2.526128 9.80648,-3.161928 11.38118,-1.427961 0.68209,0.751069 1.04692,1.920065 0.81075,2.597773 -0.42777,1.227511 -1.19653,1.519818 -6.41237,2.438233 -1.51067,0.266 -4.17298,1.621348 -5.91625,3.011887 -1.74328,1.390538 -3.72891,2.409644 -4.412517,2.264677 -0.683602,-0.144962 -2.203414,-1.838351 -3.377344,-3.763082 -1.173939,-1.924731 -3.195977,-4.331849 -4.493432,-5.349153 -2.833872,-2.221978 -9.103684,-2.995315 -12.950494,-1.597355 -3.151301,1.145211 -7.824422,6.517338 -8.535783,9.812584 -0.757688,3.509893 -2.57602,5.402961 -4.641359,4.832165 -2.965067,-0.819446 -8.052327,2.227963 -9.560126,5.726788 -2.726273,6.326236 -5.367118,5.908577 37.359893,5.908577 h 38.180362 l -0.0635,-3.51303 c -0.0349,-1.932166 -0.67394,-5.003548 -1.41997,-6.825291 -1.60162,-3.910986 -1.1183,-6.129512 1.25274,-5.750252 2.27537,0.363957 4.27443,4.462161 5.26714,10.798061 0.45593,2.909782 0.98311,5.477877 1.17153,5.706881 0.18843,0.229002 2.61217,0.603733 5.3861,0.832736 l 5.0435,0.416367 0.21075,10.991676 c 0.19953,10.406538 0.1269,11.041078 -1.36401,11.919688 -2.44448,1.44056 -17.57446,1.78493 -46.78764,1.06493 -24.166004,-0.59561 -26.845934,-0.79972 -27.590358,-2.10135 -0.627689,-1.09751 -0.549689,-1.74428 0.326731,-2.70934 0.9914,-1.09166 5.925233,-1.29619 35.531027,-1.47292 l 34.37975,-0.20523 0.22637,-5.754606 c 0.12448,-3.165034 -0.0983,-5.975519 -0.49522,-6.24552 -0.3969,-0.270001 -22.78928,-0.490912 -49.760873,-0.490912 H 43.811716 v 6.245521 6.245517 l 5.85127,0.24302 c 4.968634,0.20637 5.974722,0.49703 6.669687,1.92689 1.18072,2.42934 -0.264552,3.93391 -4.072038,4.23909 -3.100375,0.2485 -3.165367,0.31797 -3.742357,4.0002 -0.32295,2.06102 -1.560783,20.130508 -2.750714,40.154408 -2.119834,35.67186 -2.203294,36.48181 -4.132689,40.10705 -1.083043,2.03497 -3.171523,4.51819 -4.641072,5.51828 -4.651991,3.16585 -6.178939,9.01829 -3.719382,14.25554 2.339495,4.98167 1.21392,4.88947 59.693661,4.88947 58.815068,0 57.170548,0.14106 60.102608,-5.15449 2.84771,-5.14319 2.17887,-7.66751 -3.70898,-13.99834 -3.70607,-3.98488 -5.46985,-6.5781 -6.02271,-8.85496 -0.42999,-1.7709 -1.3071,-12.21337 -1.94913,-23.20548 -0.64202,-10.99211 -1.55568,-26.59648 -2.03035,-34.67634 -0.47467,-8.07988 -0.65298,-15.293458 -0.39623,-16.030168 0.63524,-1.82284 3.31394,-1.69362 4.23641,0.20436 0.41269,0.84911 1.64544,16.681508 2.73942,35.183098 1.28323,21.70198 2.37264,34.84387 3.06994,37.03386 0.71805,2.25512 2.1841,4.30483 4.36747,6.1062 3.45638,2.85167 6.03745,7.13122 6.82586,11.31758 0.97454,5.17475 -2.2778,12.07606 -7.42187,15.74887 l -3.0182,2.15496 H 93.346202 36.930066 Z m 72.290615,-22.59064 c -3.2298,-0.40231 -4.79959,-2.30494 -3.72536,-4.5152 0.65314,-1.34381 1.70391,-1.55043 7.88474,-1.55043 6.32964,0 7.22112,0.18505 7.93137,1.64639 0.63556,1.30765 0.48545,1.99296 -0.72964,3.33094 -1.53835,1.69393 -4.34262,1.96256 -11.36111,1.0883 z m -56.006034,-1.54318 c -0.729041,-0.96727 -0.786018,-1.71037 -0.208453,-2.71859 0.712827,-1.24437 3.126677,-1.3875 23.399956,-1.3875 h 22.60514 v 2.49821 2.49821 l -22.396687,0.22039 c -19.757348,0.19445 -22.514914,0.0636 -23.399956,-1.11072 z m 41.032252,-16.3473 c -0.558052,-0.6145 -0.907503,-3.62465 -0.907503,-7.81702 v -6.81775 l -5.407152,-0.33643 c -5.128809,-0.31911 -5.5305,-0.49355 -7.803127,-3.38847 -3.629463,-4.62332 -6.280383,-19.18332 -3.89034,-21.36748 0.838547,-0.76632 1.219335,-2.48093 1.219335,-5.49043 0,-2.87398 0.389378,-4.73196 1.134377,-5.41278 0.744983,-0.68082 1.134378,-2.53879 1.134378,-5.41278 0,-6.149958 0.889065,-6.783748 7.649819,-5.453348 5.077096,0.9991 5.393436,0.96634 6.807459,-0.70493 1.829118,-2.16189 2.062117,-2.16524 4.098359,-0.0589 1.533204,1.58604 1.980467,1.6315 7.025737,0.71402 6.8223,-1.24062 7.6937,-0.61734 7.6937,5.503078 0,2.87399 0.38938,4.73196 1.13438,5.41279 0.73423,0.67098 1.13438,2.51971 1.13438,5.24098 0,2.74887 0.43462,4.73318 1.25549,5.73196 1.12341,1.36691 1.1571,2.25593 0.3202,8.45011 -1.61357,11.94257 -5.5578,16.81928 -13.43892,16.61609 l -4.018062,-0.10359 v 6.52982 c 0,3.5914 -0.206575,7.12257 -0.459043,7.84703 -0.540988,1.55244 -3.386931,1.74563 -4.683467,0.31796 z M 88.24462,135.10509 c 0.680642,-0.5725 1.447255,-2.00144 1.703594,-3.17541 0.683409,-3.13002 -1.560752,-5.62419 -6.289625,-6.99027 -3.47779,-1.00467 -4.071856,-0.99901 -4.434721,0.0422 -0.49905,1.43204 1.043204,8.61624 2.170866,10.1124 1.019428,1.35256 5.246905,1.35939 6.849886,0.011 z m 17.72935,-1.49239 c 0.50414,-1.16431 1.1456,-3.69375 1.42547,-5.62096 l 0.50886,-3.50403 -2.55448,0.083 c -7.576341,0.24619 -11.212297,5.6702 -6.948387,10.36536 1.881377,2.07164 6.443967,1.27387 7.568537,-1.32337 z M 90.321195,118.37126 c 0,-2.93443 -8.688952,-6.78593 -9.574735,-4.24414 -0.735984,2.1119 0.209739,3.22571 3.580186,4.21654 4.562422,1.34123 5.994549,1.34782 5.994549,0.0276 z m 11.366805,0.12376 c 3.9181,-0.99587 5.03661,-2.1335 4.26751,-4.34042 -0.89417,-2.56583 -9.584302,1.25744 -9.584302,4.21666 0,1.36963 0.380289,1.37848 5.316792,0.12376 z M 90.321195,106.61318 c 0,-2.27085 -1.585192,-3.52656 -4.958756,-3.92808 -1.92767,-0.22943 -2.225633,0.0105 -2.225633,1.79235 0,2.23926 2.514688,4.15459 5.482825,4.176 1.307362,0.009 1.701564,-0.46323 1.701564,-2.04027 z m 12.703715,0.17724 c 0.53999,-0.49145 0.88031,-1.67579 0.75625,-2.63188 -0.17998,-1.38697 -0.67543,-1.68479 -2.45121,-1.47344 -3.424195,0.40755 -4.958742,1.65183 -4.958742,4.02076 0,2.02751 0.155611,2.1132 2.835943,1.56166 1.559769,-0.32097 3.277759,-0.98566 3.817759,-1.4771 z M 61.11781,84.148652 c -0.83221,-2.38801 0.06957,-4.20839 2.219584,-4.48068 2.444342,-0.30956 4.296251,1.06799 4.296251,3.19581 0,2.5052 -5.698932,3.62899 -6.515835,1.28487 z M 122.6879,40.39179 c -1.38584,-1.252747 -1.57415,-1.867705 -0.92823,-3.031446 1.20442,-2.170036 2.32055,-2.275229 4.04094,-0.380852 2.8053,3.089016 -0.0309,6.198151 -3.11271,3.412298 z"
   style="fill:#99260b;stroke-width:0.79357296" /><path
   inkscape:connector-curvature="0"
   id="path486"
   d="m 37.632307,199.71522 c 0.275442,-0.3033 -0.813365,-1.19934 -2.419568,-1.99119 -2.83437,-1.39733 -6.904185,-6.20349 -6.904185,-8.15332 0,-0.52928 -0.340313,-0.96233 -0.756251,-0.96233 -0.415939,0 -0.756252,-2.08313 -0.756252,-4.62919 0,-2.87407 0.286725,-4.43407 0.756252,-4.11453 0.415938,0.28306 0.756251,-0.13823 0.756251,-0.93613 0,-0.79794 2.350945,-3.929 5.224339,-6.95789 4.551274,-4.79761 5.282841,-5.98488 5.678452,-9.21575 0.759701,-6.20419 4.839361,-76.003318 4.49932,-76.979078 -0.174634,-0.50111 -1.340033,-1.3361 -2.589784,-1.85553 l -2.272264,-0.94443 0.212793,-10.26349 0.212794,-10.263488 3.781259,-0.217604 c 6.54852,-0.376856 6.995117,-0.646416 7.568265,-4.568012 0.808161,-5.529735 3.641201,-10.198278 7.406714,-12.205488 1.800953,-0.960002 3.932721,-1.751194 4.737267,-1.758208 2.079617,-0.01813 2.960303,-0.836203 4.468616,-4.150929 2.464458,-5.415967 8.527752,-10.825569 12.133727,-10.825569 0.665017,0 0.998812,-0.374731 0.741747,-0.832736 -0.290416,-0.517412 1.141395,-0.832736 3.781258,-0.832736 2.639849,0 4.071659,0.315324 3.781259,0.832736 -0.257065,0.458005 0.08001,0.832736 0.749173,0.832736 2.06617,0 5.909182,2.52224 9.251715,6.072078 l 3.194636,3.392764 3.61162,-1.854489 c 4.53641,-2.329334 10.25046,-2.790285 10.61415,-0.856242 0.19467,1.035286 -0.772,1.563209 -4.23679,2.313809 -2.70218,0.585384 -5.73828,1.968939 -7.62741,3.47583 -1.72611,1.376842 -3.479102,2.271467 -3.895552,1.988056 -0.416459,-0.28341 -1.606238,-1.996297 -2.643951,-3.806414 -3.495561,-6.097351 -10.040195,-9.022137 -16.418301,-7.337307 -4.818488,1.272844 -9.888143,6.533183 -11.109383,11.527251 -0.772738,3.15996 -1.022664,3.404858 -3.47466,3.404858 -6.18263,0 -11.118277,4.481142 -11.224379,10.190797 l -0.06594,3.549347 h 38.946962 38.946964 l 0.23174,-3.520983 c 0.14656,-2.225979 -0.33798,-4.939189 -1.31727,-7.376945 -1.60925,-4.005911 -1.50617,-5.340425 0.41249,-5.340425 1.4428,0 3.21604,4.677305 4.23084,11.159691 0.43728,2.793265 0.94922,5.266028 1.13762,5.495031 0.18843,0.229002 2.61218,0.603733 5.3861,0.832736 l 5.0435,0.416367 0.21204,10.158186 c 0.1938,9.284952 0.0877,10.231462 -1.23438,11.010562 -0.94069,0.55437 -13.83878,0.7877 -36.89023,0.66739 -34.883659,-0.18208 -35.443831,-0.21132 -35.443831,-1.85047 0,-1.63803 0.56973,-1.66904 34.575971,-1.88204 39.2589,-0.2459 35.90087,0.47243 35.9562,-7.691545 0.0561,-8.277142 5.38513,-7.497506 -51.247754,-7.497506 -48.520534,0 -49.88041,0.04325 -50.642244,1.610728 -1.13359,2.332358 -0.991431,11.318523 0.196248,12.403883 0.538497,0.49213 3.516238,1.00642 6.617203,1.14289 5.058809,0.22262 5.638083,0.41923 5.638083,1.91359 0,1.34993 -0.630199,1.74436 -3.326297,2.08184 -1.850851,0.23168 -3.599774,0.97044 -3.94281,1.66547 -0.339073,0.68701 -1.654921,18.661098 -2.924108,39.942408 -2.60326,43.65037 -2.613379,43.70648 -8.721836,48.33424 -2.301092,1.74332 -3.646297,3.57864 -4.565477,6.22888 -1.229287,3.54442 -1.230149,3.96778 -0.01512,7.47146 0.839107,2.41938 2.158267,4.30628 3.784193,5.41279 2.452358,1.66891 3.458052,1.69864 57.461657,1.69864 59.824362,0 57.400622,0.18617 60.873712,-4.67571 1.12557,-1.57564 1.57929,-3.41273 1.57929,-6.3945 0,-4.06065 -0.14384,-4.33525 -4.88961,-9.33458 -2.68929,-2.83297 -5.26583,-6.23968 -5.72564,-7.57047 -0.45982,-1.33079 -1.82747,-18.33815 -3.03923,-37.79415 -1.8251,-29.304 -2.03184,-35.563218 -1.20471,-36.473998 0.81857,-0.90137 1.14473,-0.90439 1.81041,-0.0167 0.46457,0.61947 1.65007,14.977828 2.77083,33.559418 1.07738,17.86219 2.16034,34.14559 2.40658,36.18535 0.39056,3.23523 1.1146,4.41165 5.67204,9.21574 2.87339,3.02889 5.22433,6.15995 5.22433,6.95789 0,0.79792 0.34032,1.21919 0.75626,0.93613 0.46952,-0.31954 0.75625,1.24046 0.75625,4.11453 0,2.54606 -0.34031,4.62919 -0.75625,4.62919 -0.41594,0 -0.75626,0.43305 -0.75626,0.96232 0,1.94985 -4.06981,6.756 -6.90418,8.15332 -1.60622,0.79184 -2.69502,1.68789 -2.41957,1.9912 0.27544,0.30332 -24.79581,0.55147 -55.713893,0.55147 -30.918091,0 -55.989334,-0.24815 -55.713892,-0.55147 z M 51.254533,173.1596 c -0.252588,-0.72485 -0.136428,-1.67338 0.25817,-2.10787 0.428416,-0.47176 9.379895,-0.7008 22.220778,-0.5686 20.932151,0.21555 21.503352,0.26566 21.503352,1.8869 0,1.62177 -0.571074,1.67127 -21.761522,1.88646 -19.269717,0.19568 -21.814096,0.0702 -22.220778,-1.09689 z m 52.188277,0.0198 c -0.81917,-2.35063 0.85569,-2.9687 7.3675,-2.71883 5.77979,0.22179 6.35782,0.3954 6.35782,1.90945 0,1.52051 -0.57706,1.68644 -6.62957,1.90628 -5.5232,0.20061 -6.70736,0.0175 -7.09575,-1.0969 z m -11.582503,-16.993 c -0.430578,-0.88589 -0.782856,-4.5682 -0.782856,-8.18291 v -6.57219 l -5.228681,0.0637 c -4.522567,0.0551 -5.490206,-0.20624 -7.165365,-1.9354 -2.405515,-2.48306 -4.067802,-7.25832 -4.878958,-14.01581 -0.516414,-4.30199 -0.400193,-5.56325 0.679659,-7.37586 0.909468,-1.52662 1.182732,-3.17045 0.905475,-5.44671 -0.299506,-2.45876 -0.04674,-3.68764 1.028169,-4.99897 1.006512,-1.22785 1.425293,-2.99623 1.425293,-6.01861 0,-4.236368 0.02541,-4.282578 2.504117,-4.544628 1.377269,-0.14562 4.099776,0.12296 6.050013,0.59684 3.154447,0.76648 3.684504,0.68079 4.80149,-0.77617 1.593554,-2.07859 2.714849,-2.06985 4.295068,0.0335 1.102695,1.46772 1.603934,1.56347 4.115963,0.78617 1.573196,-0.48679 4.295706,-0.77044 6.050016,-0.63033 l 3.18965,0.25475 v 4.279888 c 0,3.02014 0.41891,4.79092 1.42318,6.01608 1.08954,1.32918 1.31572,2.47616 0.96481,4.89261 -0.33325,2.29486 -0.0856,3.78225 0.90758,5.44927 1.15009,1.93053 1.2675,3.11294 0.74303,7.48222 -0.81117,6.75749 -2.47346,11.53275 -4.87898,14.01582 -1.67514,1.72915 -2.64279,1.99051 -7.16535,1.93538 l -5.228669,-0.0637 v 6.04686 c 0,8.72714 -1.76071,12.81078 -3.754654,8.70823 z m -3.861953,-19.59327 c 2.366885,-1.34775 3.079097,-2.78167 3.079097,-6.19927 0,-3.14583 -2.689218,-5.65796 -7.315603,-6.83386 -5.192969,-1.31991 -6.623117,-0.65999 -6.000344,2.76877 1.257722,6.92459 2.088238,8.99956 4.078224,10.18884 2.614997,1.56282 3.527022,1.574 6.158626,0.0755 z m 18.087906,-0.79504 c 1.48972,-1.6404 3.41898,-11.33768 2.46466,-12.38852 -1.16938,-1.28764 -9.140451,0.77303 -11.18952,2.89272 -4.24867,4.39508 -0.411235,12.23078 5.42781,11.08315 1.24226,-0.24415 2.72591,-0.95846 3.29705,-1.58735 z M 90.945048,120.08331 c 1.138865,-1.51103 -0.517873,-4.89309 -3.052478,-6.23134 -1.103447,-0.5826 -3.305515,-1.14469 -4.893509,-1.2491 -2.827186,-0.18589 -2.887262,-0.12933 -2.887262,2.71787 0,2.84685 0.09498,2.93629 4.53751,4.27432 2.495631,0.75164 4.751076,1.41052 5.012088,1.46417 0.261028,0.0536 0.838667,-0.38552 1.283651,-0.97592 z m 10.719922,-0.43574 c 4.85449,-1.42997 4.91564,-1.48397 4.91564,-4.34125 0,-2.83048 -0.0626,-2.88916 -2.88727,-2.70345 -1.588,0.10441 -3.790071,0.6665 -4.8935,1.2491 -2.534628,1.33825 -4.191358,4.72031 -3.052493,6.23134 0.444984,0.5904 0.852463,1.05968 0.905521,1.04285 0.05308,-0.0168 2.308508,-0.68219 5.012102,-1.47859 z M 91.394377,108.12464 c 0.985727,-2.82856 -1.79422,-5.8286 -6.10422,-6.5875 -2.480551,-0.43677 -3.15971,-0.26905 -3.559844,0.87915 -0.893677,2.5644 1.177696,5.70917 4.4315,6.72791 3.373048,1.05608 4.592002,0.81857 5.232564,-1.01956 z m 10.851333,0.43408 c 1.92873,-0.78252 3.39947,-4.18228 2.69,-6.21814 -0.37062,-1.06348 -1.10644,-1.23079 -3.53346,-0.80344 -4.736555,0.834 -7.305877,4.00413 -5.783643,7.13609 0.830799,1.70936 2.189616,1.68589 6.627103,-0.11451 z M 61.871007,83.307152 c -0.575705,-1.65196 0.276652,-2.95445 1.933403,-2.95445 1.974573,0 3.280574,1.93651 2.147482,3.18421 -1.23337,1.35811 -3.57344,1.22636 -4.080885,-0.22976 z M 122.58793,39.826213 c -1.14805,-1.264155 -0.393,-2.775789 1.38647,-2.775789 1.38645,0 1.89063,0.444128 1.89063,1.665473 0,1.624774 -2.14874,2.352789 -3.2771,1.110316 z"
   style="fill:#680805;stroke-width:0.79357296" /><path
   inkscape:connector-curvature="0"
   id="path535"
   d="m 225.62737,236.77429 c 2.27904,-0.48554 3.82704,-1.42497 5.6192,-3.41009 1.92409,-2.13127 2.67885,-3.77075 3.132,-6.80324 0.38558,-2.58031 0.20736,-71.73163 -0.19402,-75.28146 -0.52541,-4.64684 -3.07453,-11.29259 -6.59085,-17.1829 -1.10317,-1.84795 -4.0292,-6.15364 -6.50228,-9.56818 -2.47306,-3.41455 -4.56119,-6.4938 -4.64027,-6.84278 -0.10078,-0.44459 0.13922,-1.04519 0.80166,-2.00648 0.51999,-0.75457 1.08304,-1.94181 1.25122,-2.63831 l 0.30577,-1.26637 1.57927,-10e-4 c 1.81767,-0.001 3.17005,-0.72392 3.42014,-1.82762 0.0858,-0.37878 0.11839,-3.60712 0.0724,-7.1741 -0.0827,-6.40704 -0.0924,-6.50505 -0.80494,-8.11144 -0.80475,-1.81433 -2.97189,-4.38722 -4.05816,-4.81797 -2.2591,-0.89584 -3.47788,-0.93823 -26.97559,-0.93823 -23.57882,0 -24.72325,0.0405 -27.01152,0.95472 -1.16606,0.46589 -3.12916,2.7829 -3.97409,4.69052 l -0.76936,1.73699 -0.0837,6.48541 c -0.0461,3.56698 -0.0134,6.79532 0.0724,7.1741 0.25326,1.11764 1.60057,1.82638 3.47433,1.82762 1.46957,9.9e-4 1.63349,0.0603 1.63349,0.59162 0,0.79747 0.95105,2.84865 1.76946,3.81621 l 0.66651,0.788 -0.94677,1.57946 c -0.52072,0.86871 -2.96158,4.35721 -5.42414,7.75224 -2.46257,3.39502 -5.18122,7.34523 -6.04149,8.77825 -3.8865,6.47416 -5.85137,13.19155 -6.43034,21.98373 l -0.18944,2.87677 -1.17611,0.3348 c -3.15577,0.89838 -5.73416,3.28362 -7.20093,6.66155 l -0.88582,2.03997 -1.62786,0.37244 c -5.77372,1.32095 -10.73905,6.67323 -12.00537,12.94098 -0.28696,1.42041 -0.37493,1.5377 -1.62119,2.16158 -2.41391,1.20843 -4.17408,3.42119 -5.0317,6.32554 -0.43617,1.47708 -0.43795,1.47877 -1.5704,1.47877 -1.60919,0 -2.3465,0.46067 -2.71195,1.69445 -0.37626,1.27027 -0.21901,22.7419 0.18971,25.90573 0.32569,2.521 1.90794,6.11339 3.94041,8.94644 2.63845,3.67769 7.53568,7.20226 10.88343,7.83283 2.09518,0.39464 93.83145,0.52846 95.65697,0.13954 z"
   style="fill:#fbf2d3;stroke-width:0.27506894" /><path
   inkscape:connector-curvature="0"
   id="path533"
   d="m 225.81026,236.69182 c 3.9786,-0.96298 7.60637,-5.07917 8.46013,-9.59912 0.57469,-3.04244 0.55143,-68.90015 -0.0262,-74.09057 -0.94086,-8.45496 -4.47048,-16.24482 -12.06529,-26.62805 -3.97994,-5.44116 -6.08102,-8.56627 -6.08664,-9.0531 -0.002,-0.21352 0.4115,-0.92654 0.91993,-1.58447 0.50853,-0.65807 1.10477,-1.88351 1.32533,-2.72389 l 0.40093,-1.52764 h 1.69746 c 3.18876,0 3.49342,-0.63721 3.49063,-7.30056 -10e-4,-2.59252 -0.12335,-5.54246 -0.27177,-6.55544 -0.60356,-4.12013 -3.17883,-7.43923 -6.44217,-8.30288 -2.35249,-0.6226 -48.27626,-0.60964 -50.44336,0.0143 -2.65881,0.76543 -4.91834,3.14764 -5.97337,6.29774 -0.44703,1.33471 -0.50799,2.29247 -0.50799,7.98264 v 6.46596 l 0.73332,0.69915 c 0.61901,0.59018 1.00873,0.69916 2.5005,0.69916 h 1.76721 l 0.4487,1.57669 c 0.24677,0.86718 0.85981,2.12175 1.36227,2.78793 0.89584,1.1877 0.90499,1.22597 0.47012,1.96967 -0.74475,1.27362 -3.25188,4.85654 -7.01316,10.02242 -1.97083,2.70681 -4.2038,5.96368 -4.96214,7.23748 -3.95877,6.64949 -5.97552,13.53112 -6.3385,21.62829 l -0.15195,3.38982 -1.33415,0.30715 c -2.80708,0.64626 -5.87314,3.38639 -7.1102,6.35436 -0.36973,0.88704 -0.75755,1.79843 -0.86185,2.02531 -0.10425,0.22687 -0.88805,0.57165 -1.74168,0.76617 -6.2313,1.41996 -10.79687,6.54325 -12.23579,13.73055 -0.10612,0.53028 -0.4781,0.87436 -1.39139,1.28724 -2.27656,1.02914 -4.20267,3.45528 -5.05781,6.37085 -0.42254,1.44065 -0.44467,1.4622 -1.5794,1.53748 -3.23056,0.21431 -3.11103,-0.2698 -3.11103,12.60009 0,11.50641 0.24638,14.6745 1.38201,17.77019 2.57619,7.02273 8.73629,12.71526 14.9878,13.8502 1.9687,0.35743 9.15818,0.4158 47.79353,0.38811 35.23005,-0.0252 45.81191,-0.11384 46.96595,-0.39316 z m -49.75965,-5.69773 c -0.0875,-1.01632 0.0429,-1.44885 0.807,-2.67786 1.39151,-2.23801 3.03423,-5.40252 3.39076,-6.532 0.38318,-1.21382 1.06734,-6.31621 1.07406,-8.01006 l 0.005,-1.20683 24.43696,0.0132 24.43695,0.0132 -0.005,5.39135 c -0.007,7.89219 -0.60678,10.29686 -3.0942,12.39841 -2.21948,1.87515 -1.13225,1.80282 -27.25666,1.81325 l -23.69077,0.01 -0.10426,-1.2121 z M 133.33463,194.1965 c -0.0625,-0.0692 -0.18413,-0.78655 -0.2705,-1.59426 -0.13398,-1.25305 -0.0553,-1.66097 0.53667,-2.77969 0.88835,-1.67909 2.11368,-2.70455 4.00705,-3.35346 1.47349,-0.50499 1.51222,-0.54527 1.71159,-1.78009 0.40876,-2.53185 0.80952,-3.79978 1.3928,-4.40685 0.32768,-0.34105 0.96455,-1.40173 1.41526,-2.35708 1.04359,-2.21204 1.35825,-2.59581 3.24417,-3.95675 1.4644,-1.05678 4.34056,-2.26748 5.38661,-2.26748 0.26792,0 0.55623,0.28594 0.65678,0.65138 0.28086,1.02085 0.90208,1.64172 1.78675,1.78568 0.44744,0.0729 1.68799,0.27602 2.75675,0.45152 2.47039,0.40567 4.54964,1.61445 6.29669,3.66059 1.67905,1.96651 2.53924,4.04226 2.86902,6.92325 0.31895,2.78651 0.82879,3.51805 2.63711,3.78376 1.54815,0.22748 2.69815,0.98095 3.37308,2.21001 l 0.5181,0.94351 -16.44243,0.14475 -16.44242,0.14475 -0.6743,0.70184 c -0.37085,0.38601 -0.6743,0.89334 -0.6743,1.1274 0,0.35169 -0.34474,0.39671 -1.98551,0.25924 -1.09202,-0.0914 -2.03656,-0.22289 -2.09897,-0.29202 z m 32.83384,-35.83166 c 0,-0.48815 0.13865,-1.17209 0.30811,-1.51988 0.16945,-0.34778 0.38891,-2.26077 0.48768,-4.25108 0.14398,-2.90151 0.34131,-4.16765 0.99557,-6.38819 1.10984,-3.76668 3.22019,-8.28815 4.34982,-9.31954 0.49577,-0.45267 1.25128,-1.63065 1.6789,-2.61775 0.8215,-1.89627 6.39155,-9.67972 8.8009,-12.29817 0.77379,-0.84094 1.48091,-1.88314 1.57139,-2.316 0.0905,-0.43286 0.44237,-1.32704 0.78196,-1.98707 l 0.61746,-1.20006 -1.13595,-1.03105 c -1.03516,-0.93958 -1.9903,-2.54407 -1.9903,-3.34345 0,-0.2255 2.84996,-0.31812 9.78862,-0.31812 10.54181,0 10.85536,-0.0409 11.53836,-1.50386 0.37269,-0.79832 0.41905,-0.81214 2.72464,-0.81214 1.7736,0 2.34551,0.0935 2.34551,0.38378 0,0.21109 0.30321,0.69962 0.67379,1.08563 0.53102,0.55313 1.04328,0.73251 2.41756,0.84659 l 1.74378,0.14474 -0.82474,0.86851 c -0.4536,0.47767 -1.18867,1.17152 -1.63348,1.54189 -1.9218,1.60014 -0.70635,4.49455 5.41862,12.90364 5.41647,7.43638 8.20372,12.22481 10.8114,18.57377 1.38891,3.38159 2.56306,9.08639 2.56306,12.45304 v 0.9923 H 198.1848 166.16847 Z"
   style="fill:#faedb9;stroke-width:0.27506894" /><path
   inkscape:connector-curvature="0"
   id="path531"
   d="m 225.50377,236.71697 c 4.15512,-1.01073 7.8779,-5.18525 8.78163,-9.84722 0.26858,-1.38551 0.34195,-8.96799 0.34755,-35.9172 0.009,-38.56064 0.0128,-38.44206 -1.79233,-44.42234 -2.20438,-7.30305 -5.13881,-12.60484 -12.42664,-22.45201 -1.53195,-2.06992 -3.19838,-4.44953 -3.70321,-5.28802 l -0.91785,-1.52454 0.92492,-1.19692 c 0.77197,-0.99897 1.44117,-2.50434 1.86174,-4.18795 0.0476,-0.19074 0.86895,-0.37722 1.96287,-0.44568 1.67755,-0.10498 1.9501,-0.20675 2.5202,-0.94089 l 0.63922,-0.82317 -0.0827,-6.54764 c -0.0806,-6.37568 -0.10078,-6.59035 -0.77141,-8.17461 -1.25491,-2.96454 -3.22018,-4.87841 -5.78648,-5.6352 -2.01953,-0.59554 -48.01728,-0.59554 -50.03681,0 -1.74753,0.51533 -2.87313,1.29424 -4.23467,2.93038 -2.08521,2.50577 -2.2173,3.1244 -2.31673,10.8502 l -0.0877,6.8079 0.67346,0.7008 c 0.53564,0.5574 1.05106,0.73417 2.51869,0.86384 l 1.84523,0.16303 0.46594,1.52839 c 0.25627,0.84062 0.84599,2.05223 1.31048,2.69248 0.46449,0.64023 0.78589,1.33332 0.71423,1.5402 -0.18843,0.54387 -4.42161,6.65203 -7.64412,11.02988 -7.38623,10.03436 -10.07555,16.769 -10.84337,27.15422 -0.36145,4.88866 -0.35031,4.83546 -1.01186,4.83546 -0.84455,0 -3.27918,1.11143 -4.39383,2.00583 -1.47399,1.18271 -2.89835,3.21619 -3.60848,5.15156 l -0.6125,1.66927 -1.52126,0.34106 c -3.38316,0.75847 -6.17609,2.49155 -8.49168,5.26929 -1.70315,2.04309 -2.75817,4.14731 -3.50027,6.98126 l -0.56731,2.16655 -1.62483,0.91929 c -0.89365,0.5056 -1.95178,1.26628 -2.35142,1.69038 -0.88821,0.94258 -1.94909,3.06662 -2.33493,4.67491 l -0.28686,1.1957 -1.60592,0.12868 c -1.34735,0.10793 -1.70478,0.25596 -2.21989,0.9193 l -0.61398,0.79063 10e-4,10.62297 c 0.001,11.8166 0.2387,14.59629 1.54065,18.02867 2.10483,5.54906 6.51062,10.37087 11.52666,12.6151 3.55594,1.59097 2.12595,1.54852 51.09497,1.51682 34.40092,-0.0223 45.5604,-0.11334 46.65945,-0.38066 z m -52.27864,-4.5041 c 0,-0.15555 0.3135,-0.51036 0.69666,-0.78845 1.0977,-0.79668 3.68015,-4.58555 4.78604,-7.02191 1.3345,-2.93995 1.82677,-4.91593 2.19274,-8.8017 l 0.30377,-3.22532 h 24.56374 24.56373 l 0.071,5.7859 c 0.0417,3.38727 -0.0471,6.41649 -0.214,7.30698 -0.53732,2.86692 -2.66433,5.48261 -5.26848,6.47896 -1.3027,0.49841 -2.85966,0.53002 -26.53959,0.53892 -16.20631,0.006 -25.15568,-0.0912 -25.15568,-0.27338 z m -40.68509,-37.23885 c -0.31165,-0.0927 -0.70183,-0.52989 -0.86707,-0.97175 -0.45053,-1.20478 -1.26894,-1.45748 -4.72046,-1.45748 -2.90823,0 -3.124,-0.0384 -3.124,-0.55679 0,-1.38176 2.218,-3.20669 3.8974,-3.20669 0.43011,0 1.08382,-0.2915 1.4622,-0.652 0.55899,-0.53261 0.7271,-1.02965 0.91808,-2.71441 0.72435,-6.38979 4.19669,-10.2815 9.95147,-11.15335 2.67693,-0.40556 3.57695,-0.86191 3.77602,-1.91461 0.50503,-2.67071 0.73085,-3.42699 1.3006,-4.35573 1.19946,-1.95525 3.64565,-3.21448 5.63851,-2.90256 0.61913,0.0969 0.63102,0.15664 0.75964,3.81567 0.12782,3.63576 0.14675,3.73253 0.86398,4.41487 0.45038,0.42847 1.06212,0.69764 1.58549,0.69764 5.84532,0 10.66148,4.61675 11.37411,10.90316 0.3534,3.11756 0.53824,3.33018 3.47123,3.99281 1.14692,0.25912 3.0911,2.44342 3.0911,3.47287 0,0.0875 -7.28422,0.15912 -16.18717,0.15912 -10.08984,0 -16.44444,0.1083 -16.87023,0.28766 -0.40394,0.17011 -0.8395,0.70244 -1.06594,1.30275 l -0.3829,1.01509 -2.1527,-0.004 c -1.18399,-0.002 -2.4077,-0.0797 -2.71936,-0.17231 z m 22.83513,-33.8399 c -0.51804,-0.5573 -1.12413,-1.01326 -1.34688,-1.01326 -0.50101,0 -0.54172,-2.07515 -0.11641,-5.93473 0.9019,-8.18444 3.57605,-14.46834 9.60948,-22.58095 6.19871,-8.33485 9.70376,-13.84501 9.70376,-15.25488 0,-1.15815 -0.39294,-1.88113 -1.30696,-2.40468 -0.92514,-0.52992 -1.82933,-1.55849 -1.82933,-2.08098 0,-0.30912 3.00002,-0.37966 16.14603,-0.37966 17.73603,0 16.8478,0.088 17.70802,-1.75457 0.39473,-0.84552 0.41212,-0.85092 2.73924,-0.85092 h 2.342 l 0.38291,1.01509 c 0.45595,1.20877 1.21649,1.5904 3.16945,1.5904 1.71877,0 1.84861,0.43066 0.4933,1.63611 -1.97528,1.75684 -2.20914,2.07983 -2.20914,3.05093 0,1.88615 2.07713,5.35968 8.10356,13.55142 7.31586,9.94446 10.77081,18.22406 11.40239,27.32522 l 0.173,2.49321 H 196.8029 c -21.50734,0 -33.98204,0.10338 -34.41354,0.28505 -0.37228,0.15677 -0.9208,0.74301 -1.21895,1.30274 l -0.54208,1.0177 h -2.15564 c -2.10994,0 -2.1756,-0.0215 -3.09752,-1.01324 z"
   style="fill:#facd4d;stroke-width:0.27506894" /><path
   inkscape:connector-curvature="0"
   id="path529"
   d="m 225.50377,236.71697 c 4.15512,-1.01073 7.8779,-5.18525 8.78163,-9.84722 0.26858,-1.38551 0.34195,-8.96799 0.34755,-35.9172 0.009,-38.56064 0.0128,-38.44206 -1.79233,-44.42234 -2.20438,-7.30305 -5.13881,-12.60484 -12.42664,-22.45201 -1.53195,-2.06992 -3.19838,-4.44953 -3.70321,-5.28802 l -0.91785,-1.52454 0.92492,-1.19692 c 0.77197,-0.99897 1.44117,-2.50434 1.86174,-4.18795 0.0476,-0.19074 0.86895,-0.37722 1.96287,-0.44568 1.67755,-0.10498 1.9501,-0.20675 2.5202,-0.94089 l 0.63922,-0.82317 -0.0827,-6.54764 c -0.0806,-6.37568 -0.10078,-6.59035 -0.77141,-8.17461 -1.25491,-2.96454 -3.22018,-4.87841 -5.78648,-5.6352 -2.01953,-0.59554 -48.01728,-0.59554 -50.03681,0 -1.74753,0.51533 -2.87313,1.29424 -4.23467,2.93038 -2.08521,2.50577 -2.2173,3.1244 -2.31673,10.8502 l -0.0877,6.8079 0.67346,0.7008 c 0.53564,0.5574 1.05106,0.73417 2.51869,0.86384 l 1.84523,0.16303 0.46594,1.52839 c 0.25627,0.84062 0.84599,2.05223 1.31048,2.69248 0.46449,0.64023 0.78589,1.33332 0.71423,1.5402 -0.18843,0.54387 -4.42161,6.65203 -7.64412,11.02988 -7.38623,10.03436 -10.07555,16.769 -10.84337,27.15422 -0.36145,4.88866 -0.35031,4.83546 -1.01186,4.83546 -0.84455,0 -3.27918,1.11143 -4.39383,2.00583 -1.47399,1.18271 -2.89835,3.21619 -3.60848,5.15156 l -0.6125,1.66927 -1.52126,0.34106 c -3.38316,0.75847 -6.17609,2.49155 -8.49168,5.26929 -1.70315,2.04309 -2.75817,4.14731 -3.50027,6.98126 l -0.56731,2.16655 -1.62483,0.91929 c -0.89365,0.5056 -1.95178,1.26628 -2.35142,1.69038 -0.88821,0.94258 -1.94909,3.06662 -2.33493,4.67491 l -0.28686,1.1957 -1.60592,0.12868 c -1.34735,0.10793 -1.70478,0.25596 -2.21989,0.9193 l -0.61398,0.79063 10e-4,10.62297 c 0.001,11.8166 0.2387,14.59629 1.54065,18.02867 2.10483,5.54906 6.51062,10.37087 11.52666,12.6151 3.55594,1.59097 2.12595,1.54852 51.09497,1.51682 34.40092,-0.0223 45.5604,-0.11334 46.65945,-0.38066 z m -52.27864,-4.5041 c 0,-0.15555 0.3135,-0.51036 0.69666,-0.78845 1.0977,-0.79668 3.68015,-4.58555 4.78604,-7.02191 1.3345,-2.93995 1.82677,-4.91593 2.19274,-8.8017 l 0.30377,-3.22532 h 24.56374 24.56373 l 0.071,5.7859 c 0.0417,3.38727 -0.0471,6.41649 -0.214,7.30698 -0.53732,2.86692 -2.66433,5.48261 -5.26848,6.47896 -1.3027,0.49841 -2.85966,0.53002 -26.53959,0.53892 -16.20631,0.006 -25.15568,-0.0912 -25.15568,-0.27338 z m -35.95072,-0.4418 c -0.71103,-0.39853 -1.88083,-1.30546 -2.59955,-2.01536 l -1.30679,-1.29076 6.74714,-0.0111 c 4.31416,-0.007 6.93742,-0.12392 7.27481,-0.32393 0.73943,-0.43835 1.32349,-2.09282 1.03439,-2.93021 -0.53594,-1.55247 -0.71302,-1.59247 -7.7983,-1.76217 -6.28045,-0.15041 -6.66025,-0.19155 -7.98882,-0.86528 -1.91791,-0.9726 -3.23,-2.54588 -3.77847,-4.53064 -0.38054,-1.3771 -0.44655,-2.98972 -0.45116,-11.02185 l -0.006,-9.40872 1.27751,-0.1625 c 1.94005,-0.24676 2.73137,-1.68175 1.96064,-3.55546 -0.45236,-1.09971 -1.31667,-1.34829 -4.68792,-1.34829 -2.90823,0 -3.124,-0.0384 -3.124,-0.55679 0,-1.38177 2.21801,-3.2067 3.89741,-3.2067 0.4301,0 1.08381,-0.29149 1.46219,-0.65199 0.559,-0.53261 0.72712,-1.02965 0.9181,-2.71441 0.72433,-6.38979 4.19667,-10.2815 9.95146,-11.15335 2.67693,-0.40556 3.57694,-0.86191 3.77601,-1.91461 0.50504,-2.67071 0.73085,-3.42699 1.3006,-4.35574 1.19946,-1.95524 3.64566,-3.21447 5.63851,-2.90255 0.61913,0.0968 0.63102,0.15664 0.75964,3.81567 0.12782,3.63576 0.14675,3.73252 0.86399,4.41487 0.45038,0.42847 1.06211,0.69764 1.58548,0.69764 5.84533,0 10.66148,4.61674 11.37411,10.90316 0.3534,3.11756 0.53824,3.33018 3.47124,3.99281 1.14302,0.25823 3.09109,2.44295 3.09109,3.46658 0,0.084 -7.47873,0.18823 -16.6194,0.2315 l -16.61941,0.0786 -0.49952,0.68344 c -0.71044,0.972 -0.65974,2.66766 0.10352,3.4619 l 0.60304,0.62753 18.80276,0.0743 18.80279,0.0743 -0.017,9.40873 c -0.0187,10.42235 -0.16626,11.72825 -1.70657,15.10811 -2.10613,4.62146 -5.25093,7.62859 -9.77623,9.3483 -2.30351,0.87539 -3.45501,0.95083 -15.0421,0.98548 l -11.3831,0.0341 z m 18.10076,-70.63695 c -0.51804,-0.5573 -1.12413,-1.01326 -1.34688,-1.01326 -0.50101,0 -0.54172,-2.07515 -0.11641,-5.93473 0.9019,-8.18444 3.57605,-14.46834 9.60948,-22.58095 6.19871,-8.33485 9.70376,-13.84501 9.70376,-15.25488 0,-1.15815 -0.39294,-1.88113 -1.30696,-2.40468 -0.92514,-0.52992 -1.82933,-1.55849 -1.82933,-2.08098 0,-0.30913 3.00765,-0.37966 16.18961,-0.37966 h 16.18961 l 0.71237,-0.67874 c 0.89855,-0.85611 1.05855,-2.35162 0.36119,-3.37591 l -0.49162,-0.72209 -14.45505,-0.14476 -14.45507,-0.14475 V 101.642 c 0,-4.37877 0.0483,-4.87672 0.57945,-5.9769 1.12515,-2.33039 -0.82929,-2.12926 20.67454,-2.12747 12.76924,0.001 19.59288,0.1051 20.25505,0.30876 1.33144,0.40953 2.98096,2.10176 3.32644,3.41254 0.15727,0.59677 0.24311,2.81167 0.19789,5.10681 l -0.0798,4.05299 -4.35128,0.14475 c -4.99228,0.16608 -5.44963,0.36152 -5.44963,2.32881 0,1.81328 0.66203,2.40501 2.84349,2.54156 2.15759,0.13504 2.32959,0.44578 0.93379,1.68724 -1.97528,1.75684 -2.20914,2.07983 -2.20914,3.05093 0,1.88615 2.07713,5.35968 8.10356,13.55142 7.31586,9.94446 10.77081,18.22406 11.40239,27.32522 l 0.173,2.49321 h -33.7367 c -21.50733,0 -33.98205,0.10338 -34.41355,0.28505 -0.37226,0.15677 -0.9208,0.74301 -1.21895,1.30274 l -0.54207,1.0177 h -2.15564 c -2.10994,0 -2.17561,-0.0215 -3.09752,-1.01324 z"
   style="fill:#fdc72f;stroke-width:0.27506894" /><path
   inkscape:connector-curvature="0"
   id="path527"
   d="m 225.50377,236.71697 c 4.15512,-1.01073 7.8779,-5.18525 8.78163,-9.84722 0.26858,-1.38551 0.34195,-8.96799 0.34755,-35.9172 0.009,-38.56064 0.0128,-38.44206 -1.79233,-44.42234 -2.20438,-7.30305 -5.13881,-12.60484 -12.42664,-22.45201 -1.53195,-2.06992 -3.19838,-4.44953 -3.70321,-5.28802 l -0.91785,-1.52454 0.92492,-1.19692 c 0.77197,-0.99897 1.44117,-2.50434 1.86174,-4.18795 0.0476,-0.19074 0.86895,-0.37722 1.96287,-0.44568 1.67755,-0.10498 1.9501,-0.20675 2.5202,-0.94089 l 0.63922,-0.82317 -0.0827,-6.54764 c -0.0806,-6.37568 -0.10078,-6.59035 -0.77141,-8.17461 -1.25491,-2.96454 -3.22018,-4.87841 -5.78648,-5.6352 -2.01953,-0.59554 -48.01728,-0.59554 -50.03681,0 -1.74753,0.51533 -2.87313,1.29424 -4.23467,2.93038 -2.08521,2.50577 -2.2173,3.1244 -2.31673,10.8502 l -0.0877,6.8079 0.67346,0.7008 c 0.53564,0.5574 1.05106,0.73417 2.51869,0.86384 l 1.84523,0.16303 0.46594,1.52839 c 0.25627,0.84062 0.84599,2.05223 1.31048,2.69248 0.46449,0.64023 0.78589,1.33332 0.71423,1.5402 -0.18843,0.54387 -4.42161,6.65203 -7.64412,11.02988 -7.38623,10.03436 -10.07555,16.769 -10.84337,27.15422 -0.36145,4.88866 -0.35031,4.83546 -1.01186,4.83546 -0.84455,0 -3.27918,1.11143 -4.39383,2.00583 -1.47399,1.18271 -2.89835,3.21619 -3.60848,5.15156 l -0.6125,1.66927 -1.52126,0.34106 c -3.38316,0.75847 -6.17609,2.49155 -8.49168,5.26929 -1.70315,2.04309 -2.75817,4.14731 -3.50027,6.98126 l -0.56731,2.16655 -1.62483,0.91929 c -0.89365,0.5056 -1.95178,1.26628 -2.35142,1.69038 -0.88821,0.94258 -1.94909,3.06662 -2.33493,4.67491 l -0.28686,1.1957 -1.60592,0.12868 c -1.34735,0.10793 -1.70478,0.25596 -2.21989,0.9193 l -0.61398,0.79063 10e-4,10.62297 c 0.001,11.8166 0.2387,14.59629 1.54065,18.02867 2.10483,5.54906 6.51062,10.37087 11.52666,12.6151 3.55594,1.59097 2.12595,1.54852 51.09497,1.51682 34.40092,-0.0223 45.5604,-0.11334 46.65945,-0.38066 z m -94.08494,-4.69141 c -2.48393,-0.69808 -5.14149,-2.33413 -7.07734,-4.35695 -2.22117,-2.32096 -3.45428,-4.34714 -4.51578,-7.42014 l -0.81952,-2.37249 -0.0896,-10.1893 -0.0896,-10.18932 5.87154,-0.0879 c 5.24814,-0.0786 5.92739,-0.14396 6.3976,-0.61585 1.11897,-1.12294 0.9153,-3.27224 -0.37165,-3.92175 -0.36615,-0.18479 -2.00686,-0.32705 -3.77201,-0.32705 -2.90823,0 -3.124,-0.0384 -3.124,-0.55679 0,-1.38176 2.218,-3.2067 3.8974,-3.2067 0.43011,0 1.08382,-0.29149 1.46219,-0.65199 0.55901,-0.53261 0.72711,-1.02965 0.9181,-2.71441 0.72434,-6.38979 4.19668,-10.2815 9.95147,-11.15335 2.67693,-0.40556 3.57694,-0.86191 3.77601,-1.91461 0.50503,-2.67071 0.73085,-3.42699 1.3006,-4.35574 1.19946,-1.95524 3.64565,-3.21447 5.63849,-2.90255 0.61915,0.0969 0.63104,0.15664 0.75966,3.81567 0.12782,3.63576 0.14675,3.73253 0.86398,4.41487 0.45038,0.42847 1.06212,0.69764 1.58549,0.69764 5.84532,0 10.66148,4.61675 11.37411,10.90316 0.3534,3.11756 0.53824,3.33018 3.47123,3.99281 1.14301,0.25823 3.09109,2.44295 3.09109,3.46658 0,0.084 -7.47872,0.18823 -16.6194,0.2315 l -16.6194,0.0786 -0.49953,0.68344 c -0.5409,0.74003 -0.6524,2.07797 -0.24369,2.92388 0.5432,1.12428 1.32656,1.16941 20.29974,1.16941 h 18.38674 v 9.27921 c 0,10.4837 -0.16406,11.92132 -1.7822,15.61774 -0.70496,1.61037 -1.49209,2.77688 -3.04714,4.5158 -2.31536,2.58914 -3.65779,3.56425 -6.48007,4.70701 l -1.88917,0.76492 -12.80653,0.16809 c -14.12018,0.18534 -17.05158,0.11003 -19.19885,-0.49348 z m 13.11017,-3.78111 c 2.64578,-0.1046 2.82649,-0.15139 3.33231,-0.86369 0.29416,-0.41422 0.53483,-0.98999 0.53483,-1.27946 0,-0.7808 -0.53458,-1.9374 -1.01549,-2.1971 -0.23209,-0.12532 -3.42107,-0.29532 -7.0866,-0.37779 -6.07561,-0.13669 -6.76858,-0.20403 -7.84073,-0.76206 -2.34895,-1.22254 -3.99033,-3.80205 -4.33238,-6.80854 -0.22714,-1.99651 -0.89799,-2.85656 -2.22816,-2.85656 -0.74839,0 -1.10931,0.18081 -1.52258,0.76279 -1.30703,1.84052 0.0255,6.92472 2.64808,10.10314 2.63046,3.18803 4.85253,4.07543 10.6695,4.2609 2.22405,0.0709 5.3026,0.0791 6.84122,0.0183 z m 28.69613,3.96842 c 0,-0.15555 0.3135,-0.51036 0.69666,-0.78845 1.0977,-0.79668 3.68015,-4.58555 4.78604,-7.02191 1.3345,-2.93995 1.82677,-4.91593 2.19274,-8.8017 l 0.30377,-3.22532 h 24.56374 24.56373 l 0.071,5.7859 c 0.0417,3.38727 -0.0471,6.41649 -0.214,7.30698 -0.53732,2.86692 -2.66433,5.48261 -5.26848,6.47896 -1.3027,0.49841 -2.85966,0.53002 -26.53959,0.53892 -16.20631,0.006 -25.15568,-0.0912 -25.15568,-0.27338 z m -17.84996,-71.07875 c -0.51804,-0.5573 -1.12413,-1.01326 -1.34688,-1.01326 -0.50101,0 -0.54172,-2.07515 -0.11641,-5.93473 0.9019,-8.18444 3.57605,-14.46834 9.60948,-22.58095 6.19871,-8.33485 9.70376,-13.84501 9.70376,-15.25488 0,-1.15815 -0.39294,-1.88113 -1.30696,-2.40468 -0.92514,-0.52992 -1.82933,-1.55849 -1.82933,-2.08098 0,-0.30914 3.01373,-0.37966 16.22428,-0.37966 h 16.2243 l 0.79066,-0.87579 c 0.63817,-0.70688 0.75688,-1.0279 0.61559,-1.66461 -0.30062,-1.35463 -0.84964,-2.01176 -1.85538,-2.22075 -0.52875,-0.1099 -9.03284,-0.18086 -18.89795,-0.15776 -9.86514,0.0231 -18.08363,0.032 -18.26332,0.0197 -0.24596,-0.0167 -0.32527,-1.0776 -0.32096,-4.2924 0.006,-4.72007 0.27393,-5.86205 1.72546,-7.36383 1.4801,-1.5313 0.63433,-1.48513 25.83427,-1.41019 22.35742,0.0665 23.56142,0.0965 24.46944,0.6096 1.24127,0.70145 2.24439,2.04293 2.58966,3.46323 0.15173,0.62417 0.24303,2.86549 0.20289,4.98071 l -0.0729,3.84583 -4.44308,0.16955 c -2.44371,0.0933 -4.46791,0.19095 -4.49824,0.21712 -1.17609,1.0146 -1.45442,2.7118 -0.62968,3.83994 0.41155,0.56302 0.79312,0.69091 2.35222,0.7885 2.15759,0.13504 2.32958,0.44579 0.93379,1.68724 -1.97527,1.75684 -2.20913,2.07983 -2.20913,3.05094 0,1.88614 2.07712,5.35967 8.10355,13.55142 7.31585,9.94446 10.7708,18.22406 11.40238,27.32522 l 0.173,2.4932 h -33.73673 c -21.50733,0 -33.98205,0.10338 -34.41354,0.28505 -0.37228,0.15678 -0.9208,0.74302 -1.21895,1.30275 l -0.54208,1.0177 h -2.15564 c -2.10994,0 -2.1756,-0.0215 -3.09752,-1.01325 z"
   style="fill:#7c878e;stroke-width:0.27506894" /><path
   inkscape:connector-curvature="0"
   id="path525"
   d="m 225.20599,236.67294 c 4.5671,-1.36964 8.22544,-5.61452 9.16662,-10.63628 0.20539,-1.09588 0.26453,-11.76096 0.20351,-36.69769 -0.0858,-35.08516 -0.0871,-35.15825 -0.665,-37.96069 -1.81331,-8.79383 -5.07904,-15.42745 -12.8363,-26.07417 -2.177,-2.98791 -4.30281,-6.03446 -4.72399,-6.77012 l -0.7658,-1.33755 0.89819,-1.16231 c 0.49401,-0.63927 1.08791,-1.76152 1.31979,-2.49386 0.70325,-2.22115 0.66534,-2.18777 2.66299,-2.34479 3.07895,-0.24202 2.98862,0.0111 2.89111,-8.09514 l -0.0819,-6.81408 -0.76727,-1.6773 c -0.93461,-2.04315 -2.5659,-3.76244 -4.5448,-4.78999 l -1.48324,-0.77019 h -24.43701 -24.43695 l -1.64434,0.84105 c -2.05967,1.0535 -3.9676,3.28471 -4.78969,5.60128 -0.54649,1.53994 -0.59159,2.1312 -0.60651,7.95121 -0.0157,6.16576 -0.005,6.30036 0.57842,6.94798 0.47459,0.52718 0.97329,0.68963 2.47173,0.80518 l 1.87721,0.14475 0.45363,1.40831 c 0.38581,1.19771 1.02873,2.41744 2.16094,4.0996 0.30132,0.44769 -1.15569,2.69113 -6.76378,10.41455 -5.52248,7.6055 -7.31682,10.65929 -9.13902,15.55366 -1.5849,4.25698 -2.76295,10.9471 -2.76295,15.69068 0,1.67723 -0.35642,2.19283 -1.51585,2.19283 -0.27763,0 -1.32999,0.45728 -2.33857,1.01619 -2.1897,1.21341 -3.78037,3.01596 -4.67887,5.30209 -0.35515,0.90363 -0.73641,1.83265 -0.84724,2.06451 -0.11355,0.23749 -0.96515,0.57766 -1.95037,0.77907 -5.47315,1.11891 -10.55652,6.50587 -11.74629,12.44781 -0.31541,1.57529 -0.42008,1.7406 -1.48167,2.34021 -3.01655,1.70381 -4.27444,3.24059 -5.17576,6.32331 l -0.50187,1.71649 -1.63226,0.14601 c -1.39135,0.12446 -1.7283,0.26968 -2.28288,0.98383 l -0.65061,0.83783 0.10475,11.31989 c 0.0979,10.5673 0.14304,11.47386 0.6802,13.63588 2.03483,8.19013 7.29401,14.16959 14.68687,16.69829 l 1.95007,0.66702 45.86829,0.0585 c 39.49253,0.0503 46.06404,-2.2e-4 47.27642,-0.36381 z m -52.325,-4.07594 c -0.0935,-0.1035 0.5646,-0.98286 1.46231,-1.95411 4.00156,-4.32935 6.42135,-10.54872 6.45209,-16.58327 0.007,-1.44821 0.0965,-1.81891 0.4665,-1.94204 0.58777,-0.19559 48.39659,-0.19073 49.00458,0.005 0.41671,0.13413 0.45738,0.68342 0.45738,6.1767 0,5.2065 -0.0711,6.28471 -0.52138,7.89929 -0.83758,3.00375 -3.04748,5.38851 -5.73829,6.19237 -0.89824,0.26835 -7.33025,0.36 -26.30116,0.37477 -13.81167,0.0111 -25.18859,-0.0651 -25.28203,-0.16867 z m -41.46216,-0.57144 c -2.48393,-0.69808 -5.14149,-2.33413 -7.07734,-4.35695 -2.22117,-2.32096 -3.45428,-4.34714 -4.51578,-7.42014 l -0.81952,-2.37249 -0.0895,-10.18476 -0.0895,-10.18476 5.8715,-0.0924 c 5.33901,-0.0841 5.92133,-0.14249 6.42107,-0.64396 0.74466,-0.74724 0.73533,-2.37669 -0.0187,-3.26572 -0.53888,-0.63537 -0.74848,-0.67003 -4.05105,-0.67003 h -3.48278 v -0.70154 c 0,-1.50712 2.47473,-3.61907 4.25894,-3.6346 1.07887,-0.01 2.01219,-1.17661 2.02004,-2.52631 0.0167,-2.86956 1.295,-6.1124 3.31401,-8.40699 1.79458,-2.03952 4.0812,-3.19636 7.0586,-3.57111 1.22274,-0.15389 2.44041,-0.40861 2.70594,-0.56602 0.46865,-0.27782 1.02397,-1.89493 1.02692,-2.99046 0.002,-0.91261 1.34329,-3.32929 2.29174,-4.13062 1.65058,-1.39449 5.04907,-2.08523 5.39182,-1.09586 0.0873,0.25186 0.15864,1.98786 0.15864,3.85777 0,4.29312 0.11901,4.46237 3.43008,4.87861 3.70921,0.46629 6.5955,2.2984 8.47904,5.38222 0.99815,1.63425 1.94284,4.61951 1.94284,6.13955 0,1.98549 0.67441,2.72645 2.86556,3.14836 0.49797,0.0959 1.28557,0.46289 1.75025,0.81556 0.9265,0.70322 2.04539,2.64967 1.78814,3.11072 -0.10587,0.18965 -5.88153,0.29072 -16.61232,0.29072 -16.03101,0 -16.46328,0.0145 -16.9662,0.57163 -1.17436,1.30081 -0.87643,3.18978 0.59255,3.75701 0.51885,0.20035 7.02887,0.30334 19.17232,0.30334 h 18.38672 v 9.27922 c 0,10.4837 -0.16404,11.92131 -1.78218,15.61773 -0.70495,1.61037 -1.4921,2.77689 -3.04714,4.51581 -2.31536,2.58913 -3.65779,3.56424 -6.48007,4.707 l -1.88917,0.76492 -12.80653,0.1669 c -14.14096,0.18431 -17.05751,0.10953 -19.19885,-0.49229 z m 12.71753,-3.78936 c 3.07469,-0.097 3.20808,-0.12759 3.72433,-0.85458 0.60455,-0.8513 0.66668,-1.48763 0.24527,-2.51211 -0.50526,-1.22833 -1.1889,-1.34829 -7.68373,-1.34829 -5.5233,0 -6.25894,-0.0577 -7.54728,-0.5916 -2.5835,-1.07068 -4.38267,-3.70996 -4.75401,-6.97381 -0.22714,-1.99651 -0.89799,-2.85656 -2.22816,-2.85656 -0.74839,0 -1.10931,0.18081 -1.52258,0.76279 -1.3263,1.86764 0.0418,6.97744 2.72891,10.19234 1.54394,1.84719 3.18753,2.95736 5.35419,3.61648 1.57667,0.47963 6.63693,0.7245 11.68306,0.56534 z m 37.19086,-27.71403 c 0,-6.44845 -0.005,-6.50373 -0.6298,-7.3086 -0.53095,-0.68374 -0.88546,-0.83393 -2.25919,-0.95702 l -1.6294,-0.14601 -0.30068,-1.31706 c -0.16536,-0.72438 -0.56534,-1.79143 -0.88883,-2.3712 -0.87249,-1.56373 -3.32555,-3.92236 -4.47672,-4.30441 -0.86988,-0.28868 -1.03284,-0.47873 -1.1851,-1.382 -0.23523,-1.39547 -1.72569,-4.93447 -2.7316,-6.48601 l -0.80886,-1.2476 0.0718,-5.05233 0.0718,-5.05232 31.8203,-0.0345 31.82031,-0.0343 v 21.09545 21.09546 h -24.43704 -24.43696 z m -25.74613,-38.7868 c -0.37531,-0.54504 -1.02817,-1.12449 -1.45077,-1.28768 -0.69719,-0.26921 -0.76838,-0.41775 -0.76838,-1.60315 0,-2.47468 0.57989,-7.26992 1.20137,-9.93415 1.30151,-5.57961 3.91615,-10.83188 8.47063,-17.01571 4.7205,-6.40923 5.99731,-8.22426 7.6662,-10.89775 0.95851,-1.53547 1.90524,-3.2199 2.10387,-3.74318 0.51122,-1.34673 0.11517,-2.38855 -1.24321,-3.27032 -1.14701,-0.74458 -1.92142,-1.92713 -1.61804,-2.47085 0.12514,-0.22429 4.91885,-0.3171 16.37757,-0.3171 h 16.20063 l 0.64152,-0.71059 c 0.67062,-0.74283 0.82341,-1.846 0.38216,-2.75925 -0.55896,-1.15691 -1.36653,-1.20331 -20.18453,-1.15974 -9.95851,0.023 -18.25341,0.032 -18.4331,0.0197 -0.24596,-0.0167 -0.32526,-1.07739 -0.32096,-4.29228 0.005,-3.53723 0.0888,-4.46886 0.48977,-5.42812 0.56577,-1.35358 1.66487,-2.56893 2.77147,-3.06461 0.59837,-0.26802 6.35554,-0.33526 24.30628,-0.28391 25.97184,0.0743 24.43145,-0.04 25.99252,1.92938 1.10241,1.39078 1.34459,2.75869 1.26168,7.12679 l -0.0729,3.84583 -4.40071,0.14475 -4.4007,0.14475 -0.65457,0.84337 c -0.50815,0.65467 -0.61977,1.04327 -0.49896,1.73698 0.24562,1.4107 1.00331,1.9069 2.91182,1.9069 0.90994,0 1.72698,0.13 1.81563,0.28891 0.27407,0.49119 -0.68725,1.94176 -1.70799,2.57721 -0.5378,0.3348 -1.1174,0.99531 -1.2986,1.47988 -0.60686,1.62281 1.11368,4.64577 7.93274,13.93767 7.63492,10.40366 11.26352,19.26152 11.48494,28.03622 l 0.0548,2.17125 -34.1072,0.14475 c -18.75895,0.0796 -34.25588,0.25129 -34.43762,0.38151 -0.18174,0.13023 -0.56637,0.74903 -0.85472,1.37512 l -0.5243,1.13836 h -2.20293 c -2.20106,0 -2.2035,-0.001 -2.88531,-0.99099 z"
   style="fill:#6c7b83;stroke-width:0.27506894" /><path
   inkscape:connector-curvature="0"
   id="path523"
   d="m 223.92854,236.92806 c 1.01156,-0.19677 3.42875,-1.22675 4.44309,-1.89323 1.26427,-0.8307 3.31666,-3.0317 4.12239,-4.42088 0.36941,-0.63689 0.97492,-1.93964 1.34559,-2.89499 l 0.67392,-1.73699 0.0718,-33.52604 c 0.043,-20.12685 -0.0289,-34.53183 -0.17992,-36.04266 -0.78687,-7.8713 -3.25316,-15.1189 -7.5713,-22.24952 -1.14145,-1.88489 -3.96374,-6.03256 -6.27175,-9.21705 -4.56419,-6.29743 -5.26776,-7.46348 -4.86269,-8.05912 1.08197,-1.59098 2.01378,-3.40595 2.25124,-4.3849 0.15508,-0.63934 0.41682,-1.25816 0.58162,-1.37515 0.16481,-0.11703 1.07528,-0.21467 2.02329,-0.21712 2.75026,-0.007 2.72228,0.0704 2.70568,-7.49074 -0.0129,-5.87423 -0.0521,-6.37267 -0.62825,-7.99293 -0.76672,-2.15608 -2.6765,-4.33095 -4.8465,-5.51924 l -1.56816,-0.85872 h -24.19972 -24.19968 l -1.72096,0.9579 c -2.04048,1.13574 -3.63233,2.94487 -4.58924,5.21562 -0.66961,1.589 -0.69537,1.84737 -0.78492,7.8672 -0.0896,6.02383 -0.0744,6.24986 0.47337,7.02036 0.5183,0.72908 0.7157,0.79612 2.34448,0.79612 2.01227,0 2.10508,0.0748 2.7315,2.20289 0.23947,0.81352 0.85682,2.02446 1.37186,2.69096 l 0.93645,1.21183 -1.1666,1.94102 c -0.64164,1.06756 -2.91936,4.33009 -5.06162,7.25008 -2.14226,2.91998 -4.62526,6.4374 -5.51776,7.81648 -4.37501,6.76017 -6.66817,14.11825 -7.05194,22.62763 -0.0826,1.83109 -0.25636,3.47846 -0.38616,3.66083 -0.12979,0.18239 -0.67284,0.42218 -1.20677,0.53289 -3.04415,0.63123 -5.63313,2.95296 -7.14114,6.40399 -0.86697,1.984 -1.19052,2.45996 -1.75846,2.58668 -4.12852,0.92124 -6.32705,2.14513 -8.79808,4.89781 -2.05413,2.28824 -3.28418,4.69553 -3.95337,7.73702 l -0.42587,1.93551 -1.4342,0.64478 c -1.9267,0.86619 -3.78225,2.94902 -4.48763,5.03732 -0.29991,0.88787 -0.54528,1.77879 -0.54528,1.9798 0,0.72415 -0.6531,1.06046 -2.0778,1.06992 -1.03103,0.007 -1.62228,0.1683 -2.04438,0.55823 l -0.59386,0.5486 0.0723,11.67311 c 0.0679,10.98569 0.10575,11.80343 0.64139,13.88592 1.83658,7.14024 6.80979,13.26132 12.62726,15.54177 0.7906,0.30992 2.0255,0.80139 2.74424,1.09216 1.2449,0.50361 3.46073,0.53087 46.78305,0.57531 25.01194,0.0256 45.77029,-0.0111 46.12965,-0.0805 z m -51.3736,-4.17294 c -0.10066,-0.1803 0.67462,-1.28434 1.77862,-2.53312 4.07004,-4.60379 5.78244,-8.83371 6.16608,-15.23139 l 0.17419,-2.90461 25.01971,-0.0738 25.01969,-0.0738 0.16252,0.71721 c 0.0894,0.39446 0.11008,3.42401 0.0459,6.73231 -0.0925,4.76904 -0.21125,6.29962 -0.57329,7.38855 -0.50569,1.52092 -2.31549,3.91973 -3.64283,4.82841 -2.10133,1.43853 -1.94078,1.43044 -28.83197,1.45082 -18.07281,0.0138 -25.1904,-0.0708 -25.31858,-0.30053 z m -42.44836,-0.94884 c -5.81511,-2.4777 -9.99203,-7.82211 -11.11343,-14.21979 -0.32487,-1.85336 -0.39151,-4.10875 -0.33355,-11.29048 l 0.0724,-8.97448 5.88055,-0.15875 c 3.23429,-0.0872 5.90155,-0.185 5.92721,-0.21711 0.0257,-0.0321 0.2315,-0.26311 0.45737,-0.51332 0.53728,-0.59511 0.52539,-2.10938 -0.0218,-2.77914 -0.37769,-0.46229 -0.87285,-0.52942 -3.90495,-0.52942 -2.15748,0 -3.53703,-0.11581 -3.64309,-0.30595 -0.77946,-1.39698 2.22413,-4.58909 4.33697,-4.60918 1.21711,-0.0111 1.58592,-0.60331 1.95125,-3.13068 0.96304,-6.66216 4.74403,-10.68127 10.67191,-11.34402 2.46678,-0.27579 2.92289,-0.67401 3.30091,-2.88197 0.61343,-3.58288 2.80551,-5.84643 6.07385,-6.27192 2.15139,-0.28008 2.29297,-0.0123 2.29297,4.34633 0,4.39493 0.0241,4.43033 3.25998,4.80013 3.86093,0.44124 7.06188,2.63098 8.94744,6.12089 0.90171,1.66892 1.64456,4.38304 1.64456,6.00868 0,1.29985 0.85771,2.3462 1.92321,2.3462 1.9403,0 4.5157,2.45415 4.30494,4.10224 l -0.0863,0.67451 -16.59622,0.14474 c -9.12792,0.0796 -16.73869,0.24703 -16.9128,0.37203 -0.17412,0.12499 -0.39508,0.69084 -0.49105,1.25742 -0.14067,0.8306 -0.0653,1.15106 0.38909,1.65446 l 0.56356,0.62434 18.87592,0.14474 18.87594,0.14475 0.0729,9.26398 c 0.061,7.73703 0.002,9.62186 -0.35658,11.43522 -1.13144,5.71907 -4.40263,10.33054 -9.14265,12.88857 -3.43658,1.8546 -3.34792,1.84673 -20.10719,1.78535 l -15.15874,-0.0555 z m 14.32581,-3.92385 c 2.52859,-0.13954 3.01639,-0.24573 3.33231,-0.72542 0.55195,-0.83812 0.44902,-1.83767 -0.27144,-2.63569 l -0.64151,-0.7106 h -6.27466 c -5.77455,0 -6.394,-0.0495 -7.77183,-0.62048 -2.81589,-1.16699 -4.48809,-3.71871 -4.96022,-7.56903 -0.28172,-2.29764 -1.88631,-3.13977 -3.29781,-1.73079 -0.93788,0.93621 -0.31209,5.12831 1.18914,7.96578 0.96693,1.82761 3.08976,3.89246 5.04221,4.9045 2.43034,1.25975 5.93499,1.54767 13.65381,1.12173 z m 36.3202,-27.07712 c -0.0926,-7.99197 -0.007,-7.74212 -2.73879,-7.97101 l -1.72769,-0.14476 -0.30208,-1.3232 c -0.66292,-2.90385 -2.4949,-5.28798 -5.01006,-6.52006 -1.36423,-0.66831 -1.46981,-0.8268 -1.81413,-2.72347 -1.00606,-5.54194 -6.09914,-11.05653 -11.32203,-12.25906 -0.80865,-0.18617 -1.61727,-0.44293 -1.79696,-0.57055 -0.22996,-0.16331 -0.32915,-1.23431 -0.335,-3.61656 -0.01,-3.7349 -0.16263,-4.20262 -1.63502,-4.98351 l -0.83957,-0.44526 0.0678,-2.88613 c 0.21797,-9.28422 2.91547,-16.53926 9.46894,-25.46706 5.35941,-7.30115 6.45634,-8.86909 8.10135,-11.57998 0.9662,-1.59223 1.83635,-3.17313 1.93367,-3.51309 0.26563,-0.92789 -0.26504,-1.91274 -1.43124,-2.65619 -1.255,-0.80007 -2.15142,-2.53054 -1.5347,-2.96262 0.22372,-0.15674 7.12923,-0.2698 16.63718,-0.27239 l 16.2547,-0.005 0.40686,-0.64341 c 0.52277,-0.82673 0.52096,-2.08383 -0.004,-2.66515 -0.22589,-0.2502 -0.43171,-0.48537 -0.45739,-0.52257 -0.0257,-0.0372 -8.63227,-0.13491 -19.12577,-0.21712 l -19.07913,-0.14949 v -4.34249 c 0,-2.38837 0.0899,-4.69835 0.19979,-5.13329 0.27725,-1.0974 1.64849,-2.75294 2.836,-3.42399 0.96257,-0.54395 1.74836,-0.56194 24.53544,-0.56194 19.14761,0 23.69795,0.0727 24.38201,0.38999 1.16693,0.54112 2.71742,2.53267 3.05595,3.92525 0.15836,0.65145 0.25083,2.92031 0.21008,5.15502 l -0.0728,3.99145 -4.50188,0.14475 c -4.16907,0.13405 -4.54353,0.19092 -5.06481,0.76908 -0.45484,0.50447 -0.52921,0.82339 -0.38732,1.66111 0.21923,1.29451 0.75882,1.62162 2.68414,1.62723 0.83601,0.002 1.69212,0.12503 1.90246,0.2724 0.64937,0.45494 -0.28225,2.15439 -1.67756,3.06014 -1.6047,1.04168 -1.71989,1.71585 -0.68926,4.03476 0.9832,2.21217 2.31543,4.25776 6.0402,9.27449 7.00402,9.4334 10.23303,15.64909 11.90018,22.90722 0.68119,2.96573 1.2767,8.22926 1.0289,9.09411 -0.16035,0.55963 -0.62524,0.56735 -34.22319,0.56735 -32.0546,0 -34.09306,0.0298 -34.61151,0.50662 -0.79731,0.73325 -0.97128,2.10881 -0.37065,2.93045 l 0.48628,0.66521 33.85533,-0.0362 c 18.62043,-0.0199 34.05356,0.0481 34.29585,0.15107 0.40765,0.17327 0.44055,1.78149 0.44055,21.53099 0,11.73904 -0.0785,21.43058 -0.17424,21.53672 -0.0958,0.10621 -11.32164,0.19301 -24.94624,0.19301 h -24.77191 z"
   style="fill:#0e0e0b;stroke-width:0.27506894" /></svg>