<?xml version="1.0" encoding="UTF-8" standalone="no"?>
<svg
   xmlns:dc="http://purl.org/dc/elements/1.1/"
   xmlns:cc="http://creativecommons.org/ns#"
   xmlns:rdf="http://www.w3.org/1999/02/22-rdf-syntax-ns#"
   xmlns:svg="http://www.w3.org/2000/svg"
   xmlns="http://www.w3.org/2000/svg"
   xmlns:sodipodi="http://sodipodi.sourceforge.net/DTD/sodipodi-0.dtd"
   xmlns:inkscape="http://www.inkscape.org/namespaces/inkscape"
   id="Layer_1"
   enable-background="new 0 0 256 256"
   height="512"
   viewBox="0 0 256 256"
   width="512"
   version="1.1"
   sodipodi:docname="icon-6.svg"
   inkscape:version="0.92.4 (5da689c313, 2019-01-14)">
  <metadata
     id="metadata83">
    <rdf:RDF>
      <cc:Work
         rdf:about="">
        <dc:format>image/svg+xml</dc:format>
        <dc:type
           rdf:resource="http://purl.org/dc/dcmitype/StillImage" />
      </cc:Work>
    </rdf:RDF>
  </metadata>
  <defs
     id="defs81" />
  <sodipodi:namedview
     pagecolor="#ffffff"
     bordercolor="#666666"
     borderopacity="1"
     objecttolerance="10"
     gridtolerance="10"
     guidetolerance="10"
     inkscape:pageopacity="0"
     inkscape:pageshadow="2"
     inkscape:window-width="1024"
     inkscape:window-height="744"
     id="namedview79"
     showgrid="false"
     inkscape:zoom="0.4609375"
     inkscape:cx="256"
     inkscape:cy="169.22034"
     inkscape:window-x="0"
     inkscape:window-y="0"
     inkscape:window-maximized="1"
     inkscape:current-layer="Layer_1" />
  <path
     inkscape:connector-curvature="0"
     id="path110"
     d="m 149.14124,249.87979 c -3.51135,-0.67911 -7.42316,-2.62968 -10.43702,-5.20429 l -2.13991,-1.82805 H 85.957408 35.350502 l -1.394497,-1.35334 c -0.835445,-0.81079 -1.523033,-2.11798 -1.715091,-3.2606 -0.496156,-2.95184 -16.22568,-121.43157 -16.22568,-122.21698 0,-0.5497 -0.885428,-0.6945 -4.246763,-0.6945 -4.6891039,0 -7.112488,-0.71473 -8.380539,-2.4717 -0.6824208,-0.94554 -0.8116638,-2.6112 -0.8116638,-10.46061 0,-13.472132 -0.3030437,-13.15243 12.4669108,-13.15243 h 8.438148 l 0.01185,-15.578389 c 0.007,-8.568114 0.20685,-16.39318 0.445148,-17.389037 0.301282,-1.259111 2.778511,-4.65207 8.132436,-11.138679 4.234539,-5.130406 7.953927,-9.789985 8.265293,-10.354619 0.385011,-0.698159 0.566129,-5.428659 0.566129,-14.785804 0,-7.567558 0.139138,-14.1110748 0.309196,-14.5411465 0.781461,-1.9763648 2.488488,-2.1953704 17.111686,-2.1953704 14.623208,0 16.330235,0.2190056 17.111696,2.1953704 0.170058,0.4300717 0.309186,6.9735885 0.309186,14.5411465 0,9.357145 0.181137,14.087645 0.566139,14.785804 0.311366,0.564634 4.030754,5.224213 8.265303,10.354619 5.353924,6.486609 7.831144,9.879568 8.132436,11.138679 0.238297,0.995857 0.438608,8.820923 0.445138,17.389037 l 0.01185,15.578389 h 3.484177 3.48418 V 79.077707 c 0,-7.629604 0.17301,-10.546661 0.69479,-11.713982 0.38214,-0.854913 3.29391,-4.050642 6.47061,-7.101601 l 5.77582,-5.547211 v -4.717619 -4.717629 l -3.60861,-0.0029 c -7.71498,-0.0058 -9.605068,-1.612347 -9.08942,-7.726106 1.18305,-14.026512 10.344,-26.416569 23.51322,-31.801297 5.40544,-2.2102204 9.14598,-2.4768857 34.87713,-2.4864114 25.33892,-0.00937 26.32947,0.070342 27.1662,2.1864696 0.17005,0.4300718 0.30919,5.1283498 0.30919,10.4406158 v 9.658667 l -1.45493,1.411995 -1.45494,1.411995 h -7.96971 c -4.38334,0 -8.48826,0.208285 -9.12203,0.462854 -0.63378,0.25457 -1.93626,1.110466 -2.89441,1.901992 l -1.74209,1.439137 5.68002,11.071594 c 3.44914,6.723121 5.55963,11.376079 5.37348,11.846841 -0.36337,0.918975 -5.85804,3.709782 -7.30399,3.709782 -0.81335,0 -2.01504,-1.954095 -6.2382,-10.144067 -2.87694,-5.579237 -5.37362,-10.144066 -5.54818,-10.144066 -0.17455,0 -1.51743,0.994986 -2.98417,2.211076 l -2.66679,2.211079 v 5.843997 5.843987 l 10.41316,10.180103 c 6.06047,5.924841 10.5346,10.684882 10.70371,11.387721 0.15982,0.664195 0.34553,3.816101 0.41268,7.004237 l 0.12212,5.79661 9.07379,0.241525 9.07379,0.241526 1.37874,1.338234 1.37873,1.338234 0.13938,9.288881 c 0.19512,13.00363 -0.32815,13.79137 -9.20057,13.85061 l -4.0838,0.0272 -0.27187,1.56991 c -0.42078,2.42971 -7.73798,58.18609 -7.73005,58.90224 0.004,0.36778 2.56305,1.54608 6.09731,2.80751 5.58117,1.99201 6.46477,2.17182 10.56995,2.15098 4.04564,-0.0205 4.99405,-0.21779 9.7889,-2.03594 2.92009,-1.10726 6.7278,-2.23658 8.46157,-2.50962 4.48262,-0.70592 12.5287,-0.6059 16.47047,0.20474 8.73583,1.79658 16.36811,8.3879 19.59553,16.92289 0.80456,2.1277 0.93286,4.35904 1.07761,18.74186 0.10975,10.90432 -0.0232,17.20312 -0.40023,18.96582 -0.89477,4.18289 -3.68268,9.03854 -7.12646,12.41198 -5.67884,5.56284 -10.43719,7.12192 -21.73589,7.12178 -7.77304,-9e-5 -12.48448,-0.76596 -18.16767,-2.95325 -3.37266,-1.29804 -4.62925,-1.53252 -8.2127,-1.53252 -3.58346,0 -4.84004,0.23448 -8.2127,1.53252 -2.19006,0.84288 -5.66179,1.85216 -7.71496,2.24284 -4.48047,0.85255 -16.29841,0.86056 -20.67551,0.014 z m 10.11777,-165.691076 0.14367,-4.807052 -9.09793,-8.839134 -9.09794,-8.839135 h -10.67912 -10.67913 l -4.88028,4.736256 -4.88027,4.736255 v 8.708662 c 0,4.789759 0.15142,8.855617 0.3365,9.035234 0.18509,0.179618 11.21624,0.27019 24.51367,0.201278 l 24.17717,-0.125313 z"
     style="fill:#90cde1;stroke-width:0.49034017" />
  <path
     inkscape:connector-curvature="0"
     id="path108"
     d="m 149.87024,249.8864 c -3.7473,-0.79805 -6.9475,-2.36769 -10.55353,-5.17631 l -3.01166,-2.34569 H 85.97681 c -55.930489,0 -52.004111,0.24267 -53.038672,-3.27807 -0.289933,-0.98668 -4.105206,-28.85689 -8.478365,-61.93379 -4.373159,-33.07691 -8.061349,-60.6091 -8.195968,-61.18267 -0.228701,-0.97441 -0.590717,-1.05366 -5.516934,-1.20763 -5.0651066,-0.15831 -5.3193221,-0.21802 -6.4725148,-1.52011 -1.1831566,-1.33592 -1.2003485,-1.49539 -1.2003485,-11.13985 0,-10.206384 -0.022498,-10.080202 2.1347847,-11.991982 0.057738,-0.0512 4.2487341,-0.214223 9.3132236,-0.362288 l 9.20818,-0.269194 0.271139,-17.148305 c 0.149133,-9.431567 0.31712,-17.194638 0.373305,-17.251281 0.05615,-0.05661 3.797881,-4.597987 8.314867,-10.091878 l 8.212702,-9.988915 0.003,-13.336079 c 0.002,-7.514481 0.222888,-14.1051483 0.507008,-15.0978564 0.928791,-3.2452031 1.261142,-3.3102565 16.911107,-3.3102565 15.649965,0 15.982305,0.065057 16.911097,3.3102565 0.28412,0.9927081 0.505445,7.5833754 0.507007,15.0978564 l 0.003,13.336079 8.212701,9.988915 c 4.516986,5.493901 8.258673,10.035245 8.314868,10.091878 0.05615,0.05661 0.224182,7.819714 0.373305,17.251281 l 0.271138,17.148305 h 3.733046 3.733044 l 0.24887,-10.868644 c 0.16229,-7.087254 0.45377,-11.20476 0.83781,-11.834745 0.32392,-0.531356 3.06771,-3.353494 6.09731,-6.27142 l 5.50837,-5.305318 v -5.201038 -5.201037 h -3.9979 c -4.78843,0 -7.23062,-0.840779 -7.99994,-2.754172 -0.74543,-1.854007 -0.17672,-8.017363 1.11467,-12.080066 3.49746,-11.002982 11.43983,-19.637101 22.03967,-23.9592529 6.15811,-2.5110064 8.74871,-2.7135931 34.93616,-2.7320253 l 23.94324,-0.016849 1.31704,1.1845614 1.31703,1.1845623 v 9.7158385 c 0,6.035987 -0.2037,10.085207 -0.53781,10.691078 -1.02997,1.86772 -3.39567,2.341659 -11.76526,2.357018 l -7.85538,0.01441 -2.23983,1.885995 -2.23983,1.885995 5.59957,10.903217 c 3.07976,5.996777 5.59957,11.2253 5.59957,11.618947 0,0.401367 -1.51806,1.457635 -3.45637,2.404956 -3.18427,1.556245 -3.51977,1.627707 -4.26166,0.907701 -0.44291,-0.429838 -3.03517,-5.105567 -5.7606,-10.390501 -5.52376,-10.711296 -4.87846,-10.202894 -8.79521,-6.929374 l -2.11539,1.767986 v 6.338795 6.338796 l 10.45252,10.214593 10.45253,10.214593 v 6.498801 c 0,4.410554 0.19192,6.685066 0.59729,7.078463 0.41837,0.406033 3.1683,0.579661 9.18043,0.579661 8.35326,0 8.62054,0.0312 9.97967,1.164809 l 1.39654,1.1648 0.15533,9.28991 c 0.10791,6.45439 -0.0274,9.71808 -0.44342,10.69272 -0.9166,2.14755 -2.76436,2.80641 -7.87051,2.80641 -2.46126,0 -4.59248,0.18446 -4.73605,0.40992 -0.43047,0.67596 -8.31665,60.93971 -8.03293,61.38522 0.14409,0.22627 0.88005,0.55369 1.63547,0.72761 0.75542,0.17392 3.38934,1.11013 5.85315,2.08047 4.06759,1.60196 4.9146,1.76414 9.20818,1.76306 4.39148,-9.7e-4 5.08527,-0.14259 9.73374,-1.98514 2.75287,-1.09117 6.32173,-2.22014 7.93081,-2.50882 3.78779,-0.67955 13.89407,-0.67527 17.27715,0.008 8.59762,1.7347 16.681,8.94642 19.31925,17.23598 0.9033,2.83825 0.98762,4.50001 0.98222,19.35688 -0.004,12.03749 -0.17874,16.87841 -0.67237,18.66733 -2.43865,8.83774 -10.07663,16.05353 -18.98243,17.9332 -4.03654,0.85195 -14.77663,0.8354 -19.00599,-0.0293 -1.86576,-0.38144 -5.07216,-1.41396 -7.12533,-2.29449 -3.52036,-1.50972 -4.05919,-1.60093 -9.45705,-1.60093 -5.39787,0 -5.93671,0.0912 -9.45705,1.60093 -2.05318,0.88053 -5.25958,1.91305 -7.12533,2.29449 -4.11873,0.84209 -15.34498,0.84423 -19.29179,0.004 z M 78.73041,179.11619 c 0,-10.28757 0.200748,-17.8708 0.492822,-18.61634 0.485475,-1.23922 0.557727,-1.25586 4.85296,-1.11831 l 4.360138,0.13964 0.24887,18.35593 0.248869,18.35594 3.359752,0.14283 3.359741,0.14283 v -17.80262 c 0,-13.62098 0.148347,-17.99952 0.631572,-18.64087 0.529854,-0.70323 1.311484,-0.81535 4.852956,-0.69614 l 4.22139,0.1421 0.13042,18.23517 c 0.12957,18.11676 0.13716,18.23517 1.16755,18.23517 1.60526,0 3.88558,-1.51705 5.08258,-3.38136 1.06576,-1.65986 1.09007,-2.10727 1.33441,-24.55723 l 0.24887,-22.86655 1.39654,-1.16523 c 0.78332,-0.65357 2.0319,-1.16522 2.84352,-1.16522 0.82787,0 5.52016,1.96345 10.96685,4.58898 5.23594,2.52394 10.07711,4.58898 10.75818,4.58898 1.79943,0 4.14815,-2.4585 4.14815,-4.34205 0,-0.83494 -0.23416,-1.94269 -0.52035,-2.46167 -0.30266,-0.54882 -6.08125,-3.64417 -13.81228,-7.39866 -7.31055,-3.55028 -13.85187,-6.89594 -14.53626,-7.43479 l -1.24435,-0.97972 -0.24887,-15.38011 -0.24887,-15.380111 H 83.956674 55.087784 l -0.125042,45.889831 c -0.116879,42.8971 -0.06819,45.99946 0.746609,47.57088 0.94241,1.81749 3.690121,3.87403 5.176043,3.87403 0.880302,0 0.921873,-0.78571 0.921873,-17.42159 0,-11.08537 0.187399,-17.7614 0.51525,-18.35593 0.441515,-0.80061 1.068458,-0.93434 4.380118,-0.93434 2.342342,0 4.100139,0.22835 4.462145,0.57966 0.442808,0.42975 0.597277,5.15612 0.597277,18.27542 0,9.73268 0.149332,17.84068 0.331833,18.0178 0.182501,0.17712 1.75038,0.32203 3.484176,0.32203 h 3.152344 z m 80.34422,-89.689051 c 0.64627,-0.240675 0.78733,-1.17021 0.78733,-5.188149 v -4.894948 l -9.32771,-9.06185 -9.3277,-9.06185 h -10.69782 -10.69781 l -5.11033,4.942644 -5.11032,4.942644 v 9.025573 c 0,6.768488 0.15559,9.086514 0.62217,9.269223 0.89692,0.351236 47.92175,0.376944 48.86219,0.02667 z M 138.35652,48.540258 138.21029,45.03814 h -7.71496 -7.71497 l -0.14624,3.502118 -0.14624,3.502119 h 8.00745 8.00744 z"
     style="fill:#f6b14b;stroke-width:0.49034017" />
  <path
     inkscape:connector-curvature="0"
     id="path106"
     d="m 149.87024,249.8864 c -3.7473,-0.79805 -6.9475,-2.36769 -10.55353,-5.17631 l -3.01166,-2.34569 H 85.97681 c -55.930489,0 -52.004111,0.24267 -53.038672,-3.27807 -0.289933,-0.98668 -4.105206,-28.85689 -8.478365,-61.93379 -4.373159,-33.07691 -8.061349,-60.6091 -8.195968,-61.18267 -0.228701,-0.97441 -0.590717,-1.05366 -5.516934,-1.20763 -5.0651066,-0.15831 -5.3193221,-0.21802 -6.4725148,-1.52011 -1.1831566,-1.33592 -1.2003485,-1.49539 -1.2003485,-11.13985 0,-10.206384 -0.022498,-10.080202 2.1347847,-11.991982 0.057738,-0.0512 4.2487341,-0.214223 9.3132236,-0.362288 l 9.20818,-0.269194 0.271139,-17.148305 c 0.149133,-9.431567 0.31712,-17.194638 0.373305,-17.251281 0.05615,-0.05661 3.797881,-4.597987 8.314867,-10.091878 l 8.212702,-9.988915 0.003,-13.336079 c 0.002,-7.514481 0.222888,-14.1051483 0.507008,-15.0978564 0.928791,-3.2452031 1.261142,-3.3102565 16.911107,-3.3102565 15.649965,0 15.982305,0.065057 16.911097,3.3102565 0.28412,0.9927081 0.505445,7.5833754 0.507007,15.0978564 l 0.003,13.336079 8.212701,9.988915 c 4.516986,5.493901 8.258673,10.035245 8.314868,10.091878 0.05615,0.05661 0.224182,7.819714 0.373305,17.251281 l 0.271138,17.148305 h 3.733046 3.733044 l 0.24887,-10.868644 c 0.16229,-7.087254 0.45377,-11.20476 0.83781,-11.834745 0.32392,-0.531356 3.06771,-3.353494 6.09731,-6.27142 l 5.50837,-5.305318 v -5.201038 -5.201037 h -3.9979 c -4.78843,0 -7.23062,-0.840779 -7.99994,-2.754172 -0.74543,-1.854007 -0.17672,-8.017363 1.11467,-12.080066 3.49746,-11.002982 11.43983,-19.637101 22.03967,-23.9592529 6.15811,-2.5110064 8.74871,-2.7135931 34.93616,-2.7320253 l 23.94324,-0.016849 1.31704,1.1845614 1.31703,1.1845623 v 9.7158385 c 0,6.035987 -0.2037,10.085207 -0.53781,10.691078 -1.02997,1.86772 -3.39567,2.341659 -11.76526,2.357018 l -7.85538,0.01441 -2.23983,1.885995 -2.23983,1.885995 5.59957,10.903217 c 3.07976,5.996777 5.59957,11.2253 5.59957,11.618947 0,0.401367 -1.51806,1.457635 -3.45637,2.404956 -3.18427,1.556245 -3.51977,1.627707 -4.26166,0.907701 -0.44291,-0.429838 -3.03517,-5.105567 -5.7606,-10.390501 -5.52376,-10.711296 -4.87846,-10.202894 -8.79521,-6.929374 l -2.11539,1.767986 v 6.338795 6.338796 l 10.45252,10.214593 10.45253,10.214593 v 6.498801 c 0,4.410554 0.19192,6.685066 0.59729,7.078463 0.41837,0.406033 3.1683,0.579661 9.18043,0.579661 8.35326,0 8.62054,0.0312 9.97967,1.164809 l 1.39654,1.1648 0.15533,9.28991 c 0.10791,6.45439 -0.0274,9.71808 -0.44342,10.69272 -0.9166,2.14755 -2.76436,2.80641 -7.87051,2.80641 -2.46126,0 -4.59248,0.18446 -4.73605,0.40992 -0.43047,0.67596 -8.31665,60.93971 -8.03293,61.38522 0.14409,0.22627 0.88005,0.55369 1.63547,0.72761 0.75542,0.17392 3.38934,1.11013 5.85315,2.08047 4.06759,1.60196 4.9146,1.76414 9.20818,1.76306 4.39148,-9.7e-4 5.08527,-0.14259 9.73374,-1.98514 2.75287,-1.09117 6.32173,-2.22014 7.93081,-2.50882 3.78779,-0.67955 13.89407,-0.67527 17.27715,0.008 8.59762,1.7347 16.681,8.94642 19.31925,17.23598 0.9033,2.83825 0.98762,4.50001 0.98222,19.35688 -0.004,12.03749 -0.17874,16.87841 -0.67237,18.66733 -2.43865,8.83774 -10.07663,16.05353 -18.98243,17.9332 -4.03654,0.85195 -14.77663,0.8354 -19.00599,-0.0293 -1.86576,-0.38144 -5.07216,-1.41396 -7.12533,-2.29449 -3.52036,-1.50972 -4.05919,-1.60093 -9.45705,-1.60093 -5.39787,0 -5.93671,0.0912 -9.45705,1.60093 -2.05318,0.88053 -5.25958,1.91305 -7.12533,2.29449 -4.11873,0.84209 -15.34498,0.84423 -19.29179,0.004 z m 21.93746,-35.24635 c 11.19168,-4.26906 16.8323,-4.2615 27.87341,0.0373 l 4.72853,1.84105 7.46609,-0.003 c 6.71792,-0.003 7.71548,-0.11375 9.95479,-1.10801 3.25706,-1.44615 6.87725,-4.94399 8.30034,-8.01981 1.55042,-3.35103 1.57699,-9.18052 0.0567,-12.44705 -2.299,-4.9398 -6.83548,-8.21579 -12.69085,-9.16459 -4.50017,-0.72921 -12.09048,-0.20514 -15.64362,1.0801 -10.34707,3.74275 -9.49557,3.55484 -16.10872,3.55484 -6.61316,0 -5.76165,0.18791 -16.10872,-3.55484 -1.90164,-0.68786 -4.58993,-1.1484 -7.71496,-1.32169 -8.53141,-0.47309 -13.75314,1.025 -17.56629,5.03969 -3.03604,3.19652 -4.1006,5.90384 -4.12462,10.48948 -0.0244,4.65203 1.16437,7.59976 4.35046,10.78774 4.02537,4.02778 7.10825,4.92288 16.27715,4.72603 5.84631,-0.12553 6.50707,-0.24243 10.95027,-1.93728 z m -20.28288,-8.82438 c -0.84106,-0.32935 -0.86287,-8.43123 -0.0249,-9.24449 0.36151,-0.35084 2.11578,-0.57966 4.4441,-0.57966 4.98132,0 5.41114,0.38897 5.41114,4.89677 0,5.03443 -0.21666,5.25489 -5.11934,5.20917 -2.24886,-0.021 -4.36882,-0.14778 -4.71101,-0.28179 z m 42.28297,-0.25974 c -0.93357,-0.90602 -0.78754,-7.86162 0.18487,-8.80532 0.97241,-0.94372 8.13951,-1.08545 9.07308,-0.17943 0.36624,0.35543 0.59729,2.09322 0.59729,4.49237 0,2.39916 -0.23105,4.13695 -0.59729,4.49238 -0.80261,0.77893 -8.45534,0.77893 -9.25795,0 z m -25.77022,-4.41199 c -0.1401,-0.3543 -0.18907,-2.47369 -0.10882,-4.70974 l 0.14591,-4.06556 4.68692,-0.13995 c 3.41409,-0.10194 4.79754,0.0292 5.09422,0.48305 0.4729,0.7234 0.56648,7.18413 0.12039,8.31231 -0.40672,1.02863 -9.53576,1.13875 -9.93862,0.11989 z m 42.40483,-0.1031 c -0.45114,-1.14097 -0.36292,-7.59992 0.11376,-8.3291 0.29668,-0.45382 1.68013,-0.58499 5.09421,-0.48305 l 4.68693,0.13995 v 4.58898 4.58898 l -4.79307,0.13756 c -4.04005,0.11594 -4.84157,0.0149 -5.10183,-0.64332 z M 78.73041,179.11619 c 0,-10.28757 0.200748,-17.8708 0.492822,-18.61634 0.485475,-1.23922 0.557727,-1.25586 4.85296,-1.11831 l 4.360138,0.13964 0.24887,18.35593 0.248869,18.35594 3.359752,0.14283 3.359741,0.14283 v -17.80262 c 0,-13.62098 0.148347,-17.99952 0.631572,-18.64087 0.529854,-0.70323 1.311484,-0.81535 4.852956,-0.69614 l 4.22139,0.1421 0.13042,18.23517 c 0.12957,18.11676 0.13716,18.23517 1.16755,18.23517 1.60526,0 3.88558,-1.51705 5.08258,-3.38136 1.06576,-1.65986 1.09007,-2.10727 1.33441,-24.55723 l 0.24887,-22.86655 1.39654,-1.16523 c 0.78332,-0.65357 2.0319,-1.16522 2.84352,-1.16522 0.82787,0 5.52016,1.96345 10.96685,4.58898 5.23594,2.52394 10.07711,4.58898 10.75818,4.58898 1.79943,0 4.14815,-2.4585 4.14815,-4.34205 0,-0.83494 -0.23416,-1.94269 -0.52035,-2.46167 -0.30266,-0.54882 -6.08125,-3.64417 -13.81228,-7.39866 -7.31055,-3.55028 -13.85187,-6.89594 -14.53626,-7.43479 l -1.24435,-0.97972 -0.24887,-15.38011 -0.24887,-15.380111 H 83.956674 55.087784 l -0.125042,45.889831 c -0.116879,42.8971 -0.06819,45.99946 0.746609,47.57088 0.94241,1.81749 3.690121,3.87403 5.176043,3.87403 0.880302,0 0.921873,-0.78571 0.921873,-17.42159 0,-11.08537 0.187399,-17.7614 0.51525,-18.35593 0.441515,-0.80061 1.068458,-0.93434 4.380118,-0.93434 2.342342,0 4.100139,0.22835 4.462145,0.57966 0.442808,0.42975 0.597277,5.15612 0.597277,18.27542 0,9.73268 0.149332,17.84068 0.331833,18.0178 0.182501,0.17712 1.75038,0.32203 3.484176,0.32203 h 3.152344 z m 80.34422,-89.689051 c 0.64627,-0.240675 0.78733,-1.17021 0.78733,-5.188149 v -4.894948 l -9.32771,-9.06185 -9.3277,-9.06185 h -10.69782 -10.69781 l -5.11033,4.942644 -5.11032,4.942644 v 9.025573 c 0,6.768488 0.15559,9.086514 0.62217,9.269223 0.89692,0.351236 47.92175,0.376944 48.86219,0.02667 z M 138.35652,48.540258 138.21029,45.03814 h -7.71496 -7.71497 l -0.14624,3.502118 -0.14624,3.502119 h 8.00745 8.00744 z"
     style="fill:#ef9f36;stroke-width:0.49034017" />
  <path
     inkscape:connector-curvature="0"
     id="path104"
     d="m 149.87024,249.8864 c -3.7473,-0.79805 -6.9475,-2.36769 -10.55353,-5.17631 l -3.01166,-2.34569 H 85.97681 c -55.930489,0 -52.004111,0.24267 -53.038672,-3.27807 -0.289933,-0.98668 -4.105206,-28.85689 -8.478365,-61.93379 -4.373159,-33.07691 -8.061349,-60.6091 -8.195968,-61.18267 -0.228701,-0.97441 -0.590717,-1.05366 -5.516934,-1.20763 -5.0651066,-0.15831 -5.3193221,-0.21802 -6.4725148,-1.52011 -1.1831566,-1.33592 -1.2003485,-1.49539 -1.2003485,-11.13985 0,-10.206384 -0.022498,-10.080202 2.1347847,-11.991982 0.057738,-0.0512 4.2487341,-0.214223 9.3132236,-0.362288 l 9.20818,-0.269194 0.271139,-17.148305 c 0.149133,-9.431567 0.31712,-17.194638 0.373305,-17.251281 0.05615,-0.05661 3.797881,-4.597987 8.314867,-10.091878 l 8.212702,-9.988915 0.003,-13.336079 c 0.002,-7.514481 0.222888,-14.1051483 0.507008,-15.0978564 0.928791,-3.2452031 1.261142,-3.3102565 16.911107,-3.3102565 15.649965,0 15.982305,0.065057 16.911097,3.3102565 0.28412,0.9927081 0.505445,7.5833754 0.507007,15.0978564 l 0.003,13.336079 8.212701,9.988915 c 4.516986,5.493901 8.258673,10.035245 8.314868,10.091878 0.05615,0.05661 0.224182,7.819714 0.373305,17.251281 l 0.271138,17.148305 h 3.733046 3.733044 l 0.24887,-10.868644 c 0.16229,-7.087254 0.45377,-11.20476 0.83781,-11.834745 0.32392,-0.531356 3.06771,-3.353494 6.09731,-6.27142 l 5.50837,-5.305318 v -5.201038 -5.201037 h -3.9979 c -4.78843,0 -7.23062,-0.840779 -7.99994,-2.754172 -0.74543,-1.854007 -0.17672,-8.017363 1.11467,-12.080066 3.49746,-11.002982 11.43983,-19.637101 22.03967,-23.9592529 6.15811,-2.5110064 8.74871,-2.7135931 34.93616,-2.7320253 l 23.94324,-0.016849 1.31704,1.1845614 1.31703,1.1845623 v 9.7158385 c 0,6.035987 -0.2037,10.085207 -0.53781,10.691078 -1.02997,1.86772 -3.39567,2.341659 -11.76526,2.357018 l -7.85538,0.01441 -2.23983,1.885995 -2.23983,1.885995 5.59957,10.903217 c 3.07976,5.996777 5.59957,11.2253 5.59957,11.618947 0,0.401367 -1.51806,1.457635 -3.45637,2.404956 -3.18427,1.556245 -3.51977,1.627707 -4.26166,0.907701 -0.44291,-0.429838 -3.03517,-5.105567 -5.7606,-10.390501 -5.52376,-10.711296 -4.87846,-10.202894 -8.79521,-6.929374 l -2.11539,1.767986 v 6.338795 6.338796 l 10.45252,10.214593 10.45253,10.214593 v 6.498801 c 0,4.410554 0.19192,6.685066 0.59729,7.078463 0.41837,0.406033 3.1683,0.579661 9.18043,0.579661 8.35326,0 8.62054,0.0312 9.97967,1.164809 l 1.39654,1.1648 0.15533,9.28991 c 0.10791,6.45439 -0.0274,9.71808 -0.44342,10.69272 -0.9166,2.14755 -2.76436,2.80641 -7.87051,2.80641 -2.46126,0 -4.59248,0.18446 -4.73605,0.40992 -0.43047,0.67596 -8.31665,60.93971 -8.03293,61.38522 0.14409,0.22627 0.88005,0.55369 1.63547,0.72761 0.75542,0.17392 3.38934,1.11013 5.85315,2.08047 4.06759,1.60196 4.9146,1.76414 9.20818,1.76306 4.39148,-9.7e-4 5.08527,-0.14259 9.73374,-1.98514 2.75287,-1.09117 6.32173,-2.22014 7.93081,-2.50882 3.78779,-0.67955 13.89407,-0.67527 17.27715,0.008 8.59762,1.7347 16.681,8.94642 19.31925,17.23598 0.9033,2.83825 0.98762,4.50001 0.98222,19.35688 -0.004,12.03749 -0.17874,16.87841 -0.67237,18.66733 -2.43865,8.83774 -10.07663,16.05353 -18.98243,17.9332 -4.03654,0.85195 -14.77663,0.8354 -19.00599,-0.0293 -1.86576,-0.38144 -5.07216,-1.41396 -7.12533,-2.29449 -3.52036,-1.50972 -4.05919,-1.60093 -9.45705,-1.60093 -5.39787,0 -5.93671,0.0912 -9.45705,1.60093 -2.05318,0.88053 -5.25958,1.91305 -7.12533,2.29449 -4.11873,0.84209 -15.34498,0.84423 -19.29179,0.004 z m 19.52659,-9.40245 c 1.46286,-0.52504 4.22762,-1.55521 6.14392,-2.28927 3.19691,-1.22462 4.03818,-1.33466 10.20366,-1.33466 6.16548,0 7.00674,0.11004 10.20366,1.33466 9.15498,3.50692 8.51043,3.36913 15.92766,3.40496 6.62211,0.032 7.11674,-0.0334 9.95479,-1.31671 6.0368,-2.72966 9.32777,-7.46798 9.95381,-14.33143 0.19131,-2.09749 0.21153,-4.02767 0.045,-4.28928 -0.17442,-0.27389 -1.49202,0.21925 -3.106,1.16245 -4.95175,2.8938 -7.31985,3.35815 -17.09639,3.35243 -9.44655,-0.006 -8.47927,0.18312 -18.66523,-3.64063 -2.28428,-0.85751 -3.98115,-1.1211 -7.21722,-1.1211 -3.23607,0 -4.93294,0.26359 -7.21722,1.1211 -10.18597,3.82375 -9.2187,3.63508 -18.66524,3.64063 -9.77654,0.006 -12.14463,-0.45863 -17.09639,-3.35243 -1.65456,-0.96692 -2.92952,-1.43958 -3.11165,-1.15358 -0.65638,1.03071 0.39578,7.93488 1.60765,10.54924 2.19426,4.73366 6.83225,8.26425 12.09574,9.20767 3.80755,0.68246 13.01825,0.14034 16.03953,-0.94405 z m 2.69351,-25.53895 c 5.94544,-2.31795 9.09451,-3.0128 13.65407,-3.0128 4.60271,0 7.74881,0.70367 13.68783,3.06145 l 4.9774,1.97601 7.21722,-9.6e-4 c 6.28876,-9.7e-4 7.57449,-0.13894 9.99436,-1.07348 7.16866,-2.76847 11.405,-10.33542 9.91132,-17.70358 -0.32472,-1.60179 -0.9286,-3.54708 -1.34198,-4.32286 -1.4451,-2.71207 -5.06543,-5.93102 -8.24342,-7.32951 -2.9522,-1.29914 -3.44183,-1.36353 -10.07141,-1.32461 -7.39397,0.0435 -7.11262,-0.016 -15.92766,3.36729 -3.19943,1.22799 -4.03334,1.33727 -10.20366,1.33727 -6.17033,0 -7.00424,-0.10928 -10.20366,-1.33727 -8.81506,-3.38337 -8.5337,-3.32389 -15.92766,-3.36729 -6.6296,-0.0389 -7.11921,0.0255 -10.07142,1.32461 -3.17798,1.39849 -6.79831,4.61744 -8.24343,7.32951 -0.41336,0.77578 -1.01725,2.72107 -1.34196,4.32286 -1.75226,8.64372 3.90063,16.67786 13.07156,18.57787 1.15807,0.23993 4.80857,0.36122 8.11223,0.26955 5.65089,-0.15682 6.29945,-0.28084 10.95027,-2.09406 z m -20.47909,-9.93897 c -0.14061,-0.35558 -0.18957,-2.36628 -0.10882,-4.46822 l 0.14682,-3.82171 3.90467,-0.1419 c 2.4504,-0.0891 4.16515,0.0679 4.60409,0.42143 0.72119,0.58087 1.01111,6.34048 0.3973,7.89283 -0.40555,1.02566 -8.54271,1.13263 -8.94406,0.11757 z m 42.44672,0.34186 c -0.68659,-0.66633 -0.38973,-7.75671 0.34969,-8.35226 0.43893,-0.35353 2.15369,-0.51049 4.60409,-0.42143 l 3.90467,0.1419 v 4.34745 4.34746 l -4.25436,0.13814 c -2.33989,0.0759 -4.41173,-0.0146 -4.60409,-0.20126 z m -25.13716,-4.13942 c -0.36199,-0.35131 -0.59728,-2.05724 -0.59728,-4.33046 0,-4.41837 0.33094,-4.7509 4.72852,-4.7509 4.41249,0 4.72853,0.32286 4.72853,4.83051 0,3.29264 -0.13517,3.90063 -0.96276,4.33047 -1.33388,0.6928 -7.16165,0.63405 -7.89701,-0.0796 z m 42.58162,0.058 c -0.71435,-0.40379 -0.87105,-1.18541 -0.87105,-4.34473 0,-3.69078 0.0536,-3.87211 1.27675,-4.32345 1.6809,-0.62022 6.00104,-0.60288 7.21755,0.0289 0.83395,0.43315 0.96275,1.04016 0.96275,4.53729 0,3.23585 -0.15629,4.09546 -0.78732,4.33047 -1.26736,0.47198 -6.84876,0.30842 -7.79868,-0.22853 z M 78.73041,179.11619 c 0,-10.28757 0.200748,-17.8708 0.492822,-18.61634 0.485475,-1.23922 0.557727,-1.25586 4.85296,-1.11831 l 4.360138,0.13964 0.24887,18.35593 0.248869,18.35594 3.359752,0.14283 3.359741,0.14283 v -17.80262 c 0,-13.62098 0.148347,-17.99952 0.631572,-18.64087 0.529854,-0.70323 1.311484,-0.81535 4.852956,-0.69614 l 4.22139,0.1421 0.13042,18.23517 c 0.12957,18.11676 0.13716,18.23517 1.16755,18.23517 1.60526,0 3.88558,-1.51705 5.08258,-3.38136 1.06576,-1.65986 1.09007,-2.10727 1.33441,-24.55723 l 0.24887,-22.86655 1.39654,-1.16523 c 0.78332,-0.65357 2.0319,-1.16522 2.84352,-1.16522 0.82787,0 5.52016,1.96345 10.96685,4.58898 5.23594,2.52394 10.07711,4.58898 10.75818,4.58898 1.79943,0 4.14815,-2.4585 4.14815,-4.34205 0,-0.83494 -0.23416,-1.94269 -0.52035,-2.46167 -0.30266,-0.54882 -6.08125,-3.64417 -13.81228,-7.39866 -7.31055,-3.55028 -13.85187,-6.89594 -14.53626,-7.43479 l -1.24435,-0.97972 -0.24887,-15.38011 -0.24887,-15.380111 H 83.956674 55.087784 l -0.125042,45.889831 c -0.116879,42.8971 -0.06819,45.99946 0.746609,47.57088 0.94241,1.81749 3.690121,3.87403 5.176043,3.87403 0.880302,0 0.921873,-0.78571 0.921873,-17.42159 0,-11.08537 0.187399,-17.7614 0.51525,-18.35593 0.441515,-0.80061 1.068458,-0.93434 4.380118,-0.93434 2.342342,0 4.100139,0.22835 4.462145,0.57966 0.442808,0.42975 0.597277,5.15612 0.597277,18.27542 0,9.73268 0.149332,17.84068 0.331833,18.0178 0.182501,0.17712 1.75038,0.32203 3.484176,0.32203 h 3.152344 z m 80.34422,-89.689051 c 0.64627,-0.240675 0.78733,-1.17021 0.78733,-5.188149 v -4.894948 l -9.32771,-9.06185 -9.3277,-9.06185 h -10.69782 -10.69781 l -5.11033,4.942644 -5.11032,4.942644 v 9.025573 c 0,6.768488 0.15559,9.086514 0.62217,9.269223 0.89692,0.351236 47.92175,0.376944 48.86219,0.02667 z M 138.35652,48.540258 138.21029,45.03814 h -7.71496 -7.71497 l -0.14624,3.502118 -0.14624,3.502119 h 8.00745 8.00744 z"
     style="fill:#4395cc;stroke-width:0.49034017" />
  <path
     inkscape:connector-curvature="0"
     id="path102"
     d="m 149.87024,249.8864 c -3.7473,-0.79805 -6.9475,-2.36769 -10.55353,-5.17631 l -3.01166,-2.34569 H 85.97681 c -55.930489,0 -52.004111,0.24267 -53.038672,-3.27807 -0.289933,-0.98668 -4.105206,-28.85689 -8.478365,-61.93379 -4.373159,-33.07691 -8.061349,-60.6091 -8.195968,-61.18267 -0.228701,-0.97441 -0.590717,-1.05366 -5.516934,-1.20763 -5.0651066,-0.15831 -5.3193221,-0.21802 -6.4725148,-1.52011 -1.1831566,-1.33592 -1.2003485,-1.49539 -1.2003485,-11.13985 0,-10.206384 -0.022498,-10.080202 2.1347847,-11.991982 0.057738,-0.0512 4.2487341,-0.214223 9.3132236,-0.362288 l 9.20818,-0.269194 0.271139,-17.148305 c 0.149133,-9.431567 0.31712,-17.194638 0.373305,-17.251281 0.05615,-0.05661 3.797881,-4.597987 8.314867,-10.091878 l 8.212702,-9.988915 0.003,-13.336079 c 0.002,-7.514481 0.222888,-14.1051483 0.507008,-15.0978564 0.928791,-3.2452031 1.261142,-3.3102565 16.911107,-3.3102565 15.649965,0 15.982305,0.065057 16.911097,3.3102565 0.28412,0.9927081 0.505445,7.5833754 0.507007,15.0978564 l 0.003,13.336079 8.212701,9.988915 c 4.516986,5.493901 8.258673,10.035245 8.314868,10.091878 0.05615,0.05661 0.224182,7.819714 0.373305,17.251281 l 0.271138,17.148305 h 3.733046 3.733044 l 0.24887,-10.868644 c 0.16229,-7.087254 0.45377,-11.20476 0.83781,-11.834745 0.32392,-0.531356 3.06771,-3.353494 6.09731,-6.27142 l 5.50837,-5.305318 v -5.201038 -5.201037 h -3.9979 c -4.78843,0 -7.23062,-0.840779 -7.99994,-2.754172 -0.74543,-1.854007 -0.17672,-8.017363 1.11467,-12.080066 3.49746,-11.002982 11.43983,-19.637101 22.03967,-23.9592529 6.15811,-2.5110064 8.74871,-2.7135931 34.93616,-2.7320253 l 23.94324,-0.016849 1.31704,1.1845614 1.31703,1.1845623 v 9.7158385 c 0,6.035987 -0.2037,10.085207 -0.53781,10.691078 -1.02997,1.86772 -3.39567,2.341659 -11.76526,2.357018 l -7.85538,0.01441 -2.23983,1.885995 -2.23983,1.885995 5.59957,10.903217 c 3.07976,5.996777 5.59957,11.2253 5.59957,11.618947 0,0.401367 -1.51806,1.457635 -3.45637,2.404956 -3.18427,1.556245 -3.51977,1.627707 -4.26166,0.907701 -0.44291,-0.429838 -3.03517,-5.105567 -5.7606,-10.390501 -5.52376,-10.711296 -4.87846,-10.202894 -8.79521,-6.929374 l -2.11539,1.767986 v 6.338795 6.338796 l 10.45252,10.214593 10.45253,10.214593 v 6.498801 c 0,4.410554 0.19192,6.685066 0.59729,7.078463 0.41837,0.406033 3.1683,0.579661 9.18043,0.579661 8.35326,0 8.62054,0.0312 9.97967,1.164809 l 1.39654,1.1648 0.15533,9.28991 c 0.10791,6.45439 -0.0274,9.71808 -0.44342,10.69272 -0.9166,2.14755 -2.76436,2.80641 -7.87051,2.80641 -2.46126,0 -4.59248,0.18446 -4.73605,0.40992 -0.43047,0.67596 -8.31665,60.93971 -8.03293,61.38522 0.14409,0.22627 0.88005,0.55369 1.63547,0.72761 0.75542,0.17392 3.38934,1.11013 5.85315,2.08047 4.06759,1.60196 4.9146,1.76414 9.20818,1.76306 4.39148,-9.7e-4 5.08527,-0.14259 9.73374,-1.98514 2.75287,-1.09117 6.32173,-2.22014 7.93081,-2.50882 3.78779,-0.67955 13.89407,-0.67527 17.27715,0.008 8.59762,1.7347 16.681,8.94642 19.31925,17.23598 0.9033,2.83825 0.98762,4.50001 0.98222,19.35688 -0.004,12.03749 -0.17874,16.87841 -0.67237,18.66733 -2.43865,8.83774 -10.07663,16.05353 -18.98243,17.9332 -4.03654,0.85195 -14.77663,0.8354 -19.00599,-0.0293 -1.86576,-0.38144 -5.07216,-1.41396 -7.12533,-2.29449 -3.52036,-1.50972 -4.05919,-1.60093 -9.45705,-1.60093 -5.39787,0 -5.93671,0.0912 -9.45705,1.60093 -2.05318,0.88053 -5.25958,1.91305 -7.12533,2.29449 -4.11873,0.84209 -15.34498,0.84423 -19.29179,0.004 z m 19.52659,-9.40245 c 1.46286,-0.52504 4.22762,-1.55521 6.14392,-2.28927 3.19691,-1.22462 4.03818,-1.33466 10.20366,-1.33466 6.16548,0 7.00674,0.11004 10.20366,1.33466 9.15498,3.50692 8.51043,3.36913 15.92766,3.40496 6.62211,0.032 7.11674,-0.0334 9.95479,-1.31671 6.0368,-2.72966 9.32777,-7.46798 9.95381,-14.33143 0.19131,-2.09749 0.21153,-4.02767 0.045,-4.28928 -0.17442,-0.27389 -1.49202,0.21925 -3.106,1.16245 -4.95175,2.8938 -7.31985,3.35815 -17.09639,3.35243 -9.44655,-0.006 -8.47927,0.18312 -18.66523,-3.64063 -2.28428,-0.85751 -3.98115,-1.1211 -7.21722,-1.1211 -3.23607,0 -4.93294,0.26359 -7.21722,1.1211 -10.18597,3.82375 -9.2187,3.63508 -18.66524,3.64063 -9.77654,0.006 -12.14463,-0.45863 -17.09639,-3.35243 -1.65456,-0.96692 -2.92952,-1.43958 -3.11165,-1.15358 -0.65638,1.03071 0.39578,7.93488 1.60765,10.54924 2.19426,4.73366 6.83225,8.26425 12.09574,9.20767 3.80755,0.68246 13.01825,0.14034 16.03953,-0.94405 z m -38.64899,-8.38438 c -0.19702,-0.86345 -0.46236,-8.64264 -0.58965,-17.28708 -0.25628,-17.40308 -0.006,-19.65553 2.77304,-24.99914 4.1863,-8.04829 12.24023,-13.01422 22.67914,-13.98364 l 3.96112,-0.36785 2.85357,-21.49576 c 1.56947,-11.82267 3.19596,-24.32161 3.61444,-27.77542 0.41848,-3.45382 0.91004,-7.31219 1.09236,-8.57416 l 0.33149,-2.29449 h -22.46593 -22.46593 v 4.34553 4.34552 l 11.9748,5.81458 c 7.88709,3.82973 12.71023,6.47247 14.12919,7.74184 5.85493,5.23761 5.98272,14.23984 0.2807,19.7736 -2.64184,2.56387 -5.15773,3.56581 -9.46154,3.768 -3.70841,0.17422 -3.77349,0.15599 -9.85759,-2.76023 -3.3685,-1.61459 -6.32417,-2.93562 -6.56818,-2.93562 -0.24944,0 -0.50986,8.19323 -0.59493,18.71822 l -0.15132,18.71822 -1.32905,2.7517 c -1.69542,3.51022 -5.15984,6.8724 -8.7768,8.51779 l -2.83537,1.28983 H 83.707805 c -25.286381,0 -25.66538,-0.0142 -27.981531,-1.05269 -3.093351,-1.38691 -7.166453,-5.13383 -8.632156,-7.94089 -0.646156,-1.2375 -1.406055,-3.6329 -1.688651,-5.32313 -0.320405,-1.91629 -0.51523,-16.7563 -0.517579,-39.42269 l -0.004,-36.34958 h -9.457051 -9.45705 l 0.005,1.32839 c 0.007,1.98972 14.590756,113.21979 15.199899,115.9322 l 0.244082,1.08686 h 44.84356 44.843552 l -0.3582,-1.56991 z m 41.3425,-17.15457 c 5.94544,-2.31795 9.09451,-3.0128 13.65407,-3.0128 4.60271,0 7.74881,0.70367 13.68783,3.06145 l 4.9774,1.97601 7.21722,-9.6e-4 c 6.28876,-9.7e-4 7.57449,-0.13894 9.99436,-1.07348 7.16866,-2.76847 11.405,-10.33542 9.91132,-17.70358 -0.32472,-1.60179 -0.9286,-3.54708 -1.34198,-4.32286 -1.4451,-2.71207 -5.06543,-5.93102 -8.24342,-7.32951 -2.9522,-1.29914 -3.44183,-1.36353 -10.07141,-1.32461 -7.39397,0.0435 -7.11262,-0.016 -15.92766,3.36729 -3.19943,1.22799 -4.03334,1.33727 -10.20366,1.33727 -6.17033,0 -7.00424,-0.10928 -10.20366,-1.33727 -8.81506,-3.38337 -8.5337,-3.32389 -15.92766,-3.36729 -6.6296,-0.0389 -7.11921,0.0255 -10.07142,1.32461 -3.17798,1.39849 -6.79831,4.61744 -8.24343,7.32951 -0.41336,0.77578 -1.01725,2.72107 -1.34196,4.32286 -1.75226,8.64372 3.90063,16.67786 13.07156,18.57787 1.15807,0.23993 4.80857,0.36122 8.11223,0.26955 5.65089,-0.15682 6.29945,-0.28084 10.95027,-2.09406 z m -20.47909,-9.93897 c -0.14061,-0.35558 -0.18957,-2.36628 -0.10882,-4.46822 l 0.14682,-3.82171 3.90467,-0.1419 c 2.4504,-0.0891 4.16515,0.0679 4.60409,0.42143 0.72119,0.58087 1.01111,6.34048 0.3973,7.89283 -0.40555,1.02566 -8.54271,1.13263 -8.94406,0.11757 z m 42.44672,0.34186 c -0.68659,-0.66633 -0.38973,-7.75671 0.34969,-8.35226 0.43893,-0.35353 2.15369,-0.51049 4.60409,-0.42143 l 3.90467,0.1419 v 4.34745 4.34746 l -4.25436,0.13814 c -2.33989,0.0759 -4.41173,-0.0146 -4.60409,-0.20126 z m -25.13716,-4.13942 c -0.36199,-0.35131 -0.59728,-2.05724 -0.59728,-4.33046 0,-4.41837 0.33094,-4.7509 4.72852,-4.7509 4.41249,0 4.72853,0.32286 4.72853,4.83051 0,3.29264 -0.13517,3.90063 -0.96276,4.33047 -1.33388,0.6928 -7.16165,0.63405 -7.89701,-0.0796 z m 42.58162,0.058 c -0.71435,-0.40379 -0.87105,-1.18541 -0.87105,-4.34473 0,-3.69078 0.0536,-3.87211 1.27675,-4.32345 1.6809,-0.62022 6.00104,-0.60288 7.21755,0.0289 0.83395,0.43315 0.96275,1.04016 0.96275,4.53729 0,3.23585 -0.15629,4.09546 -0.78732,4.33047 -1.26736,0.47198 -6.84876,0.30842 -7.79868,-0.22853 z M 61.975493,185.24364 c 0.179973,-6.17701 0.327742,-14.41393 0.328369,-18.30425 9.95e-4,-8.09576 -0.268222,-7.65973 4.734826,-7.65973 5.035691,0 4.723369,-1.28131 4.723369,19.3777 v 17.85954 l 3.608611,-0.14192 3.608612,-0.14193 0.130596,-18.08959 c 0.09915,-13.7342 0.278904,-18.18101 0.74661,-18.4693 0.991029,-0.61086 7.563539,-0.46302 8.231436,0.18516 0.443227,0.43016 0.597278,5.23239 0.597278,18.61862 v 18.03896 l 3.608621,-0.14192 3.608611,-0.14193 0.130587,-18.08959 c 0.09915,-13.7342 0.278913,-18.18101 0.746609,-18.4693 0.991029,-0.61086 7.563552,-0.46302 8.231432,0.18516 0.44327,0.43018 0.59729,5.23932 0.59729,18.64983 v 18.07016 l 1.33842,-0.32601 c 2.18144,-0.53135 4.19057,-2.20713 5.17926,-4.31992 0.85929,-1.83625 0.92734,-3.56628 0.93748,-23.83042 l 0.011,-21.85043 1.36879,-1.43953 c 2.4207,-2.54582 2.95473,-2.44276 13.51385,2.60821 10.57161,5.05695 12.17992,5.44352 14.25774,3.42702 1.44849,-1.40574 1.65692,-4.27606 0.43359,-5.97105 -0.46228,-0.64052 -6.27599,-3.75757 -14.06114,-7.53896 -7.30017,-3.54581 -13.72098,-6.92926 -14.2685,-7.51878 -0.93828,-1.01025 -1.00978,-1.93639 -1.24435,-16.11725 L 112.82557,98.656779 83.842732,98.532132 54.859889,98.407476 54.581842,99.498234 c -0.152945,0.599906 -0.21366,21.306426 -0.134937,46.014476 0.141507,44.41019 0.154966,44.9456 1.177174,46.83677 0.894348,1.65461 4.298577,4.12509 5.684244,4.12509 0.186981,0 0.487208,-5.05392 0.66717,-11.23093 z M 44.781501,102.1589 44.635255,98.656779 H 28.458722 12.282188 l -0.146236,3.502121 -0.146236,3.50212 h 16.469006 16.469015 z m 135.882879,0 -0.14624,-3.502121 h -28.86889 -28.86889 l -0.14624,3.502121 -0.14624,3.50212 h 29.16137 29.16138 z M 159.07463,89.427139 c 0.64627,-0.240675 0.78733,-1.17021 0.78733,-5.188149 v -4.894948 l -9.32771,-9.06185 -9.3277,-9.06185 h -10.69782 -10.69781 l -5.11033,4.942644 -5.11032,4.942644 v 9.025573 c 0,6.768488 0.15559,9.086514 0.62217,9.269223 0.89692,0.351236 47.92175,0.376944 48.86219,0.02667 z M 138.35652,48.540258 138.21029,45.03814 h -7.71496 -7.71497 l -0.14624,3.502118 -0.14624,3.502119 h 8.00745 8.00744 z"
     style="fill:#676d96;stroke-width:0.49034017" />
  <path
     inkscape:connector-curvature="0"
     id="path100"
     d="m 152.14699,250.25653 c -0.82127,-0.13071 -1.706,-0.4383 -1.96607,-0.68353 -0.26007,-0.24524 -0.788,-0.44589 -1.17319,-0.44589 -1.43432,0 -6.90378,-2.91255 -9.4693,-5.04253 l -2.65378,-2.20323 H 86.43249 35.980332 l -1.285174,-1.08687 c -1.277448,-1.08033 -1.334489,-1.45822 -9.497287,-62.91737 -4.516657,-34.00677 -8.325599,-62.1865 -8.464309,-62.62162 -0.207527,-0.65097 -1.185088,-0.82463 -5.518338,-0.98031 -5.0295183,-0.18068 -5.3195511,-0.24944 -6.4548053,-1.5303 -1.1644217,-1.31377 -1.1886716,-1.53161 -1.1886716,-10.68017 0,-12.522528 -0.8872305,-11.576395 11.0297079,-11.761877 7.780166,-0.121091 9.220664,-0.259611 9.750916,-0.93766 0.469368,-0.600181 0.622174,-4.814558 0.622174,-17.158738 0,-11.083408 0.178589,-16.687001 0.553476,-17.366808 0.304408,-0.552001 4.112115,-5.325896 8.461572,-10.608646 l 7.908095,-9.605003 v -14.04142 c 0,-12.2611186 0.10562,-14.2149326 0.832977,-15.4099211 0.458139,-0.7526754 1.298074,-1.4897085 1.866533,-1.6378505 1.347739,-0.3512321 26.104057,-0.3512321 27.451806,0 0.568448,0.148142 1.408384,0.8851751 1.866523,1.6378505 0.727357,1.1949885 0.832967,3.1488025 0.832967,15.4099211 v 14.04142 l 7.908115,9.605003 c 4.349446,5.28275 8.157164,10.056645 8.461571,10.608646 0.374877,0.679807 0.553456,6.2834 0.553456,17.366808 0,12.467986 0.150527,16.562924 0.632319,17.202377 0.526588,0.698897 1.296412,0.815293 4.60409,0.696134 l 3.971785,-0.143079 0.24887,-11.207929 0.24887,-11.207919 6.36366,-6.240573 6.36366,-6.240562 -0.14191,-5.254898 -0.14193,-5.254897 -5.118,-0.301627 c -7.342,-0.432697 -8.10228,-1.36487 -7.07159,-8.670493 1.40623,-9.967364 7.07148,-19.269421 15.09939,-24.792411 3.98303,-2.7402172 7.07462,-4.2213495 12.27126,-5.8789578 l 4.23078,-1.3495242 23.62603,-0.1880411 c 12.99432,-0.1034231 24.31387,-0.062806 25.15457,0.090253 2.86797,0.5221566 3.23318,1.9045051 3.23318,12.2379031 0,8.534536 -0.0704,9.24584 -1.03161,10.431825 l -1.0316,1.272771 h -8.2093 c -5.28172,0 -8.59701,0.200225 -9.29649,0.561456 -2.2249,1.149002 -4.82024,3.493355 -4.82024,4.354098 0,0.489201 2.46381,5.667879 5.47514,11.508173 3.01132,5.840297 5.47513,10.726172 5.47513,10.857494 0,0.317886 -5.80302,3.15098 -6.45416,3.15098 -0.28031,0 -2.86352,-4.564831 -5.74045,-10.144068 -2.97465,-5.768728 -5.52381,-10.144065 -5.91012,-10.144065 -0.8705,0 -5.65088,3.681502 -6.29347,4.846775 -0.26883,0.487476 -0.48877,3.551873 -0.48877,6.809771 v 5.923449 l 10.57696,10.303571 10.57697,10.303571 0.24887,7.111938 0.24887,7.111938 9.32025,0.241525 c 12.50274,0.324001 11.5848,-0.632874 11.5848,12.076267 0,12.11662 0.24918,11.70956 -7.33773,11.98701 -2.80817,0.10269 -5.28058,0.34532 -5.49425,0.53917 -0.47624,0.43205 -8.40889,59.69904 -8.21309,61.3621 0.10902,0.92588 0.58075,1.31478 2.13097,1.75676 1.09503,0.3122 3.78282,1.28831 5.97288,2.16914 3.63733,1.46291 4.43418,1.60226 9.20818,1.61024 4.95848,0.009 5.45579,-0.0862 9.70592,-1.84323 2.46381,-1.01858 6.15952,-2.14574 8.2127,-2.50481 4.52924,-0.79209 12.1938,-0.8724 16.20955,-0.16986 6.95455,1.21668 14.19739,6.33636 17.51815,12.3829 2.87805,5.24041 3.10502,6.96906 3.10502,23.64846 0,16.46944 -0.22864,18.47332 -2.66376,23.34613 -2.62149,5.24577 -9.64927,11.22887 -14.50825,12.35162 -0.82127,0.18977 -1.80779,0.58678 -2.19225,0.88225 -0.45553,0.35006 -3.57655,0.52062 -8.95931,0.48959 -9.03209,-0.0521 -7.4162,0.29055 -19.21055,-4.07303 -4.16473,-1.54083 -10.26971,-1.54083 -14.43444,0 -10.86892,4.0212 -10.51943,3.94092 -17.91863,4.11559 -3.83259,0.0904 -7.6403,0.0576 -8.46157,-0.0731 z m 17.24984,-9.77258 c 1.46286,-0.52504 4.22762,-1.55521 6.14392,-2.28927 3.19691,-1.22462 4.03818,-1.33466 10.20366,-1.33466 6.16548,0 7.00674,0.11004 10.20366,1.33466 9.15498,3.50692 8.51043,3.36913 15.92766,3.40496 6.62211,0.032 7.11674,-0.0334 9.95479,-1.31671 6.0368,-2.72966 9.32777,-7.46798 9.95381,-14.33143 0.19131,-2.09749 0.21153,-4.02767 0.045,-4.28928 -0.17442,-0.27389 -1.49202,0.21925 -3.106,1.16245 -4.95175,2.8938 -7.31985,3.35815 -17.09639,3.35243 -9.44655,-0.006 -8.47927,0.18312 -18.66523,-3.64063 -2.28428,-0.85751 -3.98115,-1.1211 -7.21722,-1.1211 -3.23607,0 -4.93294,0.26359 -7.21722,1.1211 -10.18597,3.82375 -9.2187,3.63508 -18.66524,3.64063 -9.77654,0.006 -12.14463,-0.45863 -17.09639,-3.35243 -1.65456,-0.96692 -2.92952,-1.43958 -3.11165,-1.15358 -0.65638,1.03071 0.39578,7.93488 1.60765,10.54924 2.19426,4.73366 6.83225,8.26425 12.09574,9.20767 3.80755,0.68246 13.01825,0.14034 16.03953,-0.94405 z m -37.7052,-6.73903 c 0.14277,-0.2242 -0.0119,-1.25672 -0.34393,-2.29449 -0.4229,-1.3222 -0.6035,-6.80194 -0.6035,-18.31061 0,-14.87887 0.0889,-16.67363 0.94535,-19.0805 3.72581,-10.47086 13.13412,-17.36551 23.72205,-17.38409 1.85981,-0.004 3.59646,-0.26557 4.03581,-0.60956 0.59279,-0.46411 1.61065,-6.97399 4.39957,-28.13771 1.99559,-15.14364 3.65121,-28.83813 3.67915,-30.4322 l 0.0508,-2.8983 -21.65167,-0.13415 c -11.90842,-0.0738 -22.15563,-0.0154 -22.77158,0.12997 -1.06366,0.25084 -1.11992,0.49451 -1.11992,4.85099 v 4.58688 l 1.61766,0.96357 c 0.88971,0.52996 6.70526,3.47456 12.92345,6.54355 9.13456,4.50837 11.59733,5.93722 12.82384,7.44011 2.2493,2.75617 2.99846,4.90659 2.98623,8.57178 -0.0172,5.1397 -2.30937,9.0075 -6.88545,11.61821 -1.99757,1.13964 -2.85303,1.31891 -6.29371,1.31891 -3.86712,0 -4.16554,-0.0866 -10.35043,-3.00211 -4.23757,-1.99759 -6.43926,-2.80574 -6.57998,-2.41525 -0.11631,0.32277 -0.27426,8.84703 -0.35098,18.94279 l -0.1395,18.35593 -1.39573,2.8983 c -2.3038,4.78397 -5.809,7.72075 -10.94434,9.16957 -2.39381,0.67537 -5.88913,0.75799 -26.824267,0.63401 l -24.071797,-0.14256 -3.327239,-1.5902 c -3.618586,-1.72945 -6.147312,-4.20171 -7.970741,-7.79278 l -1.122293,-2.21024 -0.265414,-38.88559 c -0.145977,-21.38708 -0.439176,-39.15731 -0.651541,-39.48941 -0.44032,-0.68854 -18.520359,-0.88008 -19.611225,-0.20776 -0.481951,0.29704 -0.0224,4.91056 2.080163,20.88455 9.752728,74.09415 12.929231,97.38016 13.356491,97.91219 0.381547,0.47512 10.066353,0.60382 45.440002,0.60382 24.725311,0 45.071911,-0.18343 45.214681,-0.40762 z M 172.09034,214.945 c 5.94544,-2.31795 9.09451,-3.0128 13.65407,-3.0128 4.60271,0 7.74881,0.70367 13.68783,3.06145 l 4.9774,1.97601 7.21722,-9.6e-4 c 6.28876,-9.7e-4 7.57449,-0.13894 9.99436,-1.07348 7.16866,-2.76847 11.405,-10.33542 9.91132,-17.70358 -0.32472,-1.60179 -0.9286,-3.54708 -1.34198,-4.32286 -1.4451,-2.71207 -5.06543,-5.93102 -8.24342,-7.32951 -2.9522,-1.29914 -3.44183,-1.36353 -10.07141,-1.32461 -7.39397,0.0435 -7.11262,-0.016 -15.92766,3.36729 -3.19943,1.22799 -4.03334,1.33727 -10.20366,1.33727 -6.17033,0 -7.00424,-0.10928 -10.20366,-1.33727 -8.81506,-3.38337 -8.5337,-3.32389 -15.92766,-3.36729 -6.6296,-0.0389 -7.11921,0.0255 -10.07142,1.32461 -3.17798,1.39849 -6.79831,4.61744 -8.24343,7.32951 -0.41336,0.77578 -1.01725,2.72107 -1.34196,4.32286 -1.75226,8.64372 3.90063,16.67786 13.07156,18.57787 1.15807,0.23993 4.80857,0.36122 8.11223,0.26955 5.65089,-0.15682 6.29945,-0.28084 10.95027,-2.09406 z m -20.47909,-9.93897 c -0.14061,-0.35558 -0.18957,-2.36628 -0.10882,-4.46822 l 0.14682,-3.82171 3.90467,-0.1419 c 2.4504,-0.0891 4.16515,0.0679 4.60409,0.42143 0.72119,0.58087 1.01111,6.34048 0.3973,7.89283 -0.40555,1.02566 -8.54271,1.13263 -8.94406,0.11757 z m 42.44672,0.34186 c -0.68659,-0.66633 -0.38973,-7.75671 0.34969,-8.35226 0.43893,-0.35353 2.15369,-0.51049 4.60409,-0.42143 l 3.90467,0.1419 v 4.34745 4.34746 l -4.25436,0.13814 c -2.33989,0.0759 -4.41173,-0.0146 -4.60409,-0.20126 z m -25.13716,-4.13942 c -0.36199,-0.35131 -0.59728,-2.05724 -0.59728,-4.33046 0,-4.41837 0.33094,-4.7509 4.72852,-4.7509 4.41249,0 4.72853,0.32286 4.72853,4.83051 0,3.29264 -0.13517,3.90063 -0.96276,4.33047 -1.33388,0.6928 -7.16165,0.63405 -7.89701,-0.0796 z m 42.58162,0.058 c -0.71435,-0.40379 -0.87105,-1.18541 -0.87105,-4.34473 0,-3.69078 0.0536,-3.87211 1.27675,-4.32345 1.6809,-0.62022 6.00104,-0.60288 7.21755,0.0289 0.83395,0.43315 0.96275,1.04016 0.96275,4.53729 0,3.23585 -0.15629,4.09546 -0.78732,4.33047 -1.26736,0.47198 -6.84876,0.30842 -7.79868,-0.22853 z m -132.902378,-4.12867 1.113981,-0.28976 0.130368,-18.18034 0.130367,-18.18034 3.857481,-0.14108 3.857482,-0.14108 v 18.11773 c 0,17.41809 0.03723,18.13704 0.962757,18.61778 1.048528,0.5446 5.089128,0.6605 6.870706,0.19709 l 1.113981,-0.28976 0.130368,-18.18034 0.130368,-18.18034 3.857479,-0.14108 3.85748,-0.14108 v 17.61217 c 0,9.68669 0.13595,17.95601 0.30212,18.37625 0.68293,1.72717 4.85573,0.28708 6.97393,-2.4068 l 1.43439,-1.82423 0.24887,-22.82433 0.24887,-22.82431 1.20667,-1.24593 c 0.74678,-0.77105 1.74472,-1.24591 2.61838,-1.24591 0.77916,0 5.36792,1.91599 10.24133,4.27617 4.8563,2.35189 9.4437,4.42061 10.19423,4.59715 0.81232,0.1911 2.07858,0.0315 3.12878,-0.39436 3.23467,-1.31165 4.14491,-6.07441 1.59631,-8.35265 -0.61176,-0.54686 -6.93584,-3.81713 -14.05351,-7.26724 -7.11768,-3.45011 -13.38919,-6.75525 -13.93671,-7.34475 -0.9436,-1.01596 -1.00333,-1.86238 -1.14614,-16.24177 l -0.15066,-15.169954 -29.713711,0.12455 -29.713714,0.12455 -0.126963,46.094544 c -0.126615,45.97139 -0.124166,46.10014 0.918857,48.19114 1.171081,2.34775 4.618246,4.67677 6.532084,4.4133 l 1.137593,-0.15662 0.24887,-18.1144 0.24887,-18.11441 3.857481,-0.14108 3.857481,-0.14108 v 18.11073 c 0,16.73869 0.066,18.14801 0.871044,18.60308 0.958497,0.5418 5.207331,0.67531 6.96243,0.21879 z M 45.577486,105.37999 c 0.588507,-1.48835 0.321828,-6.347514 -0.379347,-6.912268 -0.485635,-0.391145 -5.384676,-0.512256 -17.047578,-0.421433 l -16.366112,0.127439 -0.144564,3.985172 -0.144563,3.98517 h 16.890023 c 14.942328,0 16.924865,-0.0881 17.192141,-0.76408 z M 181.6583,102.47588 c 0.10506,-2.488683 -0.0465,-3.580629 -0.55361,-3.989097 -0.51761,-0.416892 -8.21793,-0.530158 -29.76017,-0.43774 l -29.0619,0.124685 -0.14463,3.988972 -0.14462,3.98899 29.76012,-0.12458 29.76013,-0.12457 z M 160.38839,89.185237 c 0.34226,-0.620624 0.49485,-2.788015 0.39083,-5.551075 l -0.17066,-4.532911 -9.45214,-9.181975 -9.45213,-9.181984 h -11.19556 -11.19555 l -5.11033,4.942643 -5.11032,4.942644 v 9.468376 c 0,5.207607 0.14932,9.613291 0.33182,9.790406 0.1825,0.177116 11.59775,0.322031 25.3672,0.322031 24.95263,0 25.03724,-0.0039 25.59684,-1.018155 z M 83.590896,75.349579 83.722846,61.220342 H 58.330617 32.938377 v 13.927969 c 0,7.660384 0.151372,14.074865 0.336382,14.254415 0.18501,0.17955 11.552145,0.270122 25.260289,0.201277 L 83.458945,89.478816 Z M 138.85735,52.428817 c 0.61831,-0.600065 0.83461,-5.986893 0.29516,-7.351173 -0.2589,-0.654747 -1.49762,-0.764081 -8.65718,-0.764081 -7.15958,0 -8.3983,0.109334 -8.6572,0.764081 -0.53944,1.36428 -0.32315,6.751108 0.29517,7.351173 0.83615,0.811487 15.88789,0.811487 16.72405,0 z m -60.62468,-0.33571 c 0,-0.473796 -8.325997,-10.701392 -9.178067,-11.274262 -0.290321,-0.195191 -5.119499,-0.354888 -10.731512,-0.354888 -5.612013,0 -10.441191,0.159697 -10.731502,0.354888 -0.852071,0.57287 -9.178078,10.800466 -9.178078,11.274262 0,0.247196 8.52567,0.43232 19.90958,0.43232 11.383919,0 19.909579,-0.185124 19.909579,-0.43232 z"
     style="fill:#dd6724;stroke-width:0.49034017" />
  <path
     inkscape:connector-curvature="0"
     id="path98"
     d="m 152.14699,250.25653 c -0.82127,-0.13071 -1.706,-0.4383 -1.96607,-0.68353 -0.26007,-0.24524 -0.788,-0.44589 -1.17319,-0.44589 -1.43432,0 -6.90378,-2.91255 -9.4693,-5.04253 l -2.65378,-2.20323 H 86.43249 35.980332 l -1.285174,-1.08687 c -1.277448,-1.08033 -1.334489,-1.45822 -9.497287,-62.91737 -4.516657,-34.00677 -8.325599,-62.1865 -8.464309,-62.62162 -0.207527,-0.65097 -1.185088,-0.82463 -5.518338,-0.98031 -5.0295183,-0.18068 -5.3195511,-0.24944 -6.4548053,-1.5303 -1.1644217,-1.31377 -1.1886716,-1.53161 -1.1886716,-10.68017 0,-12.522528 -0.8872305,-11.576395 11.0297079,-11.761877 7.780166,-0.121091 9.220664,-0.259611 9.750916,-0.93766 0.469368,-0.600181 0.622174,-4.814558 0.622174,-17.158738 0,-11.083408 0.178589,-16.687001 0.553476,-17.366808 0.304408,-0.552001 4.112115,-5.325896 8.461572,-10.608646 l 7.908095,-9.605003 v -14.04142 c 0,-12.2611186 0.10562,-14.2149326 0.832977,-15.4099211 0.458139,-0.7526754 1.298074,-1.4897085 1.866533,-1.6378505 1.347739,-0.3512321 26.104057,-0.3512321 27.451806,0 0.568448,0.148142 1.408384,0.8851751 1.866523,1.6378505 0.727357,1.1949885 0.832967,3.1488025 0.832967,15.4099211 v 14.04142 l 7.908115,9.605003 c 4.349446,5.28275 8.157164,10.056645 8.461571,10.608646 0.374877,0.679807 0.553456,6.2834 0.553456,17.366808 0,12.467986 0.150527,16.562924 0.632319,17.202377 0.526588,0.698897 1.296412,0.815293 4.60409,0.696134 l 3.971785,-0.143079 0.24887,-11.207929 0.24887,-11.207919 6.36366,-6.240573 6.36366,-6.240562 -0.14191,-5.254898 -0.14193,-5.254897 -5.118,-0.301627 c -7.342,-0.432697 -8.10228,-1.36487 -7.07159,-8.670493 1.40623,-9.967364 7.07148,-19.269421 15.09939,-24.792411 3.98303,-2.7402172 7.07462,-4.2213495 12.27126,-5.8789578 l 4.23078,-1.3495242 23.62603,-0.1880411 c 12.99432,-0.1034231 24.31387,-0.062806 25.15457,0.090253 2.86797,0.5221566 3.23318,1.9045051 3.23318,12.2379031 0,8.534536 -0.0704,9.24584 -1.03161,10.431825 l -1.0316,1.272771 h -8.2093 c -5.28172,0 -8.59701,0.200225 -9.29649,0.561456 -2.2249,1.149002 -4.82024,3.493355 -4.82024,4.354098 0,0.489201 2.46381,5.667879 5.47514,11.508173 3.01132,5.840297 5.47513,10.726172 5.47513,10.857494 0,0.317886 -5.80302,3.15098 -6.45416,3.15098 -0.28031,0 -2.86352,-4.564831 -5.74045,-10.144068 -2.97465,-5.768728 -5.52381,-10.144065 -5.91012,-10.144065 -0.8705,0 -5.65088,3.681502 -6.29347,4.846775 -0.26883,0.487476 -0.48877,3.551873 -0.48877,6.809771 v 5.923449 l 10.57696,10.303571 10.57697,10.303571 0.24887,7.111938 0.24887,7.111938 9.32025,0.241525 c 12.50274,0.324001 11.5848,-0.632874 11.5848,12.076267 0,12.11662 0.24918,11.70956 -7.33773,11.98701 -2.80817,0.10269 -5.28058,0.34532 -5.49425,0.53917 -0.47624,0.43205 -8.40889,59.69904 -8.21309,61.3621 0.10902,0.92588 0.58075,1.31478 2.13097,1.75676 1.09503,0.3122 3.78282,1.28831 5.97288,2.16914 3.63733,1.46291 4.43418,1.60226 9.20818,1.61024 4.95848,0.009 5.45579,-0.0862 9.70592,-1.84323 2.46381,-1.01858 6.15952,-2.14574 8.2127,-2.50481 4.52924,-0.79209 12.1938,-0.8724 16.20955,-0.16986 6.95455,1.21668 14.19739,6.33636 17.51815,12.3829 2.87805,5.24041 3.10502,6.96906 3.10502,23.64846 0,16.46944 -0.22864,18.47332 -2.66376,23.34613 -2.62149,5.24577 -9.64927,11.22887 -14.50825,12.35162 -0.82127,0.18977 -1.80779,0.58678 -2.19225,0.88225 -0.45553,0.35006 -3.57655,0.52062 -8.95931,0.48959 -9.03209,-0.0521 -7.4162,0.29055 -19.21055,-4.07303 -4.16473,-1.54083 -10.26971,-1.54083 -14.43444,0 -10.86892,4.0212 -10.51943,3.94092 -17.91863,4.11559 -3.83259,0.0904 -7.6403,0.0576 -8.46157,-0.0731 z m 19.90958,-9.94135 c 6.43721,-2.53039 8.38492,-2.95018 13.68784,-2.95018 5.32739,0 7.2961,0.42768 13.68783,2.97358 l 4.47966,1.78429 h 7.96383 c 9.12971,0 10.80206,-0.46283 14.89189,-4.12145 2.83457,-2.53571 4.17244,-4.61021 5.06015,-7.84626 0.83015,-3.02619 0.94991,-10.0111 0.17166,-10.0111 -0.29288,0 -1.46879,0.61232 -2.61313,1.36071 -3.58633,2.34538 -7.19299,3.53226 -12.404,4.0819 -6.1107,0.64454 -13.74233,-0.0284 -18.04779,-1.59125 -8.60783,-3.12471 -9.47042,-3.34336 -13.1901,-3.34336 -3.7191,0 -4.51447,0.20137 -13.1901,3.3395 -4.35434,1.57505 -11.64821,2.23047 -17.86187,1.60506 -5.36913,-0.5404 -8.92813,-1.69712 -12.58992,-4.09185 -1.14435,-0.74839 -2.32026,-1.36071 -2.61313,-1.36071 -0.76753,0 -0.6635,6.96683 0.14821,9.92483 0.86924,3.1677 1.49955,4.26354 3.91525,6.80693 4.38045,4.61198 7.24101,5.52052 16.80684,5.33798 6.99867,-0.13354 7.35288,-0.19104 11.69688,-1.89862 z m -40.36494,-6.57026 c 0.14277,-0.2242 -0.0119,-1.25672 -0.34393,-2.29449 -0.4229,-1.3222 -0.6035,-6.80194 -0.6035,-18.31061 0,-14.87887 0.0889,-16.67363 0.94535,-19.0805 3.72581,-10.47086 13.13412,-17.36551 23.72205,-17.38409 1.85981,-0.004 3.59646,-0.26557 4.03581,-0.60956 0.59279,-0.46411 1.61065,-6.97399 4.39957,-28.13771 1.99559,-15.14364 3.65121,-28.83813 3.67915,-30.4322 l 0.0508,-2.8983 -21.65167,-0.13415 c -11.90842,-0.0738 -22.15563,-0.0154 -22.77158,0.12997 -1.06366,0.25084 -1.11992,0.49451 -1.11992,4.85099 v 4.58688 l 1.61766,0.96357 c 0.88971,0.52996 6.70526,3.47456 12.92345,6.54355 9.13456,4.50837 11.59733,5.93722 12.82384,7.44011 2.2493,2.75617 2.99846,4.90659 2.98623,8.57178 -0.0172,5.1397 -2.30937,9.0075 -6.88545,11.61821 -1.99757,1.13964 -2.85303,1.31891 -6.29371,1.31891 -3.86712,0 -4.16554,-0.0866 -10.35043,-3.00211 -4.23757,-1.99759 -6.43926,-2.80574 -6.57998,-2.41525 -0.11631,0.32277 -0.27426,8.84703 -0.35098,18.94279 l -0.1395,18.35593 -1.39573,2.8983 c -2.3038,4.78397 -5.809,7.72075 -10.94434,9.16957 -2.39381,0.67537 -5.88913,0.75799 -26.824267,0.63401 l -24.071797,-0.14256 -3.327239,-1.5902 c -3.618586,-1.72945 -6.147312,-4.20171 -7.970741,-7.79278 l -1.122293,-2.21024 -0.265414,-38.88559 c -0.145977,-21.38708 -0.439176,-39.15731 -0.651541,-39.48941 -0.44032,-0.68854 -18.520359,-0.88008 -19.611225,-0.20776 -0.481951,0.29704 -0.0224,4.91056 2.080163,20.88455 9.752728,74.09415 12.929231,97.38016 13.356491,97.91219 0.381547,0.47512 10.066353,0.60382 45.440002,0.60382 24.725311,0 45.071911,-0.18343 45.214681,-0.40762 z m 38.37398,-17.45093 c 9.56697,-3.5641 9.6642,-3.58634 15.6788,-3.58634 6.01643,0 6.0122,-9.7e-4 15.67879,3.58013 3.62283,1.34212 12.86223,1.87642 17.23015,0.99641 13.14344,-2.64805 18.23074,-17.75409 9.23385,-27.41868 -3.83698,-4.12175 -9.60421,-5.78771 -18.50899,-5.34665 -4.23007,0.20952 -5.77736,0.52675 -9.49095,1.94584 -7.51158,2.87047 -8.11033,2.99736 -14.14285,2.99736 -6.03253,0 -6.63129,-0.12689 -14.14286,-2.99736 -3.7136,-1.41909 -5.26087,-1.73632 -9.49095,-1.94584 -11.47523,-0.56839 -18.00666,2.42834 -21.51862,9.8731 -4.31579,9.14872 0.87817,19.88469 10.94338,22.62002 4.13496,1.12372 14.68376,0.71499 18.53025,-0.71799 z m -17.95869,-11.77624 c -0.14174,-0.35846 -0.19071,-2.15178 -0.10882,-3.98517 l 0.14889,-3.33343 3.40454,-0.14383 c 4.33069,-0.18295 4.80816,0.19306 4.80816,3.78635 0,4.28643 -0.0411,4.32782 -4.29966,4.32782 -2.6421,0 -3.76886,-0.18577 -3.95311,-0.65174 z m 42.44999,0.34824 c -0.67961,-0.65954 -0.38832,-6.79385 0.35087,-7.38923 0.42907,-0.34559 2.02487,-0.50937 4.10635,-0.42144 l 3.40455,0.14383 v 3.8644 3.86441 l -3.75542,0.1393 c -2.06549,0.0766 -3.91335,-0.014 -4.10635,-0.20127 z m -25.51993,-4.6782 c -0.14683,-0.37133 -0.19943,-2.06518 -0.1169,-3.76409 l 0.15006,-3.08896 h 3.98191 3.98192 v 3.62288 3.62288 l -3.86502,0.14122 c -2.95184,0.10784 -3.92809,-0.0183 -4.13197,-0.53393 z M 211.46095,200.5 c -0.4734,-0.45943 -0.39691,-6.07627 0.093,-6.82571 0.29029,-0.44412 1.48371,-0.58477 4.09873,-0.48305 l 3.68919,0.1435 0.14537,3.74364 0.14537,3.74365 h -3.91989 c -2.15594,0 -4.06922,-0.14492 -4.25172,-0.32203 z m -132.860898,-3.36228 1.113981,-0.28976 0.130368,-18.18034 0.130358,-18.18034 3.857481,-0.14108 3.857481,-0.14108 v 18.11773 c 0,17.41809 0.03723,18.13705 0.962757,18.61778 1.048538,0.5446 5.089138,0.6605 6.870716,0.19709 l 1.113981,-0.28976 0.130368,-18.18034 0.130368,-18.18034 3.857479,-0.14108 3.85748,-0.14108 v 17.61217 c 0,9.68669 0.13595,17.95601 0.30212,18.37625 0.68293,1.72717 4.85573,0.28708 6.97393,-2.4068 l 1.43439,-1.82423 0.24887,-22.82433 0.24887,-22.82431 1.20667,-1.24593 c 0.74678,-0.77105 1.74472,-1.24591 2.61838,-1.24591 0.77916,0 5.36792,1.91599 10.24133,4.27617 4.8563,2.35189 9.4437,4.42061 10.19423,4.59716 0.81232,0.19109 2.07858,0.0315 3.12878,-0.39437 3.23467,-1.31164 4.14491,-6.07441 1.59631,-8.35265 -0.61176,-0.54686 -6.93584,-3.81713 -14.05351,-7.26724 -7.11768,-3.45011 -13.38919,-6.75525 -13.93671,-7.34475 -0.9436,-1.01596 -1.00333,-1.86238 -1.14614,-16.24177 l -0.15066,-15.169952 -29.713711,0.12455 -29.713714,0.12455 -0.126963,46.094542 c -0.126615,45.97139 -0.124166,46.10014 0.918857,48.19114 1.171081,2.34775 4.618246,4.67677 6.532084,4.4133 l 1.137593,-0.15661 0.24887,-18.11441 0.24887,-18.11441 3.857481,-0.14108 3.857481,-0.14108 v 18.11073 c 0,16.7387 0.066,18.14802 0.871044,18.60308 0.958497,0.5418 5.207331,0.67531 6.96243,0.21879 z M 45.577486,105.37999 c 0.588507,-1.48835 0.321828,-6.347514 -0.379347,-6.912268 -0.485635,-0.391145 -5.384676,-0.512256 -17.047578,-0.421433 l -16.366112,0.127439 -0.144564,3.985172 -0.144563,3.98517 h 16.890023 c 14.942328,0 16.924865,-0.0881 17.192141,-0.76408 z M 181.6583,102.47588 c 0.10506,-2.488683 -0.0465,-3.580629 -0.55361,-3.989097 -0.51761,-0.416892 -8.21793,-0.530158 -29.76017,-0.43774 l -29.0619,0.124685 -0.14463,3.988972 -0.14462,3.98899 29.76012,-0.12458 29.76013,-0.12457 z M 160.38839,89.185237 c 0.34226,-0.620624 0.49485,-2.788015 0.39083,-5.551075 l -0.17066,-4.532911 -9.45214,-9.181975 -9.45213,-9.181984 h -11.19556 -11.19555 l -5.11033,4.942643 -5.11032,4.942644 v 9.468376 c 0,5.207607 0.14932,9.613291 0.33182,9.790406 0.1825,0.177116 11.59775,0.322031 25.3672,0.322031 24.95263,0 25.03724,-0.0039 25.59684,-1.018155 z M 83.590896,75.349579 83.722846,61.220342 H 58.330617 32.938377 v 13.927969 c 0,7.660384 0.151372,14.074865 0.336382,14.254415 0.18501,0.17955 11.552145,0.270122 25.260289,0.201277 L 83.458945,89.478816 Z M 138.85735,52.428817 c 0.61831,-0.600065 0.83461,-5.986893 0.29516,-7.351173 -0.2589,-0.654747 -1.49762,-0.764081 -8.65718,-0.764081 -7.15958,0 -8.3983,0.109334 -8.6572,0.764081 -0.53944,1.36428 -0.32315,6.751108 0.29517,7.351173 0.83615,0.811487 15.88789,0.811487 16.72405,0 z m -60.62468,-0.33571 c 0,-0.473796 -8.325997,-10.701392 -9.178067,-11.274262 -0.290321,-0.195191 -5.119499,-0.354888 -10.731512,-0.354888 -5.612013,0 -10.441191,0.159697 -10.731502,0.354888 -0.852071,0.57287 -9.178078,10.800466 -9.178078,11.274262 0,0.247196 8.52567,0.43232 19.90958,0.43232 11.383919,0 19.909579,-0.185124 19.909579,-0.43232 z M 150.79611,29.24829 c 4.84933,-3.769375 8.98572,-7.084311 9.19196,-7.366525 0.20625,-0.282213 0.31824,-2.686843 0.24887,-5.343622 l -0.12612,-4.830509 -11.69687,-0.136024 c -13.71135,-0.159449 -16.90972,0.315609 -23.14489,3.437752 -5.08246,2.54494 -9.77245,7.004429 -12.27619,11.672848 -1.9359,3.609644 -3.55993,8.298608 -3.11578,8.996052 0.14832,0.232891 7.43195,0.423439 16.18586,0.423439 h 15.91619 z m -84.62303,2.58446 c 0.485525,-0.299059 0.601339,-2.685855 0.497739,-10.257432 l -0.135027,-9.867684 h -8.212701 -8.212702 l -0.135017,9.867684 c -0.103609,7.571577 0.01214,9.958373 0.49774,10.257432 0.824943,0.508126 14.875024,0.508126 15.699968,0 z M 177.03397,15.572041 v -3.864407 h -3.98192 -3.98191 l -0.1489,3.33343 c -0.21281,4.764817 -0.27188,4.701727 4.24771,4.536597 l 3.86502,-0.141213 z"
     style="fill:#0a0b0c;stroke-width:0.49034017" />
</svg>
