<?xml version="1.0" encoding="UTF-8" standalone="no"?>
<svg
   xmlns:dc="http://purl.org/dc/elements/1.1/"
   xmlns:cc="http://creativecommons.org/ns#"
   xmlns:rdf="http://www.w3.org/1999/02/22-rdf-syntax-ns#"
   xmlns:svg="http://www.w3.org/2000/svg"
   xmlns="http://www.w3.org/2000/svg"
   xmlns:sodipodi="http://sodipodi.sourceforge.net/DTD/sodipodi-0.dtd"
   xmlns:inkscape="http://www.inkscape.org/namespaces/inkscape"
   height="452pt"
   viewBox="-25 0 452 452.72081"
   width="452pt"
   version="1.1"
   id="svg28"
   sodipodi:docname="icon-11.svg"
   inkscape:version="0.92.4 (5da689c313, 2019-01-14)">
  <metadata
     id="metadata34">
    <rdf:RDF>
      <cc:Work
         rdf:about="">
        <dc:format>image/svg+xml</dc:format>
        <dc:type
           rdf:resource="http://purl.org/dc/dcmitype/StillImage" />
      </cc:Work>
    </rdf:RDF>
  </metadata>
  <defs
     id="defs32" />
  <sodipodi:namedview
     pagecolor="#ffffff"
     bordercolor="#666666"
     borderopacity="1"
     objecttolerance="10"
     gridtolerance="10"
     guidetolerance="10"
     inkscape:pageopacity="0"
     inkscape:pageshadow="2"
     inkscape:window-width="1024"
     inkscape:window-height="744"
     id="namedview30"
     showgrid="false"
     inkscape:zoom="0.39159292"
     inkscape:cx="301.33333"
     inkscape:cy="301.33333"
     inkscape:window-x="0"
     inkscape:window-y="0"
     inkscape:window-maximized="1"
     inkscape:current-layer="svg28" />
  <path
     inkscape:connector-curvature="0"
     id="path61"
     d="m 58.600745,422.85794 c -2.50289,-0.70008 -6.21134,-2.28441 -8.24101,-3.52072 -4.90508,-2.98779 -12.16897,-11.07711 -14.16713,-15.777 -0.88445,-2.08034 -9.72359,-31.90308 -19.64253,-66.27275 L -1.4843548,274.79715 v -11.6317 c 0,-8.40271 0.34345,-12.32202 1.23719998,-14.11841 0.81629,-1.64072 6.19969002,-5.78813 15.82391982,-12.19089 8.02269,-5.33729 14.59302,-10.19684 14.60071,-10.79898 0.008,-0.60215 -5.52129,-17.21961 -12.28665,-36.92769 -6.76536,-19.70808 -12.7569798,-38.03519 -13.3147098,-40.72691 -1.39547,-6.73479 -1.21921,-21.62329 0.32886,-27.77873 C 10.369795,98.894698 23.429215,83.598304 43.461075,75.463404 c 7.65553,-3.108895 7.79002,-3.128713 20.97454,-3.090699 12.24159,0.0353 13.76465,0.225328 19.65971,2.452921 18.999375,7.179389 32.929065,21.441743 41.559745,42.552244 1.9863,4.85846 3.7984,9.02788 4.0269,9.26538 0.2285,0.2375 2.56983,-2.49172 5.20297,-6.06492 18.29415,-24.825395 47.04294,-39.703778 76.87416,-39.78474 l 6.49444,-0.01763 1.48677,-5.558246 c 4.79756,-17.935562 18.88527,-31.68361 36.68384,-35.799386 5.40432,-1.249706 12.50706,-1.403467 54.15161,-1.17228 l 47.93142,0.266088 5.66704,2.293044 c 8.23224,3.330999 13.39672,6.718397 18.79085,12.32499 5.39305,5.605475 8.6516,10.971968 11.85928,19.530979 l 2.20749,5.890251 0.42806,76.24829 0.42805,76.24829 6.17488,4.98648 c 4.78831,3.86678 6.29135,5.63179 6.69358,7.86029 0.28528,1.58058 0.394,9.67185 0.24167,17.98058 l -0.27704,15.10678 -17.42652,60.0631 c -9.58459,33.03471 -18.18709,62.17916 -19.11666,64.76545 -1.98212,5.51469 -9.24504,14.10368 -14.77409,17.47155 -8.55782,5.21276 -0.92394,4.97102 -154.96106,4.90717 C 84.721695,424.13978 62.456725,423.9365 58.600745,422.85794 Z"
     style="fill:#f9d151;stroke-width:0.87280083" />
  <path
     inkscape:connector-curvature="0"
     id="path59"
     d="m 58.600745,422.85794 c -2.50289,-0.70008 -6.21134,-2.28441 -8.24101,-3.52072 -4.90508,-2.98779 -12.16897,-11.07711 -14.16713,-15.777 -0.88445,-2.08034 -9.72359,-31.90308 -19.64253,-66.27275 L -1.4843548,274.79715 v -11.6317 c 0,-8.40271 0.34345,-12.32202 1.23719998,-14.11841 0.81629,-1.64072 6.19969002,-5.78813 15.82391982,-12.19089 8.02269,-5.33729 14.59302,-10.19684 14.60071,-10.79898 0.008,-0.60215 -5.52129,-17.21961 -12.28665,-36.92769 -6.76536,-19.70808 -12.7569798,-38.03519 -13.3147098,-40.72691 -1.39547,-6.73479 -1.21921,-21.62329 0.32886,-27.77873 C 10.369795,98.894698 23.429215,83.598304 43.461075,75.463404 c 7.65553,-3.108895 7.79002,-3.128713 20.97454,-3.090699 12.24159,0.0353 13.76465,0.225328 19.65971,2.452921 18.999375,7.179389 32.929065,21.441743 41.559745,42.552244 1.9863,4.85846 3.7984,9.02788 4.0269,9.26538 0.2285,0.2375 2.56983,-2.49172 5.20297,-6.06492 18.29415,-24.825395 47.04294,-39.703778 76.87416,-39.78474 l 6.49444,-0.01763 1.48677,-5.558246 c 4.79756,-17.935562 18.88527,-31.68361 36.68384,-35.799386 5.40432,-1.249706 12.50706,-1.403467 54.15161,-1.17228 l 47.93142,0.266088 5.66704,2.293044 c 8.23224,3.330999 13.39672,6.718397 18.79085,12.32499 5.39305,5.605475 8.6516,10.971968 11.85928,19.530979 l 2.20749,5.890251 0.42806,76.24829 0.42805,76.24829 6.17488,4.98648 c 4.78831,3.86678 6.29135,5.63179 6.69358,7.86029 0.28528,1.58058 0.394,9.67185 0.24167,17.98058 l -0.27704,15.10678 -17.42652,60.0631 c -9.58459,33.03471 -18.18709,62.17916 -19.11666,64.76545 -1.98212,5.51469 -9.24504,14.10368 -14.77409,17.47155 -8.55782,5.21276 -0.92394,4.97102 -154.96106,4.90717 C 84.721695,424.13978 62.456725,423.9365 58.600745,422.85794 Z M 251.75661,262.13575 c 0.19516,-2.4388 -0.13378,-3.49779 -1.28415,-4.13419 -2.58653,-1.4309 -146.38977,-59.76886 -147.33041,-59.76886 -1.08747,0 -87.692775,57.81186 -88.561355,59.11759 -0.79011,1.18776 -0.85112,7.11894 -0.0815,7.91892 0.31556,0.32799 53.76852,0.49483 118.784365,0.37077 l 118.21063,-0.22558 z"
     style="fill:#e9ab6c;stroke-width:0.87280083" />
  <path
     inkscape:connector-curvature="0"
     id="path57"
     d="m 57.539975,422.07143 c -9.12803,-3.50727 -16.9872,-10.30292 -20.40695,-17.64542 -1.01146,-2.17172 -9.91851,-31.93524 -19.79342,-66.14115 l -17.95439982,-62.19258 -0.007,-12.9269 c -0.005,-9.86723 0.28739,-13.36336 1.23587,-14.77086 0.68344002,-1.01416 7.42699002,-5.96957 14.98567982,-11.01199 7.55873,-5.04244 14.13772,-9.66227 14.62003,-10.26631 0.62566,-0.78357 -2.78337,-11.77164 -11.89765,-38.34876 -8.24772,-24.05035 -13.1534898,-39.70373 -13.8439198,-44.17345 -2.58578,-16.73977 1.9842,-34.56308 12.5064298,-48.776109 11.23313,-15.173286 32.23132,-25.006888 50.53206,-23.664517 16.99993,1.246957 30.57602,7.981225 42.824145,21.242443 6.68626,7.239313 10.42952,13.358163 14.91778,24.385083 1.97471,4.85153 3.86607,9.13564 4.20304,9.52024 0.33696,0.38459 2.561,-2.02406 4.94231,-5.35258 17.23993,-24.09736 43.73155,-38.798255 72.14463,-40.03493 5.88571,-0.256175 11.14255,-0.831428 11.68186,-1.27834 0.53932,-0.446911 1.24169,-2.299878 1.56081,-4.117703 0.96751,-5.511171 6.07741,-15.46653 10.68381,-20.81469 5.82704,-6.765373 13.30903,-11.798834 21.57049,-14.511422 l 6.81373,-2.23724 h 47.85547 c 31.39616,0 49.4158,0.335723 52.39214,0.976115 17.25506,3.712605 32.98563,20.062776 36.55755,37.997474 0.63663,3.196551 0.94334,28.418446 0.95223,78.304486 0.007,40.47402 0.29614,74.00822 0.64208,74.52046 0.34593,0.51223 3.0342,2.83601 5.97393,5.16395 2.93973,2.32794 5.73277,4.98577 6.20675,5.9063 0.48902,0.94971 0.85924,8.72348 0.8559,17.97147 l -0.006,16.29778 -17.99201,62.27153 c -9.8956,34.24934 -18.80302,64.01285 -19.79427,66.14114 -2.6489,5.68743 -9.60141,12.44881 -16.0836,15.64147 l -5.61744,2.76679 -145.10955,0.16375 C 87.645085,423.21018 60.015415,423.02266 57.539775,422.07143 Z M 251.75155,262.22385 c 0.15005,-1.86053 -0.20682,-3.56158 -0.8561,-4.08062 -1.46382,-1.17021 -146.33047,-59.93198 -147.72168,-59.91986 -1.28356,0.0112 -87.689685,57.61822 -88.593075,59.06509 -0.7902,1.26557 -0.85058,7.18134 -0.0815,7.98075 0.31556,0.32799 53.76852,0.49483 118.784365,0.37077 l 118.21063,-0.22558 z m 15.15518,-23.63184 c 7.11114,-3.93192 7.68839,-4.48098 11.92741,-11.34525 8.3225,-13.47666 12.25789,-25.85203 13.07628,-41.12025 2.1422,-39.96516 -22.58155,-75.30391 -60.10656,-85.913 -9.88092,-2.793553 -30.35594,-2.793553 -40.23686,0 -17.69689,5.00327 -34.34266,16.67138 -44.68015,31.31927 -3.9197,5.55408 -7.97022,13.4422 -7.97022,15.52145 0,1.7177 17.73107,46.82845 18.87258,48.01492 1.0133,1.05321 10.23494,-8.11002 10.23494,-10.1701 0,-0.76001 -3.85247,-5.37101 -8.56104,-10.24668 -4.70857,-4.87566 -8.56103,-9.26117 -8.56103,-9.74556 0,-1.18613 9.55487,-11.1653 10.69056,-11.1653 0.49442,0 4.73697,4.00421 9.42787,8.89824 4.6909,4.89403 9.10822,8.89824 9.81627,8.89824 1.69785,0 21.43151,-20.48582 21.43151,-22.24838 0,-0.75094 -3.85247,-5.35453 -8.56104,-10.23019 -4.70857,-4.87567 -8.56103,-9.26117 -8.56103,-9.74556 0,-1.18613 9.55487,-11.1653 10.69056,-11.1653 0.49442,0 4.73697,4.00421 9.42787,8.89824 4.6909,4.89403 9.12124,8.89824 9.84519,8.89824 0.72396,0 5.15429,-4.00421 9.84519,-8.89824 4.6909,-4.89403 8.93345,-8.89824 9.42788,-8.89824 1.13569,0 10.69056,9.97917 10.69056,11.1653 0,0.48439 -3.85247,4.86989 -8.56104,9.74556 -4.70857,4.87566 -8.56103,9.47925 -8.56103,10.23019 0,1.76256 19.73365,22.24838 21.4315,22.24838 0.70805,0 5.12538,-4.00421 9.81627,-8.89824 4.6909,-4.89403 8.91022,-8.89824 9.37626,-8.89824 1.14117,0 10.74218,9.93122 10.74218,11.11164 0,0.5139 -3.85247,4.92356 -8.56104,9.79922 -4.70857,4.87567 -8.56103,9.4805 -8.56103,10.23297 0,0.75247 3.85246,5.35731 8.56103,10.23298 4.70857,4.87566 8.56104,9.26117 8.56104,9.74556 0,1.18613 -9.55487,11.1653 -10.69056,11.1653 -0.49443,0 -4.73698,-4.00421 -9.42788,-8.89824 -4.69089,-4.89403 -9.10822,-8.89824 -9.81627,-8.89824 -1.7003,0 -21.4315,20.48711 -21.4315,22.25256 0,0.75324 3.00784,4.47751 6.68409,8.27615 6.09983,6.3029 7.42813,7.21096 15.19584,10.38818 4.68146,1.91486 8.75719,3.50243 9.05717,3.52793 0.3,0.0255 3.9082,-1.81298 8.01823,-4.08551 z m -74.94033,-30.1562 c -5.38374,-5.61171 -10.38725,-10.20311 -11.11892,-10.20311 -2.0723,0 -9.97828,8.7165 -8.47996,9.34933 12.26479,5.18011 28.70671,11.63364 29.00205,11.38343 0.212,-0.17959 -4.01943,-4.91794 -9.40317,-10.52965 z M 70.878085,199.56152 c 26.8769,-17.99402 28.7293,-19.12574 31.301305,-19.12349 1.13578,8.9e-4 9.76998,3.15814 19.18712,7.01586 9.41713,3.85773 17.22863,6.72798 17.35889,6.37833 0.27426,-0.73623 -27.71184,-71.52099 -30.6187,-77.44333 -6.3884,-13.01554 -18.898765,-23.544585 -32.279175,-27.167014 -6.31993,-1.710971 -16.52173,-1.695313 -22.91373,0.03516 -16.17464,4.378902 -29.68935,19.013854 -33.03793,35.776464 -1.18086,5.91128 -0.66856,19.80922 0.87784,23.81398 l 1.03078,2.66947 4.8161,-5.78386 c 13.60669,-16.34083 24.24731,-23.69708 39.97529,-27.63634 8.56171,-2.14438 16.44065,-2.2582 19.16228,-0.27681 3.04994,2.22041 4.5191,7.01217 5.0144,16.35471 0.57436,10.83398 -1.30201,20.96696 -5.68295,30.68966 -3.66734,8.13896 -6.41188,11.81494 -24.91343,33.36839 -7.35184,8.56455 -13.68074,16.1124 -14.06422,16.77297 -1.03248,1.77852 0.32123,0.93504 24.78613,-15.44415 z m 155.562275,-2.8721 c 5.53964,-5.74284 10.07207,-11.0424 10.07207,-11.7768 0,-1.74439 -19.70218,-22.27287 -21.37635,-22.27287 -1.67828,0 -21.42883,20.47821 -21.42883,22.21832 0,1.74438 19.70218,22.27287 21.37635,22.27287 0.70658,0 5.81712,-4.69869 11.35676,-10.44152 z M 52.052325,183.1057 c 14.45043,-16.85219 18.57748,-22.94363 20.94698,-30.91733 1.7234,-5.79948 2.65466,-17.32861 1.49735,-18.53708 -0.88171,-0.92066 -10.13219,1.85541 -15.49046,4.64871 -2.42867,1.26608 -6.28504,3.75678 -8.56969,5.5349 -4.67598,3.63924 -21.95724,24.68496 -21.95724,26.74029 0,2.85852 9.02894,27.67631 9.98626,27.44919 0.54845,-0.13012 6.66251,-6.84353 13.5868,-14.91868 z"
     style="fill:#f7c321;stroke-width:0.87280083" />
  <path
     inkscape:connector-curvature="0"
     id="path55"
     d="m 57.539975,422.07143 c -9.12803,-3.50727 -16.9872,-10.30292 -20.40695,-17.64542 -1.01146,-2.17172 -9.91851,-31.93524 -19.79342,-66.14115 l -17.95439982,-62.19258 -0.007,-12.9269 c -0.005,-9.86723 0.28739,-13.36336 1.23587,-14.77086 0.68344002,-1.01416 7.42699002,-5.96957 14.98567982,-11.01199 7.55873,-5.04244 14.13772,-9.66227 14.62003,-10.26631 0.62566,-0.78357 -2.78337,-11.77164 -11.89765,-38.34876 -8.24772,-24.05035 -13.1534898,-39.70373 -13.8439198,-44.17345 -2.58578,-16.73977 1.9842,-34.56308 12.5064298,-48.776109 11.23313,-15.173286 32.23132,-25.006888 50.53206,-23.664517 16.99993,1.246957 30.57602,7.981225 42.824145,21.242443 6.68626,7.239313 10.42952,13.358163 14.91778,24.385083 1.97471,4.85153 3.86607,9.13564 4.20304,9.52024 0.33696,0.38459 2.561,-2.02406 4.94231,-5.35258 17.23993,-24.09736 43.73155,-38.798255 72.14463,-40.03493 5.88571,-0.256175 11.14255,-0.831428 11.68186,-1.27834 0.53932,-0.446911 1.24169,-2.299878 1.56081,-4.117703 0.96751,-5.511171 6.07741,-15.46653 10.68381,-20.81469 5.82704,-6.765373 13.30903,-11.798834 21.57049,-14.511422 l 6.81373,-2.23724 h 47.85547 c 31.39616,0 49.4158,0.335723 52.39214,0.976115 17.25506,3.712605 32.98563,20.062776 36.55755,37.997474 0.63663,3.196551 0.94334,28.418446 0.95223,78.304486 0.007,40.47402 0.29614,74.00822 0.64208,74.52046 0.34593,0.51223 3.0342,2.83601 5.97393,5.16395 2.93973,2.32794 5.73277,4.98577 6.20675,5.9063 0.48902,0.94971 0.85924,8.72348 0.8559,17.97147 l -0.006,16.29778 -17.99201,62.27153 c -9.8956,34.24934 -18.80302,64.01285 -19.79427,66.14114 -2.6489,5.68743 -9.60141,12.44881 -16.0836,15.64147 l -5.61744,2.76679 -145.10955,0.16375 C 87.645085,423.21018 60.015415,423.02266 57.539775,422.07143 Z M 251.75155,262.22385 c 0.15005,-1.86053 -0.20682,-3.56158 -0.8561,-4.08062 -1.46382,-1.17021 -146.33047,-59.93198 -147.72168,-59.91986 -1.28356,0.0112 -87.689685,57.61822 -88.593075,59.06509 -0.7902,1.26557 -0.85058,7.18134 -0.0815,7.98075 0.31556,0.32799 53.76852,0.49483 118.784365,0.37077 l 118.21063,-0.22558 z m 143.56809,-4.81787 v -8.00841 L 371.62609,230.86428 347.93255,212.331 308.70248,234.30739 c -21.57653,12.08701 -39.71162,22.37802 -40.30019,22.8689 -1.11858,0.93292 -1.49229,7.0578 -0.49395,8.09547 0.3169,0.32938 29.11408,0.49622 63.99374,0.37075 l 63.41756,-0.22811 z M 266.90673,238.59201 c 7.11114,-3.93192 7.68839,-4.48098 11.92741,-11.34525 8.3225,-13.47666 12.25789,-25.85203 13.07628,-41.12025 2.1422,-39.96516 -22.58155,-75.30391 -60.10656,-85.913 -9.88092,-2.793553 -30.35594,-2.793553 -40.23686,0 -17.69689,5.00327 -34.34266,16.67138 -44.68015,31.31927 -3.9197,5.55408 -7.97022,13.4422 -7.97022,15.52145 0,1.7177 17.73107,46.82845 18.87258,48.01492 1.0133,1.05321 10.23494,-8.11002 10.23494,-10.1701 0,-0.76001 -3.85247,-5.37101 -8.56104,-10.24668 -4.70857,-4.87566 -8.56103,-9.26117 -8.56103,-9.74556 0,-1.18613 9.55487,-11.1653 10.69056,-11.1653 0.49442,0 4.73697,4.00421 9.42787,8.89824 4.6909,4.89403 9.10822,8.89824 9.81627,8.89824 1.69785,0 21.43151,-20.48582 21.43151,-22.24838 0,-0.75094 -3.85247,-5.35453 -8.56104,-10.23019 -4.70857,-4.87567 -8.56103,-9.26117 -8.56103,-9.74556 0,-1.18613 9.55487,-11.1653 10.69056,-11.1653 0.49442,0 4.73697,4.00421 9.42787,8.89824 4.6909,4.89403 9.12124,8.89824 9.84519,8.89824 0.72396,0 5.15429,-4.00421 9.84519,-8.89824 4.6909,-4.89403 8.93345,-8.89824 9.42788,-8.89824 1.13569,0 10.69056,9.97917 10.69056,11.1653 0,0.48439 -3.85247,4.86989 -8.56104,9.74556 -4.70857,4.87566 -8.56103,9.47925 -8.56103,10.23019 0,1.76256 19.73365,22.24838 21.4315,22.24838 0.70805,0 5.12538,-4.00421 9.81627,-8.89824 4.6909,-4.89403 8.91022,-8.89824 9.37626,-8.89824 1.14117,0 10.74218,9.93122 10.74218,11.11164 0,0.5139 -3.85247,4.92356 -8.56104,9.79922 -4.70857,4.87567 -8.56103,9.4805 -8.56103,10.23297 0,0.75247 3.85246,5.35731 8.56103,10.23298 4.70857,4.87566 8.56104,9.26117 8.56104,9.74556 0,1.18613 -9.55487,11.1653 -10.69056,11.1653 -0.49443,0 -4.73698,-4.00421 -9.42788,-8.89824 -4.69089,-4.89403 -9.10822,-8.89824 -9.81627,-8.89824 -1.7003,0 -21.4315,20.48711 -21.4315,22.25256 0,0.75324 3.00784,4.47751 6.68409,8.27615 6.09983,6.3029 7.42813,7.21096 15.19584,10.38818 4.68146,1.91486 8.75719,3.50243 9.05717,3.52793 0.3,0.0255 3.9082,-1.81298 8.01823,-4.08551 z m -74.94033,-30.1562 c -5.38374,-5.61171 -10.38725,-10.20311 -11.11892,-10.20311 -2.0723,0 -9.97828,8.7165 -8.47996,9.34933 12.26479,5.18011 28.70671,11.63364 29.00205,11.38343 0.212,-0.17959 -4.01943,-4.91794 -9.40317,-10.52965 z M 70.878085,199.56152 c 26.8769,-17.99402 28.7293,-19.12574 31.301305,-19.12349 1.13578,8.9e-4 9.76998,3.15814 19.18712,7.01586 9.41713,3.85773 17.22863,6.72798 17.35889,6.37833 0.27426,-0.73623 -27.71184,-71.52099 -30.6187,-77.44333 -6.3884,-13.01554 -18.898765,-23.544585 -32.279175,-27.167014 -6.31993,-1.710971 -16.52173,-1.695313 -22.91373,0.03516 -16.17464,4.378902 -29.68935,19.013854 -33.03793,35.776464 -1.18086,5.91128 -0.66856,19.80922 0.87784,23.81398 l 1.03078,2.66947 4.8161,-5.78386 c 13.60669,-16.34083 24.24731,-23.69708 39.97529,-27.63634 8.56171,-2.14438 16.44065,-2.2582 19.16228,-0.27681 3.04994,2.22041 4.5191,7.01217 5.0144,16.35471 0.57436,10.83398 -1.30201,20.96696 -5.68295,30.68966 -3.66734,8.13896 -6.41188,11.81494 -24.91343,33.36839 -7.35184,8.56455 -13.68074,16.1124 -14.06422,16.77297 -1.03248,1.77852 0.32123,0.93504 24.78613,-15.44415 z m 155.562275,-2.8721 c 5.53964,-5.74284 10.07207,-11.0424 10.07207,-11.7768 0,-1.74439 -19.70218,-22.27287 -21.37635,-22.27287 -1.67828,0 -21.42883,20.47821 -21.42883,22.21832 0,1.74438 19.70218,22.27287 21.37635,22.27287 0.70658,0 5.81712,-4.69869 11.35676,-10.44152 z M 52.052325,183.1057 c 14.45043,-16.85219 18.57748,-22.94363 20.94698,-30.91733 1.7234,-5.79948 2.65466,-17.32861 1.49735,-18.53708 -0.88171,-0.92066 -10.13219,1.85541 -15.49046,4.64871 -2.42867,1.26608 -6.28504,3.75678 -8.56969,5.5349 -4.67598,3.63924 -21.95724,24.68496 -21.95724,26.74029 0,2.85852 9.02894,27.67631 9.98626,27.44919 0.54845,-0.13012 6.66251,-6.84353 13.5868,-14.91868 z"
     style="fill:#c4874a;stroke-width:0.87280083" />
  <path
     inkscape:connector-curvature="0"
     id="path53"
     d="m 59.827845,422.37482 c -8.91941,-2.19373 -18.80254,-10.42486 -22.60036,-18.82261 -0.95577,-2.1134 -9.86431,-32.01035 -19.79675,-66.43766 L -0.62825482,274.51943 v -11.87952 c 0,-11.7265 0.0303,-11.91352 2.35429002,-14.51858 1.29485,-1.45148 8.3255998,-6.6196 15.6238898,-11.48471 7.29828,-4.86511 13.39476,-9.49319 13.54773,-10.28462 0.15297,-0.79144 -5.01363,-16.75183 -11.48135,-35.46754 -6.46771,-18.71571 -12.4678798,-36.80443 -13.3337098,-40.19715 -2.22486,-8.7181 -2.13803,-22.89633 0.1938,-31.64246 4.6036498,-17.26717 15.8048598,-31.727593 30.4965498,-39.370123 10.60562,-5.516974 18.23877,-7.200587 30.47041,-6.720732 11.59169,0.454749 19.93709,3.097583 29.72419,9.413105 12.614945,8.140293 21.875345,20.16993 28.743245,37.33865 1.81091,4.52698 3.7254,8.23087 4.25443,8.23087 0.52904,0 2.47058,-2.28518 4.31456,-5.07819 4.66941,-7.07256 14.14786,-16.8364 21.75892,-22.41405 16.0296,-11.747064 31.97382,-17.314514 53.397,-18.645315 l 9.30767,-0.57819 2.24973,-7.155208 c 1.23735,-3.935365 3.53134,-9.22377 5.09775,-11.752011 4.01381,-6.478409 12.77979,-14.695137 19.14171,-17.942331 10.09219,-5.151173 12.812,-5.386179 62.33646,-5.386179 49.60971,0 52.19303,0.225206 62.49556,5.448166 7.5459,3.825457 17.58729,14.262361 21.26778,22.105471 5.25821,11.205243 5.24021,10.892223 5.25657,91.384377 l 0.0149,73.14298 5.91146,4.7166 c 3.2513,2.59412 6.33327,5.63637 6.84883,6.76056 0.56395,1.22972 0.93736,8.00417 0.93736,17.00548 v 14.96149 l -18.45839,63.9685 c -13.79345,47.80192 -19.10951,65.02481 -21.03478,68.14819 -3.58516,5.81622 -8.54185,10.21889 -15.19183,13.49379 l -5.67033,2.79246 -143.39734,0.13953 c -84.66995,0.0824 -144.758515,-0.19525 -146.720965,-0.67792 z m 191.927325,-160.74217 -0.26093,-4.22667 -73.6249,-30.01573 c -40.4937,-16.50865 -74.28096,-29.86505 -75.0828,-29.68089 -0.80183,0.18416 -21.123595,13.47603 -45.159465,29.53751 l -43.70157,29.20269 v 4.70488 4.70487 h 119.045305 119.0453 z m 143.99252,-4.01008 v -8.23676 l -23.32882,-18.19578 c -12.83085,-10.00769 -23.92914,-18.19937 -24.66286,-18.20373 -0.73372,-0.004 -19.12924,9.94134 -40.87894,22.10159 l -39.54491,22.10954 v 4.33094 4.33094 h 64.20776 64.20777 z M 266.89253,239.53985 c 7.93804,-4.46108 9.8847,-6.46055 14.99573,-15.40255 12.44149,-21.767 14.45856,-49.80111 5.33617,-74.1644 -7.99248,-21.34558 -26.38557,-40.04004 -47.03581,-47.80648 -30.52168,-11.479038 -63.26526,-4.051537 -85.91314,19.48841 -7.83725,8.14593 -16.21496,21.03473 -16.21496,24.9461 0,2.26769 17.92714,48.37535 19.40682,49.91332 0.46568,0.48402 3.15218,-1.67955 6.701,-5.39664 l 5.92369,-6.20456 -9.23081,-9.73632 c -7.87631,-8.30765 -9.104,-9.98263 -8.36655,-11.41486 0.95262,-1.85009 8.30241,-9.13053 9.21751,-9.13053 0.31632,0 4.76555,4.292 9.8872,9.53778 l 9.31209,9.53777 11.72176,-12.18347 11.72177,-12.18346 -9.17634,-9.67887 c -5.04698,-5.32338 -9.17634,-9.94786 -9.17634,-10.27664 0,-0.95114 7.00455,-8.59043 8.78453,-9.58057 1.37791,-0.76648 2.98775,0.5078 10.96896,8.68244 l 9.35403,9.58075 9.35404,-9.58075 c 7.9812,-8.17464 9.59105,-9.44892 10.96895,-8.68244 1.77999,0.99014 8.78453,8.62943 8.78453,9.58057 0,0.32878 -4.12935,4.95326 -9.17634,10.27664 l -9.17633,9.67887 11.72177,12.18346 11.72176,12.18347 9.31208,-9.53777 c 5.12165,-5.24578 9.57089,-9.53778 9.8872,-9.53778 0.9151,0 8.26489,7.28044 9.21752,9.13053 0.73743,1.43218 -0.48856,3.10543 -8.35342,11.401 l -9.21768,9.72247 9.21768,9.72248 c 7.86486,8.29557 9.09085,9.96882 8.35342,11.401 -0.95263,1.85009 -8.30242,9.13053 -9.21752,9.13053 -0.31631,0 -4.76555,-4.292 -9.8872,-9.53778 l -9.31208,-9.53777 -11.73765,12.19997 -11.73766,12.19999 7.64754,7.98575 c 7.02509,7.33578 8.31329,8.27162 15.82703,11.49774 4.49872,1.93158 8.66471,3.54673 9.25775,3.58922 0.59305,0.0424 4.34033,-1.756 8.3273,-3.99662 z m -74.24779,-31.28062 -11.75601,-12.21906 -5.14814,5.29507 c -2.83147,2.9123 -5.14813,5.57582 -5.14813,5.91896 0,0.83003 29.91186,13.10338 32.09999,13.17117 1.18924,0.0368 -1.86373,-3.65981 -10.04771,-12.16614 z m 133.40174,-2.57224 c 14.67924,-8.18106 20.54522,-11.01358 22.80852,-11.01358 2.56844,0 5.31151,1.76227 17.468,11.22227 l 14.42108,11.22227 0.53643,-2.72613 c 0.79604,-4.04549 0.7258,-115.685605 -0.0794,-126.168127 -1.02959,-13.404098 -5.23998,-21.606331 -14.28898,-27.836219 -8.10904,-5.582767 -8.40019,-5.613794 -55.49066,-5.913481 -24.27502,-0.154487 -45.3885,0.0974 -48.77271,0.581868 -7.96335,1.139995 -14.06406,4.189326 -19.32829,9.660902 -4.17175,4.336064 -8.08205,11.519965 -8.66943,15.927239 -0.25555,1.917468 0.4839,2.372177 8.83556,5.433281 28.12093,10.307053 49.569,32.289547 59.40065,60.880777 4.03015,11.72006 5.53784,21.07679 5.53784,34.36799 0,11.93913 -1.40966,22.02597 -4.29738,30.74984 -0.93244,2.81695 -1.69535,5.47354 -1.69535,5.90354 0,0.91918 -1.38673,1.64106 23.61408,-12.29244 z m 0.57085,-16.59598 c -2.94286,-1.54335 -5.35065,-3.31458 -5.35065,-3.93607 0,-0.62149 1.43284,-4.13976 3.1841,-7.81838 2.20922,-4.64061 3.65831,-6.6884 4.73298,-6.6884 1.89929,0 11.41682,4.90937 12.25709,6.3225 0.33468,0.56287 -0.87012,4.17562 -2.67736,8.02833 -3.82692,8.15838 -4.17124,8.27438 -12.14616,4.09202 z m 25.09434,-11.21061 c -1.80724,-3.85271 -3.01204,-7.46546 -2.67736,-8.02833 0.8441,-1.41957 10.36179,-6.3225 12.27341,-6.3225 1.83514,0 8.52461,13.35796 7.52844,15.03327 -0.84409,1.41957 -10.36179,6.3225 -12.27341,6.3225 -1.10539,0 -2.5305,-2.05786 -4.85108,-7.00494 z m -31.5473,-23.947 c -2.21887,-2.34147 -4.03431,-5.0349 -4.03431,-5.98538 0,-2.34845 11.8738,-14.67246 14.13646,-14.67246 2.22537,0 9.83444,7.92489 9.83444,10.24261 0,2.34845 -11.87381,14.67246 -14.13646,14.67246 -0.97548,0 -3.57149,-1.90543 -5.80013,-4.25723 z m 31.5473,-25.88313 c -1.80724,-3.85271 -3.01204,-7.46546 -2.67736,-8.02833 0.8441,-1.41957 10.36179,-6.3225 12.27341,-6.3225 1.83514,0 8.52461,13.35796 7.52844,15.03327 -0.84409,1.41957 -10.36179,6.3225 -12.27341,6.3225 -1.10539,0 -2.5305,-2.05786 -4.85108,-7.00494 z m -31.11735,-16.59223 c -1.51363,-3.1904 -2.75205,-6.5138 -2.75205,-7.38534 0,-1.86822 12.88097,-8.79938 14.46357,-7.782748 1.35958,0.873362 6.08291,10.765758 6.08291,12.739868 0,1.117 -1.97018,2.62317 -6.43493,4.9194 -3.53922,1.82024 -6.92376,3.30952 -7.52119,3.30952 -0.59744,0 -2.32467,-2.61032 -3.83831,-5.8007 z M 288.07124,94.76976 c -3.56787,-3.733321 -6.18532,-7.230539 -6.18532,-8.264317 0,-2.301662 7.65826,-10.178598 9.89602,-10.178598 2.25283,0 14.07488,12.377739 14.07488,14.736467 0,2.301665 -7.65826,10.178598 -9.89603,10.178598 -0.97843,0 -4.33841,-2.756335 -7.88955,-6.47215 z m 54.79063,-7.118587 c -3.56787,-3.733324 -6.18533,-7.230543 -6.18533,-8.26432 0,-2.301662 7.65826,-10.178599 9.89603,-10.178599 2.25283,0 14.07487,12.377739 14.07487,14.736468 0,2.301662 -7.65825,10.178598 -9.89602,10.178598 -0.97843,0 -4.33841,-2.756336 -7.88955,-6.472147 z M 86.345555,189.94946 c 9.23482,-6.16335 13.678165,-8.62341 15.575495,-8.62341 1.46006,0 10.47768,3.17794 20.03915,7.06209 9.56147,3.88415 17.50641,6.70731 17.65544,6.27369 0.42896,-1.2481 -29.59336,-76.42966 -32.63411,-81.722 -5.91996,-10.30348 -16.815235,-19.477711 -27.829115,-23.433173 -7.49913,-2.69319 -21.25398,-2.873489 -28.41446,-0.372457 -14.44629,5.045847 -25.32331,16.09371 -30.08456,30.55711 -1.57609,4.78774 -1.98309,7.93418 -1.98736,15.3639 -0.006,9.62605 1.3895,16.94706 3.21143,16.85326 0.57042,-0.0294 3.54123,-3.25491 6.6018,-7.16786 3.06057,-3.91296 8.06878,-9.31659 11.12935,-12.00808 10.43863,-9.17979 26.27772,-15.47379 38.94042,-15.47379 5.27417,0 6.39113,0.28381 7.96361,2.02356 4.54288,5.02615 4.85065,25.64058 0.57959,38.82042 -3.38179,10.43565 -8.0879,17.29461 -26.84289,39.12234 -8.98526,10.45736 -16.13751,19.3486 -15.89389,19.75831 0.24362,0.4097 6.88386,-3.56505 14.75609,-8.83278 7.87224,-5.26774 20.12754,-13.45825 27.23401,-18.20113 z m 140.753735,6.94434 11.5376,-12.01678 -11.76352,-12.22687 -11.76353,-12.22687 -11.76353,12.22687 -11.76352,12.22687 11.5376,12.01678 c 6.34569,6.60923 11.74094,12.01679 11.98945,12.01679 0.24851,0 5.64376,-5.40756 11.98945,-12.01679 z M 50.867795,185.31176 c 15.76796,-18.44246 17.37612,-20.58457 20.33405,-27.08545 3.20846,-7.0515 4.53185,-13.42551 4.19407,-20.20049 -0.25853,-5.18564 -0.26372,-5.1947 -2.82732,-4.93634 -5.20145,0.52418 -13.56677,4.05169 -19.6697,8.29435 -4.56129,3.17094 -8.59009,7.20719 -14.7822,14.80954 -4.68161,5.74782 -9.02051,11.3016 -9.64202,12.34171 -0.99708,1.66865 -0.54612,3.58402 3.83331,16.28141 3.20023,9.27851 5.34855,14.2963 6.04779,14.1257 0.59646,-0.14552 6.22687,-6.27921 12.51202,-13.63043 z"
     style="fill:#aa6d2c;stroke-width:0.87280083" />
  <path
     inkscape:connector-curvature="0"
     id="path51"
     d="m 59.727045,422.12482 c -9.46856,-2.39328 -17.80763,-9.199 -22.10457,-18.0401 -1.15129,-2.36881 -10.22869,-32.50373 -20.17199,-66.96647 L -0.62825482,274.4587 v -11.81358 c 0,-10.97491 0.13675,-11.97722 1.92623002,-14.11866 1.05943,-1.2678 8.09018,-6.42925 15.6238898,-11.46988 8.88478,-5.94461 13.78249,-9.76375 13.93908,-10.86944 0.13278,-0.93755 -5.00367,-16.92062 -11.41433,-35.51794 C 5.5299452,150.29699 4.5083652,146.49375 4.5083652,135.05521 c 0,-17.28921 5.8088898,-31.90121 17.5219198,-44.075592 29.82922,-31.004138 79.379065,-21.436365 99.229075,19.160532 2.03402,4.15992 4.57226,9.86592 5.64054,12.67998 1.06829,2.81407 2.41143,5.11649 2.98478,5.11649 0.57333,0 2.55112,-2.29368 4.3951,-5.09707 4.61355,-7.01394 14.99681,-17.54051 22.90582,-23.22195 15.97627,-11.476579 33.52182,-17.078195 56.94647,-18.180815 l 4.5869,-0.21591 2.34252,-7.269472 c 1.28839,-3.99821 3.58786,-9.286615 5.10995,-11.752011 3.98657,-6.457228 12.47507,-14.333302 19.10148,-17.72336 10.34403,-5.291982 12.60066,-5.490886 62.2961,-5.490886 49.52594,0 51.72844,0.190916 62.27787,5.39831 7.93922,3.918944 17.763,14.129668 21.53343,22.38159 5.22909,11.444304 5.19228,10.800018 5.20861,91.165234 l 0.0149,73.1501 5.97421,4.95448 c 3.28582,2.72496 6.36779,5.71886 6.84883,6.65308 0.49644,0.96413 0.87461,8.20013 0.87461,16.73469 v 15.03607 l -18.07873,62.65955 c -9.94331,34.46274 -19.0207,64.59766 -20.17199,66.96647 -4.43095,9.11681 -13.3487,16.14091 -23.21684,18.28685 -6.78533,1.47553 -283.226425,1.2396 -289.106875,-0.24675 z m 63.807735,-15.24351 c 2.70542,-1.45412 5.10861,-5.42364 5.10861,-8.43826 0,-3.01461 -2.40319,-6.98413 -5.10861,-8.43826 -2.12928,-1.14447 -8.0525,-1.3498 -38.938215,-1.3498 -41.11255,0 -38.02451,-0.63455 -34.64277,7.11859 2.71592,6.22667 6.45335,9.63089 12.76407,11.62614 1.18019,0.37314 14.78176,0.71284 30.22571,0.75491 23.527605,0.0641 28.487035,-0.14234 30.591205,-1.27332 z m 75.3091,-0.20877 c 2.20647,-1.14567 3.32471,-2.54304 4.24192,-5.30077 1.12287,-3.37605 1.10092,-4.06025 -0.22274,-6.94533 -2.56647,-5.59392 -3.98829,-5.82809 -33.77089,-5.56185 -22.90567,0.20477 -26.27897,0.4086 -25.98335,1.57005 0.8985,3.53008 1.04877,11.75601 0.25783,14.11425 -0.48719,1.45261 -0.66043,2.87536 -0.38497,3.16167 0.27546,0.2863 12.28296,0.51993 26.68334,0.51918 23.21192,-8.9e-4 26.52245,-0.17791 29.17886,-1.5572 z m 89.53104,-0.11916 c 5.75092,-3.64504 5.80548,-12.53529 0.0992,-16.16376 -2.60987,-1.65954 -4.29119,-1.72921 -36.5518,-1.51464 -29.56909,0.19667 -33.77342,0.39256 -33.47636,1.55966 0.8985,3.53008 1.04877,11.75601 0.25784,14.11425 -0.4872,1.45261 -0.66044,2.87536 -0.38498,3.16167 0.27546,0.2863 15.55755,0.51906 33.96022,0.51723 31.22488,-0.003 33.63545,-0.11492 36.09591,-1.67441 z m 62.42733,-0.68268 c 4.40005,-2.46125 6.74445,-5.11588 8.91715,-10.09712 3.36247,-7.70895 5.32823,-7.17422 -25.39714,-6.90863 -23.66859,0.20459 -27.13739,0.40745 -26.84156,1.56969 0.8985,3.53008 1.04877,11.75601 0.25783,14.11425 -0.48719,1.45261 -0.63561,2.90116 -0.32982,3.21899 0.30579,0.31783 9.42394,0.45198 20.26256,0.2981 18.25428,-0.25916 19.95893,-0.42094 23.13098,-2.19528 z M 61.015135,370.4136 c -0.54911,-2.30409 -0.54911,-12.82291 0,-15.127 0.40658,-1.70608 -0.0625,-1.78988 -11.34731,-2.02721 -9.43747,-0.19849 -11.77142,-0.009 -11.77142,0.95547 0,1.03773 3.52654,14.05502 4.69796,17.3413 0.30492,0.85541 2.72406,1.07903 9.62608,0.88982 8.73166,-0.23937 9.1964,-0.34677 8.79469,-2.03238 z m 89.034765,0 c -0.54911,-2.30409 -0.54911,-12.82291 0,-15.127 0.41801,-1.75399 -0.0606,-1.783 -33.2012,-2.01245 -36.975745,-0.25601 -37.344905,-0.20894 -39.985095,5.09771 -1.6406,3.29753 -1.64158,5.65697 -0.003,8.94899 2.61921,5.26448 2.709,5.27591 39.798055,5.06484 33.34095,-0.18973 33.81014,-0.21744 33.39197,-1.97209 z m 95.8836,0 c -0.54911,-2.30409 -0.54911,-12.82291 0,-15.127 0.41857,-1.75637 -0.0604,-1.78268 -36.62725,-2.01157 -40.73072,-0.25496 -40.74613,-0.25316 -43.40787,5.09683 -1.6406,3.29753 -1.64158,5.65697 -0.003,8.94899 2.63919,5.30466 2.38521,5.2749 43.22247,5.06438 36.7654,-0.18953 37.23509,-0.21468 36.81638,-1.97163 z m 68.48828,0 c -0.54911,-2.30409 -0.54911,-12.82291 0,-15.127 0.41531,-1.74265 -0.0612,-1.78457 -22.92055,-2.01644 -25.73013,-0.26098 -27.17456,-0.013 -29.71925,5.1017 -1.6406,3.29753 -1.64159,5.65697 -0.003,8.94899 2.53064,5.08647 3.66166,5.28056 29.52482,5.0669 23.06749,-0.19057 23.53428,-0.23043 23.11872,-1.97415 z m 54.89637,-6.22876 c 3.60546,-12.32176 5.23679,-11.1228 -15.134,-11.1228 -19.39665,0 -21.50504,0.46815 -23.91389,5.30982 -1.6406,3.29753 -1.64159,5.65697 -0.003,8.94899 2.3964,4.81666 4.38152,5.28818 21.34512,5.07 l 15.36316,-0.1976 2.34333,-8.00841 z M 41.348845,335.69541 c 2.70541,-1.45412 5.1086,-5.42364 5.1086,-8.43826 0,-3.01462 -2.40319,-6.98414 -5.1086,-8.43826 -3.25192,-1.74787 -13.72568,-1.87902 -13.72568,-0.17188 0,1.01313 3.53568,14.0535 4.68678,17.28592 0.54786,1.53844 6.00135,1.39513 9.0389,-0.23752 z m 75.805365,-0.32793 c 5.75083,-3.64498 5.80537,-12.53399 0.0992,-16.16502 -2.58443,-1.64456 -4.2269,-1.72831 -29.702965,-1.51464 -23.48107,0.19694 -26.92335,0.39873 -26.62754,1.56092 0.8985,3.53008 1.04877,11.75601 0.25784,14.11425 -0.4872,1.45261 -0.66043,2.87536 -0.38498,3.16167 0.27546,0.2863 12.47558,0.51906 27.11139,0.51722 24.524305,-0.003 26.817245,-0.13433 29.247085,-1.6744 z m 88.56651,0.32793 c 2.70542,-1.45412 5.1086,-5.42364 5.1086,-8.43826 0,-3.02198 -2.40559,-6.98544 -5.12785,-8.44861 -3.76158,-2.02181 -69.96131,-1.60216 -69.44148,0.4402 0.8985,3.53008 1.04877,11.75601 0.25784,14.11425 -0.4872,1.45261 -0.66044,2.87536 -0.38498,3.16167 0.27546,0.2863 15.48038,0.52055 33.78871,0.52055 28.07988,0 33.68076,-0.21118 35.79916,-1.3498 z m 75.33711,0 c 2.70542,-1.45412 5.10861,-5.42364 5.10861,-8.43826 0,-3.02365 -2.40616,-6.98573 -5.13224,-8.45097 -3.74868,-2.01487 -56.2588,-1.59795 -55.73944,0.44256 0.8985,3.53008 1.04877,11.75601 0.25783,14.11425 -0.48719,1.45261 -0.66043,2.87536 -0.38497,3.16167 0.27546,0.2863 12.3984,0.52055 26.93988,0.52055 21.95807,0 26.86465,-0.22876 28.95033,-1.3498 z m 68.48829,0 c 2.70541,-1.45412 5.1086,-5.42364 5.1086,-8.43826 0,-3.0248 -2.40653,-6.98594 -5.13526,-8.4526 -3.73934,-2.00985 -49.4066,-1.59493 -48.88759,0.44419 0.8985,3.53008 1.04877,11.75601 0.25783,14.11425 -0.48719,1.45261 -0.66043,2.87536 -0.38497,3.16167 0.27546,0.2863 10.85742,0.52055 23.51546,0.52055 18.89717,0 23.46392,-0.24149 25.52593,-1.3498 z m 30.04882,-7.10352 c 3.44804,-11.80167 3.6608,-11.24489 -4.17971,-10.93777 -5.40108,0.21155 -6.57163,0.50807 -6.29508,1.59462 0.8985,3.53008 1.04877,11.75601 0.25784,14.11425 -1.1361,3.38739 -0.63592,3.82125 4.03599,3.50079 l 3.84118,-0.26348 z M 61.015135,299.2277 c -0.54911,-2.30409 -0.54911,-12.82291 0,-15.127 0.41478,-1.74046 -0.0613,-1.78488 -21.62055,-2.01713 -17.97365,-0.19362 -22.04466,-0.0172 -22.04466,0.95547 0,1.02758 3.52998,14.0537 4.69297,17.3177 0.31235,0.87663 4.76103,1.07556 19.89932,0.88983 19.01138,-0.23326 19.48647,-0.28355 19.07292,-2.01887 z m 75.337115,0 c -0.54912,-2.30409 -0.54912,-12.82291 0,-15.127 0.41643,-1.7474 -0.061,-1.78391 -26.34799,-2.01481 -29.474525,-0.2589 -30.557345,-0.0923 -33.140645,5.10007 -1.64061,3.29753 -1.64159,5.65697 -0.003,8.94899 2.56646,5.15846 3.34814,5.27864 32.949235,5.06606 26.49198,-0.19024 26.95978,-0.22503 26.54313,-1.97331 z m 95.88359,0 c -0.54911,-2.30409 -0.54911,-12.82291 0,-15.127 0.41858,-1.75637 -0.0604,-1.78269 -36.62725,-2.01157 -41.20286,-0.25792 -40.90294,-0.29631 -43.59907,5.58021 -1.94361,4.23636 -0.4145,9.6015 3.43373,12.04782 2.61911,1.66496 4.3228,1.7295 39.97621,1.51463 36.75769,-0.22153 37.23501,-0.24751 36.81638,-2.00409 z m 89.03477,0 c -0.54911,-2.30409 -0.54911,-12.82291 0,-15.127 0.41801,-1.754 -0.0606,-1.78301 -33.2012,-2.01246 -36.97574,-0.256 -37.34491,-0.20894 -39.98509,5.09772 -1.6406,3.29753 -1.64158,5.65697 -0.003,8.94899 2.6192,5.26448 2.70899,5.27591 39.79805,5.06484 33.34094,-0.18974 33.81013,-0.21745 33.39197,-1.97209 z m 68.59369,-6.22877 c 1.28901,-4.40462 2.36961,-8.70915 2.40132,-9.5656 0.0536,-1.44807 -1.655,-1.55719 -24.38381,-1.55719 -26.85371,0 -28.24001,0.23928 -30.76272,5.30982 -1.6406,3.29753 -1.64159,5.65697 -0.003,8.94899 2.51427,5.05357 3.78205,5.28142 28.19361,5.06726 l 22.21134,-0.19486 z M 252.61928,262.40158 c 0.14791,-2.14646 -0.10365,-4.2899 -0.55902,-4.76322 -0.45538,-0.47331 -34.09286,-14.38788 -74.74995,-30.92126 -67.94441,-27.62989 -74.09505,-29.96832 -76.06224,-28.91832 -2.937905,1.56812 -81.936085,54.36717 -85.396335,57.07529 -2.45914,1.92463 -2.78233,2.67188 -2.78233,6.4331 0,2.34054 0.25817,4.52387 0.57372,4.85185 0.31554,0.32797 54.15375,0.49481 119.640465,0.37075 l 119.06676,-0.22555 z m 143.79994,-4.64001 0.24348,-8.54264 -23.63037,-18.42562 c -12.99671,-10.13409 -24.08581,-18.60462 -24.64244,-18.82342 -0.55663,-0.21879 -19.11864,9.7493 -41.24892,22.15131 l -40.23686,22.54911 -0.26804,3.80647 c -0.14742,2.09356 -0.0622,4.36384 0.18924,5.04505 0.38612,1.04585 10.48533,1.20308 64.90385,1.01048 l 64.44658,-0.22809 z M 267.84661,239.53509 c 5.83283,-3.30471 7.86059,-5.03533 10.68664,-9.12069 5.14434,-7.4367 9.95406,-18.34885 12.46997,-28.29157 3.19811,-12.63863 3.1875,-28.99378 -0.0271,-41.70764 -7.66916,-30.33238 -30.01257,-53.55344 -59.17232,-61.496618 -11.58777,-3.156534 -27.16484,-3.360073 -38.35941,-0.501238 -16.02138,4.091496 -29.0144,11.623676 -40.02601,23.203456 -6.09271,6.40708 -14.84024,19.52322 -15.89624,23.83499 -0.57186,2.33498 18.32755,50.95219 20.08575,51.66896 1.38492,0.56459 12.12842,-10.26923 12.12842,-12.23038 0,-0.75743 -3.85247,-5.36632 -8.56104,-10.24199 -4.70857,-4.87566 -8.56104,-9.25903 -8.56104,-9.7408 0,-1.18721 7.83854,-9.39041 8.97297,-9.39041 0.49739,0 4.74236,4.00421 9.43326,8.89824 4.6909,4.89403 9.10865,8.89823 9.81722,8.89823 1.69795,0 23.14277,-22.26612 23.14277,-24.02909 0,-0.75035 -3.85247,-5.35346 -8.56104,-10.22912 -4.70857,-4.87567 -8.56103,-9.25903 -8.56103,-9.7408 0,-1.18722 7.83853,-9.39041 8.97296,-9.39041 0.49739,0 4.74236,4.0042 9.43326,8.89824 4.6909,4.89403 9.12124,8.89823 9.84519,8.89823 0.72396,0 5.15429,-4.0042 9.84519,-8.89823 4.6909,-4.89404 8.90815,-8.89824 9.37167,-8.89824 1.14223,0 9.03456,8.14728 9.03456,9.32639 0,0.51698 -3.85247,4.92915 -8.56104,9.80482 -4.70857,4.87566 -8.56103,9.46742 -8.56103,10.2039 0,1.76482 21.42234,24.05431 23.1185,24.05431 0.72192,0 5.15059,-4.0042 9.84148,-8.89823 4.6909,-4.89403 8.90816,-8.89824 9.37168,-8.89824 1.14222,0 9.03455,8.14728 9.03455,9.32639 0,0.51698 -3.85247,4.92916 -8.56103,9.80482 -4.70857,4.87567 -8.56104,9.4805 -8.56104,10.23297 0,0.75247 3.85247,5.35731 8.56104,10.23298 4.70856,4.87566 8.56103,9.25902 8.56103,9.7408 0,1.18721 -7.83853,9.39041 -8.97297,9.39041 -0.49738,0 -4.74236,-4.00421 -9.43326,-8.89824 -4.69089,-4.89403 -9.10865,-8.89824 -9.81722,-8.89824 -1.69969,0 -23.14276,22.26705 -23.14276,24.03205 0,0.75197 3.20156,4.6776 7.11458,8.72361 6.35606,6.57211 7.97615,7.72923 15.19584,10.85334 4.44469,1.92332 8.98507,3.50926 10.08973,3.52431 1.10468,0.015 5.24794,-1.80802 9.20727,-4.05127 z M 203.9805,220.26821 c 0,-1.60735 -21.56818,-23.81516 -23.12925,-23.81516 -1.66141,0 -11.66425,10.4035 -10.83327,11.26721 0.80202,0.83361 31.50173,13.51963 32.89239,13.59209 0.58857,0.0307 1.07013,-0.43919 1.07013,-1.04414 z m 119.46568,-12.21537 c 24.03988,-13.42185 24.48391,-13.62462 27.35308,-12.49079 1.1755,0.46452 8.20625,5.58373 15.62389,11.37601 7.41765,5.79227 13.97729,10.83746 14.57699,11.21151 0.88017,0.549 1.04521,-12.75544 0.8561,-69.01412 l -0.23426,-69.694222 -2.29441,-5.08807 c -3.20386,-7.104883 -9.2156,-13.469321 -16.00392,-16.942828 l -5.63657,-2.884168 h -50.10005 -50.10006 l -4.85852,2.367293 c -8.7003,4.239198 -15.62496,12.422424 -18.28462,21.607917 -1.378,4.759048 -1.26724,4.881842 6.81532,7.556366 31.11376,10.295561 55.74786,37.404732 63.80881,70.219902 4.76685,19.40529 3.94394,38.87521 -2.45962,58.19434 -1.1382,3.43386 -1.37162,5.11649 -0.70977,5.11649 0.54238,0 10.28381,-5.19103 21.64761,-11.53563 z m 3.5992,-19.66527 c -2.70743,-1.45251 -4.9226,-3.04493 -4.9226,-3.53871 0,-2.16521 6.12265,-13.31087 7.31206,-13.31087 1.92189,0 11.52222,5.21899 11.52222,6.26379 0,0.49457 -1.35321,3.69217 -3.00712,7.10577 -2.0228,4.17497 -3.49401,6.19255 -4.49455,6.16376 -0.81808,-0.0235 -3.70258,-1.23122 -6.41001,-2.68374 z m 25.47984,-10.59861 c -1.65391,-3.4136 -3.00712,-6.6112 -3.00712,-7.10577 0,-1.0448 9.60033,-6.26379 11.52222,-6.26379 1.18987,0 7.31206,11.14605 7.31206,13.31233 0,1.0448 -9.60033,6.26379 -11.52223,6.26379 -0.7482,0 -2.57126,-2.62835 -4.30493,-6.20656 z m -31.50475,-24.74538 c -2.21887,-2.34148 -4.03431,-4.85485 -4.03431,-5.58527 0,-1.7344 11.2127,-13.29292 12.89523,-13.29292 1.66375,0 9.36347,8.09362 9.36347,9.84249 0,1.73441 -11.2127,13.29293 -12.89523,13.29293 -0.71216,0 -3.11029,-1.91576 -5.32916,-4.25723 z m 31.50475,-25.08475 c -1.65391,-3.4136 -3.00712,-6.6112 -3.00712,-7.10578 0,-1.04479 9.60033,-6.26379 11.52222,-6.26379 1.18987,0 7.31206,11.14605 7.31206,13.31234 0,1.04479 -9.60033,6.26379 -11.52223,6.26379 -0.7482,0 -2.57126,-2.62835 -4.30493,-6.20656 z m -31.24621,-16.90348 c -1.41935,-2.92247 -2.58064,-5.92059 -2.58064,-6.6625 0,-1.23674 10.72366,-7.600058 12.80786,-7.600058 1.0052,0 6.02642,9.978458 6.02642,11.976058 0,1.23674 -10.72367,7.60006 -12.80786,7.60006 -0.47583,0 -2.02644,-2.39111 -3.44578,-5.31356 z M 288.49776,94.323442 c -3.16566,-3.31575 -5.75574,-6.634273 -5.75574,-7.374493 0,-1.729285 7.78691,-9.732281 9.46951,-9.732281 1.66868,0 12.78918,11.654345 12.78918,13.403139 0,1.729285 -7.78691,9.732283 -9.4695,9.732283 -0.70274,0 -3.86779,-2.712889 -7.03345,-6.028648 z m 54.79063,-7.118587 c -3.16566,-3.315753 -5.75574,-6.634276 -5.75574,-7.374497 0,-1.729284 7.78691,-9.73228 9.4695,-9.73228 1.66869,0 12.78919,11.654344 12.78919,13.403138 0,1.729285 -7.78691,9.732281 -9.46951,9.732281 -0.70274,0 -3.86779,-2.712889 -7.03344,-6.028642 z M 72.599865,199.56744 c 15.04626,-10.04839 28.188095,-18.24139 29.259755,-18.24139 1.07,0 9.77753,3.20336 19.35007,7.11859 16.02948,6.55615 19.41914,7.73647 19.41914,6.76197 0,-1.29553 -31.27248,-78.87889 -33.10412,-82.12746 -5.50473,-9.76308 -17.011535,-19.681107 -27.346015,-23.570293 -6.29102,-2.367498 -19.15085,-3.179374 -25.92982,-1.637019 -8.65621,1.969467 -15.36958,5.948684 -22.41351,13.285162 -9.69224,10.09476 -13.59984,19.74443 -13.61918,33.63196 -0.0104,7.50289 1.10319,14.81876 2.6141,17.1729 0.70064,1.09168 1.58427,0.44349 4.85218,-3.55929 7.15905,-8.76894 16.83491,-18.1778 21.82874,-21.2264 10.08797,-6.15844 21.98698,-9.87164 31.73111,-9.90199 6.60392,-0.0206 8.57198,1.94803 9.90568,9.90838 2.54585,15.19519 -0.61764,31.49034 -8.6251,44.42792 -1.6413,2.65184 -10.45903,13.57277 -19.59495,24.26871 -15.49223,18.13764 -18.32864,21.92963 -16.40337,21.92963 0.41854,0 13.05242,-8.20862 28.07529,-18.24138 z m 154.697555,-1.98927 c 6.00996,-6.23283 10.92722,-11.93325 10.92722,-12.66762 0,-1.74427 -21.41589,-24.05045 -23.09054,-24.05045 -1.67818,0 -23.13905,22.25942 -23.13905,24.00004 0,1.74427 21.41588,24.05045 23.09054,24.05045 0.70653,0 6.20185,-5.09959 12.21183,-11.33242 z M 52.924415,183.4034 c 15.03712,-17.57984 18.23588,-22.3457 20.87417,-31.10056 1.99618,-6.62405 3.02648,-17.18807 1.85297,-18.99899 -2.17352,-3.35408 -19.36089,3.7953 -27.63692,11.49604 -6.6302,6.16933 -20.39147,23.48035 -20.39147,25.6515 0,1.4641 2.4616,9.10727 8.73245,27.11394 0.4687,1.34586 1.19192,2.44702 1.60716,2.44702 0.41524,0 7.14798,-7.47403 14.96164,-16.60895 z"
     style="fill:#6c4921;stroke-width:0.87280083" />
  <path
     inkscape:connector-curvature="0"
     id="path49"
     d="m 59.319745,421.04183 c -8.982,-2.50875 -17.07823,-9.16663 -20.95184,-17.2296 -1.06603,-2.21894 -10.08364,-32.30011 -20.03914,-66.84705 L 0.22785518,274.15258 v -11.51215 c 0,-8.38799 0.32267,-11.98846 1.18903002,-13.26732 0.65397,-0.96535 7.78103,-6.13566 15.8379098,-11.48957 11.41894,-7.58803 14.64889,-10.15084 14.64889,-11.62318 0,-1.03884 -5.41623,-17.68046 -12.03606,-36.98137 -6.61983,-19.30091 -12.5854598,-37.49509 -13.2569498,-40.43151 -0.67149,-2.93642 -1.22659,-9.17899 -1.23355,-13.87239 -0.0361,-24.34559 12.8208798,-45.426426 33.9475698,-55.661837 8.33449,-4.037875 15.42844,-5.627092 25.188,-5.642727 17.57275,-0.02815 32.53149,6.937461 45.438795,21.158798 6.15421,6.780756 9.99137,13.272696 14.83504,25.098886 4.59403,11.21667 4.47048,11.18159 10.48597,2.97748 18.47878,-25.201906 42.58037,-38.223293 74.36872,-40.17926 l 10.00684,-0.615731 1.4311,-5.338943 c 3.82422,-14.26687 12.39391,-25.104218 24.85041,-31.426118 4.3888,-2.227395 9.48541,-4.04935 12.84155,-4.590637 7.40895,-1.194939 90.28662,-1.183187 97.59581,0.01384 18.90163,3.095522 35.51281,20.360987 38.49104,40.007124 0.5453,3.597199 0.87923,33.253405 0.88325,78.442715 l 0.007,72.65887 6.01469,4.6345 c 3.30808,2.54897 6.39005,5.36349 6.84883,6.25449 0.45877,0.891 0.83414,8.31736 0.83414,16.50302 v 14.88302 l -18.10091,62.8126 c -9.9555,34.54694 -18.97312,64.6281 -20.03914,66.84705 -2.39197,4.9789 -7.57209,10.62594 -12.50067,13.62745 -8.67407,5.2825 -0.9569,5.03402 -154.36192,4.97005 -120.801695,-0.0504 -141.090515,-0.24161 -145.122955,-1.3679 z M 120.91417,409.1656 c 5.55714,-1.11435 8.58532,-4.89636 8.58532,-10.72255 0,-5.82618 -3.02818,-9.60819 -8.58532,-10.72254 -5.18058,-1.03885 -71.980605,-1.03875 -73.560585,1e-4 -1.91924,1.26193 1.03764,9.98731 4.88422,14.41271 3.68175,4.23578 6.82594,6.04634 12.11473,6.97619 5.42992,0.95467 51.851005,1.0007 56.561635,0.0561 z m 75.33712,0 c 5.55713,-1.11435 8.58531,-4.89636 8.58531,-10.72255 0,-5.82618 -3.02818,-9.60819 -8.58531,-10.72254 -4.6624,-0.93494 -52.28143,-1.08111 -53.4822,-0.16417 -0.48465,0.37008 -0.8561,5.09377 -0.8561,10.88671 0,5.79294 0.37145,10.51663 0.8561,10.88672 1.20077,0.91694 48.8198,0.77077 53.4822,-0.16417 z m 89.03476,0 c 5.55714,-1.11435 8.58532,-4.89636 8.58532,-10.72255 0,-5.82618 -3.02818,-9.60819 -8.58532,-10.72254 -4.65685,-0.93383 -65.97572,-1.08367 -67.17985,-0.16417 -0.48464,0.37008 -0.8561,5.09377 -0.8561,10.88671 0,5.79294 0.37146,10.51663 0.8561,10.88672 1.20413,0.9195 62.523,0.76965 67.17985,-0.16417 z m 65.08815,-1.49368 c 5.26168,-2.49279 9.81166,-7.99537 11.66539,-14.10771 1.32059,-4.3544 1.35798,-5.13482 0.28002,-5.8436 -1.46847,-0.96553 -53.92485,-1.1217 -55.17864,-0.16427 -0.48465,0.37008 -0.8561,5.09377 -0.8561,10.88671 0,5.75746 0.37442,10.54218 0.8561,10.93994 0.47086,0.38884 9.52415,0.57357 20.11844,0.41053 17.23233,-0.2652 19.66832,-0.48879 23.11479,-2.1216 z M 61.439255,373.73682 c 0.48464,-0.37009 0.8561,-5.09378 0.8561,-10.88672 0,-5.79294 -0.37146,-10.51663 -0.8561,-10.88672 -1.23866,-0.94586 -22.88436,-0.80528 -24.34936,0.15814 -1.04967,0.6903 -0.85869,2.18602 1.2753,9.98769 1.38042,5.04669 3.18802,9.88068 4.01689,10.7422 1.23468,1.2833 3.01559,1.56394 9.85405,1.55278 4.59086,-0.007 8.73226,-0.30781 9.20312,-0.66737 z m 89.034775,0 c 0.48464,-0.37009 0.8561,-5.09378 0.8561,-10.88672 0,-5.79294 -0.37146,-10.51663 -0.8561,-10.88672 -1.20413,-0.9195 -62.523005,-0.76965 -67.179855,0.16418 -5.55714,1.11435 -8.58532,4.89636 -8.58532,10.72254 0,5.62638 3.09572,9.67017 8.18201,10.68776 4.37364,0.87501 66.458485,1.05778 67.583165,0.19896 z m 95.88359,0 c 0.48465,-0.37009 0.8561,-5.09378 0.8561,-10.88672 0,-5.79294 -0.37145,-10.51663 -0.8561,-10.88672 -1.20533,-0.92042 -69.37384,-0.76925 -74.02868,0.16418 -5.55713,1.11435 -8.58531,4.89636 -8.58531,10.72254 0,5.62638 3.09572,9.67017 8.182,10.68776 4.37088,0.87445 73.30609,1.05873 74.43199,0.19896 z m 68.48828,0 c 0.48465,-0.37009 0.85611,-5.09378 0.85611,-10.88672 0,-5.79294 -0.37146,-10.51663 -0.85611,-10.88672 -1.19834,-0.91508 -41.967,-0.77156 -46.63336,0.16418 -5.55714,1.11435 -8.58531,4.89636 -8.58531,10.72254 0,5.62638 3.09572,9.67017 8.182,10.68776 4.38678,0.87764 45.91787,1.05331 47.03667,0.19896 z m 52.44521,-0.88541 c 0.82887,-0.86152 2.63647,-5.69551 4.01689,-10.7422 2.13399,-7.80167 2.32497,-9.29739 1.2753,-9.98769 -1.56082,-1.02644 -30.75816,-1.02153 -35.88248,0.006 -5.55714,1.11416 -8.58531,4.89617 -8.58531,10.72235 0,3.58767 0.45302,4.94804 2.4033,7.21675 3.08294,3.58631 5.87599,4.12061 22.20968,4.24863 11.40421,0.0894 13.24619,-0.0958 14.56262,-1.46407 z M 39.480195,337.94718 c 1.13523,-0.007 3.28014,-1.3304 4.9226,-3.03755 2.54692,-2.64724 2.91075,-3.59088 2.91075,-7.54946 0,-7.89804 -4.96268,-11.53855 -15.83792,-11.61835 -6.07442,-0.0446 -6.21797,0.41251 -3.38367,10.77444 2.70213,9.87878 4.53676,12.79253 7.52932,11.95811 1.01589,-0.28327 2.75241,-0.52051 3.85892,-0.52719 z m 74.585155,0.0325 c 5.55714,-1.11432 8.58531,-4.89633 8.58531,-10.72251 0,-5.82618 -3.02817,-9.60819 -8.58531,-10.72255 -4.6624,-0.93493 -52.281425,-1.0811 -53.482205,-0.16417 -0.48464,0.37009 -0.8561,5.09378 -0.8561,10.88672 0,5.79294 0.37146,10.51663 0.8561,10.88672 1.20078,0.91694 48.819805,0.77076 53.482205,-0.16417 z m 89.03476,0 c 5.55714,-1.11432 8.58532,-4.89633 8.58532,-10.72251 0,-5.82618 -3.02818,-9.60819 -8.58532,-10.72255 -4.65685,-0.93382 -65.97572,-1.08367 -67.17984,-0.16417 -0.48465,0.37009 -0.85611,5.09378 -0.85611,10.88672 0,5.79294 0.37146,10.51663 0.85611,10.88672 1.20412,0.9195 62.52299,0.76965 67.17984,-0.16417 z m 75.33711,0 c 5.55714,-1.11432 8.58532,-4.89633 8.58532,-10.72251 0,-5.82618 -3.02818,-9.60819 -8.58532,-10.72255 -4.66239,-0.93493 -52.28142,-1.0811 -53.48219,-0.16417 -0.48465,0.37009 -0.8561,5.09378 -0.8561,10.88672 0,5.79294 0.37145,10.51663 0.8561,10.88672 1.20077,0.91694 48.8198,0.77076 53.48219,-0.16417 z m 68.48829,0 c 5.55714,-1.11432 8.58531,-4.89633 8.58531,-10.72251 0,-5.82618 -3.02817,-9.60819 -8.58531,-10.72255 -4.66637,-0.93573 -45.43502,-1.07925 -46.63337,-0.16417 -0.48464,0.37009 -0.8561,5.09378 -0.8561,10.88672 0,5.79294 0.37146,10.51663 0.8561,10.88672 1.19835,0.91508 41.967,0.77156 46.63337,-0.16417 z m 30.63884,-0.72124 c 0.82887,-0.86152 2.63647,-5.69551 4.0169,-10.7422 2.13398,-7.80167 2.32496,-9.29739 1.27529,-9.98768 -1.47035,-0.96695 -12.84954,-1.09479 -14.07611,-0.15814 -0.48465,0.37008 -0.85611,5.09377 -0.85611,10.88671 0,5.79294 0.37146,10.51664 0.85611,10.88672 1.66047,1.26797 7.25466,0.70408 8.78392,-0.88541 z M 61.439255,302.55092 c 0.48464,-0.37009 0.8561,-5.09378 0.8561,-10.88672 0,-5.79294 -0.37146,-10.51663 -0.8561,-10.88672 -1.24614,-0.95159 -43.43435,-0.80298 -44.89584,0.15814 -1.04968,0.6903 -0.85869,2.18601 1.27529,9.98768 1.38042,5.04669 3.18802,9.88069 4.0169,10.74221 1.34713,1.4002 3.48276,1.56496 20.12729,1.55277 10.24114,-0.007 19.0055,-0.3078 19.47636,-0.66736 z m 75.337115,0 c 0.48465,-0.37009 0.8561,-5.09378 0.8561,-10.88672 0,-5.79294 -0.37145,-10.51663 -0.8561,-10.88672 -1.20077,-0.91694 -48.819795,-0.77077 -53.482195,0.16417 -5.55714,1.11436 -8.58532,4.89637 -8.58532,10.72255 0,5.62637 3.09572,9.67017 8.18201,10.68775 4.38129,0.87654 52.764235,1.05519 53.885505,0.19897 z m 95.88359,0 c 0.48465,-0.37009 0.85611,-5.09378 0.85611,-10.88672 0,-5.79294 -0.37146,-10.51663 -0.85611,-10.88672 -1.20533,-0.92042 -69.37384,-0.76925 -74.02867,0.16417 -5.55714,1.11436 -8.58532,4.89637 -8.58532,10.72255 0,5.62637 3.09573,9.67017 8.18201,10.68775 4.37088,0.87446 73.30608,1.05873 74.43198,0.19897 z m 89.03477,0 c 0.48465,-0.37009 0.85611,-5.09378 0.85611,-10.88672 0,-5.79294 -0.37146,-10.51663 -0.85611,-10.88672 -1.20412,-0.9195 -62.52299,-0.76965 -67.17985,0.16417 -5.55714,1.11436 -8.58531,4.89637 -8.58531,10.72255 0,5.62637 3.09572,9.67017 8.182,10.68775 4.37365,0.87502 66.45849,1.05779 67.58316,0.19897 z m 66.14286,-0.88541 c 0.82887,-0.86152 2.63647,-5.69552 4.0169,-10.74221 2.13398,-7.80167 2.32496,-9.29738 1.27529,-9.98768 -1.56366,-1.02831 -44.44804,-1.02309 -49.58013,0.006 -5.55714,1.11416 -8.58531,4.89617 -8.58531,10.72235 0,3.58767 0.45302,4.94803 2.4033,7.21675 3.25049,3.78122 5.62332,4.12815 29.0585,4.24863 17.93951,0.0922 20.05318,-0.0523 21.41145,-1.46407 z m -134.4086,-38.92058 c 0.12241,-2.44702 -0.0747,-4.91901 -0.43809,-5.49333 -0.36336,-0.57431 -34.29284,-14.71741 -75.39884,-31.4291 l -74.7382,-30.3849 -13.430425,8.93142 c -7.38673,4.91228 -27.68455,18.46228 -45.10625,30.11111 l -31.67583,21.17967 -0.26265,4.77124 c -0.14446,2.62417 -0.0597,5.32087 0.1883,5.99266 0.37983,1.02882 19.38921,1.18587 120.545195,0.99589 l 120.09425,-0.22555 z m 143.00358,3.82624 c 0.64872,-0.67428 1.02733,-4.05619 1.02733,-9.17667 0,-7.7014 -0.11831,-8.2232 -2.35429,-10.38357 -3.90524,-3.77321 -46.09133,-36.3207 -47.07669,-36.3207 -1.1899,0 -78.94398,43.43969 -80.91079,45.20327 -1.7645,1.58219 -2.0913,8.99339 -0.47085,10.67767 1.48697,1.54554 128.29832,1.54554 129.78529,0 z M 268.41426,240.38403 c 6.15754,-3.42266 7.93548,-4.933 10.79526,-9.17047 22.8386,-33.84107 19.90189,-78.57178 -7.11577,-108.38452 -11.38068,-12.55806 -24.24714,-20.62245 -39.75818,-24.919448 -11.36726,-3.14906 -28.56656,-3.334384 -39.71927,-0.427979 -16.04007,4.180057 -29.0994,12.044087 -40.48511,24.379207 -7.1968,7.79694 -14.55149,19.03002 -15.42215,23.55484 -0.40779,2.11925 1.50316,7.80257 9.1061,27.08221 5.2922,13.42005 10.14816,24.99206 10.79102,25.71557 1.01418,1.14142 2.09806,0.34965 8.19158,-5.98388 l 7.02275,-7.29937 -9.17505,-9.67751 c -5.04628,-5.32262 -9.17505,-9.8525 -9.17505,-10.06639 0,-0.21389 1.91349,-2.34784 4.25221,-4.74213 l 4.25222,-4.35324 9.46845,9.69795 9.46846,9.69794 12.57787,-13.07329 12.57787,-13.07328 -9.17647,-9.67901 c -5.04706,-5.32346 -9.17647,-9.854 -9.17647,-10.06789 0,-0.21389 1.91349,-2.34784 4.25221,-4.74213 l 4.25222,-4.35324 9.44544,9.67437 9.44544,9.67438 9.28921,-9.51435 c 5.10905,-5.23289 9.45756,-9.51434 9.66334,-9.51434 0.20578,0 2.25887,1.98886 4.56242,4.4197 l 4.18828,4.4197 -9.33044,9.8414 -9.33044,9.84141 12.57788,13.07328 12.57786,13.07329 9.31222,-9.53791 c 5.12172,-5.24585 9.48058,-9.53792 9.68636,-9.53792 0.20578,0 2.25887,1.98887 4.56243,4.4197 l 4.18827,4.41971 -9.30776,9.81747 -9.30776,9.81748 9.15379,9.65509 c 5.03459,5.31029 9.1538,9.83008 9.1538,10.04397 0,0.21388 -1.9135,2.34784 -4.25222,4.74213 l -4.25221,4.35324 -9.46846,-9.69795 -9.46846,-9.69794 -12.59465,13.09073 -12.59465,13.09074 8.51831,8.88718 c 8.19902,8.55407 8.84043,9.01882 17.11221,12.39917 4.72665,1.93159 9.20131,3.336 9.94369,3.1209 0.74237,-0.2151 4.66701,-2.23495 8.7214,-4.48857 z m -62.99883,-19.46946 c 0.15554,-0.49415 -5.30182,-6.69271 -12.12749,-13.77456 l -12.4103,-12.8761 -5.99869,6.18719 c -3.29928,3.40296 -5.9987,6.66819 -5.9987,7.25608 0,1.36403 31.40992,14.47123 34.17812,14.26236 1.14084,-0.086 2.2015,-0.56082 2.35706,-1.05497 z m 118.90343,-11.98774 c 12.62475,-7.07422 23.19696,-12.44828 24.50723,-12.45753 1.63325,-0.0115 6.6842,3.37951 17.34344,11.64374 9.59006,7.43528 15.51261,11.47112 16.34597,11.13872 1.15911,-0.46231 1.27929,-8.29582 1.06279,-69.27607 l -0.2441,-68.754815 -1.93853,-4.89403 C 377.42061,66.291381 370.30018,58.89086 360.64744,54.762462 c -4.65665,-1.991613 -5.20657,-2.016764 -49.87511,-2.281074 -48.27981,-0.28568 -51.69913,-0.05644 -59.70614,4.00289 -8.96335,4.544171 -18.0694,16.862736 -18.3121,24.772425 l -0.0941,3.067634 9.5234,3.400268 c 31.27157,11.165306 53.44475,36.308555 62.11799,70.438615 3.87648,15.25435 2.84861,38.58204 -2.40777,54.64517 -2.32491,7.10477 -2.4785,8.55973 -0.90354,8.55973 0.61927,0 11.11724,-5.59858 23.32882,-12.44129 z m 3.57955,-21.43069 -4.92566,-2.64255 3.0102,-6.21289 c 1.6556,-3.41709 3.20896,-6.21289 3.45189,-6.21289 0.24294,0 2.74383,1.20788 5.55754,2.68419 l 5.11585,2.68418 -3.01077,6.21406 c -1.65591,3.41772 -3.29485,6.19479 -3.64207,6.17125 -0.34722,-0.0235 -2.84786,-1.23195 -5.55698,-2.68535 z m 25.47928,-10.60449 -3.01076,-6.21406 5.11585,-2.68418 c 2.81371,-1.47631 5.3146,-2.68419 5.55754,-2.68419 0.24293,0 1.79654,2.79633 3.45246,6.21405 l 3.01076,6.21406 -5.11584,2.68418 c -2.81372,1.4763 -5.31461,2.68419 -5.55755,2.68419 -0.24293,0 -1.79654,-2.79633 -3.45246,-6.21405 z m -30.82978,-23.27217 c -5.63614,-5.14352 -5.60338,-5.56668 0.96359,-12.44501 3.21323,-3.36559 6.1281,-6.11926 6.47749,-6.11926 1.01959,0 6.66792,5.41781 7.66288,7.35014 0.78797,1.53031 0.12698,2.58717 -4.93235,7.88638 -3.21324,3.36559 -6.12811,6.11925 -6.47749,6.11925 -0.34939,0 -2.01174,-1.25617 -3.69412,-2.7915 z m 30.82978,-26.55796 -3.01076,-6.21406 5.11585,-2.68418 c 2.81371,-1.47631 5.3146,-2.68419 5.55754,-2.68419 0.24293,0 1.79654,2.79632 3.45246,6.21405 l 3.01076,6.21405 -5.11584,2.68419 c -2.81372,1.4763 -5.31461,2.68418 -5.55755,2.68418 -0.24293,0 -1.79654,-2.79632 -3.45246,-6.21404 z M 322.13694,110.1693 c -1.42036,-2.92454 -2.58247,-5.52394 -2.58247,-5.77645 0,-0.2525 2.69036,-1.8673 5.97857,-3.58844 l 5.97857,-3.129349 2.58246,5.317339 c 1.42037,2.92454 2.58247,5.52394 2.58247,5.77645 0,0.2525 -2.69035,1.8673 -5.97856,3.58844 l -5.97857,3.12935 z M 289.26735,93.343007 c -5.05932,-5.299203 -5.72031,-6.356065 -4.93234,-7.886377 0.99495,-1.932331 6.64328,-7.350138 7.66288,-7.350138 0.34938,0 3.26425,2.753664 6.47749,6.119253 5.05932,5.299206 5.72031,6.356068 4.93235,7.886381 -0.99496,1.932329 -6.64329,7.350137 -7.66288,7.350137 -0.34939,0 -3.26426,-2.753666 -6.4775,-6.119256 z m 54.79063,-7.118587 c -5.05932,-5.299206 -5.72031,-6.356068 -4.93235,-7.886381 0.99496,-1.93233 6.64329,-7.350137 7.66288,-7.350137 0.34939,0 3.26426,2.753664 6.4775,6.119253 5.05932,5.299206 5.72031,6.356067 4.93234,7.88638 -0.99495,1.932331 -6.64328,7.350138 -7.66288,7.350138 -0.34938,0 -3.26425,-2.753664 -6.47749,-6.119253 z M 72.351555,200.87469 c 14.66785,-9.80317 27.51659,-18.04511 28.552775,-18.31541 1.20335,-0.31392 8.29648,2.10702 19.63386,6.70115 9.76245,3.95594 18.51095,7.19262 19.44114,7.19262 1.32709,0 1.58661,-0.43106 1.20536,-2.0021 -1.16824,-4.81388 -30.58144,-77.66427 -33.19181,-82.20921 -6.18615,-10.77078 -18.180615,-20.593787 -29.859605,-24.45386 -7.25217,-2.396943 -18.94565,-2.577864 -26.11116,-0.403989 -16.11011,4.887492 -28.76794,18.046239 -33.44532,34.768879 -2.88537,10.31581 -0.89298,31.62076 2.95243,31.57071 0.76195,-0.01 4.27472,-3.65723 7.80614,-8.10513 13.31901,-16.77556 28.06555,-25.30908 46.87598,-27.12618 10.45972,-1.01043 12.49896,2.18708 12.54942,19.67742 0.0324,11.20824 -1.80542,18.90339 -6.95964,29.14158 -3.25181,6.45931 -3.2656,6.47703 -23.71176,30.47662 -7.50493,8.80925 -14.19317,16.69233 -14.86275,17.51795 -1.3598,1.67668 -0.76201,3.39291 1.1818,3.39291 0.70088,0 13.2753,-8.02078 27.94314,-17.82396 z m 155.603555,-3.09077 12.39508,-12.90633 -12.62017,-13.11725 -12.62018,-13.11726 -12.62017,13.11726 -12.62017,13.11725 12.39507,12.90633 c 6.81729,7.09847 12.59766,12.90631 12.84527,12.90631 0.24761,0 6.02798,-5.80784 12.84527,-12.90631 z M 53.362535,184.38312 c 15.65458,-18.38018 18.92829,-23.18334 21.35324,-31.32918 1.93147,-6.48818 3.0263,-15.95229 2.22789,-19.25873 -0.673,-2.78704 -3.08884,-2.99612 -9.99838,-0.86532 -11.65037,3.59281 -19.26752,9.37836 -30.18036,22.92325 -12.37686,15.36205 -11.73404,11.94304 -5.59698,29.76878 3.9635,11.51241 5.61386,15.28025 6.69293,15.28025 0.78772,0 7.76347,-7.43358 15.50166,-16.51905 z"
     style="fill:#060402;stroke-width:0.87280083" />
</svg>
