<?xml version="1.0" encoding="UTF-8" standalone="no"?>
<svg
   xmlns:dc="http://purl.org/dc/elements/1.1/"
   xmlns:cc="http://creativecommons.org/ns#"
   xmlns:rdf="http://www.w3.org/1999/02/22-rdf-syntax-ns#"
   xmlns:svg="http://www.w3.org/2000/svg"
   xmlns="http://www.w3.org/2000/svg"
   xmlns:sodipodi="http://sodipodi.sourceforge.net/DTD/sodipodi-0.dtd"
   xmlns:inkscape="http://www.inkscape.org/namespaces/inkscape"
   height="451pt"
   viewBox="0 0 451 451.448"
   width="451pt"
   version="1.1"
   id="svg34"
   sodipodi:docname="usd.svg"
   inkscape:version="0.92.4 (5da689c313, 2019-01-14)">
  <metadata
     id="metadata40">
    <rdf:RDF>
      <cc:Work
         rdf:about="">
        <dc:format>image/svg+xml</dc:format>
        <dc:type
           rdf:resource="http://purl.org/dc/dcmitype/StillImage" />
        <dc:title />
      </cc:Work>
    </rdf:RDF>
  </metadata>
  <defs
     id="defs38" />
  <sodipodi:namedview
     pagecolor="#ffffff"
     bordercolor="#666666"
     borderopacity="1"
     objecttolerance="10"
     gridtolerance="10"
     guidetolerance="10"
     inkscape:pageopacity="0"
     inkscape:pageshadow="2"
     inkscape:window-width="1024"
     inkscape:window-height="744"
     id="namedview36"
     showgrid="false"
     inkscape:zoom="0.27751197"
     inkscape:cx="408.32228"
     inkscape:cy="312.34823"
     inkscape:window-x="0"
     inkscape:window-y="0"
     inkscape:window-maximized="1"
     inkscape:current-layer="svg34" />
  <flowRoot
     xml:space="preserve"
     id="flowRoot847"
     style="fill:black;fill-opacity:1;stroke:none;font-family:'Lobster Two';font-style:normal;font-weight:bold;font-size:40px;line-height:1.25;letter-spacing:0px;word-spacing:0px;-inkscape-font-specification:'Lobster Two Bold';font-stretch:normal;font-variant:normal;"><flowRegion
       id="flowRegion849"
       style="-inkscape-font-specification:'Lobster Two Bold';font-family:'Lobster Two';font-weight:bold;font-style:normal;font-stretch:normal;font-variant:normal;"><rect
         id="rect851"
         width="596.2373"
         height="598.78534"
         x="7.6440678"
         y="2.5480225"
         style="-inkscape-font-specification:'Lobster Two Bold';font-family:'Lobster Two';font-weight:bold;font-style:normal;font-stretch:normal;font-variant:normal;" /></flowRegion><flowPara
       id="flowPara853" /></flowRoot>  <g
     aria-label="$USD"
     transform="matrix(0.75074504,0,0,0.75074504,5.514746,67.465256)"
     style="font-style:normal;font-weight:normal;font-size:40px;line-height:1.25;font-family:sans-serif;letter-spacing:0px;word-spacing:0px;fill:#000000;fill-opacity:1;stroke:none"
     id="flowRoot855">
    <path
       d="m 94.926904,158.85131 q 0,6.13334 -2.208,10.05867 -2.208,3.68 -6.869333,3.68 -2.944,0 -5.397334,-1.22667 -2.453333,-1.472 -5.152,-4.416 2.208,-1.22666 2.944,-3.92533 0.981333,-2.944 0.981333,-5.64267 0,-5.64267 -4.661333,-10.54933 -4.416,-4.90667 -13.248001,-5.152 v 38.51733 q 6.133334,3.92534 12.757334,7.85067 6.869334,3.68 12.512001,8.832 5.642667,4.90667 9.322667,12.02133 3.925333,6.86934 3.925333,16.68267 0,15.21067 -10.549333,23.06134 -10.304001,7.85066 -27.968002,8.096 v 32.87466 h -8.832 v -33.36533 q -6.378667,-0.736 -12.021334,-2.69867 -5.642667,-2.208 -10.058667,-5.888 -4.170667,-3.68 -6.624,-9.07733 -2.453334,-5.64267 -2.453334,-13.248 0,-8.34134 3.925334,-13.00267 4.170667,-4.90667 10.549334,-4.90667 5.152,0 8.096,1.96267 2.944,1.71733 3.434667,4.17067 -3.68,0.736 -5.642667,4.17066 -1.717333,3.43467 -1.717333,8.34134 0,7.60533 3.68,12.512 3.925333,4.90667 8.832,7.36 v -48.576 q -5.397334,-3.68 -10.794667,-7.11467 -5.152,-3.68 -9.568,-7.85067 -4.170667,-4.17066 -6.869334,-9.07733 -2.698667,-5.152 -2.698667,-11.776 0,-5.39734 2.453334,-10.304 2.453333,-4.90667 6.624,-8.58667 4.170667,-3.68 9.568,-6.13333 5.397334,-2.45334 11.285334,-3.18934 v -26.496 h 8.832 v 26.00534 q 5.152001,0.24533 11.040001,1.22666 5.888,0.98134 10.794667,3.92534 5.152,2.69866 8.341334,7.85066 3.434666,4.90667 3.434666,13.00267 z m -19.872,71.392 q 0,-8.832 -3.925334,-15.21066 -3.925333,-6.37867 -9.813334,-11.28534 v 43.91467 q 7.850667,-0.49066 10.794668,-5.39733 2.944,-5.152 2.944,-12.02134 z m -30.176002,-73.6 q 0,5.39734 1.962667,9.32267 2.208,3.92533 5.642667,7.36 v -29.68534 q -3.925333,2.208 -5.888,5.888 -1.717334,3.68 -1.717334,7.11467 z"
       style="font-style:normal;font-variant:normal;font-weight:bold;font-stretch:normal;font-size:245.33334351px;font-family:'Lobster Two';-inkscape-font-specification:'Lobster Two Bold'"
       id="path1144" />
    <path
       d="M 285.24808,99.480642 V 231.46998 q 0,13.248 -5.152,23.30667 -4.90667,10.05867 -13.248,16.68267 -8.34134,6.624 -18.89067,10.05866 -10.304,3.18934 -21.344,3.18934 -11.04,0 -21.58934,-3.18934 -10.54933,-3.43466 -18.89066,-10.05866 -8.096,-6.624 -13.248,-16.68267 -4.90667,-10.05867 -4.90667,-23.30667 V 113.21931 q -15.94667,4.66133 -24.77867,16.192 -8.58667,11.53067 -8.58667,28.45867 0,7.36 0.98134,12.26667 0.98133,4.90666 2.208,8.096 1.472,2.944 2.944,4.90666 1.472,1.96267 2.45333,3.43467 -14.72,0 -23.30667,-6.624 -8.58666,-6.86933 -8.58666,-22.816 0,-11.776 6.13333,-22.32534 6.37867,-10.54933 17.17333,-18.4 11.04001,-8.096 25.51467,-12.75733 14.47467,-4.661334 30.912,-4.661334 3.18934,0 5.64267,0.245333 2.45333,0.245333 6.37867,0.981331 v 133.70667 q 0,6.624 1.96266,11.77601 1.96267,4.90666 5.152,8.34133 3.43467,3.18933 7.60534,4.90667 4.416,1.71733 8.832,1.71733 4.416,0 8.58667,-1.71733 4.416,-1.71734 7.60533,-4.90667 3.43467,-3.43467 5.39733,-8.34133 2.208,-5.15201 2.208,-11.77601 V 99.480642 Z"
       style="font-style:normal;font-variant:normal;font-weight:bold;font-stretch:normal;font-size:245.33334351px;font-family:'Lobster Two';-inkscape-font-specification:'Lobster Two Bold'"
       id="path1146" />
    <path
       d="m 408.27893,129.90198 q 0,9.32266 -4.17067,15.21066 -3.92533,5.64267 -11.53067,5.64267 -6.86933,0 -12.26667,-5.152 3.43467,-2.45333 5.15201,-7.11467 1.96266,-4.66133 1.96266,-9.568 0,-7.60533 -4.90667,-12.512 -4.90666,-4.90666 -14.96533,-4.90666 -11.04,0 -15.94667,6.13333 -4.90666,6.13333 -4.90666,16.43733 0,12.02134 5.64266,19.62667 5.888,7.60533 14.47467,13.73867 8.58667,5.888 18.4,11.28533 10.05867,5.39734 18.64534,12.75734 8.58666,7.36 14.22933,17.90933 5.888,10.304 5.888,26.496 0,13.73867 -4.66133,23.552 -4.416,9.81334 -12.26667,16.192 -7.85067,6.13334 -18.64533,8.832 -10.79467,2.944 -23.55201,2.944 -11.28533,0 -22.32533,-2.45333 -10.79467,-2.208 -19.38133,-7.36 -8.34134,-5.39733 -13.49334,-13.984 -5.152,-8.832 -5.152,-21.344 0,-8.34134 2.208,-15.21067 2.45334,-6.86933 6.37867,-11.53067 4.17067,-4.66133 9.568,-7.11466 5.39733,-2.69867 11.28533,-2.69867 2.944,0 6.37867,0.736 3.43467,0.736 6.86933,2.69867 3.43467,1.71733 6.37867,4.90666 2.944,3.18934 4.66133,7.85067 -4.416,0 -8.832,0.98133 -4.416,0.98134 -8.096,3.43467 -3.43466,2.45333 -5.64266,6.86933 -2.208,4.17067 -2.208,10.79467 0,12.75734 7.85066,18.4 7.85067,5.39734 19.62667,5.39734 11.776,0 18.15467,-5.64267 6.37867,-5.64267 6.37867,-19.38133 0,-12.75734 -5.39734,-21.58934 -5.152,-8.832 -13.248,-15.456 -8.096,-6.624 -17.41867,-12.26667 -9.07733,-5.888 -17.17333,-12.512 -8.096,-6.86933 -13.49333,-15.94666 -5.152,-9.07734 -5.152,-22.32534 0,-21.344 14.22933,-32.384 14.22933,-11.285334 38.76267,-11.285334 3.43466,0 10.304,0.736 7.11467,0.490664 13.984,3.680004 7.11467,2.944 12.26667,9.32266 5.152,6.13334 5.152,17.17334 z"
       style="font-style:normal;font-variant:normal;font-weight:bold;font-stretch:normal;font-size:245.33334351px;font-family:'Lobster Two';-inkscape-font-specification:'Lobster Two Bold'"
       id="path1148" />
    <path
       d="m 509.29876,122.05131 v 137.87734 q 7.85067,4.66133 14.22933,4.66133 7.85067,0 13.49334,-7.11466 5.64266,-7.36 9.07733,-18.89067 3.68,-11.776 5.39733,-26.74134 1.71734,-14.96533 1.71734,-30.42133 0,-15.70133 -2.208,-28.704 -1.96267,-13.248 -7.60534,-22.57067 -5.39733,-9.568 -15.456,-14.72 -9.81333,-5.152 -25.26933,-5.152 -12.02134,0 -21.83467,3.18933 -9.81333,3.18934 -16.928,9.568 -6.86933,6.13334 -10.79467,15.456 -3.68,9.07734 -3.68,21.09867 0,7.11467 1.22667,11.776 1.22667,4.66134 2.69867,7.85067 1.472,3.18933 2.69866,4.90667 1.472,1.71733 1.96267,2.45333 -14.72,0 -23.552,-6.86933 -8.58667,-6.86934 -8.58667,-22.08001 0,-12.02133 5.888,-22.816 5.888,-10.79466 16.43734,-18.64533 10.54933,-7.85067 25.26933,-12.512 14.72,-4.661334 32.62933,-4.661334 22.08001,0 37.78134,7.114664 15.70133,7.11467 25.51467,19.38134 10.05866,12.26666 14.47466,28.45866 4.66134,16.19201 4.66134,34.59201 0,16.68266 -3.43467,33.856 -3.43467,17.17333 -9.81333,31.15733 -6.37867,13.984 -15.21067,22.816 -8.832,8.832 -19.872,8.832 -5.64267,0 -13.73867,-2.69866 -7.85066,-2.69867 -17.17333,-9.07734 v 9.568 h -35.57334 v -156.032 z"
       style="font-style:normal;font-variant:normal;font-weight:bold;font-stretch:normal;font-size:245.33334351px;font-family:'Lobster Two';-inkscape-font-specification:'Lobster Two Bold'"
       id="path1150" />
  </g>
  <flowRoot
     xml:space="preserve"
     id="flowRoot863"
     style="fill:black;fill-opacity:1;stroke:none;font-family:sans-serif;font-style:normal;font-weight:normal;font-size:40px;line-height:1.25;letter-spacing:0px;word-spacing:0px"><flowRegion
       id="flowRegion865"><rect
         id="rect867"
         width="387.29944"
         height="203.84181"
         x="-152.88136"
         y="50.960453" /></flowRegion><flowPara
       id="flowPara869" /></flowRoot></svg>
