<?xml version="1.0" encoding="UTF-8" standalone="no"?>
<svg
   xmlns:dc="http://purl.org/dc/elements/1.1/"
   xmlns:cc="http://creativecommons.org/ns#"
   xmlns:rdf="http://www.w3.org/1999/02/22-rdf-syntax-ns#"
   xmlns:svg="http://www.w3.org/2000/svg"
   xmlns="http://www.w3.org/2000/svg"
   xmlns:sodipodi="http://sodipodi.sourceforge.net/DTD/sodipodi-0.dtd"
   xmlns:inkscape="http://www.inkscape.org/namespaces/inkscape"
   height="451pt"
   viewBox="0 0 451 451.448"
   width="451pt"
   version="1.1"
   id="svg34"
   sodipodi:docname="vef.svg"
   inkscape:version="0.92.4 (5da689c313, 2019-01-14)">
  <metadata
     id="metadata40">
    <rdf:RDF>
      <cc:Work
         rdf:about="">
        <dc:format>image/svg+xml</dc:format>
        <dc:type
           rdf:resource="http://purl.org/dc/dcmitype/StillImage" />
        <dc:title />
      </cc:Work>
    </rdf:RDF>
  </metadata>
  <defs
     id="defs38" />
  <sodipodi:namedview
     pagecolor="#ffffff"
     bordercolor="#666666"
     borderopacity="1"
     objecttolerance="10"
     gridtolerance="10"
     guidetolerance="10"
     inkscape:pageopacity="0"
     inkscape:pageshadow="2"
     inkscape:window-width="1024"
     inkscape:window-height="744"
     id="namedview36"
     showgrid="false"
     inkscape:zoom="0.3924612"
     inkscape:cx="298.43037"
     inkscape:cy="396.54111"
     inkscape:window-x="0"
     inkscape:window-y="0"
     inkscape:window-maximized="1"
     inkscape:current-layer="a18" />
  <flowRoot
     xml:space="preserve"
     id="flowRoot847"
     style="fill:black;fill-opacity:1;stroke:none;font-family:'Lobster Two';font-style:normal;font-weight:bold;font-size:40px;line-height:1.25;letter-spacing:0px;word-spacing:0px;-inkscape-font-specification:'Lobster Two Bold';font-stretch:normal;font-variant:normal;"><flowRegion
       id="flowRegion849"
       style="-inkscape-font-specification:'Lobster Two Bold';font-family:'Lobster Two';font-weight:bold;font-style:normal;font-stretch:normal;font-variant:normal;"><rect
         id="rect851"
         width="596.2373"
         height="598.78534"
         x="7.6440678"
         y="2.5480225"
         style="-inkscape-font-specification:'Lobster Two Bold';font-family:'Lobster Two';font-weight:bold;font-style:normal;font-stretch:normal;font-variant:normal;" /></flowRegion><flowPara
       id="flowPara853" /></flowRoot>  <g
     aria-label="VEF"
     transform="matrix(0.75074504,0,0,0.75074504,5.514746,34.432476)"
     style="font-style:normal;font-weight:normal;font-size:40px;line-height:1.25;font-family:sans-serif;letter-spacing:0px;word-spacing:0px;fill:#000000;fill-opacity:1;stroke:none"
     id="flowRoot855">
    <a
       id="a18">
      <text
         xml:space="preserve"
         style="font-style:normal;font-weight:normal;font-size:40px;line-height:1.25;font-family:sans-serif;letter-spacing:0px;word-spacing:0px;fill:#000000;fill-opacity:1;stroke:none"
         x="535.08478"
         y="40.76836"
         id="text3726"><tspan
           sodipodi:role="line"
           id="tspan3724"
           x="535.08478"
           y="76.158981"></tspan></text>
      <g
         aria-label="VES"
         transform="translate(-34.60452,18.37288)"
         style="font-style:normal;font-weight:normal;font-size:40px;line-height:1.25;font-family:sans-serif;letter-spacing:0px;word-spacing:0px;fill:#000000;fill-opacity:1;stroke:none"
         id="flowRoot3744">
        <path
           d="m 222.62731,298.43159 42.944,-199.10401 h 24.07467 l -54.656,242.37334 H 186.84064 L 127.95531,119.49825 q -17.24267,6.832 -26.352,21.472 -9.109335,14.64 -9.109335,34.81067 0,9.76 1.301333,16.26666 1.626667,6.50667 3.253334,10.736 1.952,4.22934 3.903998,6.832 1.952,2.27734 2.928,4.22934 -19.519998,0 -30.906666,-8.784 -11.386667,-9.10934 -11.386667,-30.58134 0,-15.616 8.133334,-29.28 8.133334,-13.98933 21.472001,-24.4 13.663998,-10.736 30.906668,-16.91733 17.568,-6.181337 36.112,-6.181337 3.57867,0 6.832,0.325334 3.57867,0 6.832,0.325333 z"
           style="font-style:normal;font-variant:normal;font-weight:bold;font-stretch:normal;font-size:325.33334351px;font-family:'Lobster Two';-inkscape-font-specification:'Lobster Two Bold'"
           id="path3752" />
        <path
           d="m 453.66991,286.39425 q -3.57867,14.64 -11.38667,26.02667 -7.808,11.38667 -18.86933,19.19467 -11.06134,7.808 -24.40001,11.712 -13.33866,4.22933 -27.97866,4.22933 -18.544,0 -32.208,-5.856 -13.664,-6.18133 -23.09867,-16.26667 -9.10934,-10.08533 -13.664,-23.09866 -4.55467,-13.01334 -4.55467,-27.00267 0,-10.736 2.60267,-21.79734 2.928,-11.06133 8.45866,-20.496 5.53067,-9.76 13.66401,-16.91733 8.45866,-7.15733 19.52,-10.08533 -15.616,-9.76 -22.77334,-22.448 -6.832,-12.688 -6.832,-26.67734 0,-11.06133 4.22934,-21.79733 4.22933,-11.06134 12.36266,-19.19467 8.45867,-8.45867 20.496,-13.664 12.36267,-5.205333 27.97867,-5.205333 9.43467,0 17.89333,2.277333 8.45867,1.952 14.96534,6.832 6.50666,4.88 10.41067,12.688 3.904,7.48267 3.904,18.544 0,11.38667 -4.22934,19.84534 -4.22933,8.45866 -12.688,8.45866 -3.57867,0 -7.808,-1.62666 -4.22933,-1.952 -8.784,-6.50667 4.55467,-1.62667 7.15733,-8.13334 2.928,-6.832 2.928,-13.664 0,-6.18133 -2.27733,-10.08533 -1.952,-3.904 -5.20533,-5.856 -3.25334,-2.27733 -6.832,-2.928 -3.57867,-0.65067 -6.50667,-0.65067 -7.15733,0 -12.36267,2.928 -5.20533,2.928 -8.45866,7.808 -3.25334,4.88 -4.88,11.38667 -1.62667,6.50667 -1.62667,13.33867 0,9.10933 2.60267,17.568 2.60266,8.45867 7.808,15.616 5.53066,7.15733 13.664,12.688 8.13333,5.20533 19.19466,8.13333 -10.41066,2.60267 -18.544,9.43467 -8.13333,6.50667 -13.664,15.94133 -5.20533,9.10934 -8.13333,19.84534 -2.60267,10.736 -2.60267,20.82133 0,8.784 2.27734,16.91734 2.27733,8.13333 6.832,14.31466 4.88,5.856 12.03733,9.76 7.48267,3.57867 17.89333,3.57867 7.808,0 16.26667,-2.27733 8.45867,-2.27734 15.616,-6.50667 7.48267,-4.22933 13.01334,-10.41067 5.856,-6.18133 8.45866,-13.98933 z"
           style="font-style:normal;font-variant:normal;font-weight:bold;font-stretch:normal;font-size:325.33334351px;font-family:'Lobster Two';-inkscape-font-specification:'Lobster Two Bold'"
           id="path3754" />
        <path
           d="m 578.03365,138.69291 q 0,12.36267 -5.53067,20.17067 -5.20534,7.48267 -15.29067,7.48267 -9.10933,0 -16.26667,-6.832 4.55467,-3.25333 6.832,-9.43467 2.60267,-6.18133 2.60267,-12.688 0,-10.08533 -6.50667,-16.592 -6.50666,-6.50667 -19.84533,-6.50667 -14.64,0 -21.14667,8.13334 -6.50666,8.13333 -6.50666,21.79733 0,15.94134 7.48266,26.02667 7.808,10.08533 19.19467,18.21867 11.38667,7.808 24.4,14.96533 13.33867,7.15733 24.72534,16.91733 11.38666,9.76 18.86933,23.74934 7.808,13.664 7.808,35.136 0,18.21867 -6.18133,31.232 -5.856,13.01333 -16.26667,21.472 -10.41067,8.13333 -24.72534,11.712 -14.31466,3.904 -31.232,3.904 -14.96533,0 -29.60533,-3.25333 -14.31467,-2.928 -25.70133,-9.76 -11.06134,-7.15734 -17.89334,-18.544 -6.832,-11.712 -6.832,-28.304 0,-11.06134 2.928,-20.17067 3.25333,-9.10934 8.45867,-15.29067 5.53066,-6.18133 12.688,-9.43467 7.15733,-3.57866 14.96533,-3.57866 3.904,0 8.45867,0.976 4.55467,0.976 9.10933,3.57866 4.55467,2.27734 8.45867,6.50667 3.904,4.22933 6.18133,10.41067 -5.856,0 -11.712,1.30133 -5.856,1.30134 -10.736,4.55467 -4.55466,3.25333 -7.48266,9.10933 -2.928,5.53067 -2.928,14.31467 0,16.91733 10.41066,24.4 10.41067,7.15733 26.02667,7.15733 15.616,0 24.07467,-7.48266 8.45866,-7.48267 8.45866,-25.70134 0,-16.91733 -7.15733,-28.62933 -6.832,-11.712 -17.568,-20.496 -10.736,-8.784 -23.09867,-16.26667 -12.03733,-7.808 -22.77333,-16.592 -10.736,-9.10933 -17.89334,-21.14667 -6.832,-12.03733 -6.832,-29.60533 0,-28.304 18.86934,-42.944 18.86933,-14.965337 51.40267,-14.965337 4.55466,0 13.664,0.976 9.43466,0.650667 18.544,4.879997 9.43466,3.904 16.26667,12.36267 6.832,8.13333 6.832,22.77333 z"
           style="font-style:normal;font-variant:normal;font-weight:bold;font-stretch:normal;font-size:325.33334351px;font-family:'Lobster Two';-inkscape-font-specification:'Lobster Two Bold'"
           id="path3756" />
      </g>
    </a>
  </g>
  <flowRoot
     xml:space="preserve"
     id="flowRoot863"
     style="fill:black;fill-opacity:1;stroke:none;font-family:sans-serif;font-style:normal;font-weight:normal;font-size:40px;line-height:1.25;letter-spacing:0px;word-spacing:0px"><flowRegion
       id="flowRegion865"><rect
         id="rect867"
         width="387.29944"
         height="203.84181"
         x="-152.88136"
         y="50.960453" /></flowRegion><flowPara
       id="flowPara869" /></flowRoot></svg>
